<?xml version="1.0" standalone="no"?>
<svg width="300" height="300" version="1.1" xmlns="http://www.w3.org/2000/svg">
<circle cx="90.000000" cy="90.000000" r="90.000000" stroke="blue" fill="purple " />
<circle cx="10.000000" cy="90.000000" r="10.000000" stroke="blue" fill="purple " />
<circle cx="10.000000" cy="90.000000" r="10.000000" stroke="blue" fill="purple " />
<circle cx="30.000000" cy="90.000000" r="10.000000" stroke="blue" fill="purple " />
<circle cx="30.000000" cy="90.000000" r="10.000000" stroke="blue" fill="purple " />
<circle cx="50.000000" cy="90.000000" r="10.000000" stroke="blue" fill="purple " />
<circle cx="50.000000" cy="90.000000" r="10.000000" stroke="blue" fill="purple " />
<circle cx="70.000000" cy="90.000000" r="10.000000" stroke="blue" fill="purple " />
<circle cx="70.000000" cy="90.000000" r="10.000000" stroke="blue" fill="purple " />
<circle cx="90.000000" cy="90.000000" r="10.000000" stroke="blue" fill="purple " />
<circle cx="90.000000" cy="90.000000" r="10.000000" stroke="blue" fill="purple " />
<circle cx="110.000000" cy="90.000000" r="10.000000" stroke="blue" fill="purple " />
<circle cx="110.000000" cy="90.000000" r="10.000000" stroke="blue" fill="purple " />
<circle cx="130.000000" cy="90.000000" r="10.000000" stroke="blue" fill="purple " />
<circle cx="130.000000" cy="90.000000" r="10.000000" stroke="blue" fill="purple " />
<circle cx="150.000000" cy="90.000000" r="10.000000" stroke="blue" fill="purple " />
<circle cx="150.000000" cy="90.000000" r="10.000000" stroke="blue" fill="purple " />
<circle cx="170.000000" cy="90.000000" r="10.000000" stroke="blue" fill="purple " />
<circle cx="170.000000" cy="90.000000" r="10.000000" stroke="blue" fill="purple " />
<circle cx="20.000000" cy="72.679492" r="10.000000" stroke="blue" fill="purple " />
<circle cx="20.000000" cy="107.320508" r="10.000000" stroke="blue" fill="purple " />
<circle cx="40.000000" cy="72.679492" r="10.000000" stroke="blue" fill="purple " />
<circle cx="40.000000" cy="107.320508" r="10.000000" stroke="blue" fill="purple " />
<circle cx="60.000000" cy="72.679492" r="10.000000" stroke="blue" fill="purple " />
<circle cx="60.000000" cy="107.320508" r="10.000000" stroke="blue" fill="purple " />
<circle cx="80.000000" cy="72.679492" r="10.000000" stroke="blue" fill="purple " />
<circle cx="80.000000" cy="107.320508" r="10.000000" stroke="blue" fill="purple " />
<circle cx="100.000000" cy="72.679492" r="10.000000" stroke="blue" fill="purple " />
<circle cx="100.000000" cy="107.320508" r="10.000000" stroke="blue" fill="purple " />
<circle cx="120.000000" cy="72.679492" r="10.000000" stroke="blue" fill="purple " />
<circle cx="120.000000" cy="107.320508" r="10.000000" stroke="blue" fill="purple " />
<circle cx="140.000000" cy="72.679492" r="10.000000" stroke="blue" fill="purple " />
<circle cx="140.000000" cy="107.320508" r="10.000000" stroke="blue" fill="purple " />
<circle cx="160.000000" cy="72.679492" r="10.000000" stroke="blue" fill="purple " />
<circle cx="160.000000" cy="107.320508" r="10.000000" stroke="blue" fill="purple " />
<circle cx="30.000000" cy="55.358984" r="10.000000" stroke="blue" fill="purple " />
<circle cx="30.000000" cy="124.641016" r="10.000000" stroke="blue" fill="purple " />
<circle cx="50.000000" cy="55.358984" r="10.000000" stroke="blue" fill="purple " />
<circle cx="50.000000" cy="124.641016" r="10.000000" stroke="blue" fill="purple " />
<circle cx="70.000000" cy="55.358984" r="10.000000" stroke="blue" fill="purple " />
<circle cx="70.000000" cy="124.641016" r="10.000000" stroke="blue" fill="purple " />
<circle cx="90.000000" cy="55.358984" r="10.000000" stroke="blue" fill="purple " />
<circle cx="90.000000" cy="124.641016" r="10.000000" stroke="blue" fill="purple " />
<circle cx="110.000000" cy="55.358984" r="10.000000" stroke="blue" fill="purple " />
<circle cx="110.000000" cy="124.641016" r="10.000000" stroke="blue" fill="purple " />
<circle cx="130.000000" cy="55.358984" r="10.000000" stroke="blue" fill="purple " />
<circle cx="130.000000" cy="124.641016" r="10.000000" stroke="blue" fill="purple " />
<circle cx="150.000000" cy="55.358984" r="10.000000" stroke="blue" fill="purple " />
<circle cx="150.000000" cy="124.641016" r="10.000000" stroke="blue" fill="purple " />
<circle cx="40.000000" cy="38.038476" r="10.000000" stroke="blue" fill="purple " />
<circle cx="40.000000" cy="141.961524" r="10.000000" stroke="blue" fill="purple " />
<circle cx="60.000000" cy="38.038476" r="10.000000" stroke="blue" fill="purple " />
<circle cx="60.000000" cy="141.961524" r="10.000000" stroke="blue" fill="purple " />
<circle cx="80.000000" cy="38.038476" r="10.000000" stroke="blue" fill="purple " />
<circle cx="80.000000" cy="141.961524" r="10.000000" stroke="blue" fill="purple " />
<circle cx="100.000000" cy="38.038476" r="10.000000" stroke="blue" fill="purple " />
<circle cx="100.000000" cy="141.961524" r="10.000000" stroke="blue" fill="purple " />
<circle cx="120.000000" cy="38.038476" r="10.000000" stroke="blue" fill="purple " />
<circle cx="120.000000" cy="141.961524" r="10.000000" stroke="blue" fill="purple " />
<circle cx="140.000000" cy="38.038476" r="10.000000" stroke="blue" fill="purple " />
<circle cx="140.000000" cy="141.961524" r="10.000000" stroke="blue" fill="purple " />
<circle cx="50.000000" cy="20.717968" r="10.000000" stroke="blue" fill="purple " />
<circle cx="50.000000" cy="159.282032" r="10.000000" stroke="blue" fill="purple " />
<circle cx="70.000000" cy="20.717968" r="10.000000" stroke="blue" fill="purple " />
<circle cx="70.000000" cy="159.282032" r="10.000000" stroke="blue" fill="purple " />
<circle cx="90.000000" cy="20.717968" r="10.000000" stroke="blue" fill="purple " />
<circle cx="90.000000" cy="159.282032" r="10.000000" stroke="blue" fill="purple " />
<circle cx="110.000000" cy="20.717968" r="10.000000" stroke="blue" fill="purple " />
<circle cx="110.000000" cy="159.282032" r="10.000000" stroke="blue" fill="purple " />
<circle cx="130.000000" cy="20.717968" r="10.000000" stroke="blue" fill="purple " />
<circle cx="130.000000" cy="159.282032" r="10.000000" stroke="blue" fill="purple " />
</svg>
