<?xml version="1.0" standalone="no"?>
<svg width="300" height="300" version="1.1" xmlns="http://www.w3.org/2000/svg">
<circle cx="90.000000" cy="90.000000" r="90.000000" stroke="blue" fill="purple " />
<rect x="0.557281" y="90.000000" width="10.000000" height="10.000000" stroke="red" fill="yellow"  />
<rect x="0.557281" y="90.000000" width="10.000000" height="10.000000" stroke="red" fill="yellow"  />
<rect x="10.557281" y="90.000000" width="10.000000" height="10.000000" stroke="red" fill="yellow"  />
<rect x="10.557281" y="90.000000" width="10.000000" height="10.000000" stroke="red" fill="yellow"  />
<rect x="20.557281" y="90.000000" width="10.000000" height="10.000000" stroke="red" fill="yellow"  />
<rect x="20.557281" y="90.000000" width="10.000000" height="10.000000" stroke="red" fill="yellow"  />
<rect x="30.557281" y="90.000000" width="10.000000" height="10.000000" stroke="red" fill="yellow"  />
<rect x="30.557281" y="90.000000" width="10.000000" height="10.000000" stroke="red" fill="yellow"  />
<rect x="40.557281" y="90.000000" width="10.000000" height="10.000000" stroke="red" fill="yellow"  />
<rect x="40.557281" y="90.000000" width="10.000000" height="10.000000" stroke="red" fill="yellow"  />
<rect x="50.557281" y="90.000000" width="10.000000" height="10.000000" stroke="red" fill="yellow"  />
<rect x="50.557281" y="90.000000" width="10.000000" height="10.000000" stroke="red" fill="yellow"  />
<rect x="60.557281" y="90.000000" width="10.000000" height="10.000000" stroke="red" fill="yellow"  />
<rect x="60.557281" y="90.000000" width="10.000000" height="10.000000" stroke="red" fill="yellow"  />
<rect x="70.557281" y="90.000000" width="10.000000" height="10.000000" stroke="red" fill="yellow"  />
<rect x="70.557281" y="90.000000" width="10.000000" height="10.000000" stroke="red" fill="yellow"  />
<rect x="80.557281" y="90.000000" width="10.000000" height="10.000000" stroke="red" fill="yellow"  />
<rect x="80.557281" y="90.000000" width="10.000000" height="10.000000" stroke="red" fill="yellow"  />
<rect x="90.557281" y="90.000000" width="10.000000" height="10.000000" stroke="red" fill="yellow"  />
<rect x="90.557281" y="90.000000" width="10.000000" height="10.000000" stroke="red" fill="yellow"  />
<rect x="100.557281" y="90.000000" width="10.000000" height="10.000000" stroke="red" fill="yellow"  />
<rect x="100.557281" y="90.000000" width="10.000000" height="10.000000" stroke="red" fill="yellow"  />
<rect x="110.557281" y="90.000000" width="10.000000" height="10.000000" stroke="red" fill="yellow"  />
<rect x="110.557281" y="90.000000" width="10.000000" height="10.000000" stroke="red" fill="yellow"  />
<rect x="120.557281" y="90.000000" width="10.000000" height="10.000000" stroke="red" fill="yellow"  />
<rect x="120.557281" y="90.000000" width="10.000000" height="10.000000" stroke="red" fill="yellow"  />
<rect x="130.557281" y="90.000000" width="10.000000" height="10.000000" stroke="red" fill="yellow"  />
<rect x="130.557281" y="90.000000" width="10.000000" height="10.000000" stroke="red" fill="yellow"  />
<rect x="140.557281" y="90.000000" width="10.000000" height="10.000000" stroke="red" fill="yellow"  />
<rect x="140.557281" y="90.000000" width="10.000000" height="10.000000" stroke="red" fill="yellow"  />
<rect x="150.557281" y="90.000000" width="10.000000" height="10.000000" stroke="red" fill="yellow"  />
<rect x="150.557281" y="90.000000" width="10.000000" height="10.000000" stroke="red" fill="yellow"  />
<rect x="160.557281" y="90.000000" width="10.000000" height="10.000000" stroke="red" fill="yellow"  />
<rect x="160.557281" y="90.000000" width="10.000000" height="10.000000" stroke="red" fill="yellow"  />
<rect x="6.114562" y="80.000000" width="10.000000" height="10.000000" stroke="red" fill="yellow"  />
<rect x="6.114562" y="100.000000" width="10.000000" height="10.000000" stroke="red" fill="yellow"  />
<rect x="15.557281" y="80.000000" width="10.000000" height="10.000000" stroke="red" fill="yellow"  />
<rect x="15.557281" y="100.000000" width="10.000000" height="10.000000" stroke="red" fill="yellow"  />
<rect x="25.557281" y="80.000000" width="10.000000" height="10.000000" stroke="red" fill="yellow"  />
<rect x="25.557281" y="100.000000" width="10.000000" height="10.000000" stroke="red" fill="yellow"  />
<rect x="35.557281" y="80.000000" width="10.000000" height="10.000000" stroke="red" fill="yellow"  />
<rect x="35.557281" y="100.000000" width="10.000000" height="10.000000" stroke="red" fill="yellow"  />
<rect x="45.557281" y="80.000000" width="10.000000" height="10.000000" stroke="red" fill="yellow"  />
<rect x="45.557281" y="100.000000" width="10.000000" height="10.000000" stroke="red" fill="yellow"  />
<rect x="55.557281" y="80.000000" width="10.000000" height="10.000000" stroke="red" fill="yellow"  />
<rect x="55.557281" y="100.000000" width="10.000000" height="10.000000" stroke="red" fill="yellow"  />
<rect x="65.557281" y="80.000000" width="10.000000" height="10.000000" stroke="red" fill="yellow"  />
<rect x="65.557281" y="100.000000" width="10.000000" height="10.000000" stroke="red" fill="yellow"  />
<rect x="75.557281" y="80.000000" width="10.000000" height="10.000000" stroke="red" fill="yellow"  />
<rect x="75.557281" y="100.000000" width="10.000000" height="10.000000" stroke="red" fill="yellow"  />
<rect x="85.557281" y="80.000000" width="10.000000" height="10.000000" stroke="red" fill="yellow"  />
<rect x="85.557281" y="100.000000" width="10.000000" height="10.000000" stroke="red" fill="yellow"  />
<rect x="95.557281" y="80.000000" width="10.000000" height="10.000000" stroke="red" fill="yellow"  />
<rect x="95.557281" y="100.000000" width="10.000000" height="10.000000" stroke="red" fill="yellow"  />
<rect x="105.557281" y="80.000000" width="10.000000" height="10.000000" stroke="red" fill="yellow"  />
<rect x="105.557281" y="100.000000" width="10.000000" height="10.000000" stroke="red" fill="yellow"  />
<rect x="115.557281" y="80.000000" width="10.000000" height="10.000000" stroke="red" fill="yellow"  />
<rect x="115.557281" y="100.000000" width="10.000000" height="10.000000" stroke="red" fill="yellow"  />
<rect x="125.557281" y="80.000000" width="10.000000" height="10.000000" stroke="red" fill="yellow"  />
<rect x="125.557281" y="100.000000" width="10.000000" height="10.000000" stroke="red" fill="yellow"  />
<rect x="135.557281" y="80.000000" width="10.000000" height="10.000000" stroke="red" fill="yellow"  />
<rect x="135.557281" y="100.000000" width="10.000000" height="10.000000" stroke="red" fill="yellow"  />
<rect x="145.557281" y="80.000000" width="10.000000" height="10.000000" stroke="red" fill="yellow"  />
<rect x="145.557281" y="100.000000" width="10.000000" height="10.000000" stroke="red" fill="yellow"  />
<rect x="155.557281" y="80.000000" width="10.000000" height="10.000000" stroke="red" fill="yellow"  />
<rect x="155.557281" y="100.000000" width="10.000000" height="10.000000" stroke="red" fill="yellow"  />
<rect x="165.557281" y="80.000000" width="10.000000" height="10.000000" stroke="red" fill="yellow"  />
<rect x="165.557281" y="100.000000" width="10.000000" height="10.000000" stroke="red" fill="yellow"  />
<rect x="11.114562" y="70.000000" width="10.000000" height="10.000000" stroke="red" fill="yellow"  />
<rect x="11.114562" y="110.000000" width="10.000000" height="10.000000" stroke="red" fill="yellow"  />
<rect x="20.557281" y="70.000000" width="10.000000" height="10.000000" stroke="red" fill="yellow"  />
<rect x="20.557281" y="110.000000" width="10.000000" height="10.000000" stroke="red" fill="yellow"  />
<rect x="30.557281" y="70.000000" width="10.000000" height="10.000000" stroke="red" fill="yellow"  />
<rect x="30.557281" y="110.000000" width="10.000000" height="10.000000" stroke="red" fill="yellow"  />
<rect x="40.557281" y="70.000000" width="10.000000" height="10.000000" stroke="red" fill="yellow"  />
<rect x="40.557281" y="110.000000" width="10.000000" height="10.000000" stroke="red" fill="yellow"  />
<rect x="50.557281" y="70.000000" width="10.000000" height="10.000000" stroke="red" fill="yellow"  />
<rect x="50.557281" y="110.000000" width="10.000000" height="10.000000" stroke="red" fill="yellow"  />
<rect x="60.557281" y="70.000000" width="10.000000" height="10.000000" stroke="red" fill="yellow"  />
<rect x="60.557281" y="110.000000" width="10.000000" height="10.000000" stroke="red" fill="yellow"  />
<rect x="70.557281" y="70.000000" width="10.000000" height="10.000000" stroke="red" fill="yellow"  />
<rect x="70.557281" y="110.000000" width="10.000000" height="10.000000" stroke="red" fill="yellow"  />
<rect x="80.557281" y="70.000000" width="10.000000" height="10.000000" stroke="red" fill="yellow"  />
<rect x="80.557281" y="110.000000" width="10.000000" height="10.000000" stroke="red" fill="yellow"  />
<rect x="90.557281" y="70.000000" width="10.000000" height="10.000000" stroke="red" fill="yellow"  />
<rect x="90.557281" y="110.000000" width="10.000000" height="10.000000" stroke="red" fill="yellow"  />
<rect x="100.557281" y="70.000000" width="10.000000" height="10.000000" stroke="red" fill="yellow"  />
<rect x="100.557281" y="110.000000" width="10.000000" height="10.000000" stroke="red" fill="yellow"  />
<rect x="110.557281" y="70.000000" width="10.000000" height="10.000000" stroke="red" fill="yellow"  />
<rect x="110.557281" y="110.000000" width="10.000000" height="10.000000" stroke="red" fill="yellow"  />
<rect x="120.557281" y="70.000000" width="10.000000" height="10.000000" stroke="red" fill="yellow"  />
<rect x="120.557281" y="110.000000" width="10.000000" height="10.000000" stroke="red" fill="yellow"  />
<rect x="130.557281" y="70.000000" width="10.000000" height="10.000000" stroke="red" fill="yellow"  />
<rect x="130.557281" y="110.000000" width="10.000000" height="10.000000" stroke="red" fill="yellow"  />
<rect x="140.557281" y="70.000000" width="10.000000" height="10.000000" stroke="red" fill="yellow"  />
<rect x="140.557281" y="110.000000" width="10.000000" height="10.000000" stroke="red" fill="yellow"  />
<rect x="150.557281" y="70.000000" width="10.000000" height="10.000000" stroke="red" fill="yellow"  />
<rect x="150.557281" y="110.000000" width="10.000000" height="10.000000" stroke="red" fill="yellow"  />
<rect x="160.557281" y="70.000000" width="10.000000" height="10.000000" stroke="red" fill="yellow"  />
<rect x="160.557281" y="110.000000" width="10.000000" height="10.000000" stroke="red" fill="yellow"  />
<rect x="16.114562" y="60.000000" width="10.000000" height="10.000000" stroke="red" fill="yellow"  />
<rect x="16.114562" y="120.000000" width="10.000000" height="10.000000" stroke="red" fill="yellow"  />
<rect x="25.557281" y="60.000000" width="10.000000" height="10.000000" stroke="red" fill="yellow"  />
<rect x="25.557281" y="120.000000" width="10.000000" height="10.000000" stroke="red" fill="yellow"  />
<rect x="35.557281" y="60.000000" width="10.000000" height="10.000000" stroke="red" fill="yellow"  />
<rect x="35.557281" y="120.000000" width="10.000000" height="10.000000" stroke="red" fill="yellow"  />
<rect x="45.557281" y="60.000000" width="10.000000" height="10.000000" stroke="red" fill="yellow"  />
<rect x="45.557281" y="120.000000" width="10.000000" height="10.000000" stroke="red" fill="yellow"  />
<rect x="55.557281" y="60.000000" width="10.000000" height="10.000000" stroke="red" fill="yellow"  />
<rect x="55.557281" y="120.000000" width="10.000000" height="10.000000" stroke="red" fill="yellow"  />
<rect x="65.557281" y="60.000000" width="10.000000" height="10.000000" stroke="red" fill="yellow"  />
<rect x="65.557281" y="120.000000" width="10.000000" height="10.000000" stroke="red" fill="yellow"  />
<rect x="75.557281" y="60.000000" width="10.000000" height="10.000000" stroke="red" fill="yellow"  />
<rect x="75.557281" y="120.000000" width="10.000000" height="10.000000" stroke="red" fill="yellow"  />
<rect x="85.557281" y="60.000000" width="10.000000" height="10.000000" stroke="red" fill="yellow"  />
<rect x="85.557281" y="120.000000" width="10.000000" height="10.000000" stroke="red" fill="yellow"  />
<rect x="95.557281" y="60.000000" width="10.000000" height="10.000000" stroke="red" fill="yellow"  />
<rect x="95.557281" y="120.000000" width="10.000000" height="10.000000" stroke="red" fill="yellow"  />
<rect x="105.557281" y="60.000000" width="10.000000" height="10.000000" stroke="red" fill="yellow"  />
<rect x="105.557281" y="120.000000" width="10.000000" height="10.000000" stroke="red" fill="yellow"  />
<rect x="115.557281" y="60.000000" width="10.000000" height="10.000000" stroke="red" fill="yellow"  />
<rect x="115.557281" y="120.000000" width="10.000000" height="10.000000" stroke="red" fill="yellow"  />
<rect x="125.557281" y="60.000000" width="10.000000" height="10.000000" stroke="red" fill="yellow"  />
<rect x="125.557281" y="120.000000" width="10.000000" height="10.000000" stroke="red" fill="yellow"  />
<rect x="135.557281" y="60.000000" width="10.000000" height="10.000000" stroke="red" fill="yellow"  />
<rect x="135.557281" y="120.000000" width="10.000000" height="10.000000" stroke="red" fill="yellow"  />
<rect x="145.557281" y="60.000000" width="10.000000" height="10.000000" stroke="red" fill="yellow"  />
<rect x="145.557281" y="120.000000" width="10.000000" height="10.000000" stroke="red" fill="yellow"  />
<rect x="155.557281" y="60.000000" width="10.000000" height="10.000000" stroke="red" fill="yellow"  />
<rect x="155.557281" y="120.000000" width="10.000000" height="10.000000" stroke="red" fill="yellow"  />
<rect x="21.114562" y="50.000000" width="10.000000" height="10.000000" stroke="red" fill="yellow"  />
<rect x="21.114562" y="130.000000" width="10.000000" height="10.000000" stroke="red" fill="yellow"  />
<rect x="30.557281" y="50.000000" width="10.000000" height="10.000000" stroke="red" fill="yellow"  />
<rect x="30.557281" y="130.000000" width="10.000000" height="10.000000" stroke="red" fill="yellow"  />
<rect x="40.557281" y="50.000000" width="10.000000" height="10.000000" stroke="red" fill="yellow"  />
<rect x="40.557281" y="130.000000" width="10.000000" height="10.000000" stroke="red" fill="yellow"  />
<rect x="50.557281" y="50.000000" width="10.000000" height="10.000000" stroke="red" fill="yellow"  />
<rect x="50.557281" y="130.000000" width="10.000000" height="10.000000" stroke="red" fill="yellow"  />
<rect x="60.557281" y="50.000000" width="10.000000" height="10.000000" stroke="red" fill="yellow"  />
<rect x="60.557281" y="130.000000" width="10.000000" height="10.000000" stroke="red" fill="yellow"  />
<rect x="70.557281" y="50.000000" width="10.000000" height="10.000000" stroke="red" fill="yellow"  />
<rect x="70.557281" y="130.000000" width="10.000000" height="10.000000" stroke="red" fill="yellow"  />
<rect x="80.557281" y="50.000000" width="10.000000" height="10.000000" stroke="red" fill="yellow"  />
<rect x="80.557281" y="130.000000" width="10.000000" height="10.000000" stroke="red" fill="yellow"  />
<rect x="90.557281" y="50.000000" width="10.000000" height="10.000000" stroke="red" fill="yellow"  />
<rect x="90.557281" y="130.000000" width="10.000000" height="10.000000" stroke="red" fill="yellow"  />
<rect x="100.557281" y="50.000000" width="10.000000" height="10.000000" stroke="red" fill="yellow"  />
<rect x="100.557281" y="130.000000" width="10.000000" height="10.000000" stroke="red" fill="yellow"  />
<rect x="110.557281" y="50.000000" width="10.000000" height="10.000000" stroke="red" fill="yellow"  />
<rect x="110.557281" y="130.000000" width="10.000000" height="10.000000" stroke="red" fill="yellow"  />
<rect x="120.557281" y="50.000000" width="10.000000" height="10.000000" stroke="red" fill="yellow"  />
<rect x="120.557281" y="130.000000" width="10.000000" height="10.000000" stroke="red" fill="yellow"  />
<rect x="130.557281" y="50.000000" width="10.000000" height="10.000000" stroke="red" fill="yellow"  />
<rect x="130.557281" y="130.000000" width="10.000000" height="10.000000" stroke="red" fill="yellow"  />
<rect x="140.557281" y="50.000000" width="10.000000" height="10.000000" stroke="red" fill="yellow"  />
<rect x="140.557281" y="130.000000" width="10.000000" height="10.000000" stroke="red" fill="yellow"  />
<rect x="150.557281" y="50.000000" width="10.000000" height="10.000000" stroke="red" fill="yellow"  />
<rect x="150.557281" y="130.000000" width="10.000000" height="10.000000" stroke="red" fill="yellow"  />
<rect x="26.114562" y="40.000000" width="10.000000" height="10.000000" stroke="red" fill="yellow"  />
<rect x="26.114562" y="140.000000" width="10.000000" height="10.000000" stroke="red" fill="yellow"  />
<rect x="35.557281" y="40.000000" width="10.000000" height="10.000000" stroke="red" fill="yellow"  />
<rect x="35.557281" y="140.000000" width="10.000000" height="10.000000" stroke="red" fill="yellow"  />
<rect x="45.557281" y="40.000000" width="10.000000" height="10.000000" stroke="red" fill="yellow"  />
<rect x="45.557281" y="140.000000" width="10.000000" height="10.000000" stroke="red" fill="yellow"  />
<rect x="55.557281" y="40.000000" width="10.000000" height="10.000000" stroke="red" fill="yellow"  />
<rect x="55.557281" y="140.000000" width="10.000000" height="10.000000" stroke="red" fill="yellow"  />
<rect x="65.557281" y="40.000000" width="10.000000" height="10.000000" stroke="red" fill="yellow"  />
<rect x="65.557281" y="140.000000" width="10.000000" height="10.000000" stroke="red" fill="yellow"  />
<rect x="75.557281" y="40.000000" width="10.000000" height="10.000000" stroke="red" fill="yellow"  />
<rect x="75.557281" y="140.000000" width="10.000000" height="10.000000" stroke="red" fill="yellow"  />
<rect x="85.557281" y="40.000000" width="10.000000" height="10.000000" stroke="red" fill="yellow"  />
<rect x="85.557281" y="140.000000" width="10.000000" height="10.000000" stroke="red" fill="yellow"  />
<rect x="95.557281" y="40.000000" width="10.000000" height="10.000000" stroke="red" fill="yellow"  />
<rect x="95.557281" y="140.000000" width="10.000000" height="10.000000" stroke="red" fill="yellow"  />
<rect x="105.557281" y="40.000000" width="10.000000" height="10.000000" stroke="red" fill="yellow"  />
<rect x="105.557281" y="140.000000" width="10.000000" height="10.000000" stroke="red" fill="yellow"  />
<rect x="115.557281" y="40.000000" width="10.000000" height="10.000000" stroke="red" fill="yellow"  />
<rect x="115.557281" y="140.000000" width="10.000000" height="10.000000" stroke="red" fill="yellow"  />
<rect x="125.557281" y="40.000000" width="10.000000" height="10.000000" stroke="red" fill="yellow"  />
<rect x="125.557281" y="140.000000" width="10.000000" height="10.000000" stroke="red" fill="yellow"  />
<rect x="135.557281" y="40.000000" width="10.000000" height="10.000000" stroke="red" fill="yellow"  />
<rect x="135.557281" y="140.000000" width="10.000000" height="10.000000" stroke="red" fill="yellow"  />
<rect x="145.557281" y="40.000000" width="10.000000" height="10.000000" stroke="red" fill="yellow"  />
<rect x="145.557281" y="140.000000" width="10.000000" height="10.000000" stroke="red" fill="yellow"  />
<rect x="31.114562" y="30.000000" width="10.000000" height="10.000000" stroke="red" fill="yellow"  />
<rect x="31.114562" y="150.000000" width="10.000000" height="10.000000" stroke="red" fill="yellow"  />
<rect x="40.557281" y="30.000000" width="10.000000" height="10.000000" stroke="red" fill="yellow"  />
<rect x="40.557281" y="150.000000" width="10.000000" height="10.000000" stroke="red" fill="yellow"  />
<rect x="50.557281" y="30.000000" width="10.000000" height="10.000000" stroke="red" fill="yellow"  />
<rect x="50.557281" y="150.000000" width="10.000000" height="10.000000" stroke="red" fill="yellow"  />
<rect x="60.557281" y="30.000000" width="10.000000" height="10.000000" stroke="red" fill="yellow"  />
<rect x="60.557281" y="150.000000" width="10.000000" height="10.000000" stroke="red" fill="yellow"  />
<rect x="70.557281" y="30.000000" width="10.000000" height="10.000000" stroke="red" fill="yellow"  />
<rect x="70.557281" y="150.000000" width="10.000000" height="10.000000" stroke="red" fill="yellow"  />
<rect x="80.557281" y="30.000000" width="10.000000" height="10.000000" stroke="red" fill="yellow"  />
<rect x="80.557281" y="150.000000" width="10.000000" height="10.000000" stroke="red" fill="yellow"  />
<rect x="90.557281" y="30.000000" width="10.000000" height="10.000000" stroke="red" fill="yellow"  />
<rect x="90.557281" y="150.000000" width="10.000000" height="10.000000" stroke="red" fill="yellow"  />
<rect x="100.557281" y="30.000000" width="10.000000" height="10.000000" stroke="red" fill="yellow"  />
<rect x="100.557281" y="150.000000" width="10.000000" height="10.000000" stroke="red" fill="yellow"  />
<rect x="110.557281" y="30.000000" width="10.000000" height="10.000000" stroke="red" fill="yellow"  />
<rect x="110.557281" y="150.000000" width="10.000000" height="10.000000" stroke="red" fill="yellow"  />
<rect x="120.557281" y="30.000000" width="10.000000" height="10.000000" stroke="red" fill="yellow"  />
<rect x="120.557281" y="150.000000" width="10.000000" height="10.000000" stroke="red" fill="yellow"  />
<rect x="130.557281" y="30.000000" width="10.000000" height="10.000000" stroke="red" fill="yellow"  />
<rect x="130.557281" y="150.000000" width="10.000000" height="10.000000" stroke="red" fill="yellow"  />
<rect x="140.557281" y="30.000000" width="10.000000" height="10.000000" stroke="red" fill="yellow"  />
<rect x="140.557281" y="150.000000" width="10.000000" height="10.000000" stroke="red" fill="yellow"  />
<rect x="36.114562" y="20.000000" width="10.000000" height="10.000000" stroke="red" fill="yellow"  />
<rect x="36.114562" y="160.000000" width="10.000000" height="10.000000" stroke="red" fill="yellow"  />
<rect x="45.557281" y="20.000000" width="10.000000" height="10.000000" stroke="red" fill="yellow"  />
<rect x="45.557281" y="160.000000" width="10.000000" height="10.000000" stroke="red" fill="yellow"  />
<rect x="55.557281" y="20.000000" width="10.000000" height="10.000000" stroke="red" fill="yellow"  />
<rect x="55.557281" y="160.000000" width="10.000000" height="10.000000" stroke="red" fill="yellow"  />
<rect x="65.557281" y="20.000000" width="10.000000" height="10.000000" stroke="red" fill="yellow"  />
<rect x="65.557281" y="160.000000" width="10.000000" height="10.000000" stroke="red" fill="yellow"  />
<rect x="75.557281" y="20.000000" width="10.000000" height="10.000000" stroke="red" fill="yellow"  />
<rect x="75.557281" y="160.000000" width="10.000000" height="10.000000" stroke="red" fill="yellow"  />
<rect x="85.557281" y="20.000000" width="10.000000" height="10.000000" stroke="red" fill="yellow"  />
<rect x="85.557281" y="160.000000" width="10.000000" height="10.000000" stroke="red" fill="yellow"  />
<rect x="95.557281" y="20.000000" width="10.000000" height="10.000000" stroke="red" fill="yellow"  />
<rect x="95.557281" y="160.000000" width="10.000000" height="10.000000" stroke="red" fill="yellow"  />
<rect x="105.557281" y="20.000000" width="10.000000" height="10.000000" stroke="red" fill="yellow"  />
<rect x="105.557281" y="160.000000" width="10.000000" height="10.000000" stroke="red" fill="yellow"  />
<rect x="115.557281" y="20.000000" width="10.000000" height="10.000000" stroke="red" fill="yellow"  />
<rect x="115.557281" y="160.000000" width="10.000000" height="10.000000" stroke="red" fill="yellow"  />
<rect x="125.557281" y="20.000000" width="10.000000" height="10.000000" stroke="red" fill="yellow"  />
<rect x="125.557281" y="160.000000" width="10.000000" height="10.000000" stroke="red" fill="yellow"  />
<rect x="135.557281" y="20.000000" width="10.000000" height="10.000000" stroke="red" fill="yellow"  />
<rect x="135.557281" y="160.000000" width="10.000000" height="10.000000" stroke="red" fill="yellow"  />
</svg>
