<?xml version="1.0" standalone="no"?>
<svg width="300" height="300" version="1.1" xmlns="http://www.w3.org/2000/svg">
<rect x="0" y="0" width="200.000000" height="100.000000" stroke="red" fill="yellow"  />
<circle cx="10.000000" cy="10.000000" r="10.000000" stroke="blue" fill="purple " />
<circle cx="30.000000" cy="10.000000" r="10.000000" stroke="blue" fill="purple " />
<circle cx="50.000000" cy="10.000000" r="10.000000" stroke="blue" fill="purple " />
<circle cx="70.000000" cy="10.000000" r="10.000000" stroke="blue" fill="purple " />
<circle cx="90.000000" cy="10.000000" r="10.000000" stroke="blue" fill="purple " />
<circle cx="110.000000" cy="10.000000" r="10.000000" stroke="blue" fill="purple " />
<circle cx="130.000000" cy="10.000000" r="10.000000" stroke="blue" fill="purple " />
<circle cx="150.000000" cy="10.000000" r="10.000000" stroke="blue" fill="purple " />
<circle cx="170.000000" cy="10.000000" r="10.000000" stroke="blue" fill="purple " />
<circle cx="190.000000" cy="10.000000" r="10.000000" stroke="blue" fill="purple " />
<circle cx="10.000000" cy="30.000000" r="10.000000" stroke="blue" fill="purple " />
<circle cx="30.000000" cy="30.000000" r="10.000000" stroke="blue" fill="purple " />
<circle cx="50.000000" cy="30.000000" r="10.000000" stroke="blue" fill="purple " />
<circle cx="70.000000" cy="30.000000" r="10.000000" stroke="blue" fill="purple " />
<circle cx="90.000000" cy="30.000000" r="10.000000" stroke="blue" fill="purple " />
<circle cx="110.000000" cy="30.000000" r="10.000000" stroke="blue" fill="purple " />
<circle cx="130.000000" cy="30.000000" r="10.000000" stroke="blue" fill="purple " />
<circle cx="150.000000" cy="30.000000" r="10.000000" stroke="blue" fill="purple " />
<circle cx="170.000000" cy="30.000000" r="10.000000" stroke="blue" fill="purple " />
<circle cx="190.000000" cy="30.000000" r="10.000000" stroke="blue" fill="purple " />
<circle cx="10.000000" cy="50.000000" r="10.000000" stroke="blue" fill="purple " />
<circle cx="30.000000" cy="50.000000" r="10.000000" stroke="blue" fill="purple " />
<circle cx="50.000000" cy="50.000000" r="10.000000" stroke="blue" fill="purple " />
<circle cx="70.000000" cy="50.000000" r="10.000000" stroke="blue" fill="purple " />
<circle cx="90.000000" cy="50.000000" r="10.000000" stroke="blue" fill="purple " />
<circle cx="110.000000" cy="50.000000" r="10.000000" stroke="blue" fill="purple " />
<circle cx="130.000000" cy="50.000000" r="10.000000" stroke="blue" fill="purple " />
<circle cx="150.000000" cy="50.000000" r="10.000000" stroke="blue" fill="purple " />
<circle cx="170.000000" cy="50.000000" r="10.000000" stroke="blue" fill="purple " />
<circle cx="190.000000" cy="50.000000" r="10.000000" stroke="blue" fill="purple " />
<circle cx="10.000000" cy="70.000000" r="10.000000" stroke="blue" fill="purple " />
<circle cx="30.000000" cy="70.000000" r="10.000000" stroke="blue" fill="purple " />
<circle cx="50.000000" cy="70.000000" r="10.000000" stroke="blue" fill="purple " />
<circle cx="70.000000" cy="70.000000" r="10.000000" stroke="blue" fill="purple " />
<circle cx="90.000000" cy="70.000000" r="10.000000" stroke="blue" fill="purple " />
<circle cx="110.000000" cy="70.000000" r="10.000000" stroke="blue" fill="purple " />
<circle cx="130.000000" cy="70.000000" r="10.000000" stroke="blue" fill="purple " />
<circle cx="150.000000" cy="70.000000" r="10.000000" stroke="blue" fill="purple " />
<circle cx="170.000000" cy="70.000000" r="10.000000" stroke="blue" fill="purple " />
<circle cx="190.000000" cy="70.000000" r="10.000000" stroke="blue" fill="purple " />
<circle cx="10.000000" cy="90.000000" r="10.000000" stroke="blue" fill="purple " />
<circle cx="30.000000" cy="90.000000" r="10.000000" stroke="blue" fill="purple " />
<circle cx="50.000000" cy="90.000000" r="10.000000" stroke="blue" fill="purple " />
<circle cx="70.000000" cy="90.000000" r="10.000000" stroke="blue" fill="purple " />
<circle cx="90.000000" cy="90.000000" r="10.000000" stroke="blue" fill="purple " />
<circle cx="110.000000" cy="90.000000" r="10.000000" stroke="blue" fill="purple " />
<circle cx="130.000000" cy="90.000000" r="10.000000" stroke="blue" fill="purple " />
<circle cx="150.000000" cy="90.000000" r="10.000000" stroke="blue" fill="purple " />
<circle cx="170.000000" cy="90.000000" r="10.000000" stroke="blue" fill="purple " />
<circle cx="190.000000" cy="90.000000" r="10.000000" stroke="blue" fill="purple " />
</svg>
