<?xml version="1.0" standalone="no"?>
<svg width="300" height="300" version="1.1" xmlns="http://www.w3.org/2000/svg">
<rect x="0" y="0" width="200.000000" height="100.000000" stroke="red" fill="yellow"  />
<polygon points="5.000000 0.000000 0.000000 8.660254 10.000000 8.660254" stroke="green" fill="brown"/>
<polygon points="5.000000 0.000000 10.000000 8.660254 15.000000 0.000000" stroke="green" fill="brown"/>
<polygon points="15.000000 0.000000 10.000000 8.660254 20.000000 8.660254" stroke="green" fill="brown"/>
<polygon points="15.000000 0.000000 20.000000 8.660254 25.000000 0.000000" stroke="green" fill="brown"/>
<polygon points="25.000000 0.000000 20.000000 8.660254 30.000000 8.660254" stroke="green" fill="brown"/>
<polygon points="25.000000 0.000000 30.000000 8.660254 35.000000 0.000000" stroke="green" fill="brown"/>
<polygon points="35.000000 0.000000 30.000000 8.660254 40.000000 8.660254" stroke="green" fill="brown"/>
<polygon points="35.000000 0.000000 40.000000 8.660254 45.000000 0.000000" stroke="green" fill="brown"/>
<polygon points="45.000000 0.000000 40.000000 8.660254 50.000000 8.660254" stroke="green" fill="brown"/>
<polygon points="45.000000 0.000000 50.000000 8.660254 55.000000 0.000000" stroke="green" fill="brown"/>
<polygon points="55.000000 0.000000 50.000000 8.660254 60.000000 8.660254" stroke="green" fill="brown"/>
<polygon points="55.000000 0.000000 60.000000 8.660254 65.000000 0.000000" stroke="green" fill="brown"/>
<polygon points="65.000000 0.000000 60.000000 8.660254 70.000000 8.660254" stroke="green" fill="brown"/>
<polygon points="65.000000 0.000000 70.000000 8.660254 75.000000 0.000000" stroke="green" fill="brown"/>
<polygon points="75.000000 0.000000 70.000000 8.660254 80.000000 8.660254" stroke="green" fill="brown"/>
<polygon points="75.000000 0.000000 80.000000 8.660254 85.000000 0.000000" stroke="green" fill="brown"/>
<polygon points="85.000000 0.000000 80.000000 8.660254 90.000000 8.660254" stroke="green" fill="brown"/>
<polygon points="85.000000 0.000000 90.000000 8.660254 95.000000 0.000000" stroke="green" fill="brown"/>
<polygon points="95.000000 0.000000 90.000000 8.660254 100.000000 8.660254" stroke="green" fill="brown"/>
<polygon points="95.000000 0.000000 100.000000 8.660254 105.000000 0.000000" stroke="green" fill="brown"/>
<polygon points="105.000000 0.000000 100.000000 8.660254 110.000000 8.660254" stroke="green" fill="brown"/>
<polygon points="105.000000 0.000000 110.000000 8.660254 115.000000 0.000000" stroke="green" fill="brown"/>
<polygon points="115.000000 0.000000 110.000000 8.660254 120.000000 8.660254" stroke="green" fill="brown"/>
<polygon points="115.000000 0.000000 120.000000 8.660254 125.000000 0.000000" stroke="green" fill="brown"/>
<polygon points="125.000000 0.000000 120.000000 8.660254 130.000000 8.660254" stroke="green" fill="brown"/>
<polygon points="125.000000 0.000000 130.000000 8.660254 135.000000 0.000000" stroke="green" fill="brown"/>
<polygon points="135.000000 0.000000 130.000000 8.660254 140.000000 8.660254" stroke="green" fill="brown"/>
<polygon points="135.000000 0.000000 140.000000 8.660254 145.000000 0.000000" stroke="green" fill="brown"/>
<polygon points="145.000000 0.000000 140.000000 8.660254 150.000000 8.660254" stroke="green" fill="brown"/>
<polygon points="145.000000 0.000000 150.000000 8.660254 155.000000 0.000000" stroke="green" fill="brown"/>
<polygon points="155.000000 0.000000 150.000000 8.660254 160.000000 8.660254" stroke="green" fill="brown"/>
<polygon points="155.000000 0.000000 160.000000 8.660254 165.000000 0.000000" stroke="green" fill="brown"/>
<polygon points="165.000000 0.000000 160.000000 8.660254 170.000000 8.660254" stroke="green" fill="brown"/>
<polygon points="165.000000 0.000000 170.000000 8.660254 175.000000 0.000000" stroke="green" fill="brown"/>
<polygon points="175.000000 0.000000 170.000000 8.660254 180.000000 8.660254" stroke="green" fill="brown"/>
<polygon points="175.000000 0.000000 180.000000 8.660254 185.000000 0.000000" stroke="green" fill="brown"/>
<polygon points="185.000000 0.000000 180.000000 8.660254 190.000000 8.660254" stroke="green" fill="brown"/>
<polygon points="185.000000 0.000000 190.000000 8.660254 195.000000 0.000000" stroke="green" fill="brown"/>
<polygon points="195.000000 0.000000 190.000000 8.660254 200.000000 8.660254" stroke="green" fill="brown"/>
<polygon points="5.000000 8.660254 0.000000 17.320508 10.000000 17.320508" stroke="green" fill="brown"/>
<polygon points="5.000000 8.660254 10.000000 17.320508 15.000000 8.660254" stroke="green" fill="brown"/>
<polygon points="15.000000 8.660254 10.000000 17.320508 20.000000 17.320508" stroke="green" fill="brown"/>
<polygon points="15.000000 8.660254 20.000000 17.320508 25.000000 8.660254" stroke="green" fill="brown"/>
<polygon points="25.000000 8.660254 20.000000 17.320508 30.000000 17.320508" stroke="green" fill="brown"/>
<polygon points="25.000000 8.660254 30.000000 17.320508 35.000000 8.660254" stroke="green" fill="brown"/>
<polygon points="35.000000 8.660254 30.000000 17.320508 40.000000 17.320508" stroke="green" fill="brown"/>
<polygon points="35.000000 8.660254 40.000000 17.320508 45.000000 8.660254" stroke="green" fill="brown"/>
<polygon points="45.000000 8.660254 40.000000 17.320508 50.000000 17.320508" stroke="green" fill="brown"/>
<polygon points="45.000000 8.660254 50.000000 17.320508 55.000000 8.660254" stroke="green" fill="brown"/>
<polygon points="55.000000 8.660254 50.000000 17.320508 60.000000 17.320508" stroke="green" fill="brown"/>
<polygon points="55.000000 8.660254 60.000000 17.320508 65.000000 8.660254" stroke="green" fill="brown"/>
<polygon points="65.000000 8.660254 60.000000 17.320508 70.000000 17.320508" stroke="green" fill="brown"/>
<polygon points="65.000000 8.660254 70.000000 17.320508 75.000000 8.660254" stroke="green" fill="brown"/>
<polygon points="75.000000 8.660254 70.000000 17.320508 80.000000 17.320508" stroke="green" fill="brown"/>
<polygon points="75.000000 8.660254 80.000000 17.320508 85.000000 8.660254" stroke="green" fill="brown"/>
<polygon points="85.000000 8.660254 80.000000 17.320508 90.000000 17.320508" stroke="green" fill="brown"/>
<polygon points="85.000000 8.660254 90.000000 17.320508 95.000000 8.660254" stroke="green" fill="brown"/>
<polygon points="95.000000 8.660254 90.000000 17.320508 100.000000 17.320508" stroke="green" fill="brown"/>
<polygon points="95.000000 8.660254 100.000000 17.320508 105.000000 8.660254" stroke="green" fill="brown"/>
<polygon points="105.000000 8.660254 100.000000 17.320508 110.000000 17.320508" stroke="green" fill="brown"/>
<polygon points="105.000000 8.660254 110.000000 17.320508 115.000000 8.660254" stroke="green" fill="brown"/>
<polygon points="115.000000 8.660254 110.000000 17.320508 120.000000 17.320508" stroke="green" fill="brown"/>
<polygon points="115.000000 8.660254 120.000000 17.320508 125.000000 8.660254" stroke="green" fill="brown"/>
<polygon points="125.000000 8.660254 120.000000 17.320508 130.000000 17.320508" stroke="green" fill="brown"/>
<polygon points="125.000000 8.660254 130.000000 17.320508 135.000000 8.660254" stroke="green" fill="brown"/>
<polygon points="135.000000 8.660254 130.000000 17.320508 140.000000 17.320508" stroke="green" fill="brown"/>
<polygon points="135.000000 8.660254 140.000000 17.320508 145.000000 8.660254" stroke="green" fill="brown"/>
<polygon points="145.000000 8.660254 140.000000 17.320508 150.000000 17.320508" stroke="green" fill="brown"/>
<polygon points="145.000000 8.660254 150.000000 17.320508 155.000000 8.660254" stroke="green" fill="brown"/>
<polygon points="155.000000 8.660254 150.000000 17.320508 160.000000 17.320508" stroke="green" fill="brown"/>
<polygon points="155.000000 8.660254 160.000000 17.320508 165.000000 8.660254" stroke="green" fill="brown"/>
<polygon points="165.000000 8.660254 160.000000 17.320508 170.000000 17.320508" stroke="green" fill="brown"/>
<polygon points="165.000000 8.660254 170.000000 17.320508 175.000000 8.660254" stroke="green" fill="brown"/>
<polygon points="175.000000 8.660254 170.000000 17.320508 180.000000 17.320508" stroke="green" fill="brown"/>
<polygon points="175.000000 8.660254 180.000000 17.320508 185.000000 8.660254" stroke="green" fill="brown"/>
<polygon points="185.000000 8.660254 180.000000 17.320508 190.000000 17.320508" stroke="green" fill="brown"/>
<polygon points="185.000000 8.660254 190.000000 17.320508 195.000000 8.660254" stroke="green" fill="brown"/>
<polygon points="195.000000 8.660254 190.000000 17.320508 200.000000 17.320508" stroke="green" fill="brown"/>
<polygon points="5.000000 17.320508 0.000000 25.980762 10.000000 25.980762" stroke="green" fill="brown"/>
<polygon points="5.000000 17.320508 10.000000 25.980762 15.000000 17.320508" stroke="green" fill="brown"/>
<polygon points="15.000000 17.320508 10.000000 25.980762 20.000000 25.980762" stroke="green" fill="brown"/>
<polygon points="15.000000 17.320508 20.000000 25.980762 25.000000 17.320508" stroke="green" fill="brown"/>
<polygon points="25.000000 17.320508 20.000000 25.980762 30.000000 25.980762" stroke="green" fill="brown"/>
<polygon points="25.000000 17.320508 30.000000 25.980762 35.000000 17.320508" stroke="green" fill="brown"/>
<polygon points="35.000000 17.320508 30.000000 25.980762 40.000000 25.980762" stroke="green" fill="brown"/>
<polygon points="35.000000 17.320508 40.000000 25.980762 45.000000 17.320508" stroke="green" fill="brown"/>
<polygon points="45.000000 17.320508 40.000000 25.980762 50.000000 25.980762" stroke="green" fill="brown"/>
<polygon points="45.000000 17.320508 50.000000 25.980762 55.000000 17.320508" stroke="green" fill="brown"/>
<polygon points="55.000000 17.320508 50.000000 25.980762 60.000000 25.980762" stroke="green" fill="brown"/>
<polygon points="55.000000 17.320508 60.000000 25.980762 65.000000 17.320508" stroke="green" fill="brown"/>
<polygon points="65.000000 17.320508 60.000000 25.980762 70.000000 25.980762" stroke="green" fill="brown"/>
<polygon points="65.000000 17.320508 70.000000 25.980762 75.000000 17.320508" stroke="green" fill="brown"/>
<polygon points="75.000000 17.320508 70.000000 25.980762 80.000000 25.980762" stroke="green" fill="brown"/>
<polygon points="75.000000 17.320508 80.000000 25.980762 85.000000 17.320508" stroke="green" fill="brown"/>
<polygon points="85.000000 17.320508 80.000000 25.980762 90.000000 25.980762" stroke="green" fill="brown"/>
<polygon points="85.000000 17.320508 90.000000 25.980762 95.000000 17.320508" stroke="green" fill="brown"/>
<polygon points="95.000000 17.320508 90.000000 25.980762 100.000000 25.980762" stroke="green" fill="brown"/>
<polygon points="95.000000 17.320508 100.000000 25.980762 105.000000 17.320508" stroke="green" fill="brown"/>
<polygon points="105.000000 17.320508 100.000000 25.980762 110.000000 25.980762" stroke="green" fill="brown"/>
<polygon points="105.000000 17.320508 110.000000 25.980762 115.000000 17.320508" stroke="green" fill="brown"/>
<polygon points="115.000000 17.320508 110.000000 25.980762 120.000000 25.980762" stroke="green" fill="brown"/>
<polygon points="115.000000 17.320508 120.000000 25.980762 125.000000 17.320508" stroke="green" fill="brown"/>
<polygon points="125.000000 17.320508 120.000000 25.980762 130.000000 25.980762" stroke="green" fill="brown"/>
<polygon points="125.000000 17.320508 130.000000 25.980762 135.000000 17.320508" stroke="green" fill="brown"/>
<polygon points="135.000000 17.320508 130.000000 25.980762 140.000000 25.980762" stroke="green" fill="brown"/>
<polygon points="135.000000 17.320508 140.000000 25.980762 145.000000 17.320508" stroke="green" fill="brown"/>
<polygon points="145.000000 17.320508 140.000000 25.980762 150.000000 25.980762" stroke="green" fill="brown"/>
<polygon points="145.000000 17.320508 150.000000 25.980762 155.000000 17.320508" stroke="green" fill="brown"/>
<polygon points="155.000000 17.320508 150.000000 25.980762 160.000000 25.980762" stroke="green" fill="brown"/>
<polygon points="155.000000 17.320508 160.000000 25.980762 165.000000 17.320508" stroke="green" fill="brown"/>
<polygon points="165.000000 17.320508 160.000000 25.980762 170.000000 25.980762" stroke="green" fill="brown"/>
<polygon points="165.000000 17.320508 170.000000 25.980762 175.000000 17.320508" stroke="green" fill="brown"/>
<polygon points="175.000000 17.320508 170.000000 25.980762 180.000000 25.980762" stroke="green" fill="brown"/>
<polygon points="175.000000 17.320508 180.000000 25.980762 185.000000 17.320508" stroke="green" fill="brown"/>
<polygon points="185.000000 17.320508 180.000000 25.980762 190.000000 25.980762" stroke="green" fill="brown"/>
<polygon points="185.000000 17.320508 190.000000 25.980762 195.000000 17.320508" stroke="green" fill="brown"/>
<polygon points="195.000000 17.320508 190.000000 25.980762 200.000000 25.980762" stroke="green" fill="brown"/>
<polygon points="5.000000 25.980762 0.000000 34.641016 10.000000 34.641016" stroke="green" fill="brown"/>
<polygon points="5.000000 25.980762 10.000000 34.641016 15.000000 25.980762" stroke="green" fill="brown"/>
<polygon points="15.000000 25.980762 10.000000 34.641016 20.000000 34.641016" stroke="green" fill="brown"/>
<polygon points="15.000000 25.980762 20.000000 34.641016 25.000000 25.980762" stroke="green" fill="brown"/>
<polygon points="25.000000 25.980762 20.000000 34.641016 30.000000 34.641016" stroke="green" fill="brown"/>
<polygon points="25.000000 25.980762 30.000000 34.641016 35.000000 25.980762" stroke="green" fill="brown"/>
<polygon points="35.000000 25.980762 30.000000 34.641016 40.000000 34.641016" stroke="green" fill="brown"/>
<polygon points="35.000000 25.980762 40.000000 34.641016 45.000000 25.980762" stroke="green" fill="brown"/>
<polygon points="45.000000 25.980762 40.000000 34.641016 50.000000 34.641016" stroke="green" fill="brown"/>
<polygon points="45.000000 25.980762 50.000000 34.641016 55.000000 25.980762" stroke="green" fill="brown"/>
<polygon points="55.000000 25.980762 50.000000 34.641016 60.000000 34.641016" stroke="green" fill="brown"/>
<polygon points="55.000000 25.980762 60.000000 34.641016 65.000000 25.980762" stroke="green" fill="brown"/>
<polygon points="65.000000 25.980762 60.000000 34.641016 70.000000 34.641016" stroke="green" fill="brown"/>
<polygon points="65.000000 25.980762 70.000000 34.641016 75.000000 25.980762" stroke="green" fill="brown"/>
<polygon points="75.000000 25.980762 70.000000 34.641016 80.000000 34.641016" stroke="green" fill="brown"/>
<polygon points="75.000000 25.980762 80.000000 34.641016 85.000000 25.980762" stroke="green" fill="brown"/>
<polygon points="85.000000 25.980762 80.000000 34.641016 90.000000 34.641016" stroke="green" fill="brown"/>
<polygon points="85.000000 25.980762 90.000000 34.641016 95.000000 25.980762" stroke="green" fill="brown"/>
<polygon points="95.000000 25.980762 90.000000 34.641016 100.000000 34.641016" stroke="green" fill="brown"/>
<polygon points="95.000000 25.980762 100.000000 34.641016 105.000000 25.980762" stroke="green" fill="brown"/>
<polygon points="105.000000 25.980762 100.000000 34.641016 110.000000 34.641016" stroke="green" fill="brown"/>
<polygon points="105.000000 25.980762 110.000000 34.641016 115.000000 25.980762" stroke="green" fill="brown"/>
<polygon points="115.000000 25.980762 110.000000 34.641016 120.000000 34.641016" stroke="green" fill="brown"/>
<polygon points="115.000000 25.980762 120.000000 34.641016 125.000000 25.980762" stroke="green" fill="brown"/>
<polygon points="125.000000 25.980762 120.000000 34.641016 130.000000 34.641016" stroke="green" fill="brown"/>
<polygon points="125.000000 25.980762 130.000000 34.641016 135.000000 25.980762" stroke="green" fill="brown"/>
<polygon points="135.000000 25.980762 130.000000 34.641016 140.000000 34.641016" stroke="green" fill="brown"/>
<polygon points="135.000000 25.980762 140.000000 34.641016 145.000000 25.980762" stroke="green" fill="brown"/>
<polygon points="145.000000 25.980762 140.000000 34.641016 150.000000 34.641016" stroke="green" fill="brown"/>
<polygon points="145.000000 25.980762 150.000000 34.641016 155.000000 25.980762" stroke="green" fill="brown"/>
<polygon points="155.000000 25.980762 150.000000 34.641016 160.000000 34.641016" stroke="green" fill="brown"/>
<polygon points="155.000000 25.980762 160.000000 34.641016 165.000000 25.980762" stroke="green" fill="brown"/>
<polygon points="165.000000 25.980762 160.000000 34.641016 170.000000 34.641016" stroke="green" fill="brown"/>
<polygon points="165.000000 25.980762 170.000000 34.641016 175.000000 25.980762" stroke="green" fill="brown"/>
<polygon points="175.000000 25.980762 170.000000 34.641016 180.000000 34.641016" stroke="green" fill="brown"/>
<polygon points="175.000000 25.980762 180.000000 34.641016 185.000000 25.980762" stroke="green" fill="brown"/>
<polygon points="185.000000 25.980762 180.000000 34.641016 190.000000 34.641016" stroke="green" fill="brown"/>
<polygon points="185.000000 25.980762 190.000000 34.641016 195.000000 25.980762" stroke="green" fill="brown"/>
<polygon points="195.000000 25.980762 190.000000 34.641016 200.000000 34.641016" stroke="green" fill="brown"/>
<polygon points="5.000000 34.641016 0.000000 43.301270 10.000000 43.301270" stroke="green" fill="brown"/>
<polygon points="5.000000 34.641016 10.000000 43.301270 15.000000 34.641016" stroke="green" fill="brown"/>
<polygon points="15.000000 34.641016 10.000000 43.301270 20.000000 43.301270" stroke="green" fill="brown"/>
<polygon points="15.000000 34.641016 20.000000 43.301270 25.000000 34.641016" stroke="green" fill="brown"/>
<polygon points="25.000000 34.641016 20.000000 43.301270 30.000000 43.301270" stroke="green" fill="brown"/>
<polygon points="25.000000 34.641016 30.000000 43.301270 35.000000 34.641016" stroke="green" fill="brown"/>
<polygon points="35.000000 34.641016 30.000000 43.301270 40.000000 43.301270" stroke="green" fill="brown"/>
<polygon points="35.000000 34.641016 40.000000 43.301270 45.000000 34.641016" stroke="green" fill="brown"/>
<polygon points="45.000000 34.641016 40.000000 43.301270 50.000000 43.301270" stroke="green" fill="brown"/>
<polygon points="45.000000 34.641016 50.000000 43.301270 55.000000 34.641016" stroke="green" fill="brown"/>
<polygon points="55.000000 34.641016 50.000000 43.301270 60.000000 43.301270" stroke="green" fill="brown"/>
<polygon points="55.000000 34.641016 60.000000 43.301270 65.000000 34.641016" stroke="green" fill="brown"/>
<polygon points="65.000000 34.641016 60.000000 43.301270 70.000000 43.301270" stroke="green" fill="brown"/>
<polygon points="65.000000 34.641016 70.000000 43.301270 75.000000 34.641016" stroke="green" fill="brown"/>
<polygon points="75.000000 34.641016 70.000000 43.301270 80.000000 43.301270" stroke="green" fill="brown"/>
<polygon points="75.000000 34.641016 80.000000 43.301270 85.000000 34.641016" stroke="green" fill="brown"/>
<polygon points="85.000000 34.641016 80.000000 43.301270 90.000000 43.301270" stroke="green" fill="brown"/>
<polygon points="85.000000 34.641016 90.000000 43.301270 95.000000 34.641016" stroke="green" fill="brown"/>
<polygon points="95.000000 34.641016 90.000000 43.301270 100.000000 43.301270" stroke="green" fill="brown"/>
<polygon points="95.000000 34.641016 100.000000 43.301270 105.000000 34.641016" stroke="green" fill="brown"/>
<polygon points="105.000000 34.641016 100.000000 43.301270 110.000000 43.301270" stroke="green" fill="brown"/>
<polygon points="105.000000 34.641016 110.000000 43.301270 115.000000 34.641016" stroke="green" fill="brown"/>
<polygon points="115.000000 34.641016 110.000000 43.301270 120.000000 43.301270" stroke="green" fill="brown"/>
<polygon points="115.000000 34.641016 120.000000 43.301270 125.000000 34.641016" stroke="green" fill="brown"/>
<polygon points="125.000000 34.641016 120.000000 43.301270 130.000000 43.301270" stroke="green" fill="brown"/>
<polygon points="125.000000 34.641016 130.000000 43.301270 135.000000 34.641016" stroke="green" fill="brown"/>
<polygon points="135.000000 34.641016 130.000000 43.301270 140.000000 43.301270" stroke="green" fill="brown"/>
<polygon points="135.000000 34.641016 140.000000 43.301270 145.000000 34.641016" stroke="green" fill="brown"/>
<polygon points="145.000000 34.641016 140.000000 43.301270 150.000000 43.301270" stroke="green" fill="brown"/>
<polygon points="145.000000 34.641016 150.000000 43.301270 155.000000 34.641016" stroke="green" fill="brown"/>
<polygon points="155.000000 34.641016 150.000000 43.301270 160.000000 43.301270" stroke="green" fill="brown"/>
<polygon points="155.000000 34.641016 160.000000 43.301270 165.000000 34.641016" stroke="green" fill="brown"/>
<polygon points="165.000000 34.641016 160.000000 43.301270 170.000000 43.301270" stroke="green" fill="brown"/>
<polygon points="165.000000 34.641016 170.000000 43.301270 175.000000 34.641016" stroke="green" fill="brown"/>
<polygon points="175.000000 34.641016 170.000000 43.301270 180.000000 43.301270" stroke="green" fill="brown"/>
<polygon points="175.000000 34.641016 180.000000 43.301270 185.000000 34.641016" stroke="green" fill="brown"/>
<polygon points="185.000000 34.641016 180.000000 43.301270 190.000000 43.301270" stroke="green" fill="brown"/>
<polygon points="185.000000 34.641016 190.000000 43.301270 195.000000 34.641016" stroke="green" fill="brown"/>
<polygon points="195.000000 34.641016 190.000000 43.301270 200.000000 43.301270" stroke="green" fill="brown"/>
<polygon points="5.000000 43.301270 0.000000 51.961524 10.000000 51.961524" stroke="green" fill="brown"/>
<polygon points="5.000000 43.301270 10.000000 51.961524 15.000000 43.301270" stroke="green" fill="brown"/>
<polygon points="15.000000 43.301270 10.000000 51.961524 20.000000 51.961524" stroke="green" fill="brown"/>
<polygon points="15.000000 43.301270 20.000000 51.961524 25.000000 43.301270" stroke="green" fill="brown"/>
<polygon points="25.000000 43.301270 20.000000 51.961524 30.000000 51.961524" stroke="green" fill="brown"/>
<polygon points="25.000000 43.301270 30.000000 51.961524 35.000000 43.301270" stroke="green" fill="brown"/>
<polygon points="35.000000 43.301270 30.000000 51.961524 40.000000 51.961524" stroke="green" fill="brown"/>
<polygon points="35.000000 43.301270 40.000000 51.961524 45.000000 43.301270" stroke="green" fill="brown"/>
<polygon points="45.000000 43.301270 40.000000 51.961524 50.000000 51.961524" stroke="green" fill="brown"/>
<polygon points="45.000000 43.301270 50.000000 51.961524 55.000000 43.301270" stroke="green" fill="brown"/>
<polygon points="55.000000 43.301270 50.000000 51.961524 60.000000 51.961524" stroke="green" fill="brown"/>
<polygon points="55.000000 43.301270 60.000000 51.961524 65.000000 43.301270" stroke="green" fill="brown"/>
<polygon points="65.000000 43.301270 60.000000 51.961524 70.000000 51.961524" stroke="green" fill="brown"/>
<polygon points="65.000000 43.301270 70.000000 51.961524 75.000000 43.301270" stroke="green" fill="brown"/>
<polygon points="75.000000 43.301270 70.000000 51.961524 80.000000 51.961524" stroke="green" fill="brown"/>
<polygon points="75.000000 43.301270 80.000000 51.961524 85.000000 43.301270" stroke="green" fill="brown"/>
<polygon points="85.000000 43.301270 80.000000 51.961524 90.000000 51.961524" stroke="green" fill="brown"/>
<polygon points="85.000000 43.301270 90.000000 51.961524 95.000000 43.301270" stroke="green" fill="brown"/>
<polygon points="95.000000 43.301270 90.000000 51.961524 100.000000 51.961524" stroke="green" fill="brown"/>
<polygon points="95.000000 43.301270 100.000000 51.961524 105.000000 43.301270" stroke="green" fill="brown"/>
<polygon points="105.000000 43.301270 100.000000 51.961524 110.000000 51.961524" stroke="green" fill="brown"/>
<polygon points="105.000000 43.301270 110.000000 51.961524 115.000000 43.301270" stroke="green" fill="brown"/>
<polygon points="115.000000 43.301270 110.000000 51.961524 120.000000 51.961524" stroke="green" fill="brown"/>
<polygon points="115.000000 43.301270 120.000000 51.961524 125.000000 43.301270" stroke="green" fill="brown"/>
<polygon points="125.000000 43.301270 120.000000 51.961524 130.000000 51.961524" stroke="green" fill="brown"/>
<polygon points="125.000000 43.301270 130.000000 51.961524 135.000000 43.301270" stroke="green" fill="brown"/>
<polygon points="135.000000 43.301270 130.000000 51.961524 140.000000 51.961524" stroke="green" fill="brown"/>
<polygon points="135.000000 43.301270 140.000000 51.961524 145.000000 43.301270" stroke="green" fill="brown"/>
<polygon points="145.000000 43.301270 140.000000 51.961524 150.000000 51.961524" stroke="green" fill="brown"/>
<polygon points="145.000000 43.301270 150.000000 51.961524 155.000000 43.301270" stroke="green" fill="brown"/>
<polygon points="155.000000 43.301270 150.000000 51.961524 160.000000 51.961524" stroke="green" fill="brown"/>
<polygon points="155.000000 43.301270 160.000000 51.961524 165.000000 43.301270" stroke="green" fill="brown"/>
<polygon points="165.000000 43.301270 160.000000 51.961524 170.000000 51.961524" stroke="green" fill="brown"/>
<polygon points="165.000000 43.301270 170.000000 51.961524 175.000000 43.301270" stroke="green" fill="brown"/>
<polygon points="175.000000 43.301270 170.000000 51.961524 180.000000 51.961524" stroke="green" fill="brown"/>
<polygon points="175.000000 43.301270 180.000000 51.961524 185.000000 43.301270" stroke="green" fill="brown"/>
<polygon points="185.000000 43.301270 180.000000 51.961524 190.000000 51.961524" stroke="green" fill="brown"/>
<polygon points="185.000000 43.301270 190.000000 51.961524 195.000000 43.301270" stroke="green" fill="brown"/>
<polygon points="195.000000 43.301270 190.000000 51.961524 200.000000 51.961524" stroke="green" fill="brown"/>
<polygon points="5.000000 51.961524 0.000000 60.621778 10.000000 60.621778" stroke="green" fill="brown"/>
<polygon points="5.000000 51.961524 10.000000 60.621778 15.000000 51.961524" stroke="green" fill="brown"/>
<polygon points="15.000000 51.961524 10.000000 60.621778 20.000000 60.621778" stroke="green" fill="brown"/>
<polygon points="15.000000 51.961524 20.000000 60.621778 25.000000 51.961524" stroke="green" fill="brown"/>
<polygon points="25.000000 51.961524 20.000000 60.621778 30.000000 60.621778" stroke="green" fill="brown"/>
<polygon points="25.000000 51.961524 30.000000 60.621778 35.000000 51.961524" stroke="green" fill="brown"/>
<polygon points="35.000000 51.961524 30.000000 60.621778 40.000000 60.621778" stroke="green" fill="brown"/>
<polygon points="35.000000 51.961524 40.000000 60.621778 45.000000 51.961524" stroke="green" fill="brown"/>
<polygon points="45.000000 51.961524 40.000000 60.621778 50.000000 60.621778" stroke="green" fill="brown"/>
<polygon points="45.000000 51.961524 50.000000 60.621778 55.000000 51.961524" stroke="green" fill="brown"/>
<polygon points="55.000000 51.961524 50.000000 60.621778 60.000000 60.621778" stroke="green" fill="brown"/>
<polygon points="55.000000 51.961524 60.000000 60.621778 65.000000 51.961524" stroke="green" fill="brown"/>
<polygon points="65.000000 51.961524 60.000000 60.621778 70.000000 60.621778" stroke="green" fill="brown"/>
<polygon points="65.000000 51.961524 70.000000 60.621778 75.000000 51.961524" stroke="green" fill="brown"/>
<polygon points="75.000000 51.961524 70.000000 60.621778 80.000000 60.621778" stroke="green" fill="brown"/>
<polygon points="75.000000 51.961524 80.000000 60.621778 85.000000 51.961524" stroke="green" fill="brown"/>
<polygon points="85.000000 51.961524 80.000000 60.621778 90.000000 60.621778" stroke="green" fill="brown"/>
<polygon points="85.000000 51.961524 90.000000 60.621778 95.000000 51.961524" stroke="green" fill="brown"/>
<polygon points="95.000000 51.961524 90.000000 60.621778 100.000000 60.621778" stroke="green" fill="brown"/>
<polygon points="95.000000 51.961524 100.000000 60.621778 105.000000 51.961524" stroke="green" fill="brown"/>
<polygon points="105.000000 51.961524 100.000000 60.621778 110.000000 60.621778" stroke="green" fill="brown"/>
<polygon points="105.000000 51.961524 110.000000 60.621778 115.000000 51.961524" stroke="green" fill="brown"/>
<polygon points="115.000000 51.961524 110.000000 60.621778 120.000000 60.621778" stroke="green" fill="brown"/>
<polygon points="115.000000 51.961524 120.000000 60.621778 125.000000 51.961524" stroke="green" fill="brown"/>
<polygon points="125.000000 51.961524 120.000000 60.621778 130.000000 60.621778" stroke="green" fill="brown"/>
<polygon points="125.000000 51.961524 130.000000 60.621778 135.000000 51.961524" stroke="green" fill="brown"/>
<polygon points="135.000000 51.961524 130.000000 60.621778 140.000000 60.621778" stroke="green" fill="brown"/>
<polygon points="135.000000 51.961524 140.000000 60.621778 145.000000 51.961524" stroke="green" fill="brown"/>
<polygon points="145.000000 51.961524 140.000000 60.621778 150.000000 60.621778" stroke="green" fill="brown"/>
<polygon points="145.000000 51.961524 150.000000 60.621778 155.000000 51.961524" stroke="green" fill="brown"/>
<polygon points="155.000000 51.961524 150.000000 60.621778 160.000000 60.621778" stroke="green" fill="brown"/>
<polygon points="155.000000 51.961524 160.000000 60.621778 165.000000 51.961524" stroke="green" fill="brown"/>
<polygon points="165.000000 51.961524 160.000000 60.621778 170.000000 60.621778" stroke="green" fill="brown"/>
<polygon points="165.000000 51.961524 170.000000 60.621778 175.000000 51.961524" stroke="green" fill="brown"/>
<polygon points="175.000000 51.961524 170.000000 60.621778 180.000000 60.621778" stroke="green" fill="brown"/>
<polygon points="175.000000 51.961524 180.000000 60.621778 185.000000 51.961524" stroke="green" fill="brown"/>
<polygon points="185.000000 51.961524 180.000000 60.621778 190.000000 60.621778" stroke="green" fill="brown"/>
<polygon points="185.000000 51.961524 190.000000 60.621778 195.000000 51.961524" stroke="green" fill="brown"/>
<polygon points="195.000000 51.961524 190.000000 60.621778 200.000000 60.621778" stroke="green" fill="brown"/>
<polygon points="5.000000 60.621778 0.000000 69.282032 10.000000 69.282032" stroke="green" fill="brown"/>
<polygon points="5.000000 60.621778 10.000000 69.282032 15.000000 60.621778" stroke="green" fill="brown"/>
<polygon points="15.000000 60.621778 10.000000 69.282032 20.000000 69.282032" stroke="green" fill="brown"/>
<polygon points="15.000000 60.621778 20.000000 69.282032 25.000000 60.621778" stroke="green" fill="brown"/>
<polygon points="25.000000 60.621778 20.000000 69.282032 30.000000 69.282032" stroke="green" fill="brown"/>
<polygon points="25.000000 60.621778 30.000000 69.282032 35.000000 60.621778" stroke="green" fill="brown"/>
<polygon points="35.000000 60.621778 30.000000 69.282032 40.000000 69.282032" stroke="green" fill="brown"/>
<polygon points="35.000000 60.621778 40.000000 69.282032 45.000000 60.621778" stroke="green" fill="brown"/>
<polygon points="45.000000 60.621778 40.000000 69.282032 50.000000 69.282032" stroke="green" fill="brown"/>
<polygon points="45.000000 60.621778 50.000000 69.282032 55.000000 60.621778" stroke="green" fill="brown"/>
<polygon points="55.000000 60.621778 50.000000 69.282032 60.000000 69.282032" stroke="green" fill="brown"/>
<polygon points="55.000000 60.621778 60.000000 69.282032 65.000000 60.621778" stroke="green" fill="brown"/>
<polygon points="65.000000 60.621778 60.000000 69.282032 70.000000 69.282032" stroke="green" fill="brown"/>
<polygon points="65.000000 60.621778 70.000000 69.282032 75.000000 60.621778" stroke="green" fill="brown"/>
<polygon points="75.000000 60.621778 70.000000 69.282032 80.000000 69.282032" stroke="green" fill="brown"/>
<polygon points="75.000000 60.621778 80.000000 69.282032 85.000000 60.621778" stroke="green" fill="brown"/>
<polygon points="85.000000 60.621778 80.000000 69.282032 90.000000 69.282032" stroke="green" fill="brown"/>
<polygon points="85.000000 60.621778 90.000000 69.282032 95.000000 60.621778" stroke="green" fill="brown"/>
<polygon points="95.000000 60.621778 90.000000 69.282032 100.000000 69.282032" stroke="green" fill="brown"/>
<polygon points="95.000000 60.621778 100.000000 69.282032 105.000000 60.621778" stroke="green" fill="brown"/>
<polygon points="105.000000 60.621778 100.000000 69.282032 110.000000 69.282032" stroke="green" fill="brown"/>
<polygon points="105.000000 60.621778 110.000000 69.282032 115.000000 60.621778" stroke="green" fill="brown"/>
<polygon points="115.000000 60.621778 110.000000 69.282032 120.000000 69.282032" stroke="green" fill="brown"/>
<polygon points="115.000000 60.621778 120.000000 69.282032 125.000000 60.621778" stroke="green" fill="brown"/>
<polygon points="125.000000 60.621778 120.000000 69.282032 130.000000 69.282032" stroke="green" fill="brown"/>
<polygon points="125.000000 60.621778 130.000000 69.282032 135.000000 60.621778" stroke="green" fill="brown"/>
<polygon points="135.000000 60.621778 130.000000 69.282032 140.000000 69.282032" stroke="green" fill="brown"/>
<polygon points="135.000000 60.621778 140.000000 69.282032 145.000000 60.621778" stroke="green" fill="brown"/>
<polygon points="145.000000 60.621778 140.000000 69.282032 150.000000 69.282032" stroke="green" fill="brown"/>
<polygon points="145.000000 60.621778 150.000000 69.282032 155.000000 60.621778" stroke="green" fill="brown"/>
<polygon points="155.000000 60.621778 150.000000 69.282032 160.000000 69.282032" stroke="green" fill="brown"/>
<polygon points="155.000000 60.621778 160.000000 69.282032 165.000000 60.621778" stroke="green" fill="brown"/>
<polygon points="165.000000 60.621778 160.000000 69.282032 170.000000 69.282032" stroke="green" fill="brown"/>
<polygon points="165.000000 60.621778 170.000000 69.282032 175.000000 60.621778" stroke="green" fill="brown"/>
<polygon points="175.000000 60.621778 170.000000 69.282032 180.000000 69.282032" stroke="green" fill="brown"/>
<polygon points="175.000000 60.621778 180.000000 69.282032 185.000000 60.621778" stroke="green" fill="brown"/>
<polygon points="185.000000 60.621778 180.000000 69.282032 190.000000 69.282032" stroke="green" fill="brown"/>
<polygon points="185.000000 60.621778 190.000000 69.282032 195.000000 60.621778" stroke="green" fill="brown"/>
<polygon points="195.000000 60.621778 190.000000 69.282032 200.000000 69.282032" stroke="green" fill="brown"/>
<polygon points="5.000000 69.282032 0.000000 77.942286 10.000000 77.942286" stroke="green" fill="brown"/>
<polygon points="5.000000 69.282032 10.000000 77.942286 15.000000 69.282032" stroke="green" fill="brown"/>
<polygon points="15.000000 69.282032 10.000000 77.942286 20.000000 77.942286" stroke="green" fill="brown"/>
<polygon points="15.000000 69.282032 20.000000 77.942286 25.000000 69.282032" stroke="green" fill="brown"/>
<polygon points="25.000000 69.282032 20.000000 77.942286 30.000000 77.942286" stroke="green" fill="brown"/>
<polygon points="25.000000 69.282032 30.000000 77.942286 35.000000 69.282032" stroke="green" fill="brown"/>
<polygon points="35.000000 69.282032 30.000000 77.942286 40.000000 77.942286" stroke="green" fill="brown"/>
<polygon points="35.000000 69.282032 40.000000 77.942286 45.000000 69.282032" stroke="green" fill="brown"/>
<polygon points="45.000000 69.282032 40.000000 77.942286 50.000000 77.942286" stroke="green" fill="brown"/>
<polygon points="45.000000 69.282032 50.000000 77.942286 55.000000 69.282032" stroke="green" fill="brown"/>
<polygon points="55.000000 69.282032 50.000000 77.942286 60.000000 77.942286" stroke="green" fill="brown"/>
<polygon points="55.000000 69.282032 60.000000 77.942286 65.000000 69.282032" stroke="green" fill="brown"/>
<polygon points="65.000000 69.282032 60.000000 77.942286 70.000000 77.942286" stroke="green" fill="brown"/>
<polygon points="65.000000 69.282032 70.000000 77.942286 75.000000 69.282032" stroke="green" fill="brown"/>
<polygon points="75.000000 69.282032 70.000000 77.942286 80.000000 77.942286" stroke="green" fill="brown"/>
<polygon points="75.000000 69.282032 80.000000 77.942286 85.000000 69.282032" stroke="green" fill="brown"/>
<polygon points="85.000000 69.282032 80.000000 77.942286 90.000000 77.942286" stroke="green" fill="brown"/>
<polygon points="85.000000 69.282032 90.000000 77.942286 95.000000 69.282032" stroke="green" fill="brown"/>
<polygon points="95.000000 69.282032 90.000000 77.942286 100.000000 77.942286" stroke="green" fill="brown"/>
<polygon points="95.000000 69.282032 100.000000 77.942286 105.000000 69.282032" stroke="green" fill="brown"/>
<polygon points="105.000000 69.282032 100.000000 77.942286 110.000000 77.942286" stroke="green" fill="brown"/>
<polygon points="105.000000 69.282032 110.000000 77.942286 115.000000 69.282032" stroke="green" fill="brown"/>
<polygon points="115.000000 69.282032 110.000000 77.942286 120.000000 77.942286" stroke="green" fill="brown"/>
<polygon points="115.000000 69.282032 120.000000 77.942286 125.000000 69.282032" stroke="green" fill="brown"/>
<polygon points="125.000000 69.282032 120.000000 77.942286 130.000000 77.942286" stroke="green" fill="brown"/>
<polygon points="125.000000 69.282032 130.000000 77.942286 135.000000 69.282032" stroke="green" fill="brown"/>
<polygon points="135.000000 69.282032 130.000000 77.942286 140.000000 77.942286" stroke="green" fill="brown"/>
<polygon points="135.000000 69.282032 140.000000 77.942286 145.000000 69.282032" stroke="green" fill="brown"/>
<polygon points="145.000000 69.282032 140.000000 77.942286 150.000000 77.942286" stroke="green" fill="brown"/>
<polygon points="145.000000 69.282032 150.000000 77.942286 155.000000 69.282032" stroke="green" fill="brown"/>
<polygon points="155.000000 69.282032 150.000000 77.942286 160.000000 77.942286" stroke="green" fill="brown"/>
<polygon points="155.000000 69.282032 160.000000 77.942286 165.000000 69.282032" stroke="green" fill="brown"/>
<polygon points="165.000000 69.282032 160.000000 77.942286 170.000000 77.942286" stroke="green" fill="brown"/>
<polygon points="165.000000 69.282032 170.000000 77.942286 175.000000 69.282032" stroke="green" fill="brown"/>
<polygon points="175.000000 69.282032 170.000000 77.942286 180.000000 77.942286" stroke="green" fill="brown"/>
<polygon points="175.000000 69.282032 180.000000 77.942286 185.000000 69.282032" stroke="green" fill="brown"/>
<polygon points="185.000000 69.282032 180.000000 77.942286 190.000000 77.942286" stroke="green" fill="brown"/>
<polygon points="185.000000 69.282032 190.000000 77.942286 195.000000 69.282032" stroke="green" fill="brown"/>
<polygon points="195.000000 69.282032 190.000000 77.942286 200.000000 77.942286" stroke="green" fill="brown"/>
<polygon points="5.000000 77.942286 0.000000 86.602540 10.000000 86.602540" stroke="green" fill="brown"/>
<polygon points="5.000000 77.942286 10.000000 86.602540 15.000000 77.942286" stroke="green" fill="brown"/>
<polygon points="15.000000 77.942286 10.000000 86.602540 20.000000 86.602540" stroke="green" fill="brown"/>
<polygon points="15.000000 77.942286 20.000000 86.602540 25.000000 77.942286" stroke="green" fill="brown"/>
<polygon points="25.000000 77.942286 20.000000 86.602540 30.000000 86.602540" stroke="green" fill="brown"/>
<polygon points="25.000000 77.942286 30.000000 86.602540 35.000000 77.942286" stroke="green" fill="brown"/>
<polygon points="35.000000 77.942286 30.000000 86.602540 40.000000 86.602540" stroke="green" fill="brown"/>
<polygon points="35.000000 77.942286 40.000000 86.602540 45.000000 77.942286" stroke="green" fill="brown"/>
<polygon points="45.000000 77.942286 40.000000 86.602540 50.000000 86.602540" stroke="green" fill="brown"/>
<polygon points="45.000000 77.942286 50.000000 86.602540 55.000000 77.942286" stroke="green" fill="brown"/>
<polygon points="55.000000 77.942286 50.000000 86.602540 60.000000 86.602540" stroke="green" fill="brown"/>
<polygon points="55.000000 77.942286 60.000000 86.602540 65.000000 77.942286" stroke="green" fill="brown"/>
<polygon points="65.000000 77.942286 60.000000 86.602540 70.000000 86.602540" stroke="green" fill="brown"/>
<polygon points="65.000000 77.942286 70.000000 86.602540 75.000000 77.942286" stroke="green" fill="brown"/>
<polygon points="75.000000 77.942286 70.000000 86.602540 80.000000 86.602540" stroke="green" fill="brown"/>
<polygon points="75.000000 77.942286 80.000000 86.602540 85.000000 77.942286" stroke="green" fill="brown"/>
<polygon points="85.000000 77.942286 80.000000 86.602540 90.000000 86.602540" stroke="green" fill="brown"/>
<polygon points="85.000000 77.942286 90.000000 86.602540 95.000000 77.942286" stroke="green" fill="brown"/>
<polygon points="95.000000 77.942286 90.000000 86.602540 100.000000 86.602540" stroke="green" fill="brown"/>
<polygon points="95.000000 77.942286 100.000000 86.602540 105.000000 77.942286" stroke="green" fill="brown"/>
<polygon points="105.000000 77.942286 100.000000 86.602540 110.000000 86.602540" stroke="green" fill="brown"/>
<polygon points="105.000000 77.942286 110.000000 86.602540 115.000000 77.942286" stroke="green" fill="brown"/>
<polygon points="115.000000 77.942286 110.000000 86.602540 120.000000 86.602540" stroke="green" fill="brown"/>
<polygon points="115.000000 77.942286 120.000000 86.602540 125.000000 77.942286" stroke="green" fill="brown"/>
<polygon points="125.000000 77.942286 120.000000 86.602540 130.000000 86.602540" stroke="green" fill="brown"/>
<polygon points="125.000000 77.942286 130.000000 86.602540 135.000000 77.942286" stroke="green" fill="brown"/>
<polygon points="135.000000 77.942286 130.000000 86.602540 140.000000 86.602540" stroke="green" fill="brown"/>
<polygon points="135.000000 77.942286 140.000000 86.602540 145.000000 77.942286" stroke="green" fill="brown"/>
<polygon points="145.000000 77.942286 140.000000 86.602540 150.000000 86.602540" stroke="green" fill="brown"/>
<polygon points="145.000000 77.942286 150.000000 86.602540 155.000000 77.942286" stroke="green" fill="brown"/>
<polygon points="155.000000 77.942286 150.000000 86.602540 160.000000 86.602540" stroke="green" fill="brown"/>
<polygon points="155.000000 77.942286 160.000000 86.602540 165.000000 77.942286" stroke="green" fill="brown"/>
<polygon points="165.000000 77.942286 160.000000 86.602540 170.000000 86.602540" stroke="green" fill="brown"/>
<polygon points="165.000000 77.942286 170.000000 86.602540 175.000000 77.942286" stroke="green" fill="brown"/>
<polygon points="175.000000 77.942286 170.000000 86.602540 180.000000 86.602540" stroke="green" fill="brown"/>
<polygon points="175.000000 77.942286 180.000000 86.602540 185.000000 77.942286" stroke="green" fill="brown"/>
<polygon points="185.000000 77.942286 180.000000 86.602540 190.000000 86.602540" stroke="green" fill="brown"/>
<polygon points="185.000000 77.942286 190.000000 86.602540 195.000000 77.942286" stroke="green" fill="brown"/>
<polygon points="195.000000 77.942286 190.000000 86.602540 200.000000 86.602540" stroke="green" fill="brown"/>
<polygon points="5.000000 86.602540 0.000000 95.262794 10.000000 95.262794" stroke="green" fill="brown"/>
<polygon points="5.000000 86.602540 10.000000 95.262794 15.000000 86.602540" stroke="green" fill="brown"/>
<polygon points="15.000000 86.602540 10.000000 95.262794 20.000000 95.262794" stroke="green" fill="brown"/>
<polygon points="15.000000 86.602540 20.000000 95.262794 25.000000 86.602540" stroke="green" fill="brown"/>
<polygon points="25.000000 86.602540 20.000000 95.262794 30.000000 95.262794" stroke="green" fill="brown"/>
<polygon points="25.000000 86.602540 30.000000 95.262794 35.000000 86.602540" stroke="green" fill="brown"/>
<polygon points="35.000000 86.602540 30.000000 95.262794 40.000000 95.262794" stroke="green" fill="brown"/>
<polygon points="35.000000 86.602540 40.000000 95.262794 45.000000 86.602540" stroke="green" fill="brown"/>
<polygon points="45.000000 86.602540 40.000000 95.262794 50.000000 95.262794" stroke="green" fill="brown"/>
<polygon points="45.000000 86.602540 50.000000 95.262794 55.000000 86.602540" stroke="green" fill="brown"/>
<polygon points="55.000000 86.602540 50.000000 95.262794 60.000000 95.262794" stroke="green" fill="brown"/>
<polygon points="55.000000 86.602540 60.000000 95.262794 65.000000 86.602540" stroke="green" fill="brown"/>
<polygon points="65.000000 86.602540 60.000000 95.262794 70.000000 95.262794" stroke="green" fill="brown"/>
<polygon points="65.000000 86.602540 70.000000 95.262794 75.000000 86.602540" stroke="green" fill="brown"/>
<polygon points="75.000000 86.602540 70.000000 95.262794 80.000000 95.262794" stroke="green" fill="brown"/>
<polygon points="75.000000 86.602540 80.000000 95.262794 85.000000 86.602540" stroke="green" fill="brown"/>
<polygon points="85.000000 86.602540 80.000000 95.262794 90.000000 95.262794" stroke="green" fill="brown"/>
<polygon points="85.000000 86.602540 90.000000 95.262794 95.000000 86.602540" stroke="green" fill="brown"/>
<polygon points="95.000000 86.602540 90.000000 95.262794 100.000000 95.262794" stroke="green" fill="brown"/>
<polygon points="95.000000 86.602540 100.000000 95.262794 105.000000 86.602540" stroke="green" fill="brown"/>
<polygon points="105.000000 86.602540 100.000000 95.262794 110.000000 95.262794" stroke="green" fill="brown"/>
<polygon points="105.000000 86.602540 110.000000 95.262794 115.000000 86.602540" stroke="green" fill="brown"/>
<polygon points="115.000000 86.602540 110.000000 95.262794 120.000000 95.262794" stroke="green" fill="brown"/>
<polygon points="115.000000 86.602540 120.000000 95.262794 125.000000 86.602540" stroke="green" fill="brown"/>
<polygon points="125.000000 86.602540 120.000000 95.262794 130.000000 95.262794" stroke="green" fill="brown"/>
<polygon points="125.000000 86.602540 130.000000 95.262794 135.000000 86.602540" stroke="green" fill="brown"/>
<polygon points="135.000000 86.602540 130.000000 95.262794 140.000000 95.262794" stroke="green" fill="brown"/>
<polygon points="135.000000 86.602540 140.000000 95.262794 145.000000 86.602540" stroke="green" fill="brown"/>
<polygon points="145.000000 86.602540 140.000000 95.262794 150.000000 95.262794" stroke="green" fill="brown"/>
<polygon points="145.000000 86.602540 150.000000 95.262794 155.000000 86.602540" stroke="green" fill="brown"/>
<polygon points="155.000000 86.602540 150.000000 95.262794 160.000000 95.262794" stroke="green" fill="brown"/>
<polygon points="155.000000 86.602540 160.000000 95.262794 165.000000 86.602540" stroke="green" fill="brown"/>
<polygon points="165.000000 86.602540 160.000000 95.262794 170.000000 95.262794" stroke="green" fill="brown"/>
<polygon points="165.000000 86.602540 170.000000 95.262794 175.000000 86.602540" stroke="green" fill="brown"/>
<polygon points="175.000000 86.602540 170.000000 95.262794 180.000000 95.262794" stroke="green" fill="brown"/>
<polygon points="175.000000 86.602540 180.000000 95.262794 185.000000 86.602540" stroke="green" fill="brown"/>
<polygon points="185.000000 86.602540 180.000000 95.262794 190.000000 95.262794" stroke="green" fill="brown"/>
<polygon points="185.000000 86.602540 190.000000 95.262794 195.000000 86.602540" stroke="green" fill="brown"/>
<polygon points="195.000000 86.602540 190.000000 95.262794 200.000000 95.262794" stroke="green" fill="brown"/>
</svg>
