<?xml version="1.0" standalone="no"?>
<svg width="300" height="300" version="1.1" xmlns="http://www.w3.org/2000/svg">
<rect x="0" y="0" width="200.000000" height="100.000000" stroke="red" fill="yellow"  />
<rect x="-0.000000" y="0.000000" width="10.000000" height="10.000000" stroke="red" fill="yellow"  />
<rect x="10.000000" y="0.000000" width="10.000000" height="10.000000" stroke="red" fill="yellow"  />
<rect x="20.000000" y="0.000000" width="10.000000" height="10.000000" stroke="red" fill="yellow"  />
<rect x="30.000000" y="0.000000" width="10.000000" height="10.000000" stroke="red" fill="yellow"  />
<rect x="40.000000" y="0.000000" width="10.000000" height="10.000000" stroke="red" fill="yellow"  />
<rect x="50.000000" y="0.000000" width="10.000000" height="10.000000" stroke="red" fill="yellow"  />
<rect x="60.000000" y="0.000000" width="10.000000" height="10.000000" stroke="red" fill="yellow"  />
<rect x="70.000000" y="0.000000" width="10.000000" height="10.000000" stroke="red" fill="yellow"  />
<rect x="80.000000" y="0.000000" width="10.000000" height="10.000000" stroke="red" fill="yellow"  />
<rect x="90.000000" y="0.000000" width="10.000000" height="10.000000" stroke="red" fill="yellow"  />
<rect x="100.000000" y="0.000000" width="10.000000" height="10.000000" stroke="red" fill="yellow"  />
<rect x="110.000000" y="0.000000" width="10.000000" height="10.000000" stroke="red" fill="yellow"  />
<rect x="120.000000" y="0.000000" width="10.000000" height="10.000000" stroke="red" fill="yellow"  />
<rect x="130.000000" y="0.000000" width="10.000000" height="10.000000" stroke="red" fill="yellow"  />
<rect x="140.000000" y="0.000000" width="10.000000" height="10.000000" stroke="red" fill="yellow"  />
<rect x="150.000000" y="0.000000" width="10.000000" height="10.000000" stroke="red" fill="yellow"  />
<rect x="160.000000" y="0.000000" width="10.000000" height="10.000000" stroke="red" fill="yellow"  />
<rect x="170.000000" y="0.000000" width="10.000000" height="10.000000" stroke="red" fill="yellow"  />
<rect x="180.000000" y="0.000000" width="10.000000" height="10.000000" stroke="red" fill="yellow"  />
<rect x="190.000000" y="0.000000" width="10.000000" height="10.000000" stroke="red" fill="yellow"  />
<rect x="0.000000" y="10.000000" width="10.000000" height="10.000000" stroke="red" fill="yellow"  />
<rect x="10.000000" y="10.000000" width="10.000000" height="10.000000" stroke="red" fill="yellow"  />
<rect x="20.000000" y="10.000000" width="10.000000" height="10.000000" stroke="red" fill="yellow"  />
<rect x="30.000000" y="10.000000" width="10.000000" height="10.000000" stroke="red" fill="yellow"  />
<rect x="40.000000" y="10.000000" width="10.000000" height="10.000000" stroke="red" fill="yellow"  />
<rect x="50.000000" y="10.000000" width="10.000000" height="10.000000" stroke="red" fill="yellow"  />
<rect x="60.000000" y="10.000000" width="10.000000" height="10.000000" stroke="red" fill="yellow"  />
<rect x="70.000000" y="10.000000" width="10.000000" height="10.000000" stroke="red" fill="yellow"  />
<rect x="80.000000" y="10.000000" width="10.000000" height="10.000000" stroke="red" fill="yellow"  />
<rect x="90.000000" y="10.000000" width="10.000000" height="10.000000" stroke="red" fill="yellow"  />
<rect x="100.000000" y="10.000000" width="10.000000" height="10.000000" stroke="red" fill="yellow"  />
<rect x="110.000000" y="10.000000" width="10.000000" height="10.000000" stroke="red" fill="yellow"  />
<rect x="120.000000" y="10.000000" width="10.000000" height="10.000000" stroke="red" fill="yellow"  />
<rect x="130.000000" y="10.000000" width="10.000000" height="10.000000" stroke="red" fill="yellow"  />
<rect x="140.000000" y="10.000000" width="10.000000" height="10.000000" stroke="red" fill="yellow"  />
<rect x="150.000000" y="10.000000" width="10.000000" height="10.000000" stroke="red" fill="yellow"  />
<rect x="160.000000" y="10.000000" width="10.000000" height="10.000000" stroke="red" fill="yellow"  />
<rect x="170.000000" y="10.000000" width="10.000000" height="10.000000" stroke="red" fill="yellow"  />
<rect x="180.000000" y="10.000000" width="10.000000" height="10.000000" stroke="red" fill="yellow"  />
<rect x="190.000000" y="10.000000" width="10.000000" height="10.000000" stroke="red" fill="yellow"  />
<rect x="0.000000" y="20.000000" width="10.000000" height="10.000000" stroke="red" fill="yellow"  />
<rect x="10.000000" y="20.000000" width="10.000000" height="10.000000" stroke="red" fill="yellow"  />
<rect x="20.000000" y="20.000000" width="10.000000" height="10.000000" stroke="red" fill="yellow"  />
<rect x="30.000000" y="20.000000" width="10.000000" height="10.000000" stroke="red" fill="yellow"  />
<rect x="40.000000" y="20.000000" width="10.000000" height="10.000000" stroke="red" fill="yellow"  />
<rect x="50.000000" y="20.000000" width="10.000000" height="10.000000" stroke="red" fill="yellow"  />
<rect x="60.000000" y="20.000000" width="10.000000" height="10.000000" stroke="red" fill="yellow"  />
<rect x="70.000000" y="20.000000" width="10.000000" height="10.000000" stroke="red" fill="yellow"  />
<rect x="80.000000" y="20.000000" width="10.000000" height="10.000000" stroke="red" fill="yellow"  />
<rect x="90.000000" y="20.000000" width="10.000000" height="10.000000" stroke="red" fill="yellow"  />
<rect x="100.000000" y="20.000000" width="10.000000" height="10.000000" stroke="red" fill="yellow"  />
<rect x="110.000000" y="20.000000" width="10.000000" height="10.000000" stroke="red" fill="yellow"  />
<rect x="120.000000" y="20.000000" width="10.000000" height="10.000000" stroke="red" fill="yellow"  />
<rect x="130.000000" y="20.000000" width="10.000000" height="10.000000" stroke="red" fill="yellow"  />
<rect x="140.000000" y="20.000000" width="10.000000" height="10.000000" stroke="red" fill="yellow"  />
<rect x="150.000000" y="20.000000" width="10.000000" height="10.000000" stroke="red" fill="yellow"  />
<rect x="160.000000" y="20.000000" width="10.000000" height="10.000000" stroke="red" fill="yellow"  />
<rect x="170.000000" y="20.000000" width="10.000000" height="10.000000" stroke="red" fill="yellow"  />
<rect x="180.000000" y="20.000000" width="10.000000" height="10.000000" stroke="red" fill="yellow"  />
<rect x="190.000000" y="20.000000" width="10.000000" height="10.000000" stroke="red" fill="yellow"  />
<rect x="0.000000" y="30.000000" width="10.000000" height="10.000000" stroke="red" fill="yellow"  />
<rect x="10.000000" y="30.000000" width="10.000000" height="10.000000" stroke="red" fill="yellow"  />
<rect x="20.000000" y="30.000000" width="10.000000" height="10.000000" stroke="red" fill="yellow"  />
<rect x="30.000000" y="30.000000" width="10.000000" height="10.000000" stroke="red" fill="yellow"  />
<rect x="40.000000" y="30.000000" width="10.000000" height="10.000000" stroke="red" fill="yellow"  />
<rect x="50.000000" y="30.000000" width="10.000000" height="10.000000" stroke="red" fill="yellow"  />
<rect x="60.000000" y="30.000000" width="10.000000" height="10.000000" stroke="red" fill="yellow"  />
<rect x="70.000000" y="30.000000" width="10.000000" height="10.000000" stroke="red" fill="yellow"  />
<rect x="80.000000" y="30.000000" width="10.000000" height="10.000000" stroke="red" fill="yellow"  />
<rect x="90.000000" y="30.000000" width="10.000000" height="10.000000" stroke="red" fill="yellow"  />
<rect x="100.000000" y="30.000000" width="10.000000" height="10.000000" stroke="red" fill="yellow"  />
<rect x="110.000000" y="30.000000" width="10.000000" height="10.000000" stroke="red" fill="yellow"  />
<rect x="120.000000" y="30.000000" width="10.000000" height="10.000000" stroke="red" fill="yellow"  />
<rect x="130.000000" y="30.000000" width="10.000000" height="10.000000" stroke="red" fill="yellow"  />
<rect x="140.000000" y="30.000000" width="10.000000" height="10.000000" stroke="red" fill="yellow"  />
<rect x="150.000000" y="30.000000" width="10.000000" height="10.000000" stroke="red" fill="yellow"  />
<rect x="160.000000" y="30.000000" width="10.000000" height="10.000000" stroke="red" fill="yellow"  />
<rect x="170.000000" y="30.000000" width="10.000000" height="10.000000" stroke="red" fill="yellow"  />
<rect x="180.000000" y="30.000000" width="10.000000" height="10.000000" stroke="red" fill="yellow"  />
<rect x="190.000000" y="30.000000" width="10.000000" height="10.000000" stroke="red" fill="yellow"  />
<rect x="0.000000" y="40.000000" width="10.000000" height="10.000000" stroke="red" fill="yellow"  />
<rect x="10.000000" y="40.000000" width="10.000000" height="10.000000" stroke="red" fill="yellow"  />
<rect x="20.000000" y="40.000000" width="10.000000" height="10.000000" stroke="red" fill="yellow"  />
<rect x="30.000000" y="40.000000" width="10.000000" height="10.000000" stroke="red" fill="yellow"  />
<rect x="40.000000" y="40.000000" width="10.000000" height="10.000000" stroke="red" fill="yellow"  />
<rect x="50.000000" y="40.000000" width="10.000000" height="10.000000" stroke="red" fill="yellow"  />
<rect x="60.000000" y="40.000000" width="10.000000" height="10.000000" stroke="red" fill="yellow"  />
<rect x="70.000000" y="40.000000" width="10.000000" height="10.000000" stroke="red" fill="yellow"  />
<rect x="80.000000" y="40.000000" width="10.000000" height="10.000000" stroke="red" fill="yellow"  />
<rect x="90.000000" y="40.000000" width="10.000000" height="10.000000" stroke="red" fill="yellow"  />
<rect x="100.000000" y="40.000000" width="10.000000" height="10.000000" stroke="red" fill="yellow"  />
<rect x="110.000000" y="40.000000" width="10.000000" height="10.000000" stroke="red" fill="yellow"  />
<rect x="120.000000" y="40.000000" width="10.000000" height="10.000000" stroke="red" fill="yellow"  />
<rect x="130.000000" y="40.000000" width="10.000000" height="10.000000" stroke="red" fill="yellow"  />
<rect x="140.000000" y="40.000000" width="10.000000" height="10.000000" stroke="red" fill="yellow"  />
<rect x="150.000000" y="40.000000" width="10.000000" height="10.000000" stroke="red" fill="yellow"  />
<rect x="160.000000" y="40.000000" width="10.000000" height="10.000000" stroke="red" fill="yellow"  />
<rect x="170.000000" y="40.000000" width="10.000000" height="10.000000" stroke="red" fill="yellow"  />
<rect x="180.000000" y="40.000000" width="10.000000" height="10.000000" stroke="red" fill="yellow"  />
<rect x="190.000000" y="40.000000" width="10.000000" height="10.000000" stroke="red" fill="yellow"  />
<rect x="0.000000" y="50.000000" width="10.000000" height="10.000000" stroke="red" fill="yellow"  />
<rect x="10.000000" y="50.000000" width="10.000000" height="10.000000" stroke="red" fill="yellow"  />
<rect x="20.000000" y="50.000000" width="10.000000" height="10.000000" stroke="red" fill="yellow"  />
<rect x="30.000000" y="50.000000" width="10.000000" height="10.000000" stroke="red" fill="yellow"  />
<rect x="40.000000" y="50.000000" width="10.000000" height="10.000000" stroke="red" fill="yellow"  />
<rect x="50.000000" y="50.000000" width="10.000000" height="10.000000" stroke="red" fill="yellow"  />
<rect x="60.000000" y="50.000000" width="10.000000" height="10.000000" stroke="red" fill="yellow"  />
<rect x="70.000000" y="50.000000" width="10.000000" height="10.000000" stroke="red" fill="yellow"  />
<rect x="80.000000" y="50.000000" width="10.000000" height="10.000000" stroke="red" fill="yellow"  />
<rect x="90.000000" y="50.000000" width="10.000000" height="10.000000" stroke="red" fill="yellow"  />
<rect x="100.000000" y="50.000000" width="10.000000" height="10.000000" stroke="red" fill="yellow"  />
<rect x="110.000000" y="50.000000" width="10.000000" height="10.000000" stroke="red" fill="yellow"  />
<rect x="120.000000" y="50.000000" width="10.000000" height="10.000000" stroke="red" fill="yellow"  />
<rect x="130.000000" y="50.000000" width="10.000000" height="10.000000" stroke="red" fill="yellow"  />
<rect x="140.000000" y="50.000000" width="10.000000" height="10.000000" stroke="red" fill="yellow"  />
<rect x="150.000000" y="50.000000" width="10.000000" height="10.000000" stroke="red" fill="yellow"  />
<rect x="160.000000" y="50.000000" width="10.000000" height="10.000000" stroke="red" fill="yellow"  />
<rect x="170.000000" y="50.000000" width="10.000000" height="10.000000" stroke="red" fill="yellow"  />
<rect x="180.000000" y="50.000000" width="10.000000" height="10.000000" stroke="red" fill="yellow"  />
<rect x="190.000000" y="50.000000" width="10.000000" height="10.000000" stroke="red" fill="yellow"  />
<rect x="0.000000" y="60.000000" width="10.000000" height="10.000000" stroke="red" fill="yellow"  />
<rect x="10.000000" y="60.000000" width="10.000000" height="10.000000" stroke="red" fill="yellow"  />
<rect x="20.000000" y="60.000000" width="10.000000" height="10.000000" stroke="red" fill="yellow"  />
<rect x="30.000000" y="60.000000" width="10.000000" height="10.000000" stroke="red" fill="yellow"  />
<rect x="40.000000" y="60.000000" width="10.000000" height="10.000000" stroke="red" fill="yellow"  />
<rect x="50.000000" y="60.000000" width="10.000000" height="10.000000" stroke="red" fill="yellow"  />
<rect x="60.000000" y="60.000000" width="10.000000" height="10.000000" stroke="red" fill="yellow"  />
<rect x="70.000000" y="60.000000" width="10.000000" height="10.000000" stroke="red" fill="yellow"  />
<rect x="80.000000" y="60.000000" width="10.000000" height="10.000000" stroke="red" fill="yellow"  />
<rect x="90.000000" y="60.000000" width="10.000000" height="10.000000" stroke="red" fill="yellow"  />
<rect x="100.000000" y="60.000000" width="10.000000" height="10.000000" stroke="red" fill="yellow"  />
<rect x="110.000000" y="60.000000" width="10.000000" height="10.000000" stroke="red" fill="yellow"  />
<rect x="120.000000" y="60.000000" width="10.000000" height="10.000000" stroke="red" fill="yellow"  />
<rect x="130.000000" y="60.000000" width="10.000000" height="10.000000" stroke="red" fill="yellow"  />
<rect x="140.000000" y="60.000000" width="10.000000" height="10.000000" stroke="red" fill="yellow"  />
<rect x="150.000000" y="60.000000" width="10.000000" height="10.000000" stroke="red" fill="yellow"  />
<rect x="160.000000" y="60.000000" width="10.000000" height="10.000000" stroke="red" fill="yellow"  />
<rect x="170.000000" y="60.000000" width="10.000000" height="10.000000" stroke="red" fill="yellow"  />
<rect x="180.000000" y="60.000000" width="10.000000" height="10.000000" stroke="red" fill="yellow"  />
<rect x="190.000000" y="60.000000" width="10.000000" height="10.000000" stroke="red" fill="yellow"  />
<rect x="0.000000" y="70.000000" width="10.000000" height="10.000000" stroke="red" fill="yellow"  />
<rect x="10.000000" y="70.000000" width="10.000000" height="10.000000" stroke="red" fill="yellow"  />
<rect x="20.000000" y="70.000000" width="10.000000" height="10.000000" stroke="red" fill="yellow"  />
<rect x="30.000000" y="70.000000" width="10.000000" height="10.000000" stroke="red" fill="yellow"  />
<rect x="40.000000" y="70.000000" width="10.000000" height="10.000000" stroke="red" fill="yellow"  />
<rect x="50.000000" y="70.000000" width="10.000000" height="10.000000" stroke="red" fill="yellow"  />
<rect x="60.000000" y="70.000000" width="10.000000" height="10.000000" stroke="red" fill="yellow"  />
<rect x="70.000000" y="70.000000" width="10.000000" height="10.000000" stroke="red" fill="yellow"  />
<rect x="80.000000" y="70.000000" width="10.000000" height="10.000000" stroke="red" fill="yellow"  />
<rect x="90.000000" y="70.000000" width="10.000000" height="10.000000" stroke="red" fill="yellow"  />
<rect x="100.000000" y="70.000000" width="10.000000" height="10.000000" stroke="red" fill="yellow"  />
<rect x="110.000000" y="70.000000" width="10.000000" height="10.000000" stroke="red" fill="yellow"  />
<rect x="120.000000" y="70.000000" width="10.000000" height="10.000000" stroke="red" fill="yellow"  />
<rect x="130.000000" y="70.000000" width="10.000000" height="10.000000" stroke="red" fill="yellow"  />
<rect x="140.000000" y="70.000000" width="10.000000" height="10.000000" stroke="red" fill="yellow"  />
<rect x="150.000000" y="70.000000" width="10.000000" height="10.000000" stroke="red" fill="yellow"  />
<rect x="160.000000" y="70.000000" width="10.000000" height="10.000000" stroke="red" fill="yellow"  />
<rect x="170.000000" y="70.000000" width="10.000000" height="10.000000" stroke="red" fill="yellow"  />
<rect x="180.000000" y="70.000000" width="10.000000" height="10.000000" stroke="red" fill="yellow"  />
<rect x="190.000000" y="70.000000" width="10.000000" height="10.000000" stroke="red" fill="yellow"  />
<rect x="0.000000" y="80.000000" width="10.000000" height="10.000000" stroke="red" fill="yellow"  />
<rect x="10.000000" y="80.000000" width="10.000000" height="10.000000" stroke="red" fill="yellow"  />
<rect x="20.000000" y="80.000000" width="10.000000" height="10.000000" stroke="red" fill="yellow"  />
<rect x="30.000000" y="80.000000" width="10.000000" height="10.000000" stroke="red" fill="yellow"  />
<rect x="40.000000" y="80.000000" width="10.000000" height="10.000000" stroke="red" fill="yellow"  />
<rect x="50.000000" y="80.000000" width="10.000000" height="10.000000" stroke="red" fill="yellow"  />
<rect x="60.000000" y="80.000000" width="10.000000" height="10.000000" stroke="red" fill="yellow"  />
<rect x="70.000000" y="80.000000" width="10.000000" height="10.000000" stroke="red" fill="yellow"  />
<rect x="80.000000" y="80.000000" width="10.000000" height="10.000000" stroke="red" fill="yellow"  />
<rect x="90.000000" y="80.000000" width="10.000000" height="10.000000" stroke="red" fill="yellow"  />
<rect x="100.000000" y="80.000000" width="10.000000" height="10.000000" stroke="red" fill="yellow"  />
<rect x="110.000000" y="80.000000" width="10.000000" height="10.000000" stroke="red" fill="yellow"  />
<rect x="120.000000" y="80.000000" width="10.000000" height="10.000000" stroke="red" fill="yellow"  />
<rect x="130.000000" y="80.000000" width="10.000000" height="10.000000" stroke="red" fill="yellow"  />
<rect x="140.000000" y="80.000000" width="10.000000" height="10.000000" stroke="red" fill="yellow"  />
<rect x="150.000000" y="80.000000" width="10.000000" height="10.000000" stroke="red" fill="yellow"  />
<rect x="160.000000" y="80.000000" width="10.000000" height="10.000000" stroke="red" fill="yellow"  />
<rect x="170.000000" y="80.000000" width="10.000000" height="10.000000" stroke="red" fill="yellow"  />
<rect x="180.000000" y="80.000000" width="10.000000" height="10.000000" stroke="red" fill="yellow"  />
<rect x="190.000000" y="80.000000" width="10.000000" height="10.000000" stroke="red" fill="yellow"  />
<rect x="0.000000" y="90.000000" width="10.000000" height="10.000000" stroke="red" fill="yellow"  />
<rect x="10.000000" y="90.000000" width="10.000000" height="10.000000" stroke="red" fill="yellow"  />
<rect x="20.000000" y="90.000000" width="10.000000" height="10.000000" stroke="red" fill="yellow"  />
<rect x="30.000000" y="90.000000" width="10.000000" height="10.000000" stroke="red" fill="yellow"  />
<rect x="40.000000" y="90.000000" width="10.000000" height="10.000000" stroke="red" fill="yellow"  />
<rect x="50.000000" y="90.000000" width="10.000000" height="10.000000" stroke="red" fill="yellow"  />
<rect x="60.000000" y="90.000000" width="10.000000" height="10.000000" stroke="red" fill="yellow"  />
<rect x="70.000000" y="90.000000" width="10.000000" height="10.000000" stroke="red" fill="yellow"  />
<rect x="80.000000" y="90.000000" width="10.000000" height="10.000000" stroke="red" fill="yellow"  />
<rect x="90.000000" y="90.000000" width="10.000000" height="10.000000" stroke="red" fill="yellow"  />
<rect x="100.000000" y="90.000000" width="10.000000" height="10.000000" stroke="red" fill="yellow"  />
<rect x="110.000000" y="90.000000" width="10.000000" height="10.000000" stroke="red" fill="yellow"  />
<rect x="120.000000" y="90.000000" width="10.000000" height="10.000000" stroke="red" fill="yellow"  />
<rect x="130.000000" y="90.000000" width="10.000000" height="10.000000" stroke="red" fill="yellow"  />
<rect x="140.000000" y="90.000000" width="10.000000" height="10.000000" stroke="red" fill="yellow"  />
<rect x="150.000000" y="90.000000" width="10.000000" height="10.000000" stroke="red" fill="yellow"  />
<rect x="160.000000" y="90.000000" width="10.000000" height="10.000000" stroke="red" fill="yellow"  />
<rect x="170.000000" y="90.000000" width="10.000000" height="10.000000" stroke="red" fill="yellow"  />
<rect x="180.000000" y="90.000000" width="10.000000" height="10.000000" stroke="red" fill="yellow"  />
<rect x="190.000000" y="90.000000" width="10.000000" height="10.000000" stroke="red" fill="yellow"  />
</svg>
