<?xml version="1.0" standalone="no"?>
<svg width="300" height="300" version="1.1" xmlns="http://www.w3.org/2000/svg">
<polygon points="100.000000 0.000000 0.000000 173.205081 200.000000 173.205081" stroke="green" fill="brown"/>
<polygon points="5.000000 164.544827 0.000000 173.205081 10.000000 173.205081" stroke="green" fill="brown"/>
<polygon points="5.000000 164.544827 10.000000 173.205081 15.000000 164.544827" stroke="green" fill="brown"/>
<polygon points="15.000000 164.544827 10.000000 173.205081 20.000000 173.205081" stroke="green" fill="brown"/>
<polygon points="15.000000 164.544827 20.000000 173.205081 25.000000 164.544827" stroke="green" fill="brown"/>
<polygon points="25.000000 164.544827 20.000000 173.205081 30.000000 173.205081" stroke="green" fill="brown"/>
<polygon points="25.000000 164.544827 30.000000 173.205081 35.000000 164.544827" stroke="green" fill="brown"/>
<polygon points="35.000000 164.544827 30.000000 173.205081 40.000000 173.205081" stroke="green" fill="brown"/>
<polygon points="35.000000 164.544827 40.000000 173.205081 45.000000 164.544827" stroke="green" fill="brown"/>
<polygon points="45.000000 164.544827 40.000000 173.205081 50.000000 173.205081" stroke="green" fill="brown"/>
<polygon points="45.000000 164.544827 50.000000 173.205081 55.000000 164.544827" stroke="green" fill="brown"/>
<polygon points="55.000000 164.544827 50.000000 173.205081 60.000000 173.205081" stroke="green" fill="brown"/>
<polygon points="55.000000 164.544827 60.000000 173.205081 65.000000 164.544827" stroke="green" fill="brown"/>
<polygon points="65.000000 164.544827 60.000000 173.205081 70.000000 173.205081" stroke="green" fill="brown"/>
<polygon points="65.000000 164.544827 70.000000 173.205081 75.000000 164.544827" stroke="green" fill="brown"/>
<polygon points="75.000000 164.544827 70.000000 173.205081 80.000000 173.205081" stroke="green" fill="brown"/>
<polygon points="75.000000 164.544827 80.000000 173.205081 85.000000 164.544827" stroke="green" fill="brown"/>
<polygon points="85.000000 164.544827 80.000000 173.205081 90.000000 173.205081" stroke="green" fill="brown"/>
<polygon points="85.000000 164.544827 90.000000 173.205081 95.000000 164.544827" stroke="green" fill="brown"/>
<polygon points="95.000000 164.544827 90.000000 173.205081 100.000000 173.205081" stroke="green" fill="brown"/>
<polygon points="95.000000 164.544827 100.000000 173.205081 105.000000 164.544827" stroke="green" fill="brown"/>
<polygon points="105.000000 164.544827 100.000000 173.205081 110.000000 173.205081" stroke="green" fill="brown"/>
<polygon points="105.000000 164.544827 110.000000 173.205081 115.000000 164.544827" stroke="green" fill="brown"/>
<polygon points="115.000000 164.544827 110.000000 173.205081 120.000000 173.205081" stroke="green" fill="brown"/>
<polygon points="115.000000 164.544827 120.000000 173.205081 125.000000 164.544827" stroke="green" fill="brown"/>
<polygon points="125.000000 164.544827 120.000000 173.205081 130.000000 173.205081" stroke="green" fill="brown"/>
<polygon points="125.000000 164.544827 130.000000 173.205081 135.000000 164.544827" stroke="green" fill="brown"/>
<polygon points="135.000000 164.544827 130.000000 173.205081 140.000000 173.205081" stroke="green" fill="brown"/>
<polygon points="135.000000 164.544827 140.000000 173.205081 145.000000 164.544827" stroke="green" fill="brown"/>
<polygon points="145.000000 164.544827 140.000000 173.205081 150.000000 173.205081" stroke="green" fill="brown"/>
<polygon points="145.000000 164.544827 150.000000 173.205081 155.000000 164.544827" stroke="green" fill="brown"/>
<polygon points="155.000000 164.544827 150.000000 173.205081 160.000000 173.205081" stroke="green" fill="brown"/>
<polygon points="155.000000 164.544827 160.000000 173.205081 165.000000 164.544827" stroke="green" fill="brown"/>
<polygon points="165.000000 164.544827 160.000000 173.205081 170.000000 173.205081" stroke="green" fill="brown"/>
<polygon points="165.000000 164.544827 170.000000 173.205081 175.000000 164.544827" stroke="green" fill="brown"/>
<polygon points="175.000000 164.544827 170.000000 173.205081 180.000000 173.205081" stroke="green" fill="brown"/>
<polygon points="175.000000 164.544827 180.000000 173.205081 185.000000 164.544827" stroke="green" fill="brown"/>
<polygon points="185.000000 164.544827 180.000000 173.205081 190.000000 173.205081" stroke="green" fill="brown"/>
<polygon points="185.000000 164.544827 190.000000 173.205081 195.000000 164.544827" stroke="green" fill="brown"/>
<polygon points="195.000000 164.544827 190.000000 173.205081 200.000000 173.205081" stroke="green" fill="brown"/>
<polygon points="10.000000 155.884573 5.000000 164.544827 15.000000 164.544827" stroke="green" fill="brown"/>
<polygon points="10.000000 155.884573 15.000000 164.544827 20.000000 155.884573" stroke="green" fill="brown"/>
<polygon points="20.000000 155.884573 15.000000 164.544827 25.000000 164.544827" stroke="green" fill="brown"/>
<polygon points="20.000000 155.884573 25.000000 164.544827 30.000000 155.884573" stroke="green" fill="brown"/>
<polygon points="30.000000 155.884573 25.000000 164.544827 35.000000 164.544827" stroke="green" fill="brown"/>
<polygon points="30.000000 155.884573 35.000000 164.544827 40.000000 155.884573" stroke="green" fill="brown"/>
<polygon points="40.000000 155.884573 35.000000 164.544827 45.000000 164.544827" stroke="green" fill="brown"/>
<polygon points="40.000000 155.884573 45.000000 164.544827 50.000000 155.884573" stroke="green" fill="brown"/>
<polygon points="50.000000 155.884573 45.000000 164.544827 55.000000 164.544827" stroke="green" fill="brown"/>
<polygon points="50.000000 155.884573 55.000000 164.544827 60.000000 155.884573" stroke="green" fill="brown"/>
<polygon points="60.000000 155.884573 55.000000 164.544827 65.000000 164.544827" stroke="green" fill="brown"/>
<polygon points="60.000000 155.884573 65.000000 164.544827 70.000000 155.884573" stroke="green" fill="brown"/>
<polygon points="70.000000 155.884573 65.000000 164.544827 75.000000 164.544827" stroke="green" fill="brown"/>
<polygon points="70.000000 155.884573 75.000000 164.544827 80.000000 155.884573" stroke="green" fill="brown"/>
<polygon points="80.000000 155.884573 75.000000 164.544827 85.000000 164.544827" stroke="green" fill="brown"/>
<polygon points="80.000000 155.884573 85.000000 164.544827 90.000000 155.884573" stroke="green" fill="brown"/>
<polygon points="90.000000 155.884573 85.000000 164.544827 95.000000 164.544827" stroke="green" fill="brown"/>
<polygon points="90.000000 155.884573 95.000000 164.544827 100.000000 155.884573" stroke="green" fill="brown"/>
<polygon points="100.000000 155.884573 95.000000 164.544827 105.000000 164.544827" stroke="green" fill="brown"/>
<polygon points="100.000000 155.884573 105.000000 164.544827 110.000000 155.884573" stroke="green" fill="brown"/>
<polygon points="110.000000 155.884573 105.000000 164.544827 115.000000 164.544827" stroke="green" fill="brown"/>
<polygon points="110.000000 155.884573 115.000000 164.544827 120.000000 155.884573" stroke="green" fill="brown"/>
<polygon points="120.000000 155.884573 115.000000 164.544827 125.000000 164.544827" stroke="green" fill="brown"/>
<polygon points="120.000000 155.884573 125.000000 164.544827 130.000000 155.884573" stroke="green" fill="brown"/>
<polygon points="130.000000 155.884573 125.000000 164.544827 135.000000 164.544827" stroke="green" fill="brown"/>
<polygon points="130.000000 155.884573 135.000000 164.544827 140.000000 155.884573" stroke="green" fill="brown"/>
<polygon points="140.000000 155.884573 135.000000 164.544827 145.000000 164.544827" stroke="green" fill="brown"/>
<polygon points="140.000000 155.884573 145.000000 164.544827 150.000000 155.884573" stroke="green" fill="brown"/>
<polygon points="150.000000 155.884573 145.000000 164.544827 155.000000 164.544827" stroke="green" fill="brown"/>
<polygon points="150.000000 155.884573 155.000000 164.544827 160.000000 155.884573" stroke="green" fill="brown"/>
<polygon points="160.000000 155.884573 155.000000 164.544827 165.000000 164.544827" stroke="green" fill="brown"/>
<polygon points="160.000000 155.884573 165.000000 164.544827 170.000000 155.884573" stroke="green" fill="brown"/>
<polygon points="170.000000 155.884573 165.000000 164.544827 175.000000 164.544827" stroke="green" fill="brown"/>
<polygon points="170.000000 155.884573 175.000000 164.544827 180.000000 155.884573" stroke="green" fill="brown"/>
<polygon points="180.000000 155.884573 175.000000 164.544827 185.000000 164.544827" stroke="green" fill="brown"/>
<polygon points="180.000000 155.884573 185.000000 164.544827 190.000000 155.884573" stroke="green" fill="brown"/>
<polygon points="190.000000 155.884573 185.000000 164.544827 195.000000 164.544827" stroke="green" fill="brown"/>
<polygon points="15.000000 147.224319 10.000000 155.884573 20.000000 155.884573" stroke="green" fill="brown"/>
<polygon points="15.000000 147.224319 20.000000 155.884573 25.000000 147.224319" stroke="green" fill="brown"/>
<polygon points="25.000000 147.224319 20.000000 155.884573 30.000000 155.884573" stroke="green" fill="brown"/>
<polygon points="25.000000 147.224319 30.000000 155.884573 35.000000 147.224319" stroke="green" fill="brown"/>
<polygon points="35.000000 147.224319 30.000000 155.884573 40.000000 155.884573" stroke="green" fill="brown"/>
<polygon points="35.000000 147.224319 40.000000 155.884573 45.000000 147.224319" stroke="green" fill="brown"/>
<polygon points="45.000000 147.224319 40.000000 155.884573 50.000000 155.884573" stroke="green" fill="brown"/>
<polygon points="45.000000 147.224319 50.000000 155.884573 55.000000 147.224319" stroke="green" fill="brown"/>
<polygon points="55.000000 147.224319 50.000000 155.884573 60.000000 155.884573" stroke="green" fill="brown"/>
<polygon points="55.000000 147.224319 60.000000 155.884573 65.000000 147.224319" stroke="green" fill="brown"/>
<polygon points="65.000000 147.224319 60.000000 155.884573 70.000000 155.884573" stroke="green" fill="brown"/>
<polygon points="65.000000 147.224319 70.000000 155.884573 75.000000 147.224319" stroke="green" fill="brown"/>
<polygon points="75.000000 147.224319 70.000000 155.884573 80.000000 155.884573" stroke="green" fill="brown"/>
<polygon points="75.000000 147.224319 80.000000 155.884573 85.000000 147.224319" stroke="green" fill="brown"/>
<polygon points="85.000000 147.224319 80.000000 155.884573 90.000000 155.884573" stroke="green" fill="brown"/>
<polygon points="85.000000 147.224319 90.000000 155.884573 95.000000 147.224319" stroke="green" fill="brown"/>
<polygon points="95.000000 147.224319 90.000000 155.884573 100.000000 155.884573" stroke="green" fill="brown"/>
<polygon points="95.000000 147.224319 100.000000 155.884573 105.000000 147.224319" stroke="green" fill="brown"/>
<polygon points="105.000000 147.224319 100.000000 155.884573 110.000000 155.884573" stroke="green" fill="brown"/>
<polygon points="105.000000 147.224319 110.000000 155.884573 115.000000 147.224319" stroke="green" fill="brown"/>
<polygon points="115.000000 147.224319 110.000000 155.884573 120.000000 155.884573" stroke="green" fill="brown"/>
<polygon points="115.000000 147.224319 120.000000 155.884573 125.000000 147.224319" stroke="green" fill="brown"/>
<polygon points="125.000000 147.224319 120.000000 155.884573 130.000000 155.884573" stroke="green" fill="brown"/>
<polygon points="125.000000 147.224319 130.000000 155.884573 135.000000 147.224319" stroke="green" fill="brown"/>
<polygon points="135.000000 147.224319 130.000000 155.884573 140.000000 155.884573" stroke="green" fill="brown"/>
<polygon points="135.000000 147.224319 140.000000 155.884573 145.000000 147.224319" stroke="green" fill="brown"/>
<polygon points="145.000000 147.224319 140.000000 155.884573 150.000000 155.884573" stroke="green" fill="brown"/>
<polygon points="145.000000 147.224319 150.000000 155.884573 155.000000 147.224319" stroke="green" fill="brown"/>
<polygon points="155.000000 147.224319 150.000000 155.884573 160.000000 155.884573" stroke="green" fill="brown"/>
<polygon points="155.000000 147.224319 160.000000 155.884573 165.000000 147.224319" stroke="green" fill="brown"/>
<polygon points="165.000000 147.224319 160.000000 155.884573 170.000000 155.884573" stroke="green" fill="brown"/>
<polygon points="165.000000 147.224319 170.000000 155.884573 175.000000 147.224319" stroke="green" fill="brown"/>
<polygon points="175.000000 147.224319 170.000000 155.884573 180.000000 155.884573" stroke="green" fill="brown"/>
<polygon points="175.000000 147.224319 180.000000 155.884573 185.000000 147.224319" stroke="green" fill="brown"/>
<polygon points="185.000000 147.224319 180.000000 155.884573 190.000000 155.884573" stroke="green" fill="brown"/>
<polygon points="20.000000 138.564065 15.000000 147.224319 25.000000 147.224319" stroke="green" fill="brown"/>
<polygon points="20.000000 138.564065 25.000000 147.224319 30.000000 138.564065" stroke="green" fill="brown"/>
<polygon points="30.000000 138.564065 25.000000 147.224319 35.000000 147.224319" stroke="green" fill="brown"/>
<polygon points="30.000000 138.564065 35.000000 147.224319 40.000000 138.564065" stroke="green" fill="brown"/>
<polygon points="40.000000 138.564065 35.000000 147.224319 45.000000 147.224319" stroke="green" fill="brown"/>
<polygon points="40.000000 138.564065 45.000000 147.224319 50.000000 138.564065" stroke="green" fill="brown"/>
<polygon points="50.000000 138.564065 45.000000 147.224319 55.000000 147.224319" stroke="green" fill="brown"/>
<polygon points="50.000000 138.564065 55.000000 147.224319 60.000000 138.564065" stroke="green" fill="brown"/>
<polygon points="60.000000 138.564065 55.000000 147.224319 65.000000 147.224319" stroke="green" fill="brown"/>
<polygon points="60.000000 138.564065 65.000000 147.224319 70.000000 138.564065" stroke="green" fill="brown"/>
<polygon points="70.000000 138.564065 65.000000 147.224319 75.000000 147.224319" stroke="green" fill="brown"/>
<polygon points="70.000000 138.564065 75.000000 147.224319 80.000000 138.564065" stroke="green" fill="brown"/>
<polygon points="80.000000 138.564065 75.000000 147.224319 85.000000 147.224319" stroke="green" fill="brown"/>
<polygon points="80.000000 138.564065 85.000000 147.224319 90.000000 138.564065" stroke="green" fill="brown"/>
<polygon points="90.000000 138.564065 85.000000 147.224319 95.000000 147.224319" stroke="green" fill="brown"/>
<polygon points="90.000000 138.564065 95.000000 147.224319 100.000000 138.564065" stroke="green" fill="brown"/>
<polygon points="100.000000 138.564065 95.000000 147.224319 105.000000 147.224319" stroke="green" fill="brown"/>
<polygon points="100.000000 138.564065 105.000000 147.224319 110.000000 138.564065" stroke="green" fill="brown"/>
<polygon points="110.000000 138.564065 105.000000 147.224319 115.000000 147.224319" stroke="green" fill="brown"/>
<polygon points="110.000000 138.564065 115.000000 147.224319 120.000000 138.564065" stroke="green" fill="brown"/>
<polygon points="120.000000 138.564065 115.000000 147.224319 125.000000 147.224319" stroke="green" fill="brown"/>
<polygon points="120.000000 138.564065 125.000000 147.224319 130.000000 138.564065" stroke="green" fill="brown"/>
<polygon points="130.000000 138.564065 125.000000 147.224319 135.000000 147.224319" stroke="green" fill="brown"/>
<polygon points="130.000000 138.564065 135.000000 147.224319 140.000000 138.564065" stroke="green" fill="brown"/>
<polygon points="140.000000 138.564065 135.000000 147.224319 145.000000 147.224319" stroke="green" fill="brown"/>
<polygon points="140.000000 138.564065 145.000000 147.224319 150.000000 138.564065" stroke="green" fill="brown"/>
<polygon points="150.000000 138.564065 145.000000 147.224319 155.000000 147.224319" stroke="green" fill="brown"/>
<polygon points="150.000000 138.564065 155.000000 147.224319 160.000000 138.564065" stroke="green" fill="brown"/>
<polygon points="160.000000 138.564065 155.000000 147.224319 165.000000 147.224319" stroke="green" fill="brown"/>
<polygon points="160.000000 138.564065 165.000000 147.224319 170.000000 138.564065" stroke="green" fill="brown"/>
<polygon points="170.000000 138.564065 165.000000 147.224319 175.000000 147.224319" stroke="green" fill="brown"/>
<polygon points="170.000000 138.564065 175.000000 147.224319 180.000000 138.564065" stroke="green" fill="brown"/>
<polygon points="180.000000 138.564065 175.000000 147.224319 185.000000 147.224319" stroke="green" fill="brown"/>
<polygon points="25.000000 129.903811 20.000000 138.564065 30.000000 138.564065" stroke="green" fill="brown"/>
<polygon points="25.000000 129.903811 30.000000 138.564065 35.000000 129.903811" stroke="green" fill="brown"/>
<polygon points="35.000000 129.903811 30.000000 138.564065 40.000000 138.564065" stroke="green" fill="brown"/>
<polygon points="35.000000 129.903811 40.000000 138.564065 45.000000 129.903811" stroke="green" fill="brown"/>
<polygon points="45.000000 129.903811 40.000000 138.564065 50.000000 138.564065" stroke="green" fill="brown"/>
<polygon points="45.000000 129.903811 50.000000 138.564065 55.000000 129.903811" stroke="green" fill="brown"/>
<polygon points="55.000000 129.903811 50.000000 138.564065 60.000000 138.564065" stroke="green" fill="brown"/>
<polygon points="55.000000 129.903811 60.000000 138.564065 65.000000 129.903811" stroke="green" fill="brown"/>
<polygon points="65.000000 129.903811 60.000000 138.564065 70.000000 138.564065" stroke="green" fill="brown"/>
<polygon points="65.000000 129.903811 70.000000 138.564065 75.000000 129.903811" stroke="green" fill="brown"/>
<polygon points="75.000000 129.903811 70.000000 138.564065 80.000000 138.564065" stroke="green" fill="brown"/>
<polygon points="75.000000 129.903811 80.000000 138.564065 85.000000 129.903811" stroke="green" fill="brown"/>
<polygon points="85.000000 129.903811 80.000000 138.564065 90.000000 138.564065" stroke="green" fill="brown"/>
<polygon points="85.000000 129.903811 90.000000 138.564065 95.000000 129.903811" stroke="green" fill="brown"/>
<polygon points="95.000000 129.903811 90.000000 138.564065 100.000000 138.564065" stroke="green" fill="brown"/>
<polygon points="95.000000 129.903811 100.000000 138.564065 105.000000 129.903811" stroke="green" fill="brown"/>
<polygon points="105.000000 129.903811 100.000000 138.564065 110.000000 138.564065" stroke="green" fill="brown"/>
<polygon points="105.000000 129.903811 110.000000 138.564065 115.000000 129.903811" stroke="green" fill="brown"/>
<polygon points="115.000000 129.903811 110.000000 138.564065 120.000000 138.564065" stroke="green" fill="brown"/>
<polygon points="115.000000 129.903811 120.000000 138.564065 125.000000 129.903811" stroke="green" fill="brown"/>
<polygon points="125.000000 129.903811 120.000000 138.564065 130.000000 138.564065" stroke="green" fill="brown"/>
<polygon points="125.000000 129.903811 130.000000 138.564065 135.000000 129.903811" stroke="green" fill="brown"/>
<polygon points="135.000000 129.903811 130.000000 138.564065 140.000000 138.564065" stroke="green" fill="brown"/>
<polygon points="135.000000 129.903811 140.000000 138.564065 145.000000 129.903811" stroke="green" fill="brown"/>
<polygon points="145.000000 129.903811 140.000000 138.564065 150.000000 138.564065" stroke="green" fill="brown"/>
<polygon points="145.000000 129.903811 150.000000 138.564065 155.000000 129.903811" stroke="green" fill="brown"/>
<polygon points="155.000000 129.903811 150.000000 138.564065 160.000000 138.564065" stroke="green" fill="brown"/>
<polygon points="155.000000 129.903811 160.000000 138.564065 165.000000 129.903811" stroke="green" fill="brown"/>
<polygon points="165.000000 129.903811 160.000000 138.564065 170.000000 138.564065" stroke="green" fill="brown"/>
<polygon points="165.000000 129.903811 170.000000 138.564065 175.000000 129.903811" stroke="green" fill="brown"/>
<polygon points="175.000000 129.903811 170.000000 138.564065 180.000000 138.564065" stroke="green" fill="brown"/>
<polygon points="30.000000 121.243557 25.000000 129.903811 35.000000 129.903811" stroke="green" fill="brown"/>
<polygon points="30.000000 121.243557 35.000000 129.903811 40.000000 121.243557" stroke="green" fill="brown"/>
<polygon points="40.000000 121.243557 35.000000 129.903811 45.000000 129.903811" stroke="green" fill="brown"/>
<polygon points="40.000000 121.243557 45.000000 129.903811 50.000000 121.243557" stroke="green" fill="brown"/>
<polygon points="50.000000 121.243557 45.000000 129.903811 55.000000 129.903811" stroke="green" fill="brown"/>
<polygon points="50.000000 121.243557 55.000000 129.903811 60.000000 121.243557" stroke="green" fill="brown"/>
<polygon points="60.000000 121.243557 55.000000 129.903811 65.000000 129.903811" stroke="green" fill="brown"/>
<polygon points="60.000000 121.243557 65.000000 129.903811 70.000000 121.243557" stroke="green" fill="brown"/>
<polygon points="70.000000 121.243557 65.000000 129.903811 75.000000 129.903811" stroke="green" fill="brown"/>
<polygon points="70.000000 121.243557 75.000000 129.903811 80.000000 121.243557" stroke="green" fill="brown"/>
<polygon points="80.000000 121.243557 75.000000 129.903811 85.000000 129.903811" stroke="green" fill="brown"/>
<polygon points="80.000000 121.243557 85.000000 129.903811 90.000000 121.243557" stroke="green" fill="brown"/>
<polygon points="90.000000 121.243557 85.000000 129.903811 95.000000 129.903811" stroke="green" fill="brown"/>
<polygon points="90.000000 121.243557 95.000000 129.903811 100.000000 121.243557" stroke="green" fill="brown"/>
<polygon points="100.000000 121.243557 95.000000 129.903811 105.000000 129.903811" stroke="green" fill="brown"/>
<polygon points="100.000000 121.243557 105.000000 129.903811 110.000000 121.243557" stroke="green" fill="brown"/>
<polygon points="110.000000 121.243557 105.000000 129.903811 115.000000 129.903811" stroke="green" fill="brown"/>
<polygon points="110.000000 121.243557 115.000000 129.903811 120.000000 121.243557" stroke="green" fill="brown"/>
<polygon points="120.000000 121.243557 115.000000 129.903811 125.000000 129.903811" stroke="green" fill="brown"/>
<polygon points="120.000000 121.243557 125.000000 129.903811 130.000000 121.243557" stroke="green" fill="brown"/>
<polygon points="130.000000 121.243557 125.000000 129.903811 135.000000 129.903811" stroke="green" fill="brown"/>
<polygon points="130.000000 121.243557 135.000000 129.903811 140.000000 121.243557" stroke="green" fill="brown"/>
<polygon points="140.000000 121.243557 135.000000 129.903811 145.000000 129.903811" stroke="green" fill="brown"/>
<polygon points="140.000000 121.243557 145.000000 129.903811 150.000000 121.243557" stroke="green" fill="brown"/>
<polygon points="150.000000 121.243557 145.000000 129.903811 155.000000 129.903811" stroke="green" fill="brown"/>
<polygon points="150.000000 121.243557 155.000000 129.903811 160.000000 121.243557" stroke="green" fill="brown"/>
<polygon points="160.000000 121.243557 155.000000 129.903811 165.000000 129.903811" stroke="green" fill="brown"/>
<polygon points="160.000000 121.243557 165.000000 129.903811 170.000000 121.243557" stroke="green" fill="brown"/>
<polygon points="170.000000 121.243557 165.000000 129.903811 175.000000 129.903811" stroke="green" fill="brown"/>
<polygon points="35.000000 112.583302 30.000000 121.243557 40.000000 121.243557" stroke="green" fill="brown"/>
<polygon points="35.000000 112.583302 40.000000 121.243557 45.000000 112.583302" stroke="green" fill="brown"/>
<polygon points="45.000000 112.583302 40.000000 121.243557 50.000000 121.243557" stroke="green" fill="brown"/>
<polygon points="45.000000 112.583302 50.000000 121.243557 55.000000 112.583302" stroke="green" fill="brown"/>
<polygon points="55.000000 112.583302 50.000000 121.243557 60.000000 121.243557" stroke="green" fill="brown"/>
<polygon points="55.000000 112.583302 60.000000 121.243557 65.000000 112.583302" stroke="green" fill="brown"/>
<polygon points="65.000000 112.583302 60.000000 121.243557 70.000000 121.243557" stroke="green" fill="brown"/>
<polygon points="65.000000 112.583302 70.000000 121.243557 75.000000 112.583302" stroke="green" fill="brown"/>
<polygon points="75.000000 112.583302 70.000000 121.243557 80.000000 121.243557" stroke="green" fill="brown"/>
<polygon points="75.000000 112.583302 80.000000 121.243557 85.000000 112.583302" stroke="green" fill="brown"/>
<polygon points="85.000000 112.583302 80.000000 121.243557 90.000000 121.243557" stroke="green" fill="brown"/>
<polygon points="85.000000 112.583302 90.000000 121.243557 95.000000 112.583302" stroke="green" fill="brown"/>
<polygon points="95.000000 112.583302 90.000000 121.243557 100.000000 121.243557" stroke="green" fill="brown"/>
<polygon points="95.000000 112.583302 100.000000 121.243557 105.000000 112.583302" stroke="green" fill="brown"/>
<polygon points="105.000000 112.583302 100.000000 121.243557 110.000000 121.243557" stroke="green" fill="brown"/>
<polygon points="105.000000 112.583302 110.000000 121.243557 115.000000 112.583302" stroke="green" fill="brown"/>
<polygon points="115.000000 112.583302 110.000000 121.243557 120.000000 121.243557" stroke="green" fill="brown"/>
<polygon points="115.000000 112.583302 120.000000 121.243557 125.000000 112.583302" stroke="green" fill="brown"/>
<polygon points="125.000000 112.583302 120.000000 121.243557 130.000000 121.243557" stroke="green" fill="brown"/>
<polygon points="125.000000 112.583302 130.000000 121.243557 135.000000 112.583302" stroke="green" fill="brown"/>
<polygon points="135.000000 112.583302 130.000000 121.243557 140.000000 121.243557" stroke="green" fill="brown"/>
<polygon points="135.000000 112.583302 140.000000 121.243557 145.000000 112.583302" stroke="green" fill="brown"/>
<polygon points="145.000000 112.583302 140.000000 121.243557 150.000000 121.243557" stroke="green" fill="brown"/>
<polygon points="145.000000 112.583302 150.000000 121.243557 155.000000 112.583302" stroke="green" fill="brown"/>
<polygon points="155.000000 112.583302 150.000000 121.243557 160.000000 121.243557" stroke="green" fill="brown"/>
<polygon points="155.000000 112.583302 160.000000 121.243557 165.000000 112.583302" stroke="green" fill="brown"/>
<polygon points="165.000000 112.583302 160.000000 121.243557 170.000000 121.243557" stroke="green" fill="brown"/>
<polygon points="40.000000 103.923048 35.000000 112.583302 45.000000 112.583302" stroke="green" fill="brown"/>
<polygon points="40.000000 103.923048 45.000000 112.583302 50.000000 103.923048" stroke="green" fill="brown"/>
<polygon points="50.000000 103.923048 45.000000 112.583302 55.000000 112.583302" stroke="green" fill="brown"/>
<polygon points="50.000000 103.923048 55.000000 112.583302 60.000000 103.923048" stroke="green" fill="brown"/>
<polygon points="60.000000 103.923048 55.000000 112.583302 65.000000 112.583302" stroke="green" fill="brown"/>
<polygon points="60.000000 103.923048 65.000000 112.583302 70.000000 103.923048" stroke="green" fill="brown"/>
<polygon points="70.000000 103.923048 65.000000 112.583302 75.000000 112.583302" stroke="green" fill="brown"/>
<polygon points="70.000000 103.923048 75.000000 112.583302 80.000000 103.923048" stroke="green" fill="brown"/>
<polygon points="80.000000 103.923048 75.000000 112.583302 85.000000 112.583302" stroke="green" fill="brown"/>
<polygon points="80.000000 103.923048 85.000000 112.583302 90.000000 103.923048" stroke="green" fill="brown"/>
<polygon points="90.000000 103.923048 85.000000 112.583302 95.000000 112.583302" stroke="green" fill="brown"/>
<polygon points="90.000000 103.923048 95.000000 112.583302 100.000000 103.923048" stroke="green" fill="brown"/>
<polygon points="100.000000 103.923048 95.000000 112.583302 105.000000 112.583302" stroke="green" fill="brown"/>
<polygon points="100.000000 103.923048 105.000000 112.583302 110.000000 103.923048" stroke="green" fill="brown"/>
<polygon points="110.000000 103.923048 105.000000 112.583302 115.000000 112.583302" stroke="green" fill="brown"/>
<polygon points="110.000000 103.923048 115.000000 112.583302 120.000000 103.923048" stroke="green" fill="brown"/>
<polygon points="120.000000 103.923048 115.000000 112.583302 125.000000 112.583302" stroke="green" fill="brown"/>
<polygon points="120.000000 103.923048 125.000000 112.583302 130.000000 103.923048" stroke="green" fill="brown"/>
<polygon points="130.000000 103.923048 125.000000 112.583302 135.000000 112.583302" stroke="green" fill="brown"/>
<polygon points="130.000000 103.923048 135.000000 112.583302 140.000000 103.923048" stroke="green" fill="brown"/>
<polygon points="140.000000 103.923048 135.000000 112.583302 145.000000 112.583302" stroke="green" fill="brown"/>
<polygon points="140.000000 103.923048 145.000000 112.583302 150.000000 103.923048" stroke="green" fill="brown"/>
<polygon points="150.000000 103.923048 145.000000 112.583302 155.000000 112.583302" stroke="green" fill="brown"/>
<polygon points="150.000000 103.923048 155.000000 112.583302 160.000000 103.923048" stroke="green" fill="brown"/>
<polygon points="160.000000 103.923048 155.000000 112.583302 165.000000 112.583302" stroke="green" fill="brown"/>
<polygon points="45.000000 95.262794 40.000000 103.923048 50.000000 103.923048" stroke="green" fill="brown"/>
<polygon points="45.000000 95.262794 50.000000 103.923048 55.000000 95.262794" stroke="green" fill="brown"/>
<polygon points="55.000000 95.262794 50.000000 103.923048 60.000000 103.923048" stroke="green" fill="brown"/>
<polygon points="55.000000 95.262794 60.000000 103.923048 65.000000 95.262794" stroke="green" fill="brown"/>
<polygon points="65.000000 95.262794 60.000000 103.923048 70.000000 103.923048" stroke="green" fill="brown"/>
<polygon points="65.000000 95.262794 70.000000 103.923048 75.000000 95.262794" stroke="green" fill="brown"/>
<polygon points="75.000000 95.262794 70.000000 103.923048 80.000000 103.923048" stroke="green" fill="brown"/>
<polygon points="75.000000 95.262794 80.000000 103.923048 85.000000 95.262794" stroke="green" fill="brown"/>
<polygon points="85.000000 95.262794 80.000000 103.923048 90.000000 103.923048" stroke="green" fill="brown"/>
<polygon points="85.000000 95.262794 90.000000 103.923048 95.000000 95.262794" stroke="green" fill="brown"/>
<polygon points="95.000000 95.262794 90.000000 103.923048 100.000000 103.923048" stroke="green" fill="brown"/>
<polygon points="95.000000 95.262794 100.000000 103.923048 105.000000 95.262794" stroke="green" fill="brown"/>
<polygon points="105.000000 95.262794 100.000000 103.923048 110.000000 103.923048" stroke="green" fill="brown"/>
<polygon points="105.000000 95.262794 110.000000 103.923048 115.000000 95.262794" stroke="green" fill="brown"/>
<polygon points="115.000000 95.262794 110.000000 103.923048 120.000000 103.923048" stroke="green" fill="brown"/>
<polygon points="115.000000 95.262794 120.000000 103.923048 125.000000 95.262794" stroke="green" fill="brown"/>
<polygon points="125.000000 95.262794 120.000000 103.923048 130.000000 103.923048" stroke="green" fill="brown"/>
<polygon points="125.000000 95.262794 130.000000 103.923048 135.000000 95.262794" stroke="green" fill="brown"/>
<polygon points="135.000000 95.262794 130.000000 103.923048 140.000000 103.923048" stroke="green" fill="brown"/>
<polygon points="135.000000 95.262794 140.000000 103.923048 145.000000 95.262794" stroke="green" fill="brown"/>
<polygon points="145.000000 95.262794 140.000000 103.923048 150.000000 103.923048" stroke="green" fill="brown"/>
<polygon points="145.000000 95.262794 150.000000 103.923048 155.000000 95.262794" stroke="green" fill="brown"/>
<polygon points="155.000000 95.262794 150.000000 103.923048 160.000000 103.923048" stroke="green" fill="brown"/>
<polygon points="50.000000 86.602540 45.000000 95.262794 55.000000 95.262794" stroke="green" fill="brown"/>
<polygon points="50.000000 86.602540 55.000000 95.262794 60.000000 86.602540" stroke="green" fill="brown"/>
<polygon points="60.000000 86.602540 55.000000 95.262794 65.000000 95.262794" stroke="green" fill="brown"/>
<polygon points="60.000000 86.602540 65.000000 95.262794 70.000000 86.602540" stroke="green" fill="brown"/>
<polygon points="70.000000 86.602540 65.000000 95.262794 75.000000 95.262794" stroke="green" fill="brown"/>
<polygon points="70.000000 86.602540 75.000000 95.262794 80.000000 86.602540" stroke="green" fill="brown"/>
<polygon points="80.000000 86.602540 75.000000 95.262794 85.000000 95.262794" stroke="green" fill="brown"/>
<polygon points="80.000000 86.602540 85.000000 95.262794 90.000000 86.602540" stroke="green" fill="brown"/>
<polygon points="90.000000 86.602540 85.000000 95.262794 95.000000 95.262794" stroke="green" fill="brown"/>
<polygon points="90.000000 86.602540 95.000000 95.262794 100.000000 86.602540" stroke="green" fill="brown"/>
<polygon points="100.000000 86.602540 95.000000 95.262794 105.000000 95.262794" stroke="green" fill="brown"/>
<polygon points="100.000000 86.602540 105.000000 95.262794 110.000000 86.602540" stroke="green" fill="brown"/>
<polygon points="110.000000 86.602540 105.000000 95.262794 115.000000 95.262794" stroke="green" fill="brown"/>
<polygon points="110.000000 86.602540 115.000000 95.262794 120.000000 86.602540" stroke="green" fill="brown"/>
<polygon points="120.000000 86.602540 115.000000 95.262794 125.000000 95.262794" stroke="green" fill="brown"/>
<polygon points="120.000000 86.602540 125.000000 95.262794 130.000000 86.602540" stroke="green" fill="brown"/>
<polygon points="130.000000 86.602540 125.000000 95.262794 135.000000 95.262794" stroke="green" fill="brown"/>
<polygon points="130.000000 86.602540 135.000000 95.262794 140.000000 86.602540" stroke="green" fill="brown"/>
<polygon points="140.000000 86.602540 135.000000 95.262794 145.000000 95.262794" stroke="green" fill="brown"/>
<polygon points="140.000000 86.602540 145.000000 95.262794 150.000000 86.602540" stroke="green" fill="brown"/>
<polygon points="150.000000 86.602540 145.000000 95.262794 155.000000 95.262794" stroke="green" fill="brown"/>
<polygon points="55.000000 77.942286 50.000000 86.602540 60.000000 86.602540" stroke="green" fill="brown"/>
<polygon points="55.000000 77.942286 60.000000 86.602540 65.000000 77.942286" stroke="green" fill="brown"/>
<polygon points="65.000000 77.942286 60.000000 86.602540 70.000000 86.602540" stroke="green" fill="brown"/>
<polygon points="65.000000 77.942286 70.000000 86.602540 75.000000 77.942286" stroke="green" fill="brown"/>
<polygon points="75.000000 77.942286 70.000000 86.602540 80.000000 86.602540" stroke="green" fill="brown"/>
<polygon points="75.000000 77.942286 80.000000 86.602540 85.000000 77.942286" stroke="green" fill="brown"/>
<polygon points="85.000000 77.942286 80.000000 86.602540 90.000000 86.602540" stroke="green" fill="brown"/>
<polygon points="85.000000 77.942286 90.000000 86.602540 95.000000 77.942286" stroke="green" fill="brown"/>
<polygon points="95.000000 77.942286 90.000000 86.602540 100.000000 86.602540" stroke="green" fill="brown"/>
<polygon points="95.000000 77.942286 100.000000 86.602540 105.000000 77.942286" stroke="green" fill="brown"/>
<polygon points="105.000000 77.942286 100.000000 86.602540 110.000000 86.602540" stroke="green" fill="brown"/>
<polygon points="105.000000 77.942286 110.000000 86.602540 115.000000 77.942286" stroke="green" fill="brown"/>
<polygon points="115.000000 77.942286 110.000000 86.602540 120.000000 86.602540" stroke="green" fill="brown"/>
<polygon points="115.000000 77.942286 120.000000 86.602540 125.000000 77.942286" stroke="green" fill="brown"/>
<polygon points="125.000000 77.942286 120.000000 86.602540 130.000000 86.602540" stroke="green" fill="brown"/>
<polygon points="125.000000 77.942286 130.000000 86.602540 135.000000 77.942286" stroke="green" fill="brown"/>
<polygon points="135.000000 77.942286 130.000000 86.602540 140.000000 86.602540" stroke="green" fill="brown"/>
<polygon points="135.000000 77.942286 140.000000 86.602540 145.000000 77.942286" stroke="green" fill="brown"/>
<polygon points="145.000000 77.942286 140.000000 86.602540 150.000000 86.602540" stroke="green" fill="brown"/>
<polygon points="60.000000 69.282032 55.000000 77.942286 65.000000 77.942286" stroke="green" fill="brown"/>
<polygon points="60.000000 69.282032 65.000000 77.942286 70.000000 69.282032" stroke="green" fill="brown"/>
<polygon points="70.000000 69.282032 65.000000 77.942286 75.000000 77.942286" stroke="green" fill="brown"/>
<polygon points="70.000000 69.282032 75.000000 77.942286 80.000000 69.282032" stroke="green" fill="brown"/>
<polygon points="80.000000 69.282032 75.000000 77.942286 85.000000 77.942286" stroke="green" fill="brown"/>
<polygon points="80.000000 69.282032 85.000000 77.942286 90.000000 69.282032" stroke="green" fill="brown"/>
<polygon points="90.000000 69.282032 85.000000 77.942286 95.000000 77.942286" stroke="green" fill="brown"/>
<polygon points="90.000000 69.282032 95.000000 77.942286 100.000000 69.282032" stroke="green" fill="brown"/>
<polygon points="100.000000 69.282032 95.000000 77.942286 105.000000 77.942286" stroke="green" fill="brown"/>
<polygon points="100.000000 69.282032 105.000000 77.942286 110.000000 69.282032" stroke="green" fill="brown"/>
<polygon points="110.000000 69.282032 105.000000 77.942286 115.000000 77.942286" stroke="green" fill="brown"/>
<polygon points="110.000000 69.282032 115.000000 77.942286 120.000000 69.282032" stroke="green" fill="brown"/>
<polygon points="120.000000 69.282032 115.000000 77.942286 125.000000 77.942286" stroke="green" fill="brown"/>
<polygon points="120.000000 69.282032 125.000000 77.942286 130.000000 69.282032" stroke="green" fill="brown"/>
<polygon points="130.000000 69.282032 125.000000 77.942286 135.000000 77.942286" stroke="green" fill="brown"/>
<polygon points="130.000000 69.282032 135.000000 77.942286 140.000000 69.282032" stroke="green" fill="brown"/>
<polygon points="140.000000 69.282032 135.000000 77.942286 145.000000 77.942286" stroke="green" fill="brown"/>
<polygon points="65.000000 60.621778 60.000000 69.282032 70.000000 69.282032" stroke="green" fill="brown"/>
<polygon points="65.000000 60.621778 70.000000 69.282032 75.000000 60.621778" stroke="green" fill="brown"/>
<polygon points="75.000000 60.621778 70.000000 69.282032 80.000000 69.282032" stroke="green" fill="brown"/>
<polygon points="75.000000 60.621778 80.000000 69.282032 85.000000 60.621778" stroke="green" fill="brown"/>
<polygon points="85.000000 60.621778 80.000000 69.282032 90.000000 69.282032" stroke="green" fill="brown"/>
<polygon points="85.000000 60.621778 90.000000 69.282032 95.000000 60.621778" stroke="green" fill="brown"/>
<polygon points="95.000000 60.621778 90.000000 69.282032 100.000000 69.282032" stroke="green" fill="brown"/>
<polygon points="95.000000 60.621778 100.000000 69.282032 105.000000 60.621778" stroke="green" fill="brown"/>
<polygon points="105.000000 60.621778 100.000000 69.282032 110.000000 69.282032" stroke="green" fill="brown"/>
<polygon points="105.000000 60.621778 110.000000 69.282032 115.000000 60.621778" stroke="green" fill="brown"/>
<polygon points="115.000000 60.621778 110.000000 69.282032 120.000000 69.282032" stroke="green" fill="brown"/>
<polygon points="115.000000 60.621778 120.000000 69.282032 125.000000 60.621778" stroke="green" fill="brown"/>
<polygon points="125.000000 60.621778 120.000000 69.282032 130.000000 69.282032" stroke="green" fill="brown"/>
<polygon points="125.000000 60.621778 130.000000 69.282032 135.000000 60.621778" stroke="green" fill="brown"/>
<polygon points="135.000000 60.621778 130.000000 69.282032 140.000000 69.282032" stroke="green" fill="brown"/>
<polygon points="70.000000 51.961524 65.000000 60.621778 75.000000 60.621778" stroke="green" fill="brown"/>
<polygon points="70.000000 51.961524 75.000000 60.621778 80.000000 51.961524" stroke="green" fill="brown"/>
<polygon points="80.000000 51.961524 75.000000 60.621778 85.000000 60.621778" stroke="green" fill="brown"/>
<polygon points="80.000000 51.961524 85.000000 60.621778 90.000000 51.961524" stroke="green" fill="brown"/>
<polygon points="90.000000 51.961524 85.000000 60.621778 95.000000 60.621778" stroke="green" fill="brown"/>
<polygon points="90.000000 51.961524 95.000000 60.621778 100.000000 51.961524" stroke="green" fill="brown"/>
<polygon points="100.000000 51.961524 95.000000 60.621778 105.000000 60.621778" stroke="green" fill="brown"/>
<polygon points="100.000000 51.961524 105.000000 60.621778 110.000000 51.961524" stroke="green" fill="brown"/>
<polygon points="110.000000 51.961524 105.000000 60.621778 115.000000 60.621778" stroke="green" fill="brown"/>
<polygon points="110.000000 51.961524 115.000000 60.621778 120.000000 51.961524" stroke="green" fill="brown"/>
<polygon points="120.000000 51.961524 115.000000 60.621778 125.000000 60.621778" stroke="green" fill="brown"/>
<polygon points="120.000000 51.961524 125.000000 60.621778 130.000000 51.961524" stroke="green" fill="brown"/>
<polygon points="130.000000 51.961524 125.000000 60.621778 135.000000 60.621778" stroke="green" fill="brown"/>
<polygon points="75.000000 43.301270 70.000000 51.961524 80.000000 51.961524" stroke="green" fill="brown"/>
<polygon points="75.000000 43.301270 80.000000 51.961524 85.000000 43.301270" stroke="green" fill="brown"/>
<polygon points="85.000000 43.301270 80.000000 51.961524 90.000000 51.961524" stroke="green" fill="brown"/>
<polygon points="85.000000 43.301270 90.000000 51.961524 95.000000 43.301270" stroke="green" fill="brown"/>
<polygon points="95.000000 43.301270 90.000000 51.961524 100.000000 51.961524" stroke="green" fill="brown"/>
<polygon points="95.000000 43.301270 100.000000 51.961524 105.000000 43.301270" stroke="green" fill="brown"/>
<polygon points="105.000000 43.301270 100.000000 51.961524 110.000000 51.961524" stroke="green" fill="brown"/>
<polygon points="105.000000 43.301270 110.000000 51.961524 115.000000 43.301270" stroke="green" fill="brown"/>
<polygon points="115.000000 43.301270 110.000000 51.961524 120.000000 51.961524" stroke="green" fill="brown"/>
<polygon points="115.000000 43.301270 120.000000 51.961524 125.000000 43.301270" stroke="green" fill="brown"/>
<polygon points="125.000000 43.301270 120.000000 51.961524 130.000000 51.961524" stroke="green" fill="brown"/>
<polygon points="80.000000 34.641016 75.000000 43.301270 85.000000 43.301270" stroke="green" fill="brown"/>
<polygon points="80.000000 34.641016 85.000000 43.301270 90.000000 34.641016" stroke="green" fill="brown"/>
<polygon points="90.000000 34.641016 85.000000 43.301270 95.000000 43.301270" stroke="green" fill="brown"/>
<polygon points="90.000000 34.641016 95.000000 43.301270 100.000000 34.641016" stroke="green" fill="brown"/>
<polygon points="100.000000 34.641016 95.000000 43.301270 105.000000 43.301270" stroke="green" fill="brown"/>
<polygon points="100.000000 34.641016 105.000000 43.301270 110.000000 34.641016" stroke="green" fill="brown"/>
<polygon points="110.000000 34.641016 105.000000 43.301270 115.000000 43.301270" stroke="green" fill="brown"/>
<polygon points="110.000000 34.641016 115.000000 43.301270 120.000000 34.641016" stroke="green" fill="brown"/>
<polygon points="120.000000 34.641016 115.000000 43.301270 125.000000 43.301270" stroke="green" fill="brown"/>
<polygon points="85.000000 25.980762 80.000000 34.641016 90.000000 34.641016" stroke="green" fill="brown"/>
<polygon points="85.000000 25.980762 90.000000 34.641016 95.000000 25.980762" stroke="green" fill="brown"/>
<polygon points="95.000000 25.980762 90.000000 34.641016 100.000000 34.641016" stroke="green" fill="brown"/>
<polygon points="95.000000 25.980762 100.000000 34.641016 105.000000 25.980762" stroke="green" fill="brown"/>
<polygon points="105.000000 25.980762 100.000000 34.641016 110.000000 34.641016" stroke="green" fill="brown"/>
<polygon points="105.000000 25.980762 110.000000 34.641016 115.000000 25.980762" stroke="green" fill="brown"/>
<polygon points="115.000000 25.980762 110.000000 34.641016 120.000000 34.641016" stroke="green" fill="brown"/>
<polygon points="90.000000 17.320508 85.000000 25.980762 95.000000 25.980762" stroke="green" fill="brown"/>
<polygon points="90.000000 17.320508 95.000000 25.980762 100.000000 17.320508" stroke="green" fill="brown"/>
<polygon points="100.000000 17.320508 95.000000 25.980762 105.000000 25.980762" stroke="green" fill="brown"/>
<polygon points="100.000000 17.320508 105.000000 25.980762 110.000000 17.320508" stroke="green" fill="brown"/>
<polygon points="110.000000 17.320508 105.000000 25.980762 115.000000 25.980762" stroke="green" fill="brown"/>
<polygon points="95.000000 8.660254 90.000000 17.320508 100.000000 17.320508" stroke="green" fill="brown"/>
<polygon points="95.000000 8.660254 100.000000 17.320508 105.000000 8.660254" stroke="green" fill="brown"/>
<polygon points="105.000000 8.660254 100.000000 17.320508 110.000000 17.320508" stroke="green" fill="brown"/>
<polygon points="100.000000 -0.000000 95.000000 8.660254 105.000000 8.660254" stroke="green" fill="brown"/>
</svg>
