<?xml version="1.0" standalone="no"?>
<svg width="300" height="300" version="1.1" xmlns="http://www.w3.org/2000/svg">
<polygon points="100.000000 0.000000 0.000000 173.205081 200.000000 173.205081" stroke="green" fill="brown"/>
<circle cx="17.320508" cy="163.205081" r="10.000000" stroke="blue" fill="purple " />
<circle cx="37.320508" cy="163.205081" r="10.000000" stroke="blue" fill="purple " />
<circle cx="57.320508" cy="163.205081" r="10.000000" stroke="blue" fill="purple " />
<circle cx="77.320508" cy="163.205081" r="10.000000" stroke="blue" fill="purple " />
<circle cx="97.320508" cy="163.205081" r="10.000000" stroke="blue" fill="purple " />
<circle cx="117.320508" cy="163.205081" r="10.000000" stroke="blue" fill="purple " />
<circle cx="137.320508" cy="163.205081" r="10.000000" stroke="blue" fill="purple " />
<circle cx="157.320508" cy="163.205081" r="10.000000" stroke="blue" fill="purple " />
<circle cx="177.320508" cy="163.205081" r="10.000000" stroke="blue" fill="purple " />
<circle cx="30.000000" cy="142.790562" r="10.000000" stroke="blue" fill="purple " />
<circle cx="50.000000" cy="142.790562" r="10.000000" stroke="blue" fill="purple " />
<circle cx="70.000000" cy="142.790562" r="10.000000" stroke="blue" fill="purple " />
<circle cx="90.000000" cy="142.790562" r="10.000000" stroke="blue" fill="purple " />
<circle cx="110.000000" cy="142.790562" r="10.000000" stroke="blue" fill="purple " />
<circle cx="130.000000" cy="142.790562" r="10.000000" stroke="blue" fill="purple " />
<circle cx="150.000000" cy="142.790562" r="10.000000" stroke="blue" fill="purple " />
<circle cx="170.000000" cy="142.790562" r="10.000000" stroke="blue" fill="purple " />
<circle cx="40.000000" cy="125.470054" r="10.000000" stroke="blue" fill="purple " />
<circle cx="60.000000" cy="125.470054" r="10.000000" stroke="blue" fill="purple " />
<circle cx="80.000000" cy="125.470054" r="10.000000" stroke="blue" fill="purple " />
<circle cx="100.000000" cy="125.470054" r="10.000000" stroke="blue" fill="purple " />
<circle cx="120.000000" cy="125.470054" r="10.000000" stroke="blue" fill="purple " />
<circle cx="140.000000" cy="125.470054" r="10.000000" stroke="blue" fill="purple " />
<circle cx="160.000000" cy="125.470054" r="10.000000" stroke="blue" fill="purple " />
<circle cx="50.000000" cy="108.149546" r="10.000000" stroke="blue" fill="purple " />
<circle cx="70.000000" cy="108.149546" r="10.000000" stroke="blue" fill="purple " />
<circle cx="90.000000" cy="108.149546" r="10.000000" stroke="blue" fill="purple " />
<circle cx="110.000000" cy="108.149546" r="10.000000" stroke="blue" fill="purple " />
<circle cx="130.000000" cy="108.149546" r="10.000000" stroke="blue" fill="purple " />
<circle cx="150.000000" cy="108.149546" r="10.000000" stroke="blue" fill="purple " />
<circle cx="60.000000" cy="90.829038" r="10.000000" stroke="blue" fill="purple " />
<circle cx="80.000000" cy="90.829038" r="10.000000" stroke="blue" fill="purple " />
<circle cx="100.000000" cy="90.829038" r="10.000000" stroke="blue" fill="purple " />
<circle cx="120.000000" cy="90.829038" r="10.000000" stroke="blue" fill="purple " />
<circle cx="140.000000" cy="90.829038" r="10.000000" stroke="blue" fill="purple " />
<circle cx="70.000000" cy="73.508530" r="10.000000" stroke="blue" fill="purple " />
<circle cx="90.000000" cy="73.508530" r="10.000000" stroke="blue" fill="purple " />
<circle cx="110.000000" cy="73.508530" r="10.000000" stroke="blue" fill="purple " />
<circle cx="130.000000" cy="73.508530" r="10.000000" stroke="blue" fill="purple " />
<circle cx="80.000000" cy="56.188022" r="10.000000" stroke="blue" fill="purple " />
<circle cx="100.000000" cy="56.188022" r="10.000000" stroke="blue" fill="purple " />
<circle cx="120.000000" cy="56.188022" r="10.000000" stroke="blue" fill="purple " />
<circle cx="90.000000" cy="38.867513" r="10.000000" stroke="blue" fill="purple " />
<circle cx="110.000000" cy="38.867513" r="10.000000" stroke="blue" fill="purple " />
<circle cx="100.000000" cy="21.547005" r="10.000000" stroke="blue" fill="purple " />
</svg>
