<?xml version="1.0" standalone="no"?>
<svg width="300" height="300" version="1.1" xmlns="http://www.w3.org/2000/svg">
<circle cx="150.000000" cy="150.000000" r="150.000000" stroke="blue" fill="purple " />
<circle cx="20.000000" cy="150.000000" r="20.000000" stroke="blue" fill="purple " />

<circle cx="20.000000" cy="150.000000" r="20.000000" stroke="blue" fill="purple " />

<circle cx="60.000000" cy="150.000000" r="20.000000" stroke="blue" fill="purple " />

<circle cx="60.000000" cy="150.000000" r="20.000000" stroke="blue" fill="purple " />

<circle cx="100.000000" cy="150.000000" r="20.000000" stroke="blue" fill="purple " />

<circle cx="100.000000" cy="150.000000" r="20.000000" stroke="blue" fill="purple " />

<circle cx="140.000000" cy="150.000000" r="20.000000" stroke="blue" fill="purple " />

<circle cx="140.000000" cy="150.000000" r="20.000000" stroke="blue" fill="purple " />

<circle cx="180.000000" cy="150.000000" r="20.000000" stroke="blue" fill="purple " />

<circle cx="180.000000" cy="150.000000" r="20.000000" stroke="blue" fill="purple " />

<circle cx="220.000000" cy="150.000000" r="20.000000" stroke="blue" fill="purple " />

<circle cx="220.000000" cy="150.000000" r="20.000000" stroke="blue" fill="purple " />

<circle cx="260.000000" cy="150.000000" r="20.000000" stroke="blue" fill="purple " />

<circle cx="260.000000" cy="150.000000" r="20.000000" stroke="blue" fill="purple " />

<circle cx="40.000000" cy="115.358984" r="20.000000" stroke="blue" fill="purple " />

<circle cx="40.000000" cy="184.641016" r="20.000000" stroke="blue" fill="purple " />

<circle cx="80.000000" cy="115.358984" r="20.000000" stroke="blue" fill="purple " />

<circle cx="80.000000" cy="184.641016" r="20.000000" stroke="blue" fill="purple " />

<circle cx="120.000000" cy="115.358984" r="20.000000" stroke="blue" fill="purple " />

<circle cx="120.000000" cy="184.641016" r="20.000000" stroke="blue" fill="purple " />

<circle cx="160.000000" cy="115.358984" r="20.000000" stroke="blue" fill="purple " />

<circle cx="160.000000" cy="184.641016" r="20.000000" stroke="blue" fill="purple " />

<circle cx="200.000000" cy="115.358984" r="20.000000" stroke="blue" fill="purple " />

<circle cx="200.000000" cy="184.641016" r="20.000000" stroke="blue" fill="purple " />

<circle cx="240.000000" cy="115.358984" r="20.000000" stroke="blue" fill="purple " />

<circle cx="240.000000" cy="184.641016" r="20.000000" stroke="blue" fill="purple " />

<circle cx="60.000000" cy="80.717968" r="20.000000" stroke="blue" fill="purple " />

<circle cx="60.000000" cy="219.282032" r="20.000000" stroke="blue" fill="purple " />

<circle cx="100.000000" cy="80.717968" r="20.000000" stroke="blue" fill="purple " />

<circle cx="100.000000" cy="219.282032" r="20.000000" stroke="blue" fill="purple " />

<circle cx="140.000000" cy="80.717968" r="20.000000" stroke="blue" fill="purple " />

<circle cx="140.000000" cy="219.282032" r="20.000000" stroke="blue" fill="purple " />

<circle cx="180.000000" cy="80.717968" r="20.000000" stroke="blue" fill="purple " />

<circle cx="180.000000" cy="219.282032" r="20.000000" stroke="blue" fill="purple " />

<circle cx="220.000000" cy="80.717968" r="20.000000" stroke="blue" fill="purple " />

<circle cx="220.000000" cy="219.282032" r="20.000000" stroke="blue" fill="purple " />

<circle cx="80.000000" cy="46.076952" r="20.000000" stroke="blue" fill="purple " />

<circle cx="80.000000" cy="253.923048" r="20.000000" stroke="blue" fill="purple " />

<circle cx="120.000000" cy="46.076952" r="20.000000" stroke="blue" fill="purple " />

<circle cx="120.000000" cy="253.923048" r="20.000000" stroke="blue" fill="purple " />

<circle cx="160.000000" cy="46.076952" r="20.000000" stroke="blue" fill="purple " />

<circle cx="160.000000" cy="253.923048" r="20.000000" stroke="blue" fill="purple " />

<circle cx="200.000000" cy="46.076952" r="20.000000" stroke="blue" fill="purple " />

<circle cx="200.000000" cy="253.923048" r="20.000000" stroke="blue" fill="purple " />

</svg>
