<?xml version="1.0" standalone="no"?>
<svg width="300" height="300" version="1.1" xmlns="http://www.w3.org/2000/svg">
<circle cx="150.000000" cy="150.000000" r="150.000000" stroke="blue" fill="purple " />
<rect x="3.030615" y="150.000000" width="60.000000" height="30.000000" stroke="red" fill="yellow"  />

<rect x="3.030615" y="150.000000" width="60.000000" height="30.000000" stroke="red" fill="yellow"  />

<rect x="63.030615" y="150.000000" width="60.000000" height="30.000000" stroke="red" fill="yellow"  />

<rect x="63.030615" y="150.000000" width="60.000000" height="30.000000" stroke="red" fill="yellow"  />

<rect x="123.030615" y="150.000000" width="60.000000" height="30.000000" stroke="red" fill="yellow"  />

<rect x="123.030615" y="150.000000" width="60.000000" height="30.000000" stroke="red" fill="yellow"  />

<rect x="183.030615" y="150.000000" width="60.000000" height="30.000000" stroke="red" fill="yellow"  />

<rect x="183.030615" y="150.000000" width="60.000000" height="30.000000" stroke="red" fill="yellow"  />

<rect x="36.061231" y="120.000000" width="60.000000" height="30.000000" stroke="red" fill="yellow"  />

<rect x="36.061231" y="180.000000" width="60.000000" height="30.000000" stroke="red" fill="yellow"  />

<rect x="93.030615" y="120.000000" width="60.000000" height="30.000000" stroke="red" fill="yellow"  />

<rect x="93.030615" y="180.000000" width="60.000000" height="30.000000" stroke="red" fill="yellow"  />

<rect x="153.030615" y="120.000000" width="60.000000" height="30.000000" stroke="red" fill="yellow"  />

<rect x="153.030615" y="180.000000" width="60.000000" height="30.000000" stroke="red" fill="yellow"  />

<rect x="213.030615" y="120.000000" width="60.000000" height="30.000000" stroke="red" fill="yellow"  />

<rect x="213.030615" y="180.000000" width="60.000000" height="30.000000" stroke="red" fill="yellow"  />

<rect x="66.061231" y="90.000000" width="60.000000" height="30.000000" stroke="red" fill="yellow"  />

<rect x="66.061231" y="210.000000" width="60.000000" height="30.000000" stroke="red" fill="yellow"  />

<rect x="123.030615" y="90.000000" width="60.000000" height="30.000000" stroke="red" fill="yellow"  />

<rect x="123.030615" y="210.000000" width="60.000000" height="30.000000" stroke="red" fill="yellow"  />

<rect x="183.030615" y="90.000000" width="60.000000" height="30.000000" stroke="red" fill="yellow"  />

<rect x="183.030615" y="210.000000" width="60.000000" height="30.000000" stroke="red" fill="yellow"  />

<rect x="96.061231" y="60.000000" width="60.000000" height="30.000000" stroke="red" fill="yellow"  />

<rect x="96.061231" y="240.000000" width="60.000000" height="30.000000" stroke="red" fill="yellow"  />

<rect x="153.030615" y="60.000000" width="60.000000" height="30.000000" stroke="red" fill="yellow"  />

<rect x="153.030615" y="240.000000" width="60.000000" height="30.000000" stroke="red" fill="yellow"  />

<rect x="126.061231" y="30.000000" width="60.000000" height="30.000000" stroke="red" fill="yellow"  />

<rect x="126.061231" y="270.000000" width="60.000000" height="30.000000" stroke="red" fill="yellow"  />

</svg>
