<?xml version="1.0" standalone="no"?>
<svg width="300" height="300" version="1.1" xmlns="http://www.w3.org/2000/svg">
<rect x="0" y="0" width="200.000000" height="200.000000" stroke="red" fill="yellow"  />
<circle cx="20.000000" cy="20.000000" r="20.000000" stroke="blue" fill="purple " />

<circle cx="60.000000" cy="20.000000" r="20.000000" stroke="blue" fill="purple " />

<circle cx="100.000000" cy="20.000000" r="20.000000" stroke="blue" fill="purple " />

<circle cx="140.000000" cy="20.000000" r="20.000000" stroke="blue" fill="purple " />

<circle cx="180.000000" cy="20.000000" r="20.000000" stroke="blue" fill="purple " />

<circle cx="20.000000" cy="60.000000" r="20.000000" stroke="blue" fill="purple " />

<circle cx="60.000000" cy="60.000000" r="20.000000" stroke="blue" fill="purple " />

<circle cx="100.000000" cy="60.000000" r="20.000000" stroke="blue" fill="purple " />

<circle cx="140.000000" cy="60.000000" r="20.000000" stroke="blue" fill="purple " />

<circle cx="180.000000" cy="60.000000" r="20.000000" stroke="blue" fill="purple " />

<circle cx="20.000000" cy="100.000000" r="20.000000" stroke="blue" fill="purple " />

<circle cx="60.000000" cy="100.000000" r="20.000000" stroke="blue" fill="purple " />

<circle cx="100.000000" cy="100.000000" r="20.000000" stroke="blue" fill="purple " />

<circle cx="140.000000" cy="100.000000" r="20.000000" stroke="blue" fill="purple " />

<circle cx="180.000000" cy="100.000000" r="20.000000" stroke="blue" fill="purple " />

<circle cx="20.000000" cy="140.000000" r="20.000000" stroke="blue" fill="purple " />

<circle cx="60.000000" cy="140.000000" r="20.000000" stroke="blue" fill="purple " />

<circle cx="100.000000" cy="140.000000" r="20.000000" stroke="blue" fill="purple " />

<circle cx="140.000000" cy="140.000000" r="20.000000" stroke="blue" fill="purple " />

<circle cx="180.000000" cy="140.000000" r="20.000000" stroke="blue" fill="purple " />

<circle cx="20.000000" cy="180.000000" r="20.000000" stroke="blue" fill="purple " />

<circle cx="60.000000" cy="180.000000" r="20.000000" stroke="blue" fill="purple " />

<circle cx="100.000000" cy="180.000000" r="20.000000" stroke="blue" fill="purple " />

<circle cx="140.000000" cy="180.000000" r="20.000000" stroke="blue" fill="purple " />

<circle cx="180.000000" cy="180.000000" r="20.000000" stroke="blue" fill="purple " />

</svg>
