<?xml version="1.0" standalone="no"?>
<svg width="300" height="300" version="1.1" xmlns="http://www.w3.org/2000/svg">
<polygon points="100.000000 0.000000 0.000000 173.205081 200.000000 173.205081" stroke="green" fill="brown"/>
<rect x="5.773503" y="163.205081" width="10.000000" height="10.000000" stroke="red" fill="yellow"  />

<rect x="15.773503" y="163.205081" width="10.000000" height="10.000000" stroke="red" fill="yellow"  />

<rect x="25.773503" y="163.205081" width="10.000000" height="10.000000" stroke="red" fill="yellow"  />

<rect x="35.773503" y="163.205081" width="10.000000" height="10.000000" stroke="red" fill="yellow"  />

<rect x="45.773503" y="163.205081" width="10.000000" height="10.000000" stroke="red" fill="yellow"  />

<rect x="55.773503" y="163.205081" width="10.000000" height="10.000000" stroke="red" fill="yellow"  />

<rect x="65.773503" y="163.205081" width="10.000000" height="10.000000" stroke="red" fill="yellow"  />

<rect x="75.773503" y="163.205081" width="10.000000" height="10.000000" stroke="red" fill="yellow"  />

<rect x="85.773503" y="163.205081" width="10.000000" height="10.000000" stroke="red" fill="yellow"  />

<rect x="95.773503" y="163.205081" width="10.000000" height="10.000000" stroke="red" fill="yellow"  />

<rect x="105.773503" y="163.205081" width="10.000000" height="10.000000" stroke="red" fill="yellow"  />

<rect x="115.773503" y="163.205081" width="10.000000" height="10.000000" stroke="red" fill="yellow"  />

<rect x="125.773503" y="163.205081" width="10.000000" height="10.000000" stroke="red" fill="yellow"  />

<rect x="135.773503" y="163.205081" width="10.000000" height="10.000000" stroke="red" fill="yellow"  />

<rect x="145.773503" y="163.205081" width="10.000000" height="10.000000" stroke="red" fill="yellow"  />

<rect x="155.773503" y="163.205081" width="10.000000" height="10.000000" stroke="red" fill="yellow"  />

<rect x="165.773503" y="163.205081" width="10.000000" height="10.000000" stroke="red" fill="yellow"  />

<rect x="175.773503" y="163.205081" width="10.000000" height="10.000000" stroke="red" fill="yellow"  />

<rect x="11.547005" y="153.205081" width="10.000000" height="10.000000" stroke="red" fill="yellow"  />

<rect x="21.547005" y="153.205081" width="10.000000" height="10.000000" stroke="red" fill="yellow"  />

<rect x="31.547005" y="153.205081" width="10.000000" height="10.000000" stroke="red" fill="yellow"  />

<rect x="41.547005" y="153.205081" width="10.000000" height="10.000000" stroke="red" fill="yellow"  />

<rect x="51.547005" y="153.205081" width="10.000000" height="10.000000" stroke="red" fill="yellow"  />

<rect x="61.547005" y="153.205081" width="10.000000" height="10.000000" stroke="red" fill="yellow"  />

<rect x="71.547005" y="153.205081" width="10.000000" height="10.000000" stroke="red" fill="yellow"  />

<rect x="81.547005" y="153.205081" width="10.000000" height="10.000000" stroke="red" fill="yellow"  />

<rect x="91.547005" y="153.205081" width="10.000000" height="10.000000" stroke="red" fill="yellow"  />

<rect x="101.547005" y="153.205081" width="10.000000" height="10.000000" stroke="red" fill="yellow"  />

<rect x="111.547005" y="153.205081" width="10.000000" height="10.000000" stroke="red" fill="yellow"  />

<rect x="121.547005" y="153.205081" width="10.000000" height="10.000000" stroke="red" fill="yellow"  />

<rect x="131.547005" y="153.205081" width="10.000000" height="10.000000" stroke="red" fill="yellow"  />

<rect x="141.547005" y="153.205081" width="10.000000" height="10.000000" stroke="red" fill="yellow"  />

<rect x="151.547005" y="153.205081" width="10.000000" height="10.000000" stroke="red" fill="yellow"  />

<rect x="161.547005" y="153.205081" width="10.000000" height="10.000000" stroke="red" fill="yellow"  />

<rect x="171.547005" y="153.205081" width="10.000000" height="10.000000" stroke="red" fill="yellow"  />

<rect x="17.320508" y="143.205081" width="10.000000" height="10.000000" stroke="red" fill="yellow"  />

<rect x="27.320508" y="143.205081" width="10.000000" height="10.000000" stroke="red" fill="yellow"  />

<rect x="37.320508" y="143.205081" width="10.000000" height="10.000000" stroke="red" fill="yellow"  />

<rect x="47.320508" y="143.205081" width="10.000000" height="10.000000" stroke="red" fill="yellow"  />

<rect x="57.320508" y="143.205081" width="10.000000" height="10.000000" stroke="red" fill="yellow"  />

<rect x="67.320508" y="143.205081" width="10.000000" height="10.000000" stroke="red" fill="yellow"  />

<rect x="77.320508" y="143.205081" width="10.000000" height="10.000000" stroke="red" fill="yellow"  />

<rect x="87.320508" y="143.205081" width="10.000000" height="10.000000" stroke="red" fill="yellow"  />

<rect x="97.320508" y="143.205081" width="10.000000" height="10.000000" stroke="red" fill="yellow"  />

<rect x="107.320508" y="143.205081" width="10.000000" height="10.000000" stroke="red" fill="yellow"  />

<rect x="117.320508" y="143.205081" width="10.000000" height="10.000000" stroke="red" fill="yellow"  />

<rect x="127.320508" y="143.205081" width="10.000000" height="10.000000" stroke="red" fill="yellow"  />

<rect x="137.320508" y="143.205081" width="10.000000" height="10.000000" stroke="red" fill="yellow"  />

<rect x="147.320508" y="143.205081" width="10.000000" height="10.000000" stroke="red" fill="yellow"  />

<rect x="157.320508" y="143.205081" width="10.000000" height="10.000000" stroke="red" fill="yellow"  />

<rect x="167.320508" y="143.205081" width="10.000000" height="10.000000" stroke="red" fill="yellow"  />

<rect x="23.094011" y="133.205081" width="10.000000" height="10.000000" stroke="red" fill="yellow"  />

<rect x="33.094011" y="133.205081" width="10.000000" height="10.000000" stroke="red" fill="yellow"  />

<rect x="43.094011" y="133.205081" width="10.000000" height="10.000000" stroke="red" fill="yellow"  />

<rect x="53.094011" y="133.205081" width="10.000000" height="10.000000" stroke="red" fill="yellow"  />

<rect x="63.094011" y="133.205081" width="10.000000" height="10.000000" stroke="red" fill="yellow"  />

<rect x="73.094011" y="133.205081" width="10.000000" height="10.000000" stroke="red" fill="yellow"  />

<rect x="83.094011" y="133.205081" width="10.000000" height="10.000000" stroke="red" fill="yellow"  />

<rect x="93.094011" y="133.205081" width="10.000000" height="10.000000" stroke="red" fill="yellow"  />

<rect x="103.094011" y="133.205081" width="10.000000" height="10.000000" stroke="red" fill="yellow"  />

<rect x="113.094011" y="133.205081" width="10.000000" height="10.000000" stroke="red" fill="yellow"  />

<rect x="123.094011" y="133.205081" width="10.000000" height="10.000000" stroke="red" fill="yellow"  />

<rect x="133.094011" y="133.205081" width="10.000000" height="10.000000" stroke="red" fill="yellow"  />

<rect x="143.094011" y="133.205081" width="10.000000" height="10.000000" stroke="red" fill="yellow"  />

<rect x="153.094011" y="133.205081" width="10.000000" height="10.000000" stroke="red" fill="yellow"  />

<rect x="163.094011" y="133.205081" width="10.000000" height="10.000000" stroke="red" fill="yellow"  />

<rect x="28.867513" y="123.205081" width="10.000000" height="10.000000" stroke="red" fill="yellow"  />

<rect x="38.867513" y="123.205081" width="10.000000" height="10.000000" stroke="red" fill="yellow"  />

<rect x="48.867513" y="123.205081" width="10.000000" height="10.000000" stroke="red" fill="yellow"  />

<rect x="58.867513" y="123.205081" width="10.000000" height="10.000000" stroke="red" fill="yellow"  />

<rect x="68.867513" y="123.205081" width="10.000000" height="10.000000" stroke="red" fill="yellow"  />

<rect x="78.867513" y="123.205081" width="10.000000" height="10.000000" stroke="red" fill="yellow"  />

<rect x="88.867513" y="123.205081" width="10.000000" height="10.000000" stroke="red" fill="yellow"  />

<rect x="98.867513" y="123.205081" width="10.000000" height="10.000000" stroke="red" fill="yellow"  />

<rect x="108.867513" y="123.205081" width="10.000000" height="10.000000" stroke="red" fill="yellow"  />

<rect x="118.867513" y="123.205081" width="10.000000" height="10.000000" stroke="red" fill="yellow"  />

<rect x="128.867513" y="123.205081" width="10.000000" height="10.000000" stroke="red" fill="yellow"  />

<rect x="138.867513" y="123.205081" width="10.000000" height="10.000000" stroke="red" fill="yellow"  />

<rect x="148.867513" y="123.205081" width="10.000000" height="10.000000" stroke="red" fill="yellow"  />

<rect x="158.867513" y="123.205081" width="10.000000" height="10.000000" stroke="red" fill="yellow"  />

<rect x="34.641016" y="113.205081" width="10.000000" height="10.000000" stroke="red" fill="yellow"  />

<rect x="44.641016" y="113.205081" width="10.000000" height="10.000000" stroke="red" fill="yellow"  />

<rect x="54.641016" y="113.205081" width="10.000000" height="10.000000" stroke="red" fill="yellow"  />

<rect x="64.641016" y="113.205081" width="10.000000" height="10.000000" stroke="red" fill="yellow"  />

<rect x="74.641016" y="113.205081" width="10.000000" height="10.000000" stroke="red" fill="yellow"  />

<rect x="84.641016" y="113.205081" width="10.000000" height="10.000000" stroke="red" fill="yellow"  />

<rect x="94.641016" y="113.205081" width="10.000000" height="10.000000" stroke="red" fill="yellow"  />

<rect x="104.641016" y="113.205081" width="10.000000" height="10.000000" stroke="red" fill="yellow"  />

<rect x="114.641016" y="113.205081" width="10.000000" height="10.000000" stroke="red" fill="yellow"  />

<rect x="124.641016" y="113.205081" width="10.000000" height="10.000000" stroke="red" fill="yellow"  />

<rect x="134.641016" y="113.205081" width="10.000000" height="10.000000" stroke="red" fill="yellow"  />

<rect x="144.641016" y="113.205081" width="10.000000" height="10.000000" stroke="red" fill="yellow"  />

<rect x="154.641016" y="113.205081" width="10.000000" height="10.000000" stroke="red" fill="yellow"  />

<rect x="40.414519" y="103.205081" width="10.000000" height="10.000000" stroke="red" fill="yellow"  />

<rect x="50.414519" y="103.205081" width="10.000000" height="10.000000" stroke="red" fill="yellow"  />

<rect x="60.414519" y="103.205081" width="10.000000" height="10.000000" stroke="red" fill="yellow"  />

<rect x="70.414519" y="103.205081" width="10.000000" height="10.000000" stroke="red" fill="yellow"  />

<rect x="80.414519" y="103.205081" width="10.000000" height="10.000000" stroke="red" fill="yellow"  />

<rect x="90.414519" y="103.205081" width="10.000000" height="10.000000" stroke="red" fill="yellow"  />

<rect x="100.414519" y="103.205081" width="10.000000" height="10.000000" stroke="red" fill="yellow"  />

<rect x="110.414519" y="103.205081" width="10.000000" height="10.000000" stroke="red" fill="yellow"  />

<rect x="120.414519" y="103.205081" width="10.000000" height="10.000000" stroke="red" fill="yellow"  />

<rect x="130.414519" y="103.205081" width="10.000000" height="10.000000" stroke="red" fill="yellow"  />

<rect x="140.414519" y="103.205081" width="10.000000" height="10.000000" stroke="red" fill="yellow"  />

<rect x="46.188022" y="93.205081" width="10.000000" height="10.000000" stroke="red" fill="yellow"  />

<rect x="56.188022" y="93.205081" width="10.000000" height="10.000000" stroke="red" fill="yellow"  />

<rect x="66.188022" y="93.205081" width="10.000000" height="10.000000" stroke="red" fill="yellow"  />

<rect x="76.188022" y="93.205081" width="10.000000" height="10.000000" stroke="red" fill="yellow"  />

<rect x="86.188022" y="93.205081" width="10.000000" height="10.000000" stroke="red" fill="yellow"  />

<rect x="96.188022" y="93.205081" width="10.000000" height="10.000000" stroke="red" fill="yellow"  />

<rect x="106.188022" y="93.205081" width="10.000000" height="10.000000" stroke="red" fill="yellow"  />

<rect x="116.188022" y="93.205081" width="10.000000" height="10.000000" stroke="red" fill="yellow"  />

<rect x="126.188022" y="93.205081" width="10.000000" height="10.000000" stroke="red" fill="yellow"  />

<rect x="136.188022" y="93.205081" width="10.000000" height="10.000000" stroke="red" fill="yellow"  />

<rect x="51.961524" y="83.205081" width="10.000000" height="10.000000" stroke="red" fill="yellow"  />

<rect x="61.961524" y="83.205081" width="10.000000" height="10.000000" stroke="red" fill="yellow"  />

<rect x="71.961524" y="83.205081" width="10.000000" height="10.000000" stroke="red" fill="yellow"  />

<rect x="81.961524" y="83.205081" width="10.000000" height="10.000000" stroke="red" fill="yellow"  />

<rect x="91.961524" y="83.205081" width="10.000000" height="10.000000" stroke="red" fill="yellow"  />

<rect x="101.961524" y="83.205081" width="10.000000" height="10.000000" stroke="red" fill="yellow"  />

<rect x="111.961524" y="83.205081" width="10.000000" height="10.000000" stroke="red" fill="yellow"  />

<rect x="121.961524" y="83.205081" width="10.000000" height="10.000000" stroke="red" fill="yellow"  />

<rect x="131.961524" y="83.205081" width="10.000000" height="10.000000" stroke="red" fill="yellow"  />

<rect x="57.735027" y="73.205081" width="10.000000" height="10.000000" stroke="red" fill="yellow"  />

<rect x="67.735027" y="73.205081" width="10.000000" height="10.000000" stroke="red" fill="yellow"  />

<rect x="77.735027" y="73.205081" width="10.000000" height="10.000000" stroke="red" fill="yellow"  />

<rect x="87.735027" y="73.205081" width="10.000000" height="10.000000" stroke="red" fill="yellow"  />

<rect x="97.735027" y="73.205081" width="10.000000" height="10.000000" stroke="red" fill="yellow"  />

<rect x="107.735027" y="73.205081" width="10.000000" height="10.000000" stroke="red" fill="yellow"  />

<rect x="117.735027" y="73.205081" width="10.000000" height="10.000000" stroke="red" fill="yellow"  />

<rect x="127.735027" y="73.205081" width="10.000000" height="10.000000" stroke="red" fill="yellow"  />

<rect x="63.508530" y="63.205081" width="10.000000" height="10.000000" stroke="red" fill="yellow"  />

<rect x="73.508530" y="63.205081" width="10.000000" height="10.000000" stroke="red" fill="yellow"  />

<rect x="83.508530" y="63.205081" width="10.000000" height="10.000000" stroke="red" fill="yellow"  />

<rect x="93.508530" y="63.205081" width="10.000000" height="10.000000" stroke="red" fill="yellow"  />

<rect x="103.508530" y="63.205081" width="10.000000" height="10.000000" stroke="red" fill="yellow"  />

<rect x="113.508530" y="63.205081" width="10.000000" height="10.000000" stroke="red" fill="yellow"  />

<rect x="123.508530" y="63.205081" width="10.000000" height="10.000000" stroke="red" fill="yellow"  />

<rect x="69.282032" y="53.205081" width="10.000000" height="10.000000" stroke="red" fill="yellow"  />

<rect x="79.282032" y="53.205081" width="10.000000" height="10.000000" stroke="red" fill="yellow"  />

<rect x="89.282032" y="53.205081" width="10.000000" height="10.000000" stroke="red" fill="yellow"  />

<rect x="99.282032" y="53.205081" width="10.000000" height="10.000000" stroke="red" fill="yellow"  />

<rect x="109.282032" y="53.205081" width="10.000000" height="10.000000" stroke="red" fill="yellow"  />

<rect x="119.282032" y="53.205081" width="10.000000" height="10.000000" stroke="red" fill="yellow"  />

<rect x="75.055535" y="43.205081" width="10.000000" height="10.000000" stroke="red" fill="yellow"  />

<rect x="85.055535" y="43.205081" width="10.000000" height="10.000000" stroke="red" fill="yellow"  />

<rect x="95.055535" y="43.205081" width="10.000000" height="10.000000" stroke="red" fill="yellow"  />

<rect x="105.055535" y="43.205081" width="10.000000" height="10.000000" stroke="red" fill="yellow"  />

<rect x="80.829038" y="33.205081" width="10.000000" height="10.000000" stroke="red" fill="yellow"  />

<rect x="90.829038" y="33.205081" width="10.000000" height="10.000000" stroke="red" fill="yellow"  />

<rect x="100.829038" y="33.205081" width="10.000000" height="10.000000" stroke="red" fill="yellow"  />

<rect x="86.602540" y="23.205081" width="10.000000" height="10.000000" stroke="red" fill="yellow"  />

<rect x="96.602540" y="23.205081" width="10.000000" height="10.000000" stroke="red" fill="yellow"  />

<rect x="92.376043" y="13.205081" width="10.000000" height="10.000000" stroke="red" fill="yellow"  />

</svg>
