<?xml version="1.0" standalone="no"?>
<svg width="300" height="300" version="1.1" xmlns="http://www.w3.org/2000/svg">
<polygon points =" 199.803,106.276, 199.212,112.527, 198.231,118.729, 196.861,124.857, 195.111,130.887, 192.985,136.795, 190.492,142.558, 187.643,148.153, 184.448,153.558, 180.92,158.753, 177.074,163.715, 172.923,168.427, 168.485,172.869, 163.777,177.023, 158.817,180.874, 153.626,184.405, 148.223,187.605, 142.63,190.458, 136.869,192.955, 130.962,195.086, 124.934,196.842, 118.807,198.216, 112.606,199.202, 106.355,199.798, 100.08,200, 93.8036,199.808, 87.552,199.222, 81.3495,198.245, 75.2205,196.881, 69.1892,195.135, 63.2794,193.014, 57.5143,190.526, 51.9168,187.681, 46.5088,184.491, 41.3117,180.967, 36.346,177.124, 31.6313,172.977, 27.186,168.543, 23.0279,163.838, 19.1733,158.882, 15.6373,153.693, 12.4339,148.293, 9.5757,142.702, 7.07404,136.943, 4.93874,131.038, 3.17823,125.011, 1.79944,118.885, 0.807809,112.685, 0.207249,106.435, 0.000126827,100.159, 0.187258,93.8831, 0.767906,87.631, 1.73978,81.4277, 3.09905,75.2977, 4.84036,69.265, 6.95683,63.3535, 9.44014,57.5864, 12.2805,51.9866, 15.4667,46.5761, 18.9861,41.3762, 22.825,36.4074, 26.9681,31.6894, 31.3991,27.2407, 36.1007,23.0788, 41.0541,19.2202, 46.2399,15.68, 51.6377,12.4723, 57.2262,9.60973, 62.9833,7.10348, 68.8863,4.96349, 74.912,3.19817, 81.0366,1.81451, 87.236,0.817941, 93.4857,0.212405, 99.7611,0.000285361, 106.037,0.182419, 112.29,0.758088, 118.494,1.72502, 124.625,3.07941, 130.659,4.81591, 136.572,6.92768, 142.341,9.40639, 147.944,12.2423, 153.357,15.4241, 158.559,18.9395, 163.531,22.7744, 168.252,26.9137, 172.705,31.3412, 176.87,36.0394, 180.733,40.9898, 184.277,46.1728, 187.489,51.568, 190.356,57.1542, 192.867,62.9093, 195.012,68.8106, 196.782,74.8349, 198.17,80.9585, 199.172,87.157, 199.782,93.4063, 199.999,99.6815" style="fill:lime;stroke:purple;stroke-width:1" />
</svg>
