<?xml version="1.0" standalone="no"?>
<svg width="300" height="300" version="1.1" xmlns="http://www.w3.org/2000/svg">
<circle cx="90.000000" cy="90.000000" r="90.000000" stroke="blue" fill="purple " />
<polygon points =" 0.557281,90, 0.557281,100, 10.5573,100, 10.5573,90" style="fill:lime;stroke:purple;stroke-width:1" />
<polygon points =" 0.557281,90, 0.557281,100, 10.5573,100, 10.5573,90" style="fill:lime;stroke:purple;stroke-width:1" />
<polygon points =" 10.5573,90, 10.5573,100, 20.5573,100, 20.5573,90" style="fill:lime;stroke:purple;stroke-width:1" />
<polygon points =" 10.5573,90, 10.5573,100, 20.5573,100, 20.5573,90" style="fill:lime;stroke:purple;stroke-width:1" />
<polygon points =" 20.5573,90, 20.5573,100, 30.5573,100, 30.5573,90" style="fill:lime;stroke:purple;stroke-width:1" />
<polygon points =" 20.5573,90, 20.5573,100, 30.5573,100, 30.5573,90" style="fill:lime;stroke:purple;stroke-width:1" />
<polygon points =" 30.5573,90, 30.5573,100, 40.5573,100, 40.5573,90" style="fill:lime;stroke:purple;stroke-width:1" />
<polygon points =" 30.5573,90, 30.5573,100, 40.5573,100, 40.5573,90" style="fill:lime;stroke:purple;stroke-width:1" />
<polygon points =" 40.5573,90, 40.5573,100, 50.5573,100, 50.5573,90" style="fill:lime;stroke:purple;stroke-width:1" />
<polygon points =" 40.5573,90, 40.5573,100, 50.5573,100, 50.5573,90" style="fill:lime;stroke:purple;stroke-width:1" />
<polygon points =" 50.5573,90, 50.5573,100, 60.5573,100, 60.5573,90" style="fill:lime;stroke:purple;stroke-width:1" />
<polygon points =" 50.5573,90, 50.5573,100, 60.5573,100, 60.5573,90" style="fill:lime;stroke:purple;stroke-width:1" />
<polygon points =" 60.5573,90, 60.5573,100, 70.5573,100, 70.5573,90" style="fill:lime;stroke:purple;stroke-width:1" />
<polygon points =" 60.5573,90, 60.5573,100, 70.5573,100, 70.5573,90" style="fill:lime;stroke:purple;stroke-width:1" />
<polygon points =" 70.5573,90, 70.5573,100, 80.5573,100, 80.5573,90" style="fill:lime;stroke:purple;stroke-width:1" />
<polygon points =" 70.5573,90, 70.5573,100, 80.5573,100, 80.5573,90" style="fill:lime;stroke:purple;stroke-width:1" />
<polygon points =" 80.5573,90, 80.5573,100, 90.5573,100, 90.5573,90" style="fill:lime;stroke:purple;stroke-width:1" />
<polygon points =" 80.5573,90, 80.5573,100, 90.5573,100, 90.5573,90" style="fill:lime;stroke:purple;stroke-width:1" />
<polygon points =" 90.5573,90, 90.5573,100, 100.557,100, 100.557,90" style="fill:lime;stroke:purple;stroke-width:1" />
<polygon points =" 90.5573,90, 90.5573,100, 100.557,100, 100.557,90" style="fill:lime;stroke:purple;stroke-width:1" />
<polygon points =" 100.557,90, 100.557,100, 110.557,100, 110.557,90" style="fill:lime;stroke:purple;stroke-width:1" />
<polygon points =" 100.557,90, 100.557,100, 110.557,100, 110.557,90" style="fill:lime;stroke:purple;stroke-width:1" />
<polygon points =" 110.557,90, 110.557,100, 120.557,100, 120.557,90" style="fill:lime;stroke:purple;stroke-width:1" />
<polygon points =" 110.557,90, 110.557,100, 120.557,100, 120.557,90" style="fill:lime;stroke:purple;stroke-width:1" />
<polygon points =" 120.557,90, 120.557,100, 130.557,100, 130.557,90" style="fill:lime;stroke:purple;stroke-width:1" />
<polygon points =" 120.557,90, 120.557,100, 130.557,100, 130.557,90" style="fill:lime;stroke:purple;stroke-width:1" />
<polygon points =" 130.557,90, 130.557,100, 140.557,100, 140.557,90" style="fill:lime;stroke:purple;stroke-width:1" />
<polygon points =" 130.557,90, 130.557,100, 140.557,100, 140.557,90" style="fill:lime;stroke:purple;stroke-width:1" />
<polygon points =" 140.557,90, 140.557,100, 150.557,100, 150.557,90" style="fill:lime;stroke:purple;stroke-width:1" />
<polygon points =" 140.557,90, 140.557,100, 150.557,100, 150.557,90" style="fill:lime;stroke:purple;stroke-width:1" />
<polygon points =" 150.557,90, 150.557,100, 160.557,100, 160.557,90" style="fill:lime;stroke:purple;stroke-width:1" />
<polygon points =" 150.557,90, 150.557,100, 160.557,100, 160.557,90" style="fill:lime;stroke:purple;stroke-width:1" />
<polygon points =" 160.557,90, 160.557,100, 170.557,100, 170.557,90" style="fill:lime;stroke:purple;stroke-width:1" />
<polygon points =" 160.557,90, 160.557,100, 170.557,100, 170.557,90" style="fill:lime;stroke:purple;stroke-width:1" />
<polygon points =" 6.11456,80, 6.11456,90, 16.1146,90, 16.1146,80" style="fill:lime;stroke:purple;stroke-width:1" />
<polygon points =" 6.11456,100, 6.11456,110, 16.1146,110, 16.1146,100" style="fill:lime;stroke:purple;stroke-width:1" />
<polygon points =" 15.5573,80, 15.5573,90, 25.5573,90, 25.5573,80" style="fill:lime;stroke:purple;stroke-width:1" />
<polygon points =" 15.5573,100, 15.5573,110, 25.5573,110, 25.5573,100" style="fill:lime;stroke:purple;stroke-width:1" />
<polygon points =" 25.5573,80, 25.5573,90, 35.5573,90, 35.5573,80" style="fill:lime;stroke:purple;stroke-width:1" />
<polygon points =" 25.5573,100, 25.5573,110, 35.5573,110, 35.5573,100" style="fill:lime;stroke:purple;stroke-width:1" />
<polygon points =" 35.5573,80, 35.5573,90, 45.5573,90, 45.5573,80" style="fill:lime;stroke:purple;stroke-width:1" />
<polygon points =" 35.5573,100, 35.5573,110, 45.5573,110, 45.5573,100" style="fill:lime;stroke:purple;stroke-width:1" />
<polygon points =" 45.5573,80, 45.5573,90, 55.5573,90, 55.5573,80" style="fill:lime;stroke:purple;stroke-width:1" />
<polygon points =" 45.5573,100, 45.5573,110, 55.5573,110, 55.5573,100" style="fill:lime;stroke:purple;stroke-width:1" />
<polygon points =" 55.5573,80, 55.5573,90, 65.5573,90, 65.5573,80" style="fill:lime;stroke:purple;stroke-width:1" />
<polygon points =" 55.5573,100, 55.5573,110, 65.5573,110, 65.5573,100" style="fill:lime;stroke:purple;stroke-width:1" />
<polygon points =" 65.5573,80, 65.5573,90, 75.5573,90, 75.5573,80" style="fill:lime;stroke:purple;stroke-width:1" />
<polygon points =" 65.5573,100, 65.5573,110, 75.5573,110, 75.5573,100" style="fill:lime;stroke:purple;stroke-width:1" />
<polygon points =" 75.5573,80, 75.5573,90, 85.5573,90, 85.5573,80" style="fill:lime;stroke:purple;stroke-width:1" />
<polygon points =" 75.5573,100, 75.5573,110, 85.5573,110, 85.5573,100" style="fill:lime;stroke:purple;stroke-width:1" />
<polygon points =" 85.5573,80, 85.5573,90, 95.5573,90, 95.5573,80" style="fill:lime;stroke:purple;stroke-width:1" />
<polygon points =" 85.5573,100, 85.5573,110, 95.5573,110, 95.5573,100" style="fill:lime;stroke:purple;stroke-width:1" />
<polygon points =" 95.5573,80, 95.5573,90, 105.557,90, 105.557,80" style="fill:lime;stroke:purple;stroke-width:1" />
<polygon points =" 95.5573,100, 95.5573,110, 105.557,110, 105.557,100" style="fill:lime;stroke:purple;stroke-width:1" />
<polygon points =" 105.557,80, 105.557,90, 115.557,90, 115.557,80" style="fill:lime;stroke:purple;stroke-width:1" />
<polygon points =" 105.557,100, 105.557,110, 115.557,110, 115.557,100" style="fill:lime;stroke:purple;stroke-width:1" />
<polygon points =" 115.557,80, 115.557,90, 125.557,90, 125.557,80" style="fill:lime;stroke:purple;stroke-width:1" />
<polygon points =" 115.557,100, 115.557,110, 125.557,110, 125.557,100" style="fill:lime;stroke:purple;stroke-width:1" />
<polygon points =" 125.557,80, 125.557,90, 135.557,90, 135.557,80" style="fill:lime;stroke:purple;stroke-width:1" />
<polygon points =" 125.557,100, 125.557,110, 135.557,110, 135.557,100" style="fill:lime;stroke:purple;stroke-width:1" />
<polygon points =" 135.557,80, 135.557,90, 145.557,90, 145.557,80" style="fill:lime;stroke:purple;stroke-width:1" />
<polygon points =" 135.557,100, 135.557,110, 145.557,110, 145.557,100" style="fill:lime;stroke:purple;stroke-width:1" />
<polygon points =" 145.557,80, 145.557,90, 155.557,90, 155.557,80" style="fill:lime;stroke:purple;stroke-width:1" />
<polygon points =" 145.557,100, 145.557,110, 155.557,110, 155.557,100" style="fill:lime;stroke:purple;stroke-width:1" />
<polygon points =" 155.557,80, 155.557,90, 165.557,90, 165.557,80" style="fill:lime;stroke:purple;stroke-width:1" />
<polygon points =" 155.557,100, 155.557,110, 165.557,110, 165.557,100" style="fill:lime;stroke:purple;stroke-width:1" />
<polygon points =" 165.557,80, 165.557,90, 175.557,90, 175.557,80" style="fill:lime;stroke:purple;stroke-width:1" />
<polygon points =" 165.557,100, 165.557,110, 175.557,110, 175.557,100" style="fill:lime;stroke:purple;stroke-width:1" />
<polygon points =" 11.1146,70, 11.1146,80, 21.1146,80, 21.1146,70" style="fill:lime;stroke:purple;stroke-width:1" />
<polygon points =" 11.1146,110, 11.1146,120, 21.1146,120, 21.1146,110" style="fill:lime;stroke:purple;stroke-width:1" />
<polygon points =" 20.5573,70, 20.5573,80, 30.5573,80, 30.5573,70" style="fill:lime;stroke:purple;stroke-width:1" />
<polygon points =" 20.5573,110, 20.5573,120, 30.5573,120, 30.5573,110" style="fill:lime;stroke:purple;stroke-width:1" />
<polygon points =" 30.5573,70, 30.5573,80, 40.5573,80, 40.5573,70" style="fill:lime;stroke:purple;stroke-width:1" />
<polygon points =" 30.5573,110, 30.5573,120, 40.5573,120, 40.5573,110" style="fill:lime;stroke:purple;stroke-width:1" />
<polygon points =" 40.5573,70, 40.5573,80, 50.5573,80, 50.5573,70" style="fill:lime;stroke:purple;stroke-width:1" />
<polygon points =" 40.5573,110, 40.5573,120, 50.5573,120, 50.5573,110" style="fill:lime;stroke:purple;stroke-width:1" />
<polygon points =" 50.5573,70, 50.5573,80, 60.5573,80, 60.5573,70" style="fill:lime;stroke:purple;stroke-width:1" />
<polygon points =" 50.5573,110, 50.5573,120, 60.5573,120, 60.5573,110" style="fill:lime;stroke:purple;stroke-width:1" />
<polygon points =" 60.5573,70, 60.5573,80, 70.5573,80, 70.5573,70" style="fill:lime;stroke:purple;stroke-width:1" />
<polygon points =" 60.5573,110, 60.5573,120, 70.5573,120, 70.5573,110" style="fill:lime;stroke:purple;stroke-width:1" />
<polygon points =" 70.5573,70, 70.5573,80, 80.5573,80, 80.5573,70" style="fill:lime;stroke:purple;stroke-width:1" />
<polygon points =" 70.5573,110, 70.5573,120, 80.5573,120, 80.5573,110" style="fill:lime;stroke:purple;stroke-width:1" />
<polygon points =" 80.5573,70, 80.5573,80, 90.5573,80, 90.5573,70" style="fill:lime;stroke:purple;stroke-width:1" />
<polygon points =" 80.5573,110, 80.5573,120, 90.5573,120, 90.5573,110" style="fill:lime;stroke:purple;stroke-width:1" />
<polygon points =" 90.5573,70, 90.5573,80, 100.557,80, 100.557,70" style="fill:lime;stroke:purple;stroke-width:1" />
<polygon points =" 90.5573,110, 90.5573,120, 100.557,120, 100.557,110" style="fill:lime;stroke:purple;stroke-width:1" />
<polygon points =" 100.557,70, 100.557,80, 110.557,80, 110.557,70" style="fill:lime;stroke:purple;stroke-width:1" />
<polygon points =" 100.557,110, 100.557,120, 110.557,120, 110.557,110" style="fill:lime;stroke:purple;stroke-width:1" />
<polygon points =" 110.557,70, 110.557,80, 120.557,80, 120.557,70" style="fill:lime;stroke:purple;stroke-width:1" />
<polygon points =" 110.557,110, 110.557,120, 120.557,120, 120.557,110" style="fill:lime;stroke:purple;stroke-width:1" />
<polygon points =" 120.557,70, 120.557,80, 130.557,80, 130.557,70" style="fill:lime;stroke:purple;stroke-width:1" />
<polygon points =" 120.557,110, 120.557,120, 130.557,120, 130.557,110" style="fill:lime;stroke:purple;stroke-width:1" />
<polygon points =" 130.557,70, 130.557,80, 140.557,80, 140.557,70" style="fill:lime;stroke:purple;stroke-width:1" />
<polygon points =" 130.557,110, 130.557,120, 140.557,120, 140.557,110" style="fill:lime;stroke:purple;stroke-width:1" />
<polygon points =" 140.557,70, 140.557,80, 150.557,80, 150.557,70" style="fill:lime;stroke:purple;stroke-width:1" />
<polygon points =" 140.557,110, 140.557,120, 150.557,120, 150.557,110" style="fill:lime;stroke:purple;stroke-width:1" />
<polygon points =" 150.557,70, 150.557,80, 160.557,80, 160.557,70" style="fill:lime;stroke:purple;stroke-width:1" />
<polygon points =" 150.557,110, 150.557,120, 160.557,120, 160.557,110" style="fill:lime;stroke:purple;stroke-width:1" />
<polygon points =" 160.557,70, 160.557,80, 170.557,80, 170.557,70" style="fill:lime;stroke:purple;stroke-width:1" />
<polygon points =" 160.557,110, 160.557,120, 170.557,120, 170.557,110" style="fill:lime;stroke:purple;stroke-width:1" />
<polygon points =" 16.1146,60, 16.1146,70, 26.1146,70, 26.1146,60" style="fill:lime;stroke:purple;stroke-width:1" />
<polygon points =" 16.1146,120, 16.1146,130, 26.1146,130, 26.1146,120" style="fill:lime;stroke:purple;stroke-width:1" />
<polygon points =" 25.5573,60, 25.5573,70, 35.5573,70, 35.5573,60" style="fill:lime;stroke:purple;stroke-width:1" />
<polygon points =" 25.5573,120, 25.5573,130, 35.5573,130, 35.5573,120" style="fill:lime;stroke:purple;stroke-width:1" />
<polygon points =" 35.5573,60, 35.5573,70, 45.5573,70, 45.5573,60" style="fill:lime;stroke:purple;stroke-width:1" />
<polygon points =" 35.5573,120, 35.5573,130, 45.5573,130, 45.5573,120" style="fill:lime;stroke:purple;stroke-width:1" />
<polygon points =" 45.5573,60, 45.5573,70, 55.5573,70, 55.5573,60" style="fill:lime;stroke:purple;stroke-width:1" />
<polygon points =" 45.5573,120, 45.5573,130, 55.5573,130, 55.5573,120" style="fill:lime;stroke:purple;stroke-width:1" />
<polygon points =" 55.5573,60, 55.5573,70, 65.5573,70, 65.5573,60" style="fill:lime;stroke:purple;stroke-width:1" />
<polygon points =" 55.5573,120, 55.5573,130, 65.5573,130, 65.5573,120" style="fill:lime;stroke:purple;stroke-width:1" />
<polygon points =" 65.5573,60, 65.5573,70, 75.5573,70, 75.5573,60" style="fill:lime;stroke:purple;stroke-width:1" />
<polygon points =" 65.5573,120, 65.5573,130, 75.5573,130, 75.5573,120" style="fill:lime;stroke:purple;stroke-width:1" />
<polygon points =" 75.5573,60, 75.5573,70, 85.5573,70, 85.5573,60" style="fill:lime;stroke:purple;stroke-width:1" />
<polygon points =" 75.5573,120, 75.5573,130, 85.5573,130, 85.5573,120" style="fill:lime;stroke:purple;stroke-width:1" />
<polygon points =" 85.5573,60, 85.5573,70, 95.5573,70, 95.5573,60" style="fill:lime;stroke:purple;stroke-width:1" />
<polygon points =" 85.5573,120, 85.5573,130, 95.5573,130, 95.5573,120" style="fill:lime;stroke:purple;stroke-width:1" />
<polygon points =" 95.5573,60, 95.5573,70, 105.557,70, 105.557,60" style="fill:lime;stroke:purple;stroke-width:1" />
<polygon points =" 95.5573,120, 95.5573,130, 105.557,130, 105.557,120" style="fill:lime;stroke:purple;stroke-width:1" />
<polygon points =" 105.557,60, 105.557,70, 115.557,70, 115.557,60" style="fill:lime;stroke:purple;stroke-width:1" />
<polygon points =" 105.557,120, 105.557,130, 115.557,130, 115.557,120" style="fill:lime;stroke:purple;stroke-width:1" />
<polygon points =" 115.557,60, 115.557,70, 125.557,70, 125.557,60" style="fill:lime;stroke:purple;stroke-width:1" />
<polygon points =" 115.557,120, 115.557,130, 125.557,130, 125.557,120" style="fill:lime;stroke:purple;stroke-width:1" />
<polygon points =" 125.557,60, 125.557,70, 135.557,70, 135.557,60" style="fill:lime;stroke:purple;stroke-width:1" />
<polygon points =" 125.557,120, 125.557,130, 135.557,130, 135.557,120" style="fill:lime;stroke:purple;stroke-width:1" />
<polygon points =" 135.557,60, 135.557,70, 145.557,70, 145.557,60" style="fill:lime;stroke:purple;stroke-width:1" />
<polygon points =" 135.557,120, 135.557,130, 145.557,130, 145.557,120" style="fill:lime;stroke:purple;stroke-width:1" />
<polygon points =" 145.557,60, 145.557,70, 155.557,70, 155.557,60" style="fill:lime;stroke:purple;stroke-width:1" />
<polygon points =" 145.557,120, 145.557,130, 155.557,130, 155.557,120" style="fill:lime;stroke:purple;stroke-width:1" />
<polygon points =" 155.557,60, 155.557,70, 165.557,70, 165.557,60" style="fill:lime;stroke:purple;stroke-width:1" />
<polygon points =" 155.557,120, 155.557,130, 165.557,130, 165.557,120" style="fill:lime;stroke:purple;stroke-width:1" />
<polygon points =" 21.1146,50, 21.1146,60, 31.1146,60, 31.1146,50" style="fill:lime;stroke:purple;stroke-width:1" />
<polygon points =" 21.1146,130, 21.1146,140, 31.1146,140, 31.1146,130" style="fill:lime;stroke:purple;stroke-width:1" />
<polygon points =" 30.5573,50, 30.5573,60, 40.5573,60, 40.5573,50" style="fill:lime;stroke:purple;stroke-width:1" />
<polygon points =" 30.5573,130, 30.5573,140, 40.5573,140, 40.5573,130" style="fill:lime;stroke:purple;stroke-width:1" />
<polygon points =" 40.5573,50, 40.5573,60, 50.5573,60, 50.5573,50" style="fill:lime;stroke:purple;stroke-width:1" />
<polygon points =" 40.5573,130, 40.5573,140, 50.5573,140, 50.5573,130" style="fill:lime;stroke:purple;stroke-width:1" />
<polygon points =" 50.5573,50, 50.5573,60, 60.5573,60, 60.5573,50" style="fill:lime;stroke:purple;stroke-width:1" />
<polygon points =" 50.5573,130, 50.5573,140, 60.5573,140, 60.5573,130" style="fill:lime;stroke:purple;stroke-width:1" />
<polygon points =" 60.5573,50, 60.5573,60, 70.5573,60, 70.5573,50" style="fill:lime;stroke:purple;stroke-width:1" />
<polygon points =" 60.5573,130, 60.5573,140, 70.5573,140, 70.5573,130" style="fill:lime;stroke:purple;stroke-width:1" />
<polygon points =" 70.5573,50, 70.5573,60, 80.5573,60, 80.5573,50" style="fill:lime;stroke:purple;stroke-width:1" />
<polygon points =" 70.5573,130, 70.5573,140, 80.5573,140, 80.5573,130" style="fill:lime;stroke:purple;stroke-width:1" />
<polygon points =" 80.5573,50, 80.5573,60, 90.5573,60, 90.5573,50" style="fill:lime;stroke:purple;stroke-width:1" />
<polygon points =" 80.5573,130, 80.5573,140, 90.5573,140, 90.5573,130" style="fill:lime;stroke:purple;stroke-width:1" />
<polygon points =" 90.5573,50, 90.5573,60, 100.557,60, 100.557,50" style="fill:lime;stroke:purple;stroke-width:1" />
<polygon points =" 90.5573,130, 90.5573,140, 100.557,140, 100.557,130" style="fill:lime;stroke:purple;stroke-width:1" />
<polygon points =" 100.557,50, 100.557,60, 110.557,60, 110.557,50" style="fill:lime;stroke:purple;stroke-width:1" />
<polygon points =" 100.557,130, 100.557,140, 110.557,140, 110.557,130" style="fill:lime;stroke:purple;stroke-width:1" />
<polygon points =" 110.557,50, 110.557,60, 120.557,60, 120.557,50" style="fill:lime;stroke:purple;stroke-width:1" />
<polygon points =" 110.557,130, 110.557,140, 120.557,140, 120.557,130" style="fill:lime;stroke:purple;stroke-width:1" />
<polygon points =" 120.557,50, 120.557,60, 130.557,60, 130.557,50" style="fill:lime;stroke:purple;stroke-width:1" />
<polygon points =" 120.557,130, 120.557,140, 130.557,140, 130.557,130" style="fill:lime;stroke:purple;stroke-width:1" />
<polygon points =" 130.557,50, 130.557,60, 140.557,60, 140.557,50" style="fill:lime;stroke:purple;stroke-width:1" />
<polygon points =" 130.557,130, 130.557,140, 140.557,140, 140.557,130" style="fill:lime;stroke:purple;stroke-width:1" />
<polygon points =" 140.557,50, 140.557,60, 150.557,60, 150.557,50" style="fill:lime;stroke:purple;stroke-width:1" />
<polygon points =" 140.557,130, 140.557,140, 150.557,140, 150.557,130" style="fill:lime;stroke:purple;stroke-width:1" />
<polygon points =" 150.557,50, 150.557,60, 160.557,60, 160.557,50" style="fill:lime;stroke:purple;stroke-width:1" />
<polygon points =" 150.557,130, 150.557,140, 160.557,140, 160.557,130" style="fill:lime;stroke:purple;stroke-width:1" />
<polygon points =" 26.1146,40, 26.1146,50, 36.1146,50, 36.1146,40" style="fill:lime;stroke:purple;stroke-width:1" />
<polygon points =" 26.1146,140, 26.1146,150, 36.1146,150, 36.1146,140" style="fill:lime;stroke:purple;stroke-width:1" />
<polygon points =" 35.5573,40, 35.5573,50, 45.5573,50, 45.5573,40" style="fill:lime;stroke:purple;stroke-width:1" />
<polygon points =" 35.5573,140, 35.5573,150, 45.5573,150, 45.5573,140" style="fill:lime;stroke:purple;stroke-width:1" />
<polygon points =" 45.5573,40, 45.5573,50, 55.5573,50, 55.5573,40" style="fill:lime;stroke:purple;stroke-width:1" />
<polygon points =" 45.5573,140, 45.5573,150, 55.5573,150, 55.5573,140" style="fill:lime;stroke:purple;stroke-width:1" />
<polygon points =" 55.5573,40, 55.5573,50, 65.5573,50, 65.5573,40" style="fill:lime;stroke:purple;stroke-width:1" />
<polygon points =" 55.5573,140, 55.5573,150, 65.5573,150, 65.5573,140" style="fill:lime;stroke:purple;stroke-width:1" />
<polygon points =" 65.5573,40, 65.5573,50, 75.5573,50, 75.5573,40" style="fill:lime;stroke:purple;stroke-width:1" />
<polygon points =" 65.5573,140, 65.5573,150, 75.5573,150, 75.5573,140" style="fill:lime;stroke:purple;stroke-width:1" />
<polygon points =" 75.5573,40, 75.5573,50, 85.5573,50, 85.5573,40" style="fill:lime;stroke:purple;stroke-width:1" />
<polygon points =" 75.5573,140, 75.5573,150, 85.5573,150, 85.5573,140" style="fill:lime;stroke:purple;stroke-width:1" />
<polygon points =" 85.5573,40, 85.5573,50, 95.5573,50, 95.5573,40" style="fill:lime;stroke:purple;stroke-width:1" />
<polygon points =" 85.5573,140, 85.5573,150, 95.5573,150, 95.5573,140" style="fill:lime;stroke:purple;stroke-width:1" />
<polygon points =" 95.5573,40, 95.5573,50, 105.557,50, 105.557,40" style="fill:lime;stroke:purple;stroke-width:1" />
<polygon points =" 95.5573,140, 95.5573,150, 105.557,150, 105.557,140" style="fill:lime;stroke:purple;stroke-width:1" />
<polygon points =" 105.557,40, 105.557,50, 115.557,50, 115.557,40" style="fill:lime;stroke:purple;stroke-width:1" />
<polygon points =" 105.557,140, 105.557,150, 115.557,150, 115.557,140" style="fill:lime;stroke:purple;stroke-width:1" />
<polygon points =" 115.557,40, 115.557,50, 125.557,50, 125.557,40" style="fill:lime;stroke:purple;stroke-width:1" />
<polygon points =" 115.557,140, 115.557,150, 125.557,150, 125.557,140" style="fill:lime;stroke:purple;stroke-width:1" />
<polygon points =" 125.557,40, 125.557,50, 135.557,50, 135.557,40" style="fill:lime;stroke:purple;stroke-width:1" />
<polygon points =" 125.557,140, 125.557,150, 135.557,150, 135.557,140" style="fill:lime;stroke:purple;stroke-width:1" />
<polygon points =" 135.557,40, 135.557,50, 145.557,50, 145.557,40" style="fill:lime;stroke:purple;stroke-width:1" />
<polygon points =" 135.557,140, 135.557,150, 145.557,150, 145.557,140" style="fill:lime;stroke:purple;stroke-width:1" />
<polygon points =" 145.557,40, 145.557,50, 155.557,50, 155.557,40" style="fill:lime;stroke:purple;stroke-width:1" />
<polygon points =" 145.557,140, 145.557,150, 155.557,150, 155.557,140" style="fill:lime;stroke:purple;stroke-width:1" />
<polygon points =" 31.1146,30, 31.1146,40, 41.1146,40, 41.1146,30" style="fill:lime;stroke:purple;stroke-width:1" />
<polygon points =" 31.1146,150, 31.1146,160, 41.1146,160, 41.1146,150" style="fill:lime;stroke:purple;stroke-width:1" />
<polygon points =" 40.5573,30, 40.5573,40, 50.5573,40, 50.5573,30" style="fill:lime;stroke:purple;stroke-width:1" />
<polygon points =" 40.5573,150, 40.5573,160, 50.5573,160, 50.5573,150" style="fill:lime;stroke:purple;stroke-width:1" />
<polygon points =" 50.5573,30, 50.5573,40, 60.5573,40, 60.5573,30" style="fill:lime;stroke:purple;stroke-width:1" />
<polygon points =" 50.5573,150, 50.5573,160, 60.5573,160, 60.5573,150" style="fill:lime;stroke:purple;stroke-width:1" />
<polygon points =" 60.5573,30, 60.5573,40, 70.5573,40, 70.5573,30" style="fill:lime;stroke:purple;stroke-width:1" />
<polygon points =" 60.5573,150, 60.5573,160, 70.5573,160, 70.5573,150" style="fill:lime;stroke:purple;stroke-width:1" />
<polygon points =" 70.5573,30, 70.5573,40, 80.5573,40, 80.5573,30" style="fill:lime;stroke:purple;stroke-width:1" />
<polygon points =" 70.5573,150, 70.5573,160, 80.5573,160, 80.5573,150" style="fill:lime;stroke:purple;stroke-width:1" />
<polygon points =" 80.5573,30, 80.5573,40, 90.5573,40, 90.5573,30" style="fill:lime;stroke:purple;stroke-width:1" />
<polygon points =" 80.5573,150, 80.5573,160, 90.5573,160, 90.5573,150" style="fill:lime;stroke:purple;stroke-width:1" />
<polygon points =" 90.5573,30, 90.5573,40, 100.557,40, 100.557,30" style="fill:lime;stroke:purple;stroke-width:1" />
<polygon points =" 90.5573,150, 90.5573,160, 100.557,160, 100.557,150" style="fill:lime;stroke:purple;stroke-width:1" />
<polygon points =" 100.557,30, 100.557,40, 110.557,40, 110.557,30" style="fill:lime;stroke:purple;stroke-width:1" />
<polygon points =" 100.557,150, 100.557,160, 110.557,160, 110.557,150" style="fill:lime;stroke:purple;stroke-width:1" />
<polygon points =" 110.557,30, 110.557,40, 120.557,40, 120.557,30" style="fill:lime;stroke:purple;stroke-width:1" />
<polygon points =" 110.557,150, 110.557,160, 120.557,160, 120.557,150" style="fill:lime;stroke:purple;stroke-width:1" />
<polygon points =" 120.557,30, 120.557,40, 130.557,40, 130.557,30" style="fill:lime;stroke:purple;stroke-width:1" />
<polygon points =" 120.557,150, 120.557,160, 130.557,160, 130.557,150" style="fill:lime;stroke:purple;stroke-width:1" />
<polygon points =" 130.557,30, 130.557,40, 140.557,40, 140.557,30" style="fill:lime;stroke:purple;stroke-width:1" />
<polygon points =" 130.557,150, 130.557,160, 140.557,160, 140.557,150" style="fill:lime;stroke:purple;stroke-width:1" />
<polygon points =" 140.557,30, 140.557,40, 150.557,40, 150.557,30" style="fill:lime;stroke:purple;stroke-width:1" />
<polygon points =" 140.557,150, 140.557,160, 150.557,160, 150.557,150" style="fill:lime;stroke:purple;stroke-width:1" />
<polygon points =" 36.1146,20, 36.1146,30, 46.1146,30, 46.1146,20" style="fill:lime;stroke:purple;stroke-width:1" />
<polygon points =" 36.1146,160, 36.1146,170, 46.1146,170, 46.1146,160" style="fill:lime;stroke:purple;stroke-width:1" />
<polygon points =" 45.5573,20, 45.5573,30, 55.5573,30, 55.5573,20" style="fill:lime;stroke:purple;stroke-width:1" />
<polygon points =" 45.5573,160, 45.5573,170, 55.5573,170, 55.5573,160" style="fill:lime;stroke:purple;stroke-width:1" />
<polygon points =" 55.5573,20, 55.5573,30, 65.5573,30, 65.5573,20" style="fill:lime;stroke:purple;stroke-width:1" />
<polygon points =" 55.5573,160, 55.5573,170, 65.5573,170, 65.5573,160" style="fill:lime;stroke:purple;stroke-width:1" />
<polygon points =" 65.5573,20, 65.5573,30, 75.5573,30, 75.5573,20" style="fill:lime;stroke:purple;stroke-width:1" />
<polygon points =" 65.5573,160, 65.5573,170, 75.5573,170, 75.5573,160" style="fill:lime;stroke:purple;stroke-width:1" />
<polygon points =" 75.5573,20, 75.5573,30, 85.5573,30, 85.5573,20" style="fill:lime;stroke:purple;stroke-width:1" />
<polygon points =" 75.5573,160, 75.5573,170, 85.5573,170, 85.5573,160" style="fill:lime;stroke:purple;stroke-width:1" />
<polygon points =" 85.5573,20, 85.5573,30, 95.5573,30, 95.5573,20" style="fill:lime;stroke:purple;stroke-width:1" />
<polygon points =" 85.5573,160, 85.5573,170, 95.5573,170, 95.5573,160" style="fill:lime;stroke:purple;stroke-width:1" />
<polygon points =" 95.5573,20, 95.5573,30, 105.557,30, 105.557,20" style="fill:lime;stroke:purple;stroke-width:1" />
<polygon points =" 95.5573,160, 95.5573,170, 105.557,170, 105.557,160" style="fill:lime;stroke:purple;stroke-width:1" />
<polygon points =" 105.557,20, 105.557,30, 115.557,30, 115.557,20" style="fill:lime;stroke:purple;stroke-width:1" />
<polygon points =" 105.557,160, 105.557,170, 115.557,170, 115.557,160" style="fill:lime;stroke:purple;stroke-width:1" />
<polygon points =" 115.557,20, 115.557,30, 125.557,30, 125.557,20" style="fill:lime;stroke:purple;stroke-width:1" />
<polygon points =" 115.557,160, 115.557,170, 125.557,170, 125.557,160" style="fill:lime;stroke:purple;stroke-width:1" />
<polygon points =" 125.557,20, 125.557,30, 135.557,30, 135.557,20" style="fill:lime;stroke:purple;stroke-width:1" />
<polygon points =" 125.557,160, 125.557,170, 135.557,170, 135.557,160" style="fill:lime;stroke:purple;stroke-width:1" />
<polygon points =" 135.557,20, 135.557,30, 145.557,30, 145.557,20" style="fill:lime;stroke:purple;stroke-width:1" />
<polygon points =" 135.557,160, 135.557,170, 145.557,170, 145.557,160" style="fill:lime;stroke:purple;stroke-width:1" />
</svg>
