<?xml version="1.0" standalone="no"?>
<svg width="300" height="300" version="1.1" xmlns="http://www.w3.org/2000/svg">
<rect x="0" y="0" width="200.000000" height="100.000000" stroke="red" fill="yellow"  />
<polygon points =" 19.9803,10.6276, 19.9212,11.2527, 19.8231,11.8729, 19.6861,12.4857, 19.5111,13.0887, 19.2985,13.6795, 19.0492,14.2558, 18.7643,14.8153, 18.4448,15.3558, 18.092,15.8753, 17.7074,16.3715, 17.2923,16.8427, 16.8485,17.2869, 16.3777,17.7023, 15.8817,18.0874, 15.3626,18.4405, 14.8223,18.7605, 14.263,19.0458, 13.6869,19.2955, 13.0962,19.5086, 12.4934,19.6842, 11.8807,19.8216, 11.2606,19.9202, 10.6355,19.9798, 10.008,20, 9.38036,19.9808, 8.7552,19.9222, 8.13495,19.8245, 7.52205,19.6881, 6.91892,19.5135, 6.32794,19.3014, 5.75143,19.0526, 5.19168,18.7681, 4.65088,18.4491, 4.13117,18.0967, 3.6346,17.7124, 3.16313,17.2977, 2.7186,16.8543, 2.30279,16.3838, 1.91733,15.8882, 1.56373,15.3693, 1.24339,14.8293, 0.95757,14.2702, 0.707404,13.6943, 0.493874,13.1038, 0.317823,12.5011, 0.179944,11.8885, 0.0807809,11.2685, 0.0207249,10.6435, 1.26827e-05,10.0159, 0.0187258,9.38831, 0.0767906,8.7631, 0.173978,8.14277, 0.309905,7.52977, 0.484036,6.9265, 0.695683,6.33535, 0.944014,5.75864, 1.22805,5.19866, 1.54667,4.65761, 1.89861,4.13762, 2.2825,3.64074, 2.69681,3.16894, 3.13991,2.72407, 3.61007,2.30788, 4.10541,1.92202, 4.62399,1.568, 5.16377,1.24723, 5.72262,0.960973, 6.29833,0.710348, 6.88863,0.496349, 7.4912,0.319817, 8.10366,0.181451, 8.7236,0.0817941, 9.34857,0.0212405, 9.97611,2.85361e-05, 10.6037,0.0182419, 11.229,0.0758088, 11.8494,0.172502, 12.4625,0.307941, 13.0659,0.481591, 13.6572,0.692768, 14.2341,0.940639, 14.7944,1.22423, 15.3357,1.54241, 15.8559,1.89395, 16.3531,2.27744, 16.8252,2.69137, 17.2705,3.13412, 17.687,3.60394, 18.0733,4.09898, 18.4277,4.61728, 18.7489,5.1568, 19.0356,5.71542, 19.2867,6.29093, 19.5012,6.88106, 19.6782,7.48349, 19.817,8.09585, 19.9172,8.7157, 19.9782,9.34063, 19.9999,9.96815" style="fill:lime;stroke:purple;stroke-width:1" />
<polygon points =" 39.9803,10.6276, 39.9212,11.2527, 39.8231,11.8729, 39.6861,12.4857, 39.5111,13.0887, 39.2985,13.6795, 39.0492,14.2558, 38.7643,14.8153, 38.4448,15.3558, 38.092,15.8753, 37.7074,16.3715, 37.2923,16.8427, 36.8485,17.2869, 36.3777,17.7023, 35.8817,18.0874, 35.3626,18.4405, 34.8223,18.7605, 34.263,19.0458, 33.6869,19.2955, 33.0962,19.5086, 32.4934,19.6842, 31.8807,19.8216, 31.2606,19.9202, 30.6355,19.9798, 30.008,20, 29.3804,19.9808, 28.7552,19.9222, 28.1349,19.8245, 27.522,19.6881, 26.9189,19.5135, 26.3279,19.3014, 25.7514,19.0526, 25.1917,18.7681, 24.6509,18.4491, 24.1312,18.0967, 23.6346,17.7124, 23.1631,17.2977, 22.7186,16.8543, 22.3028,16.3838, 21.9173,15.8882, 21.5637,15.3693, 21.2434,14.8293, 20.9576,14.2702, 20.7074,13.6943, 20.4939,13.1038, 20.3178,12.5011, 20.1799,11.8885, 20.0808,11.2685, 20.0207,10.6435, 20,10.0159, 20.0187,9.38831, 20.0768,8.7631, 20.174,8.14277, 20.3099,7.52977, 20.484,6.9265, 20.6957,6.33535, 20.944,5.75864, 21.228,5.19866, 21.5467,4.65761, 21.8986,4.13762, 22.2825,3.64074, 22.6968,3.16894, 23.1399,2.72407, 23.6101,2.30788, 24.1054,1.92202, 24.624,1.568, 25.1638,1.24723, 25.7226,0.960973, 26.2983,0.710348, 26.8886,0.496349, 27.4912,0.319817, 28.1037,0.181451, 28.7236,0.0817941, 29.3486,0.0212405, 29.9761,2.85361e-05, 30.6037,0.0182419, 31.229,0.0758088, 31.8494,0.172502, 32.4625,0.307941, 33.0659,0.481591, 33.6572,0.692768, 34.2341,0.940639, 34.7944,1.22423, 35.3357,1.54241, 35.8559,1.89395, 36.3531,2.27744, 36.8252,2.69137, 37.2705,3.13412, 37.687,3.60394, 38.0733,4.09898, 38.4277,4.61728, 38.7489,5.1568, 39.0356,5.71542, 39.2867,6.29093, 39.5012,6.88106, 39.6782,7.48349, 39.817,8.09585, 39.9172,8.7157, 39.9782,9.34063, 39.9999,9.96815" style="fill:lime;stroke:purple;stroke-width:1" />
<polygon points =" 59.9803,10.6276, 59.9212,11.2527, 59.8231,11.8729, 59.6861,12.4857, 59.5111,13.0887, 59.2985,13.6795, 59.0492,14.2558, 58.7643,14.8153, 58.4448,15.3558, 58.092,15.8753, 57.7074,16.3715, 57.2923,16.8427, 56.8485,17.2869, 56.3777,17.7023, 55.8817,18.0874, 55.3626,18.4405, 54.8223,18.7605, 54.263,19.0458, 53.6869,19.2955, 53.0962,19.5086, 52.4934,19.6842, 51.8807,19.8216, 51.2606,19.9202, 50.6355,19.9798, 50.008,20, 49.3804,19.9808, 48.7552,19.9222, 48.1349,19.8245, 47.522,19.6881, 46.9189,19.5135, 46.3279,19.3014, 45.7514,19.0526, 45.1917,18.7681, 44.6509,18.4491, 44.1312,18.0967, 43.6346,17.7124, 43.1631,17.2977, 42.7186,16.8543, 42.3028,16.3838, 41.9173,15.8882, 41.5637,15.3693, 41.2434,14.8293, 40.9576,14.2702, 40.7074,13.6943, 40.4939,13.1038, 40.3178,12.5011, 40.1799,11.8885, 40.0808,11.2685, 40.0207,10.6435, 40,10.0159, 40.0187,9.38831, 40.0768,8.7631, 40.174,8.14277, 40.3099,7.52977, 40.484,6.9265, 40.6957,6.33535, 40.944,5.75864, 41.228,5.19866, 41.5467,4.65761, 41.8986,4.13762, 42.2825,3.64074, 42.6968,3.16894, 43.1399,2.72407, 43.6101,2.30788, 44.1054,1.92202, 44.624,1.568, 45.1638,1.24723, 45.7226,0.960973, 46.2983,0.710348, 46.8886,0.496349, 47.4912,0.319817, 48.1037,0.181451, 48.7236,0.0817941, 49.3486,0.0212405, 49.9761,2.85361e-05, 50.6037,0.0182419, 51.229,0.0758088, 51.8494,0.172502, 52.4625,0.307941, 53.0659,0.481591, 53.6572,0.692768, 54.2341,0.940639, 54.7944,1.22423, 55.3357,1.54241, 55.8559,1.89395, 56.3531,2.27744, 56.8252,2.69137, 57.2705,3.13412, 57.687,3.60394, 58.0733,4.09898, 58.4277,4.61728, 58.7489,5.1568, 59.0356,5.71542, 59.2867,6.29093, 59.5012,6.88106, 59.6782,7.48349, 59.817,8.09585, 59.9172,8.7157, 59.9782,9.34063, 59.9999,9.96815" style="fill:lime;stroke:purple;stroke-width:1" />
<polygon points =" 79.9803,10.6276, 79.9212,11.2527, 79.8231,11.8729, 79.6861,12.4857, 79.5111,13.0887, 79.2985,13.6795, 79.0492,14.2558, 78.7643,14.8153, 78.4448,15.3558, 78.092,15.8753, 77.7074,16.3715, 77.2923,16.8427, 76.8485,17.2869, 76.3777,17.7023, 75.8817,18.0874, 75.3626,18.4405, 74.8223,18.7605, 74.263,19.0458, 73.6869,19.2955, 73.0962,19.5086, 72.4934,19.6842, 71.8807,19.8216, 71.2606,19.9202, 70.6355,19.9798, 70.008,20, 69.3804,19.9808, 68.7552,19.9222, 68.1349,19.8245, 67.522,19.6881, 66.9189,19.5135, 66.3279,19.3014, 65.7514,19.0526, 65.1917,18.7681, 64.6509,18.4491, 64.1312,18.0967, 63.6346,17.7124, 63.1631,17.2977, 62.7186,16.8543, 62.3028,16.3838, 61.9173,15.8882, 61.5637,15.3693, 61.2434,14.8293, 60.9576,14.2702, 60.7074,13.6943, 60.4939,13.1038, 60.3178,12.5011, 60.1799,11.8885, 60.0808,11.2685, 60.0207,10.6435, 60,10.0159, 60.0187,9.38831, 60.0768,8.7631, 60.174,8.14277, 60.3099,7.52977, 60.484,6.9265, 60.6957,6.33535, 60.944,5.75864, 61.228,5.19866, 61.5467,4.65761, 61.8986,4.13762, 62.2825,3.64074, 62.6968,3.16894, 63.1399,2.72407, 63.6101,2.30788, 64.1054,1.92202, 64.624,1.568, 65.1638,1.24723, 65.7226,0.960973, 66.2983,0.710348, 66.8886,0.496349, 67.4912,0.319817, 68.1037,0.181451, 68.7236,0.0817941, 69.3486,0.0212405, 69.9761,2.85361e-05, 70.6037,0.0182419, 71.229,0.0758088, 71.8494,0.172502, 72.4625,0.307941, 73.0659,0.481591, 73.6572,0.692768, 74.2341,0.940639, 74.7944,1.22423, 75.3357,1.54241, 75.8559,1.89395, 76.3531,2.27744, 76.8252,2.69137, 77.2705,3.13412, 77.687,3.60394, 78.0733,4.09898, 78.4277,4.61728, 78.7489,5.1568, 79.0356,5.71542, 79.2867,6.29093, 79.5012,6.88106, 79.6782,7.48349, 79.817,8.09585, 79.9172,8.7157, 79.9782,9.34063, 79.9999,9.96815" style="fill:lime;stroke:purple;stroke-width:1" />
<polygon points =" 99.9803,10.6276, 99.9212,11.2527, 99.8231,11.8729, 99.6861,12.4857, 99.5111,13.0887, 99.2985,13.6795, 99.0492,14.2558, 98.7643,14.8153, 98.4448,15.3558, 98.092,15.8753, 97.7074,16.3715, 97.2923,16.8427, 96.8485,17.2869, 96.3777,17.7023, 95.8817,18.0874, 95.3626,18.4405, 94.8223,18.7605, 94.263,19.0458, 93.6869,19.2955, 93.0962,19.5086, 92.4934,19.6842, 91.8807,19.8216, 91.2606,19.9202, 90.6355,19.9798, 90.008,20, 89.3804,19.9808, 88.7552,19.9222, 88.1349,19.8245, 87.522,19.6881, 86.9189,19.5135, 86.3279,19.3014, 85.7514,19.0526, 85.1917,18.7681, 84.6509,18.4491, 84.1312,18.0967, 83.6346,17.7124, 83.1631,17.2977, 82.7186,16.8543, 82.3028,16.3838, 81.9173,15.8882, 81.5637,15.3693, 81.2434,14.8293, 80.9576,14.2702, 80.7074,13.6943, 80.4939,13.1038, 80.3178,12.5011, 80.1799,11.8885, 80.0808,11.2685, 80.0207,10.6435, 80,10.0159, 80.0187,9.38831, 80.0768,8.7631, 80.174,8.14277, 80.3099,7.52977, 80.484,6.9265, 80.6957,6.33535, 80.944,5.75864, 81.228,5.19866, 81.5467,4.65761, 81.8986,4.13762, 82.2825,3.64074, 82.6968,3.16894, 83.1399,2.72407, 83.6101,2.30788, 84.1054,1.92202, 84.624,1.568, 85.1638,1.24723, 85.7226,0.960973, 86.2983,0.710348, 86.8886,0.496349, 87.4912,0.319817, 88.1037,0.181451, 88.7236,0.0817941, 89.3486,0.0212405, 89.9761,2.85361e-05, 90.6037,0.0182419, 91.229,0.0758088, 91.8494,0.172502, 92.4625,0.307941, 93.0659,0.481591, 93.6572,0.692768, 94.2341,0.940639, 94.7944,1.22423, 95.3357,1.54241, 95.8559,1.89395, 96.3531,2.27744, 96.8252,2.69137, 97.2705,3.13412, 97.687,3.60394, 98.0733,4.09898, 98.4277,4.61728, 98.7489,5.1568, 99.0356,5.71542, 99.2867,6.29093, 99.5012,6.88106, 99.6782,7.48349, 99.817,8.09585, 99.9172,8.7157, 99.9782,9.34063, 99.9999,9.96815" style="fill:lime;stroke:purple;stroke-width:1" />
<polygon points =" 119.98,10.6276, 119.921,11.2527, 119.823,11.8729, 119.686,12.4857, 119.511,13.0887, 119.298,13.6795, 119.049,14.2558, 118.764,14.8153, 118.445,15.3558, 118.092,15.8753, 117.707,16.3715, 117.292,16.8427, 116.848,17.2869, 116.378,17.7023, 115.882,18.0874, 115.363,18.4405, 114.822,18.7605, 114.263,19.0458, 113.687,19.2955, 113.096,19.5086, 112.493,19.6842, 111.881,19.8216, 111.261,19.9202, 110.636,19.9798, 110.008,20, 109.38,19.9808, 108.755,19.9222, 108.135,19.8245, 107.522,19.6881, 106.919,19.5135, 106.328,19.3014, 105.751,19.0526, 105.192,18.7681, 104.651,18.4491, 104.131,18.0967, 103.635,17.7124, 103.163,17.2977, 102.719,16.8543, 102.303,16.3838, 101.917,15.8882, 101.564,15.3693, 101.243,14.8293, 100.958,14.2702, 100.707,13.6943, 100.494,13.1038, 100.318,12.5011, 100.18,11.8885, 100.081,11.2685, 100.021,10.6435, 100,10.0159, 100.019,9.38831, 100.077,8.7631, 100.174,8.14277, 100.31,7.52977, 100.484,6.9265, 100.696,6.33535, 100.944,5.75864, 101.228,5.19866, 101.547,4.65761, 101.899,4.13762, 102.282,3.64074, 102.697,3.16894, 103.14,2.72407, 103.61,2.30788, 104.105,1.92202, 104.624,1.568, 105.164,1.24723, 105.723,0.960973, 106.298,0.710348, 106.889,0.496349, 107.491,0.319817, 108.104,0.181451, 108.724,0.0817941, 109.349,0.0212405, 109.976,2.85361e-05, 110.604,0.0182419, 111.229,0.0758088, 111.849,0.172502, 112.463,0.307941, 113.066,0.481591, 113.657,0.692768, 114.234,0.940639, 114.794,1.22423, 115.336,1.54241, 115.856,1.89395, 116.353,2.27744, 116.825,2.69137, 117.27,3.13412, 117.687,3.60394, 118.073,4.09898, 118.428,4.61728, 118.749,5.1568, 119.036,5.71542, 119.287,6.29093, 119.501,6.88106, 119.678,7.48349, 119.817,8.09585, 119.917,8.7157, 119.978,9.34063, 120,9.96815" style="fill:lime;stroke:purple;stroke-width:1" />
<polygon points =" 139.98,10.6276, 139.921,11.2527, 139.823,11.8729, 139.686,12.4857, 139.511,13.0887, 139.298,13.6795, 139.049,14.2558, 138.764,14.8153, 138.445,15.3558, 138.092,15.8753, 137.707,16.3715, 137.292,16.8427, 136.848,17.2869, 136.378,17.7023, 135.882,18.0874, 135.363,18.4405, 134.822,18.7605, 134.263,19.0458, 133.687,19.2955, 133.096,19.5086, 132.493,19.6842, 131.881,19.8216, 131.261,19.9202, 130.636,19.9798, 130.008,20, 129.38,19.9808, 128.755,19.9222, 128.135,19.8245, 127.522,19.6881, 126.919,19.5135, 126.328,19.3014, 125.751,19.0526, 125.192,18.7681, 124.651,18.4491, 124.131,18.0967, 123.635,17.7124, 123.163,17.2977, 122.719,16.8543, 122.303,16.3838, 121.917,15.8882, 121.564,15.3693, 121.243,14.8293, 120.958,14.2702, 120.707,13.6943, 120.494,13.1038, 120.318,12.5011, 120.18,11.8885, 120.081,11.2685, 120.021,10.6435, 120,10.0159, 120.019,9.38831, 120.077,8.7631, 120.174,8.14277, 120.31,7.52977, 120.484,6.9265, 120.696,6.33535, 120.944,5.75864, 121.228,5.19866, 121.547,4.65761, 121.899,4.13762, 122.282,3.64074, 122.697,3.16894, 123.14,2.72407, 123.61,2.30788, 124.105,1.92202, 124.624,1.568, 125.164,1.24723, 125.723,0.960973, 126.298,0.710348, 126.889,0.496349, 127.491,0.319817, 128.104,0.181451, 128.724,0.0817941, 129.349,0.0212405, 129.976,2.85361e-05, 130.604,0.0182419, 131.229,0.0758088, 131.849,0.172502, 132.463,0.307941, 133.066,0.481591, 133.657,0.692768, 134.234,0.940639, 134.794,1.22423, 135.336,1.54241, 135.856,1.89395, 136.353,2.27744, 136.825,2.69137, 137.27,3.13412, 137.687,3.60394, 138.073,4.09898, 138.428,4.61728, 138.749,5.1568, 139.036,5.71542, 139.287,6.29093, 139.501,6.88106, 139.678,7.48349, 139.817,8.09585, 139.917,8.7157, 139.978,9.34063, 140,9.96815" style="fill:lime;stroke:purple;stroke-width:1" />
<polygon points =" 159.98,10.6276, 159.921,11.2527, 159.823,11.8729, 159.686,12.4857, 159.511,13.0887, 159.298,13.6795, 159.049,14.2558, 158.764,14.8153, 158.445,15.3558, 158.092,15.8753, 157.707,16.3715, 157.292,16.8427, 156.848,17.2869, 156.378,17.7023, 155.882,18.0874, 155.363,18.4405, 154.822,18.7605, 154.263,19.0458, 153.687,19.2955, 153.096,19.5086, 152.493,19.6842, 151.881,19.8216, 151.261,19.9202, 150.636,19.9798, 150.008,20, 149.38,19.9808, 148.755,19.9222, 148.135,19.8245, 147.522,19.6881, 146.919,19.5135, 146.328,19.3014, 145.751,19.0526, 145.192,18.7681, 144.651,18.4491, 144.131,18.0967, 143.635,17.7124, 143.163,17.2977, 142.719,16.8543, 142.303,16.3838, 141.917,15.8882, 141.564,15.3693, 141.243,14.8293, 140.958,14.2702, 140.707,13.6943, 140.494,13.1038, 140.318,12.5011, 140.18,11.8885, 140.081,11.2685, 140.021,10.6435, 140,10.0159, 140.019,9.38831, 140.077,8.7631, 140.174,8.14277, 140.31,7.52977, 140.484,6.9265, 140.696,6.33535, 140.944,5.75864, 141.228,5.19866, 141.547,4.65761, 141.899,4.13762, 142.282,3.64074, 142.697,3.16894, 143.14,2.72407, 143.61,2.30788, 144.105,1.92202, 144.624,1.568, 145.164,1.24723, 145.723,0.960973, 146.298,0.710348, 146.889,0.496349, 147.491,0.319817, 148.104,0.181451, 148.724,0.0817941, 149.349,0.0212405, 149.976,2.85361e-05, 150.604,0.0182419, 151.229,0.0758088, 151.849,0.172502, 152.463,0.307941, 153.066,0.481591, 153.657,0.692768, 154.234,0.940639, 154.794,1.22423, 155.336,1.54241, 155.856,1.89395, 156.353,2.27744, 156.825,2.69137, 157.27,3.13412, 157.687,3.60394, 158.073,4.09898, 158.428,4.61728, 158.749,5.1568, 159.036,5.71542, 159.287,6.29093, 159.501,6.88106, 159.678,7.48349, 159.817,8.09585, 159.917,8.7157, 159.978,9.34063, 160,9.96815" style="fill:lime;stroke:purple;stroke-width:1" />
<polygon points =" 179.98,10.6276, 179.921,11.2527, 179.823,11.8729, 179.686,12.4857, 179.511,13.0887, 179.298,13.6795, 179.049,14.2558, 178.764,14.8153, 178.445,15.3558, 178.092,15.8753, 177.707,16.3715, 177.292,16.8427, 176.848,17.2869, 176.378,17.7023, 175.882,18.0874, 175.363,18.4405, 174.822,18.7605, 174.263,19.0458, 173.687,19.2955, 173.096,19.5086, 172.493,19.6842, 171.881,19.8216, 171.261,19.9202, 170.636,19.9798, 170.008,20, 169.38,19.9808, 168.755,19.9222, 168.135,19.8245, 167.522,19.6881, 166.919,19.5135, 166.328,19.3014, 165.751,19.0526, 165.192,18.7681, 164.651,18.4491, 164.131,18.0967, 163.635,17.7124, 163.163,17.2977, 162.719,16.8543, 162.303,16.3838, 161.917,15.8882, 161.564,15.3693, 161.243,14.8293, 160.958,14.2702, 160.707,13.6943, 160.494,13.1038, 160.318,12.5011, 160.18,11.8885, 160.081,11.2685, 160.021,10.6435, 160,10.0159, 160.019,9.38831, 160.077,8.7631, 160.174,8.14277, 160.31,7.52977, 160.484,6.9265, 160.696,6.33535, 160.944,5.75864, 161.228,5.19866, 161.547,4.65761, 161.899,4.13762, 162.282,3.64074, 162.697,3.16894, 163.14,2.72407, 163.61,2.30788, 164.105,1.92202, 164.624,1.568, 165.164,1.24723, 165.723,0.960973, 166.298,0.710348, 166.889,0.496349, 167.491,0.319817, 168.104,0.181451, 168.724,0.0817941, 169.349,0.0212405, 169.976,2.85361e-05, 170.604,0.0182419, 171.229,0.0758088, 171.849,0.172502, 172.463,0.307941, 173.066,0.481591, 173.657,0.692768, 174.234,0.940639, 174.794,1.22423, 175.336,1.54241, 175.856,1.89395, 176.353,2.27744, 176.825,2.69137, 177.27,3.13412, 177.687,3.60394, 178.073,4.09898, 178.428,4.61728, 178.749,5.1568, 179.036,5.71542, 179.287,6.29093, 179.501,6.88106, 179.678,7.48349, 179.817,8.09585, 179.917,8.7157, 179.978,9.34063, 180,9.96815" style="fill:lime;stroke:purple;stroke-width:1" />
<polygon points =" 199.98,10.6276, 199.921,11.2527, 199.823,11.8729, 199.686,12.4857, 199.511,13.0887, 199.298,13.6795, 199.049,14.2558, 198.764,14.8153, 198.445,15.3558, 198.092,15.8753, 197.707,16.3715, 197.292,16.8427, 196.848,17.2869, 196.378,17.7023, 195.882,18.0874, 195.363,18.4405, 194.822,18.7605, 194.263,19.0458, 193.687,19.2955, 193.096,19.5086, 192.493,19.6842, 191.881,19.8216, 191.261,19.9202, 190.636,19.9798, 190.008,20, 189.38,19.9808, 188.755,19.9222, 188.135,19.8245, 187.522,19.6881, 186.919,19.5135, 186.328,19.3014, 185.751,19.0526, 185.192,18.7681, 184.651,18.4491, 184.131,18.0967, 183.635,17.7124, 183.163,17.2977, 182.719,16.8543, 182.303,16.3838, 181.917,15.8882, 181.564,15.3693, 181.243,14.8293, 180.958,14.2702, 180.707,13.6943, 180.494,13.1038, 180.318,12.5011, 180.18,11.8885, 180.081,11.2685, 180.021,10.6435, 180,10.0159, 180.019,9.38831, 180.077,8.7631, 180.174,8.14277, 180.31,7.52977, 180.484,6.9265, 180.696,6.33535, 180.944,5.75864, 181.228,5.19866, 181.547,4.65761, 181.899,4.13762, 182.282,3.64074, 182.697,3.16894, 183.14,2.72407, 183.61,2.30788, 184.105,1.92202, 184.624,1.568, 185.164,1.24723, 185.723,0.960973, 186.298,0.710348, 186.889,0.496349, 187.491,0.319817, 188.104,0.181451, 188.724,0.0817941, 189.349,0.0212405, 189.976,2.85361e-05, 190.604,0.0182419, 191.229,0.0758088, 191.849,0.172502, 192.463,0.307941, 193.066,0.481591, 193.657,0.692768, 194.234,0.940639, 194.794,1.22423, 195.336,1.54241, 195.856,1.89395, 196.353,2.27744, 196.825,2.69137, 197.27,3.13412, 197.687,3.60394, 198.073,4.09898, 198.428,4.61728, 198.749,5.1568, 199.036,5.71542, 199.287,6.29093, 199.501,6.88106, 199.678,7.48349, 199.817,8.09585, 199.917,8.7157, 199.978,9.34063, 200,9.96815" style="fill:lime;stroke:purple;stroke-width:1" />
<polygon points =" 19.9803,30.6276, 19.9212,31.2527, 19.8231,31.8729, 19.6861,32.4857, 19.5111,33.0887, 19.2985,33.6795, 19.0492,34.2558, 18.7643,34.8153, 18.4448,35.3558, 18.092,35.8753, 17.7074,36.3715, 17.2923,36.8427, 16.8485,37.2869, 16.3777,37.7023, 15.8817,38.0874, 15.3626,38.4405, 14.8223,38.7605, 14.263,39.0458, 13.6869,39.2955, 13.0962,39.5086, 12.4934,39.6842, 11.8807,39.8216, 11.2606,39.9202, 10.6355,39.9798, 10.008,40, 9.38036,39.9808, 8.7552,39.9222, 8.13495,39.8245, 7.52205,39.6881, 6.91892,39.5135, 6.32794,39.3014, 5.75143,39.0526, 5.19168,38.7681, 4.65088,38.4491, 4.13117,38.0967, 3.6346,37.7124, 3.16313,37.2977, 2.7186,36.8543, 2.30279,36.3838, 1.91733,35.8882, 1.56373,35.3693, 1.24339,34.8293, 0.95757,34.2702, 0.707404,33.6943, 0.493874,33.1038, 0.317823,32.5011, 0.179944,31.8885, 0.0807809,31.2685, 0.0207249,30.6435, 1.26827e-05,30.0159, 0.0187258,29.3883, 0.0767906,28.7631, 0.173978,28.1428, 0.309905,27.5298, 0.484036,26.9265, 0.695683,26.3353, 0.944014,25.7586, 1.22805,25.1987, 1.54667,24.6576, 1.89861,24.1376, 2.2825,23.6407, 2.69681,23.1689, 3.13991,22.7241, 3.61007,22.3079, 4.10541,21.922, 4.62399,21.568, 5.16377,21.2472, 5.72262,20.961, 6.29833,20.7103, 6.88863,20.4963, 7.4912,20.3198, 8.10366,20.1815, 8.7236,20.0818, 9.34857,20.0212, 9.97611,20, 10.6037,20.0182, 11.229,20.0758, 11.8494,20.1725, 12.4625,20.3079, 13.0659,20.4816, 13.6572,20.6928, 14.2341,20.9406, 14.7944,21.2242, 15.3357,21.5424, 15.8559,21.8939, 16.3531,22.2774, 16.8252,22.6914, 17.2705,23.1341, 17.687,23.6039, 18.0733,24.099, 18.4277,24.6173, 18.7489,25.1568, 19.0356,25.7154, 19.2867,26.2909, 19.5012,26.8811, 19.6782,27.4835, 19.817,28.0958, 19.9172,28.7157, 19.9782,29.3406, 19.9999,29.9681" style="fill:lime;stroke:purple;stroke-width:1" />
<polygon points =" 39.9803,30.6276, 39.9212,31.2527, 39.8231,31.8729, 39.6861,32.4857, 39.5111,33.0887, 39.2985,33.6795, 39.0492,34.2558, 38.7643,34.8153, 38.4448,35.3558, 38.092,35.8753, 37.7074,36.3715, 37.2923,36.8427, 36.8485,37.2869, 36.3777,37.7023, 35.8817,38.0874, 35.3626,38.4405, 34.8223,38.7605, 34.263,39.0458, 33.6869,39.2955, 33.0962,39.5086, 32.4934,39.6842, 31.8807,39.8216, 31.2606,39.9202, 30.6355,39.9798, 30.008,40, 29.3804,39.9808, 28.7552,39.9222, 28.1349,39.8245, 27.522,39.6881, 26.9189,39.5135, 26.3279,39.3014, 25.7514,39.0526, 25.1917,38.7681, 24.6509,38.4491, 24.1312,38.0967, 23.6346,37.7124, 23.1631,37.2977, 22.7186,36.8543, 22.3028,36.3838, 21.9173,35.8882, 21.5637,35.3693, 21.2434,34.8293, 20.9576,34.2702, 20.7074,33.6943, 20.4939,33.1038, 20.3178,32.5011, 20.1799,31.8885, 20.0808,31.2685, 20.0207,30.6435, 20,30.0159, 20.0187,29.3883, 20.0768,28.7631, 20.174,28.1428, 20.3099,27.5298, 20.484,26.9265, 20.6957,26.3353, 20.944,25.7586, 21.228,25.1987, 21.5467,24.6576, 21.8986,24.1376, 22.2825,23.6407, 22.6968,23.1689, 23.1399,22.7241, 23.6101,22.3079, 24.1054,21.922, 24.624,21.568, 25.1638,21.2472, 25.7226,20.961, 26.2983,20.7103, 26.8886,20.4963, 27.4912,20.3198, 28.1037,20.1815, 28.7236,20.0818, 29.3486,20.0212, 29.9761,20, 30.6037,20.0182, 31.229,20.0758, 31.8494,20.1725, 32.4625,20.3079, 33.0659,20.4816, 33.6572,20.6928, 34.2341,20.9406, 34.7944,21.2242, 35.3357,21.5424, 35.8559,21.8939, 36.3531,22.2774, 36.8252,22.6914, 37.2705,23.1341, 37.687,23.6039, 38.0733,24.099, 38.4277,24.6173, 38.7489,25.1568, 39.0356,25.7154, 39.2867,26.2909, 39.5012,26.8811, 39.6782,27.4835, 39.817,28.0958, 39.9172,28.7157, 39.9782,29.3406, 39.9999,29.9681" style="fill:lime;stroke:purple;stroke-width:1" />
<polygon points =" 59.9803,30.6276, 59.9212,31.2527, 59.8231,31.8729, 59.6861,32.4857, 59.5111,33.0887, 59.2985,33.6795, 59.0492,34.2558, 58.7643,34.8153, 58.4448,35.3558, 58.092,35.8753, 57.7074,36.3715, 57.2923,36.8427, 56.8485,37.2869, 56.3777,37.7023, 55.8817,38.0874, 55.3626,38.4405, 54.8223,38.7605, 54.263,39.0458, 53.6869,39.2955, 53.0962,39.5086, 52.4934,39.6842, 51.8807,39.8216, 51.2606,39.9202, 50.6355,39.9798, 50.008,40, 49.3804,39.9808, 48.7552,39.9222, 48.1349,39.8245, 47.522,39.6881, 46.9189,39.5135, 46.3279,39.3014, 45.7514,39.0526, 45.1917,38.7681, 44.6509,38.4491, 44.1312,38.0967, 43.6346,37.7124, 43.1631,37.2977, 42.7186,36.8543, 42.3028,36.3838, 41.9173,35.8882, 41.5637,35.3693, 41.2434,34.8293, 40.9576,34.2702, 40.7074,33.6943, 40.4939,33.1038, 40.3178,32.5011, 40.1799,31.8885, 40.0808,31.2685, 40.0207,30.6435, 40,30.0159, 40.0187,29.3883, 40.0768,28.7631, 40.174,28.1428, 40.3099,27.5298, 40.484,26.9265, 40.6957,26.3353, 40.944,25.7586, 41.228,25.1987, 41.5467,24.6576, 41.8986,24.1376, 42.2825,23.6407, 42.6968,23.1689, 43.1399,22.7241, 43.6101,22.3079, 44.1054,21.922, 44.624,21.568, 45.1638,21.2472, 45.7226,20.961, 46.2983,20.7103, 46.8886,20.4963, 47.4912,20.3198, 48.1037,20.1815, 48.7236,20.0818, 49.3486,20.0212, 49.9761,20, 50.6037,20.0182, 51.229,20.0758, 51.8494,20.1725, 52.4625,20.3079, 53.0659,20.4816, 53.6572,20.6928, 54.2341,20.9406, 54.7944,21.2242, 55.3357,21.5424, 55.8559,21.8939, 56.3531,22.2774, 56.8252,22.6914, 57.2705,23.1341, 57.687,23.6039, 58.0733,24.099, 58.4277,24.6173, 58.7489,25.1568, 59.0356,25.7154, 59.2867,26.2909, 59.5012,26.8811, 59.6782,27.4835, 59.817,28.0958, 59.9172,28.7157, 59.9782,29.3406, 59.9999,29.9681" style="fill:lime;stroke:purple;stroke-width:1" />
<polygon points =" 79.9803,30.6276, 79.9212,31.2527, 79.8231,31.8729, 79.6861,32.4857, 79.5111,33.0887, 79.2985,33.6795, 79.0492,34.2558, 78.7643,34.8153, 78.4448,35.3558, 78.092,35.8753, 77.7074,36.3715, 77.2923,36.8427, 76.8485,37.2869, 76.3777,37.7023, 75.8817,38.0874, 75.3626,38.4405, 74.8223,38.7605, 74.263,39.0458, 73.6869,39.2955, 73.0962,39.5086, 72.4934,39.6842, 71.8807,39.8216, 71.2606,39.9202, 70.6355,39.9798, 70.008,40, 69.3804,39.9808, 68.7552,39.9222, 68.1349,39.8245, 67.522,39.6881, 66.9189,39.5135, 66.3279,39.3014, 65.7514,39.0526, 65.1917,38.7681, 64.6509,38.4491, 64.1312,38.0967, 63.6346,37.7124, 63.1631,37.2977, 62.7186,36.8543, 62.3028,36.3838, 61.9173,35.8882, 61.5637,35.3693, 61.2434,34.8293, 60.9576,34.2702, 60.7074,33.6943, 60.4939,33.1038, 60.3178,32.5011, 60.1799,31.8885, 60.0808,31.2685, 60.0207,30.6435, 60,30.0159, 60.0187,29.3883, 60.0768,28.7631, 60.174,28.1428, 60.3099,27.5298, 60.484,26.9265, 60.6957,26.3353, 60.944,25.7586, 61.228,25.1987, 61.5467,24.6576, 61.8986,24.1376, 62.2825,23.6407, 62.6968,23.1689, 63.1399,22.7241, 63.6101,22.3079, 64.1054,21.922, 64.624,21.568, 65.1638,21.2472, 65.7226,20.961, 66.2983,20.7103, 66.8886,20.4963, 67.4912,20.3198, 68.1037,20.1815, 68.7236,20.0818, 69.3486,20.0212, 69.9761,20, 70.6037,20.0182, 71.229,20.0758, 71.8494,20.1725, 72.4625,20.3079, 73.0659,20.4816, 73.6572,20.6928, 74.2341,20.9406, 74.7944,21.2242, 75.3357,21.5424, 75.8559,21.8939, 76.3531,22.2774, 76.8252,22.6914, 77.2705,23.1341, 77.687,23.6039, 78.0733,24.099, 78.4277,24.6173, 78.7489,25.1568, 79.0356,25.7154, 79.2867,26.2909, 79.5012,26.8811, 79.6782,27.4835, 79.817,28.0958, 79.9172,28.7157, 79.9782,29.3406, 79.9999,29.9681" style="fill:lime;stroke:purple;stroke-width:1" />
<polygon points =" 99.9803,30.6276, 99.9212,31.2527, 99.8231,31.8729, 99.6861,32.4857, 99.5111,33.0887, 99.2985,33.6795, 99.0492,34.2558, 98.7643,34.8153, 98.4448,35.3558, 98.092,35.8753, 97.7074,36.3715, 97.2923,36.8427, 96.8485,37.2869, 96.3777,37.7023, 95.8817,38.0874, 95.3626,38.4405, 94.8223,38.7605, 94.263,39.0458, 93.6869,39.2955, 93.0962,39.5086, 92.4934,39.6842, 91.8807,39.8216, 91.2606,39.9202, 90.6355,39.9798, 90.008,40, 89.3804,39.9808, 88.7552,39.9222, 88.1349,39.8245, 87.522,39.6881, 86.9189,39.5135, 86.3279,39.3014, 85.7514,39.0526, 85.1917,38.7681, 84.6509,38.4491, 84.1312,38.0967, 83.6346,37.7124, 83.1631,37.2977, 82.7186,36.8543, 82.3028,36.3838, 81.9173,35.8882, 81.5637,35.3693, 81.2434,34.8293, 80.9576,34.2702, 80.7074,33.6943, 80.4939,33.1038, 80.3178,32.5011, 80.1799,31.8885, 80.0808,31.2685, 80.0207,30.6435, 80,30.0159, 80.0187,29.3883, 80.0768,28.7631, 80.174,28.1428, 80.3099,27.5298, 80.484,26.9265, 80.6957,26.3353, 80.944,25.7586, 81.228,25.1987, 81.5467,24.6576, 81.8986,24.1376, 82.2825,23.6407, 82.6968,23.1689, 83.1399,22.7241, 83.6101,22.3079, 84.1054,21.922, 84.624,21.568, 85.1638,21.2472, 85.7226,20.961, 86.2983,20.7103, 86.8886,20.4963, 87.4912,20.3198, 88.1037,20.1815, 88.7236,20.0818, 89.3486,20.0212, 89.9761,20, 90.6037,20.0182, 91.229,20.0758, 91.8494,20.1725, 92.4625,20.3079, 93.0659,20.4816, 93.6572,20.6928, 94.2341,20.9406, 94.7944,21.2242, 95.3357,21.5424, 95.8559,21.8939, 96.3531,22.2774, 96.8252,22.6914, 97.2705,23.1341, 97.687,23.6039, 98.0733,24.099, 98.4277,24.6173, 98.7489,25.1568, 99.0356,25.7154, 99.2867,26.2909, 99.5012,26.8811, 99.6782,27.4835, 99.817,28.0958, 99.9172,28.7157, 99.9782,29.3406, 99.9999,29.9681" style="fill:lime;stroke:purple;stroke-width:1" />
<polygon points =" 119.98,30.6276, 119.921,31.2527, 119.823,31.8729, 119.686,32.4857, 119.511,33.0887, 119.298,33.6795, 119.049,34.2558, 118.764,34.8153, 118.445,35.3558, 118.092,35.8753, 117.707,36.3715, 117.292,36.8427, 116.848,37.2869, 116.378,37.7023, 115.882,38.0874, 115.363,38.4405, 114.822,38.7605, 114.263,39.0458, 113.687,39.2955, 113.096,39.5086, 112.493,39.6842, 111.881,39.8216, 111.261,39.9202, 110.636,39.9798, 110.008,40, 109.38,39.9808, 108.755,39.9222, 108.135,39.8245, 107.522,39.6881, 106.919,39.5135, 106.328,39.3014, 105.751,39.0526, 105.192,38.7681, 104.651,38.4491, 104.131,38.0967, 103.635,37.7124, 103.163,37.2977, 102.719,36.8543, 102.303,36.3838, 101.917,35.8882, 101.564,35.3693, 101.243,34.8293, 100.958,34.2702, 100.707,33.6943, 100.494,33.1038, 100.318,32.5011, 100.18,31.8885, 100.081,31.2685, 100.021,30.6435, 100,30.0159, 100.019,29.3883, 100.077,28.7631, 100.174,28.1428, 100.31,27.5298, 100.484,26.9265, 100.696,26.3353, 100.944,25.7586, 101.228,25.1987, 101.547,24.6576, 101.899,24.1376, 102.282,23.6407, 102.697,23.1689, 103.14,22.7241, 103.61,22.3079, 104.105,21.922, 104.624,21.568, 105.164,21.2472, 105.723,20.961, 106.298,20.7103, 106.889,20.4963, 107.491,20.3198, 108.104,20.1815, 108.724,20.0818, 109.349,20.0212, 109.976,20, 110.604,20.0182, 111.229,20.0758, 111.849,20.1725, 112.463,20.3079, 113.066,20.4816, 113.657,20.6928, 114.234,20.9406, 114.794,21.2242, 115.336,21.5424, 115.856,21.8939, 116.353,22.2774, 116.825,22.6914, 117.27,23.1341, 117.687,23.6039, 118.073,24.099, 118.428,24.6173, 118.749,25.1568, 119.036,25.7154, 119.287,26.2909, 119.501,26.8811, 119.678,27.4835, 119.817,28.0958, 119.917,28.7157, 119.978,29.3406, 120,29.9681" style="fill:lime;stroke:purple;stroke-width:1" />
<polygon points =" 139.98,30.6276, 139.921,31.2527, 139.823,31.8729, 139.686,32.4857, 139.511,33.0887, 139.298,33.6795, 139.049,34.2558, 138.764,34.8153, 138.445,35.3558, 138.092,35.8753, 137.707,36.3715, 137.292,36.8427, 136.848,37.2869, 136.378,37.7023, 135.882,38.0874, 135.363,38.4405, 134.822,38.7605, 134.263,39.0458, 133.687,39.2955, 133.096,39.5086, 132.493,39.6842, 131.881,39.8216, 131.261,39.9202, 130.636,39.9798, 130.008,40, 129.38,39.9808, 128.755,39.9222, 128.135,39.8245, 127.522,39.6881, 126.919,39.5135, 126.328,39.3014, 125.751,39.0526, 125.192,38.7681, 124.651,38.4491, 124.131,38.0967, 123.635,37.7124, 123.163,37.2977, 122.719,36.8543, 122.303,36.3838, 121.917,35.8882, 121.564,35.3693, 121.243,34.8293, 120.958,34.2702, 120.707,33.6943, 120.494,33.1038, 120.318,32.5011, 120.18,31.8885, 120.081,31.2685, 120.021,30.6435, 120,30.0159, 120.019,29.3883, 120.077,28.7631, 120.174,28.1428, 120.31,27.5298, 120.484,26.9265, 120.696,26.3353, 120.944,25.7586, 121.228,25.1987, 121.547,24.6576, 121.899,24.1376, 122.282,23.6407, 122.697,23.1689, 123.14,22.7241, 123.61,22.3079, 124.105,21.922, 124.624,21.568, 125.164,21.2472, 125.723,20.961, 126.298,20.7103, 126.889,20.4963, 127.491,20.3198, 128.104,20.1815, 128.724,20.0818, 129.349,20.0212, 129.976,20, 130.604,20.0182, 131.229,20.0758, 131.849,20.1725, 132.463,20.3079, 133.066,20.4816, 133.657,20.6928, 134.234,20.9406, 134.794,21.2242, 135.336,21.5424, 135.856,21.8939, 136.353,22.2774, 136.825,22.6914, 137.27,23.1341, 137.687,23.6039, 138.073,24.099, 138.428,24.6173, 138.749,25.1568, 139.036,25.7154, 139.287,26.2909, 139.501,26.8811, 139.678,27.4835, 139.817,28.0958, 139.917,28.7157, 139.978,29.3406, 140,29.9681" style="fill:lime;stroke:purple;stroke-width:1" />
<polygon points =" 159.98,30.6276, 159.921,31.2527, 159.823,31.8729, 159.686,32.4857, 159.511,33.0887, 159.298,33.6795, 159.049,34.2558, 158.764,34.8153, 158.445,35.3558, 158.092,35.8753, 157.707,36.3715, 157.292,36.8427, 156.848,37.2869, 156.378,37.7023, 155.882,38.0874, 155.363,38.4405, 154.822,38.7605, 154.263,39.0458, 153.687,39.2955, 153.096,39.5086, 152.493,39.6842, 151.881,39.8216, 151.261,39.9202, 150.636,39.9798, 150.008,40, 149.38,39.9808, 148.755,39.9222, 148.135,39.8245, 147.522,39.6881, 146.919,39.5135, 146.328,39.3014, 145.751,39.0526, 145.192,38.7681, 144.651,38.4491, 144.131,38.0967, 143.635,37.7124, 143.163,37.2977, 142.719,36.8543, 142.303,36.3838, 141.917,35.8882, 141.564,35.3693, 141.243,34.8293, 140.958,34.2702, 140.707,33.6943, 140.494,33.1038, 140.318,32.5011, 140.18,31.8885, 140.081,31.2685, 140.021,30.6435, 140,30.0159, 140.019,29.3883, 140.077,28.7631, 140.174,28.1428, 140.31,27.5298, 140.484,26.9265, 140.696,26.3353, 140.944,25.7586, 141.228,25.1987, 141.547,24.6576, 141.899,24.1376, 142.282,23.6407, 142.697,23.1689, 143.14,22.7241, 143.61,22.3079, 144.105,21.922, 144.624,21.568, 145.164,21.2472, 145.723,20.961, 146.298,20.7103, 146.889,20.4963, 147.491,20.3198, 148.104,20.1815, 148.724,20.0818, 149.349,20.0212, 149.976,20, 150.604,20.0182, 151.229,20.0758, 151.849,20.1725, 152.463,20.3079, 153.066,20.4816, 153.657,20.6928, 154.234,20.9406, 154.794,21.2242, 155.336,21.5424, 155.856,21.8939, 156.353,22.2774, 156.825,22.6914, 157.27,23.1341, 157.687,23.6039, 158.073,24.099, 158.428,24.6173, 158.749,25.1568, 159.036,25.7154, 159.287,26.2909, 159.501,26.8811, 159.678,27.4835, 159.817,28.0958, 159.917,28.7157, 159.978,29.3406, 160,29.9681" style="fill:lime;stroke:purple;stroke-width:1" />
<polygon points =" 179.98,30.6276, 179.921,31.2527, 179.823,31.8729, 179.686,32.4857, 179.511,33.0887, 179.298,33.6795, 179.049,34.2558, 178.764,34.8153, 178.445,35.3558, 178.092,35.8753, 177.707,36.3715, 177.292,36.8427, 176.848,37.2869, 176.378,37.7023, 175.882,38.0874, 175.363,38.4405, 174.822,38.7605, 174.263,39.0458, 173.687,39.2955, 173.096,39.5086, 172.493,39.6842, 171.881,39.8216, 171.261,39.9202, 170.636,39.9798, 170.008,40, 169.38,39.9808, 168.755,39.9222, 168.135,39.8245, 167.522,39.6881, 166.919,39.5135, 166.328,39.3014, 165.751,39.0526, 165.192,38.7681, 164.651,38.4491, 164.131,38.0967, 163.635,37.7124, 163.163,37.2977, 162.719,36.8543, 162.303,36.3838, 161.917,35.8882, 161.564,35.3693, 161.243,34.8293, 160.958,34.2702, 160.707,33.6943, 160.494,33.1038, 160.318,32.5011, 160.18,31.8885, 160.081,31.2685, 160.021,30.6435, 160,30.0159, 160.019,29.3883, 160.077,28.7631, 160.174,28.1428, 160.31,27.5298, 160.484,26.9265, 160.696,26.3353, 160.944,25.7586, 161.228,25.1987, 161.547,24.6576, 161.899,24.1376, 162.282,23.6407, 162.697,23.1689, 163.14,22.7241, 163.61,22.3079, 164.105,21.922, 164.624,21.568, 165.164,21.2472, 165.723,20.961, 166.298,20.7103, 166.889,20.4963, 167.491,20.3198, 168.104,20.1815, 168.724,20.0818, 169.349,20.0212, 169.976,20, 170.604,20.0182, 171.229,20.0758, 171.849,20.1725, 172.463,20.3079, 173.066,20.4816, 173.657,20.6928, 174.234,20.9406, 174.794,21.2242, 175.336,21.5424, 175.856,21.8939, 176.353,22.2774, 176.825,22.6914, 177.27,23.1341, 177.687,23.6039, 178.073,24.099, 178.428,24.6173, 178.749,25.1568, 179.036,25.7154, 179.287,26.2909, 179.501,26.8811, 179.678,27.4835, 179.817,28.0958, 179.917,28.7157, 179.978,29.3406, 180,29.9681" style="fill:lime;stroke:purple;stroke-width:1" />
<polygon points =" 199.98,30.6276, 199.921,31.2527, 199.823,31.8729, 199.686,32.4857, 199.511,33.0887, 199.298,33.6795, 199.049,34.2558, 198.764,34.8153, 198.445,35.3558, 198.092,35.8753, 197.707,36.3715, 197.292,36.8427, 196.848,37.2869, 196.378,37.7023, 195.882,38.0874, 195.363,38.4405, 194.822,38.7605, 194.263,39.0458, 193.687,39.2955, 193.096,39.5086, 192.493,39.6842, 191.881,39.8216, 191.261,39.9202, 190.636,39.9798, 190.008,40, 189.38,39.9808, 188.755,39.9222, 188.135,39.8245, 187.522,39.6881, 186.919,39.5135, 186.328,39.3014, 185.751,39.0526, 185.192,38.7681, 184.651,38.4491, 184.131,38.0967, 183.635,37.7124, 183.163,37.2977, 182.719,36.8543, 182.303,36.3838, 181.917,35.8882, 181.564,35.3693, 181.243,34.8293, 180.958,34.2702, 180.707,33.6943, 180.494,33.1038, 180.318,32.5011, 180.18,31.8885, 180.081,31.2685, 180.021,30.6435, 180,30.0159, 180.019,29.3883, 180.077,28.7631, 180.174,28.1428, 180.31,27.5298, 180.484,26.9265, 180.696,26.3353, 180.944,25.7586, 181.228,25.1987, 181.547,24.6576, 181.899,24.1376, 182.282,23.6407, 182.697,23.1689, 183.14,22.7241, 183.61,22.3079, 184.105,21.922, 184.624,21.568, 185.164,21.2472, 185.723,20.961, 186.298,20.7103, 186.889,20.4963, 187.491,20.3198, 188.104,20.1815, 188.724,20.0818, 189.349,20.0212, 189.976,20, 190.604,20.0182, 191.229,20.0758, 191.849,20.1725, 192.463,20.3079, 193.066,20.4816, 193.657,20.6928, 194.234,20.9406, 194.794,21.2242, 195.336,21.5424, 195.856,21.8939, 196.353,22.2774, 196.825,22.6914, 197.27,23.1341, 197.687,23.6039, 198.073,24.099, 198.428,24.6173, 198.749,25.1568, 199.036,25.7154, 199.287,26.2909, 199.501,26.8811, 199.678,27.4835, 199.817,28.0958, 199.917,28.7157, 199.978,29.3406, 200,29.9681" style="fill:lime;stroke:purple;stroke-width:1" />
<polygon points =" 19.9803,50.6276, 19.9212,51.2527, 19.8231,51.8729, 19.6861,52.4857, 19.5111,53.0887, 19.2985,53.6795, 19.0492,54.2558, 18.7643,54.8153, 18.4448,55.3558, 18.092,55.8753, 17.7074,56.3715, 17.2923,56.8427, 16.8485,57.2869, 16.3777,57.7023, 15.8817,58.0874, 15.3626,58.4405, 14.8223,58.7605, 14.263,59.0458, 13.6869,59.2955, 13.0962,59.5086, 12.4934,59.6842, 11.8807,59.8216, 11.2606,59.9202, 10.6355,59.9798, 10.008,60, 9.38036,59.9808, 8.7552,59.9222, 8.13495,59.8245, 7.52205,59.6881, 6.91892,59.5135, 6.32794,59.3014, 5.75143,59.0526, 5.19168,58.7681, 4.65088,58.4491, 4.13117,58.0967, 3.6346,57.7124, 3.16313,57.2977, 2.7186,56.8543, 2.30279,56.3838, 1.91733,55.8882, 1.56373,55.3693, 1.24339,54.8293, 0.95757,54.2702, 0.707404,53.6943, 0.493874,53.1038, 0.317823,52.5011, 0.179944,51.8885, 0.0807809,51.2685, 0.0207249,50.6435, 1.26827e-05,50.0159, 0.0187258,49.3883, 0.0767906,48.7631, 0.173978,48.1428, 0.309905,47.5298, 0.484036,46.9265, 0.695683,46.3353, 0.944014,45.7586, 1.22805,45.1987, 1.54667,44.6576, 1.89861,44.1376, 2.2825,43.6407, 2.69681,43.1689, 3.13991,42.7241, 3.61007,42.3079, 4.10541,41.922, 4.62399,41.568, 5.16377,41.2472, 5.72262,40.961, 6.29833,40.7103, 6.88863,40.4963, 7.4912,40.3198, 8.10366,40.1815, 8.7236,40.0818, 9.34857,40.0212, 9.97611,40, 10.6037,40.0182, 11.229,40.0758, 11.8494,40.1725, 12.4625,40.3079, 13.0659,40.4816, 13.6572,40.6928, 14.2341,40.9406, 14.7944,41.2242, 15.3357,41.5424, 15.8559,41.8939, 16.3531,42.2774, 16.8252,42.6914, 17.2705,43.1341, 17.687,43.6039, 18.0733,44.099, 18.4277,44.6173, 18.7489,45.1568, 19.0356,45.7154, 19.2867,46.2909, 19.5012,46.8811, 19.6782,47.4835, 19.817,48.0958, 19.9172,48.7157, 19.9782,49.3406, 19.9999,49.9681" style="fill:lime;stroke:purple;stroke-width:1" />
<polygon points =" 39.9803,50.6276, 39.9212,51.2527, 39.8231,51.8729, 39.6861,52.4857, 39.5111,53.0887, 39.2985,53.6795, 39.0492,54.2558, 38.7643,54.8153, 38.4448,55.3558, 38.092,55.8753, 37.7074,56.3715, 37.2923,56.8427, 36.8485,57.2869, 36.3777,57.7023, 35.8817,58.0874, 35.3626,58.4405, 34.8223,58.7605, 34.263,59.0458, 33.6869,59.2955, 33.0962,59.5086, 32.4934,59.6842, 31.8807,59.8216, 31.2606,59.9202, 30.6355,59.9798, 30.008,60, 29.3804,59.9808, 28.7552,59.9222, 28.1349,59.8245, 27.522,59.6881, 26.9189,59.5135, 26.3279,59.3014, 25.7514,59.0526, 25.1917,58.7681, 24.6509,58.4491, 24.1312,58.0967, 23.6346,57.7124, 23.1631,57.2977, 22.7186,56.8543, 22.3028,56.3838, 21.9173,55.8882, 21.5637,55.3693, 21.2434,54.8293, 20.9576,54.2702, 20.7074,53.6943, 20.4939,53.1038, 20.3178,52.5011, 20.1799,51.8885, 20.0808,51.2685, 20.0207,50.6435, 20,50.0159, 20.0187,49.3883, 20.0768,48.7631, 20.174,48.1428, 20.3099,47.5298, 20.484,46.9265, 20.6957,46.3353, 20.944,45.7586, 21.228,45.1987, 21.5467,44.6576, 21.8986,44.1376, 22.2825,43.6407, 22.6968,43.1689, 23.1399,42.7241, 23.6101,42.3079, 24.1054,41.922, 24.624,41.568, 25.1638,41.2472, 25.7226,40.961, 26.2983,40.7103, 26.8886,40.4963, 27.4912,40.3198, 28.1037,40.1815, 28.7236,40.0818, 29.3486,40.0212, 29.9761,40, 30.6037,40.0182, 31.229,40.0758, 31.8494,40.1725, 32.4625,40.3079, 33.0659,40.4816, 33.6572,40.6928, 34.2341,40.9406, 34.7944,41.2242, 35.3357,41.5424, 35.8559,41.8939, 36.3531,42.2774, 36.8252,42.6914, 37.2705,43.1341, 37.687,43.6039, 38.0733,44.099, 38.4277,44.6173, 38.7489,45.1568, 39.0356,45.7154, 39.2867,46.2909, 39.5012,46.8811, 39.6782,47.4835, 39.817,48.0958, 39.9172,48.7157, 39.9782,49.3406, 39.9999,49.9681" style="fill:lime;stroke:purple;stroke-width:1" />
<polygon points =" 59.9803,50.6276, 59.9212,51.2527, 59.8231,51.8729, 59.6861,52.4857, 59.5111,53.0887, 59.2985,53.6795, 59.0492,54.2558, 58.7643,54.8153, 58.4448,55.3558, 58.092,55.8753, 57.7074,56.3715, 57.2923,56.8427, 56.8485,57.2869, 56.3777,57.7023, 55.8817,58.0874, 55.3626,58.4405, 54.8223,58.7605, 54.263,59.0458, 53.6869,59.2955, 53.0962,59.5086, 52.4934,59.6842, 51.8807,59.8216, 51.2606,59.9202, 50.6355,59.9798, 50.008,60, 49.3804,59.9808, 48.7552,59.9222, 48.1349,59.8245, 47.522,59.6881, 46.9189,59.5135, 46.3279,59.3014, 45.7514,59.0526, 45.1917,58.7681, 44.6509,58.4491, 44.1312,58.0967, 43.6346,57.7124, 43.1631,57.2977, 42.7186,56.8543, 42.3028,56.3838, 41.9173,55.8882, 41.5637,55.3693, 41.2434,54.8293, 40.9576,54.2702, 40.7074,53.6943, 40.4939,53.1038, 40.3178,52.5011, 40.1799,51.8885, 40.0808,51.2685, 40.0207,50.6435, 40,50.0159, 40.0187,49.3883, 40.0768,48.7631, 40.174,48.1428, 40.3099,47.5298, 40.484,46.9265, 40.6957,46.3353, 40.944,45.7586, 41.228,45.1987, 41.5467,44.6576, 41.8986,44.1376, 42.2825,43.6407, 42.6968,43.1689, 43.1399,42.7241, 43.6101,42.3079, 44.1054,41.922, 44.624,41.568, 45.1638,41.2472, 45.7226,40.961, 46.2983,40.7103, 46.8886,40.4963, 47.4912,40.3198, 48.1037,40.1815, 48.7236,40.0818, 49.3486,40.0212, 49.9761,40, 50.6037,40.0182, 51.229,40.0758, 51.8494,40.1725, 52.4625,40.3079, 53.0659,40.4816, 53.6572,40.6928, 54.2341,40.9406, 54.7944,41.2242, 55.3357,41.5424, 55.8559,41.8939, 56.3531,42.2774, 56.8252,42.6914, 57.2705,43.1341, 57.687,43.6039, 58.0733,44.099, 58.4277,44.6173, 58.7489,45.1568, 59.0356,45.7154, 59.2867,46.2909, 59.5012,46.8811, 59.6782,47.4835, 59.817,48.0958, 59.9172,48.7157, 59.9782,49.3406, 59.9999,49.9681" style="fill:lime;stroke:purple;stroke-width:1" />
<polygon points =" 79.9803,50.6276, 79.9212,51.2527, 79.8231,51.8729, 79.6861,52.4857, 79.5111,53.0887, 79.2985,53.6795, 79.0492,54.2558, 78.7643,54.8153, 78.4448,55.3558, 78.092,55.8753, 77.7074,56.3715, 77.2923,56.8427, 76.8485,57.2869, 76.3777,57.7023, 75.8817,58.0874, 75.3626,58.4405, 74.8223,58.7605, 74.263,59.0458, 73.6869,59.2955, 73.0962,59.5086, 72.4934,59.6842, 71.8807,59.8216, 71.2606,59.9202, 70.6355,59.9798, 70.008,60, 69.3804,59.9808, 68.7552,59.9222, 68.1349,59.8245, 67.522,59.6881, 66.9189,59.5135, 66.3279,59.3014, 65.7514,59.0526, 65.1917,58.7681, 64.6509,58.4491, 64.1312,58.0967, 63.6346,57.7124, 63.1631,57.2977, 62.7186,56.8543, 62.3028,56.3838, 61.9173,55.8882, 61.5637,55.3693, 61.2434,54.8293, 60.9576,54.2702, 60.7074,53.6943, 60.4939,53.1038, 60.3178,52.5011, 60.1799,51.8885, 60.0808,51.2685, 60.0207,50.6435, 60,50.0159, 60.0187,49.3883, 60.0768,48.7631, 60.174,48.1428, 60.3099,47.5298, 60.484,46.9265, 60.6957,46.3353, 60.944,45.7586, 61.228,45.1987, 61.5467,44.6576, 61.8986,44.1376, 62.2825,43.6407, 62.6968,43.1689, 63.1399,42.7241, 63.6101,42.3079, 64.1054,41.922, 64.624,41.568, 65.1638,41.2472, 65.7226,40.961, 66.2983,40.7103, 66.8886,40.4963, 67.4912,40.3198, 68.1037,40.1815, 68.7236,40.0818, 69.3486,40.0212, 69.9761,40, 70.6037,40.0182, 71.229,40.0758, 71.8494,40.1725, 72.4625,40.3079, 73.0659,40.4816, 73.6572,40.6928, 74.2341,40.9406, 74.7944,41.2242, 75.3357,41.5424, 75.8559,41.8939, 76.3531,42.2774, 76.8252,42.6914, 77.2705,43.1341, 77.687,43.6039, 78.0733,44.099, 78.4277,44.6173, 78.7489,45.1568, 79.0356,45.7154, 79.2867,46.2909, 79.5012,46.8811, 79.6782,47.4835, 79.817,48.0958, 79.9172,48.7157, 79.9782,49.3406, 79.9999,49.9681" style="fill:lime;stroke:purple;stroke-width:1" />
<polygon points =" 99.9803,50.6276, 99.9212,51.2527, 99.8231,51.8729, 99.6861,52.4857, 99.5111,53.0887, 99.2985,53.6795, 99.0492,54.2558, 98.7643,54.8153, 98.4448,55.3558, 98.092,55.8753, 97.7074,56.3715, 97.2923,56.8427, 96.8485,57.2869, 96.3777,57.7023, 95.8817,58.0874, 95.3626,58.4405, 94.8223,58.7605, 94.263,59.0458, 93.6869,59.2955, 93.0962,59.5086, 92.4934,59.6842, 91.8807,59.8216, 91.2606,59.9202, 90.6355,59.9798, 90.008,60, 89.3804,59.9808, 88.7552,59.9222, 88.1349,59.8245, 87.522,59.6881, 86.9189,59.5135, 86.3279,59.3014, 85.7514,59.0526, 85.1917,58.7681, 84.6509,58.4491, 84.1312,58.0967, 83.6346,57.7124, 83.1631,57.2977, 82.7186,56.8543, 82.3028,56.3838, 81.9173,55.8882, 81.5637,55.3693, 81.2434,54.8293, 80.9576,54.2702, 80.7074,53.6943, 80.4939,53.1038, 80.3178,52.5011, 80.1799,51.8885, 80.0808,51.2685, 80.0207,50.6435, 80,50.0159, 80.0187,49.3883, 80.0768,48.7631, 80.174,48.1428, 80.3099,47.5298, 80.484,46.9265, 80.6957,46.3353, 80.944,45.7586, 81.228,45.1987, 81.5467,44.6576, 81.8986,44.1376, 82.2825,43.6407, 82.6968,43.1689, 83.1399,42.7241, 83.6101,42.3079, 84.1054,41.922, 84.624,41.568, 85.1638,41.2472, 85.7226,40.961, 86.2983,40.7103, 86.8886,40.4963, 87.4912,40.3198, 88.1037,40.1815, 88.7236,40.0818, 89.3486,40.0212, 89.9761,40, 90.6037,40.0182, 91.229,40.0758, 91.8494,40.1725, 92.4625,40.3079, 93.0659,40.4816, 93.6572,40.6928, 94.2341,40.9406, 94.7944,41.2242, 95.3357,41.5424, 95.8559,41.8939, 96.3531,42.2774, 96.8252,42.6914, 97.2705,43.1341, 97.687,43.6039, 98.0733,44.099, 98.4277,44.6173, 98.7489,45.1568, 99.0356,45.7154, 99.2867,46.2909, 99.5012,46.8811, 99.6782,47.4835, 99.817,48.0958, 99.9172,48.7157, 99.9782,49.3406, 99.9999,49.9681" style="fill:lime;stroke:purple;stroke-width:1" />
<polygon points =" 119.98,50.6276, 119.921,51.2527, 119.823,51.8729, 119.686,52.4857, 119.511,53.0887, 119.298,53.6795, 119.049,54.2558, 118.764,54.8153, 118.445,55.3558, 118.092,55.8753, 117.707,56.3715, 117.292,56.8427, 116.848,57.2869, 116.378,57.7023, 115.882,58.0874, 115.363,58.4405, 114.822,58.7605, 114.263,59.0458, 113.687,59.2955, 113.096,59.5086, 112.493,59.6842, 111.881,59.8216, 111.261,59.9202, 110.636,59.9798, 110.008,60, 109.38,59.9808, 108.755,59.9222, 108.135,59.8245, 107.522,59.6881, 106.919,59.5135, 106.328,59.3014, 105.751,59.0526, 105.192,58.7681, 104.651,58.4491, 104.131,58.0967, 103.635,57.7124, 103.163,57.2977, 102.719,56.8543, 102.303,56.3838, 101.917,55.8882, 101.564,55.3693, 101.243,54.8293, 100.958,54.2702, 100.707,53.6943, 100.494,53.1038, 100.318,52.5011, 100.18,51.8885, 100.081,51.2685, 100.021,50.6435, 100,50.0159, 100.019,49.3883, 100.077,48.7631, 100.174,48.1428, 100.31,47.5298, 100.484,46.9265, 100.696,46.3353, 100.944,45.7586, 101.228,45.1987, 101.547,44.6576, 101.899,44.1376, 102.282,43.6407, 102.697,43.1689, 103.14,42.7241, 103.61,42.3079, 104.105,41.922, 104.624,41.568, 105.164,41.2472, 105.723,40.961, 106.298,40.7103, 106.889,40.4963, 107.491,40.3198, 108.104,40.1815, 108.724,40.0818, 109.349,40.0212, 109.976,40, 110.604,40.0182, 111.229,40.0758, 111.849,40.1725, 112.463,40.3079, 113.066,40.4816, 113.657,40.6928, 114.234,40.9406, 114.794,41.2242, 115.336,41.5424, 115.856,41.8939, 116.353,42.2774, 116.825,42.6914, 117.27,43.1341, 117.687,43.6039, 118.073,44.099, 118.428,44.6173, 118.749,45.1568, 119.036,45.7154, 119.287,46.2909, 119.501,46.8811, 119.678,47.4835, 119.817,48.0958, 119.917,48.7157, 119.978,49.3406, 120,49.9681" style="fill:lime;stroke:purple;stroke-width:1" />
<polygon points =" 139.98,50.6276, 139.921,51.2527, 139.823,51.8729, 139.686,52.4857, 139.511,53.0887, 139.298,53.6795, 139.049,54.2558, 138.764,54.8153, 138.445,55.3558, 138.092,55.8753, 137.707,56.3715, 137.292,56.8427, 136.848,57.2869, 136.378,57.7023, 135.882,58.0874, 135.363,58.4405, 134.822,58.7605, 134.263,59.0458, 133.687,59.2955, 133.096,59.5086, 132.493,59.6842, 131.881,59.8216, 131.261,59.9202, 130.636,59.9798, 130.008,60, 129.38,59.9808, 128.755,59.9222, 128.135,59.8245, 127.522,59.6881, 126.919,59.5135, 126.328,59.3014, 125.751,59.0526, 125.192,58.7681, 124.651,58.4491, 124.131,58.0967, 123.635,57.7124, 123.163,57.2977, 122.719,56.8543, 122.303,56.3838, 121.917,55.8882, 121.564,55.3693, 121.243,54.8293, 120.958,54.2702, 120.707,53.6943, 120.494,53.1038, 120.318,52.5011, 120.18,51.8885, 120.081,51.2685, 120.021,50.6435, 120,50.0159, 120.019,49.3883, 120.077,48.7631, 120.174,48.1428, 120.31,47.5298, 120.484,46.9265, 120.696,46.3353, 120.944,45.7586, 121.228,45.1987, 121.547,44.6576, 121.899,44.1376, 122.282,43.6407, 122.697,43.1689, 123.14,42.7241, 123.61,42.3079, 124.105,41.922, 124.624,41.568, 125.164,41.2472, 125.723,40.961, 126.298,40.7103, 126.889,40.4963, 127.491,40.3198, 128.104,40.1815, 128.724,40.0818, 129.349,40.0212, 129.976,40, 130.604,40.0182, 131.229,40.0758, 131.849,40.1725, 132.463,40.3079, 133.066,40.4816, 133.657,40.6928, 134.234,40.9406, 134.794,41.2242, 135.336,41.5424, 135.856,41.8939, 136.353,42.2774, 136.825,42.6914, 137.27,43.1341, 137.687,43.6039, 138.073,44.099, 138.428,44.6173, 138.749,45.1568, 139.036,45.7154, 139.287,46.2909, 139.501,46.8811, 139.678,47.4835, 139.817,48.0958, 139.917,48.7157, 139.978,49.3406, 140,49.9681" style="fill:lime;stroke:purple;stroke-width:1" />
<polygon points =" 159.98,50.6276, 159.921,51.2527, 159.823,51.8729, 159.686,52.4857, 159.511,53.0887, 159.298,53.6795, 159.049,54.2558, 158.764,54.8153, 158.445,55.3558, 158.092,55.8753, 157.707,56.3715, 157.292,56.8427, 156.848,57.2869, 156.378,57.7023, 155.882,58.0874, 155.363,58.4405, 154.822,58.7605, 154.263,59.0458, 153.687,59.2955, 153.096,59.5086, 152.493,59.6842, 151.881,59.8216, 151.261,59.9202, 150.636,59.9798, 150.008,60, 149.38,59.9808, 148.755,59.9222, 148.135,59.8245, 147.522,59.6881, 146.919,59.5135, 146.328,59.3014, 145.751,59.0526, 145.192,58.7681, 144.651,58.4491, 144.131,58.0967, 143.635,57.7124, 143.163,57.2977, 142.719,56.8543, 142.303,56.3838, 141.917,55.8882, 141.564,55.3693, 141.243,54.8293, 140.958,54.2702, 140.707,53.6943, 140.494,53.1038, 140.318,52.5011, 140.18,51.8885, 140.081,51.2685, 140.021,50.6435, 140,50.0159, 140.019,49.3883, 140.077,48.7631, 140.174,48.1428, 140.31,47.5298, 140.484,46.9265, 140.696,46.3353, 140.944,45.7586, 141.228,45.1987, 141.547,44.6576, 141.899,44.1376, 142.282,43.6407, 142.697,43.1689, 143.14,42.7241, 143.61,42.3079, 144.105,41.922, 144.624,41.568, 145.164,41.2472, 145.723,40.961, 146.298,40.7103, 146.889,40.4963, 147.491,40.3198, 148.104,40.1815, 148.724,40.0818, 149.349,40.0212, 149.976,40, 150.604,40.0182, 151.229,40.0758, 151.849,40.1725, 152.463,40.3079, 153.066,40.4816, 153.657,40.6928, 154.234,40.9406, 154.794,41.2242, 155.336,41.5424, 155.856,41.8939, 156.353,42.2774, 156.825,42.6914, 157.27,43.1341, 157.687,43.6039, 158.073,44.099, 158.428,44.6173, 158.749,45.1568, 159.036,45.7154, 159.287,46.2909, 159.501,46.8811, 159.678,47.4835, 159.817,48.0958, 159.917,48.7157, 159.978,49.3406, 160,49.9681" style="fill:lime;stroke:purple;stroke-width:1" />
<polygon points =" 179.98,50.6276, 179.921,51.2527, 179.823,51.8729, 179.686,52.4857, 179.511,53.0887, 179.298,53.6795, 179.049,54.2558, 178.764,54.8153, 178.445,55.3558, 178.092,55.8753, 177.707,56.3715, 177.292,56.8427, 176.848,57.2869, 176.378,57.7023, 175.882,58.0874, 175.363,58.4405, 174.822,58.7605, 174.263,59.0458, 173.687,59.2955, 173.096,59.5086, 172.493,59.6842, 171.881,59.8216, 171.261,59.9202, 170.636,59.9798, 170.008,60, 169.38,59.9808, 168.755,59.9222, 168.135,59.8245, 167.522,59.6881, 166.919,59.5135, 166.328,59.3014, 165.751,59.0526, 165.192,58.7681, 164.651,58.4491, 164.131,58.0967, 163.635,57.7124, 163.163,57.2977, 162.719,56.8543, 162.303,56.3838, 161.917,55.8882, 161.564,55.3693, 161.243,54.8293, 160.958,54.2702, 160.707,53.6943, 160.494,53.1038, 160.318,52.5011, 160.18,51.8885, 160.081,51.2685, 160.021,50.6435, 160,50.0159, 160.019,49.3883, 160.077,48.7631, 160.174,48.1428, 160.31,47.5298, 160.484,46.9265, 160.696,46.3353, 160.944,45.7586, 161.228,45.1987, 161.547,44.6576, 161.899,44.1376, 162.282,43.6407, 162.697,43.1689, 163.14,42.7241, 163.61,42.3079, 164.105,41.922, 164.624,41.568, 165.164,41.2472, 165.723,40.961, 166.298,40.7103, 166.889,40.4963, 167.491,40.3198, 168.104,40.1815, 168.724,40.0818, 169.349,40.0212, 169.976,40, 170.604,40.0182, 171.229,40.0758, 171.849,40.1725, 172.463,40.3079, 173.066,40.4816, 173.657,40.6928, 174.234,40.9406, 174.794,41.2242, 175.336,41.5424, 175.856,41.8939, 176.353,42.2774, 176.825,42.6914, 177.27,43.1341, 177.687,43.6039, 178.073,44.099, 178.428,44.6173, 178.749,45.1568, 179.036,45.7154, 179.287,46.2909, 179.501,46.8811, 179.678,47.4835, 179.817,48.0958, 179.917,48.7157, 179.978,49.3406, 180,49.9681" style="fill:lime;stroke:purple;stroke-width:1" />
<polygon points =" 199.98,50.6276, 199.921,51.2527, 199.823,51.8729, 199.686,52.4857, 199.511,53.0887, 199.298,53.6795, 199.049,54.2558, 198.764,54.8153, 198.445,55.3558, 198.092,55.8753, 197.707,56.3715, 197.292,56.8427, 196.848,57.2869, 196.378,57.7023, 195.882,58.0874, 195.363,58.4405, 194.822,58.7605, 194.263,59.0458, 193.687,59.2955, 193.096,59.5086, 192.493,59.6842, 191.881,59.8216, 191.261,59.9202, 190.636,59.9798, 190.008,60, 189.38,59.9808, 188.755,59.9222, 188.135,59.8245, 187.522,59.6881, 186.919,59.5135, 186.328,59.3014, 185.751,59.0526, 185.192,58.7681, 184.651,58.4491, 184.131,58.0967, 183.635,57.7124, 183.163,57.2977, 182.719,56.8543, 182.303,56.3838, 181.917,55.8882, 181.564,55.3693, 181.243,54.8293, 180.958,54.2702, 180.707,53.6943, 180.494,53.1038, 180.318,52.5011, 180.18,51.8885, 180.081,51.2685, 180.021,50.6435, 180,50.0159, 180.019,49.3883, 180.077,48.7631, 180.174,48.1428, 180.31,47.5298, 180.484,46.9265, 180.696,46.3353, 180.944,45.7586, 181.228,45.1987, 181.547,44.6576, 181.899,44.1376, 182.282,43.6407, 182.697,43.1689, 183.14,42.7241, 183.61,42.3079, 184.105,41.922, 184.624,41.568, 185.164,41.2472, 185.723,40.961, 186.298,40.7103, 186.889,40.4963, 187.491,40.3198, 188.104,40.1815, 188.724,40.0818, 189.349,40.0212, 189.976,40, 190.604,40.0182, 191.229,40.0758, 191.849,40.1725, 192.463,40.3079, 193.066,40.4816, 193.657,40.6928, 194.234,40.9406, 194.794,41.2242, 195.336,41.5424, 195.856,41.8939, 196.353,42.2774, 196.825,42.6914, 197.27,43.1341, 197.687,43.6039, 198.073,44.099, 198.428,44.6173, 198.749,45.1568, 199.036,45.7154, 199.287,46.2909, 199.501,46.8811, 199.678,47.4835, 199.817,48.0958, 199.917,48.7157, 199.978,49.3406, 200,49.9681" style="fill:lime;stroke:purple;stroke-width:1" />
<polygon points =" 19.9803,70.6276, 19.9212,71.2527, 19.8231,71.8729, 19.6861,72.4857, 19.5111,73.0887, 19.2985,73.6795, 19.0492,74.2558, 18.7643,74.8153, 18.4448,75.3558, 18.092,75.8753, 17.7074,76.3715, 17.2923,76.8427, 16.8485,77.2869, 16.3777,77.7023, 15.8817,78.0874, 15.3626,78.4405, 14.8223,78.7605, 14.263,79.0458, 13.6869,79.2955, 13.0962,79.5086, 12.4934,79.6842, 11.8807,79.8216, 11.2606,79.9202, 10.6355,79.9798, 10.008,80, 9.38036,79.9808, 8.7552,79.9222, 8.13495,79.8245, 7.52205,79.6881, 6.91892,79.5135, 6.32794,79.3014, 5.75143,79.0526, 5.19168,78.7681, 4.65088,78.4491, 4.13117,78.0967, 3.6346,77.7124, 3.16313,77.2977, 2.7186,76.8543, 2.30279,76.3838, 1.91733,75.8882, 1.56373,75.3693, 1.24339,74.8293, 0.95757,74.2702, 0.707404,73.6943, 0.493874,73.1038, 0.317823,72.5011, 0.179944,71.8885, 0.0807809,71.2685, 0.0207249,70.6435, 1.26827e-05,70.0159, 0.0187258,69.3883, 0.0767906,68.7631, 0.173978,68.1428, 0.309905,67.5298, 0.484036,66.9265, 0.695683,66.3353, 0.944014,65.7586, 1.22805,65.1987, 1.54667,64.6576, 1.89861,64.1376, 2.2825,63.6407, 2.69681,63.1689, 3.13991,62.7241, 3.61007,62.3079, 4.10541,61.922, 4.62399,61.568, 5.16377,61.2472, 5.72262,60.961, 6.29833,60.7103, 6.88863,60.4963, 7.4912,60.3198, 8.10366,60.1815, 8.7236,60.0818, 9.34857,60.0212, 9.97611,60, 10.6037,60.0182, 11.229,60.0758, 11.8494,60.1725, 12.4625,60.3079, 13.0659,60.4816, 13.6572,60.6928, 14.2341,60.9406, 14.7944,61.2242, 15.3357,61.5424, 15.8559,61.8939, 16.3531,62.2774, 16.8252,62.6914, 17.2705,63.1341, 17.687,63.6039, 18.0733,64.099, 18.4277,64.6173, 18.7489,65.1568, 19.0356,65.7154, 19.2867,66.2909, 19.5012,66.8811, 19.6782,67.4835, 19.817,68.0958, 19.9172,68.7157, 19.9782,69.3406, 19.9999,69.9681" style="fill:lime;stroke:purple;stroke-width:1" />
<polygon points =" 39.9803,70.6276, 39.9212,71.2527, 39.8231,71.8729, 39.6861,72.4857, 39.5111,73.0887, 39.2985,73.6795, 39.0492,74.2558, 38.7643,74.8153, 38.4448,75.3558, 38.092,75.8753, 37.7074,76.3715, 37.2923,76.8427, 36.8485,77.2869, 36.3777,77.7023, 35.8817,78.0874, 35.3626,78.4405, 34.8223,78.7605, 34.263,79.0458, 33.6869,79.2955, 33.0962,79.5086, 32.4934,79.6842, 31.8807,79.8216, 31.2606,79.9202, 30.6355,79.9798, 30.008,80, 29.3804,79.9808, 28.7552,79.9222, 28.1349,79.8245, 27.522,79.6881, 26.9189,79.5135, 26.3279,79.3014, 25.7514,79.0526, 25.1917,78.7681, 24.6509,78.4491, 24.1312,78.0967, 23.6346,77.7124, 23.1631,77.2977, 22.7186,76.8543, 22.3028,76.3838, 21.9173,75.8882, 21.5637,75.3693, 21.2434,74.8293, 20.9576,74.2702, 20.7074,73.6943, 20.4939,73.1038, 20.3178,72.5011, 20.1799,71.8885, 20.0808,71.2685, 20.0207,70.6435, 20,70.0159, 20.0187,69.3883, 20.0768,68.7631, 20.174,68.1428, 20.3099,67.5298, 20.484,66.9265, 20.6957,66.3353, 20.944,65.7586, 21.228,65.1987, 21.5467,64.6576, 21.8986,64.1376, 22.2825,63.6407, 22.6968,63.1689, 23.1399,62.7241, 23.6101,62.3079, 24.1054,61.922, 24.624,61.568, 25.1638,61.2472, 25.7226,60.961, 26.2983,60.7103, 26.8886,60.4963, 27.4912,60.3198, 28.1037,60.1815, 28.7236,60.0818, 29.3486,60.0212, 29.9761,60, 30.6037,60.0182, 31.229,60.0758, 31.8494,60.1725, 32.4625,60.3079, 33.0659,60.4816, 33.6572,60.6928, 34.2341,60.9406, 34.7944,61.2242, 35.3357,61.5424, 35.8559,61.8939, 36.3531,62.2774, 36.8252,62.6914, 37.2705,63.1341, 37.687,63.6039, 38.0733,64.099, 38.4277,64.6173, 38.7489,65.1568, 39.0356,65.7154, 39.2867,66.2909, 39.5012,66.8811, 39.6782,67.4835, 39.817,68.0958, 39.9172,68.7157, 39.9782,69.3406, 39.9999,69.9681" style="fill:lime;stroke:purple;stroke-width:1" />
<polygon points =" 59.9803,70.6276, 59.9212,71.2527, 59.8231,71.8729, 59.6861,72.4857, 59.5111,73.0887, 59.2985,73.6795, 59.0492,74.2558, 58.7643,74.8153, 58.4448,75.3558, 58.092,75.8753, 57.7074,76.3715, 57.2923,76.8427, 56.8485,77.2869, 56.3777,77.7023, 55.8817,78.0874, 55.3626,78.4405, 54.8223,78.7605, 54.263,79.0458, 53.6869,79.2955, 53.0962,79.5086, 52.4934,79.6842, 51.8807,79.8216, 51.2606,79.9202, 50.6355,79.9798, 50.008,80, 49.3804,79.9808, 48.7552,79.9222, 48.1349,79.8245, 47.522,79.6881, 46.9189,79.5135, 46.3279,79.3014, 45.7514,79.0526, 45.1917,78.7681, 44.6509,78.4491, 44.1312,78.0967, 43.6346,77.7124, 43.1631,77.2977, 42.7186,76.8543, 42.3028,76.3838, 41.9173,75.8882, 41.5637,75.3693, 41.2434,74.8293, 40.9576,74.2702, 40.7074,73.6943, 40.4939,73.1038, 40.3178,72.5011, 40.1799,71.8885, 40.0808,71.2685, 40.0207,70.6435, 40,70.0159, 40.0187,69.3883, 40.0768,68.7631, 40.174,68.1428, 40.3099,67.5298, 40.484,66.9265, 40.6957,66.3353, 40.944,65.7586, 41.228,65.1987, 41.5467,64.6576, 41.8986,64.1376, 42.2825,63.6407, 42.6968,63.1689, 43.1399,62.7241, 43.6101,62.3079, 44.1054,61.922, 44.624,61.568, 45.1638,61.2472, 45.7226,60.961, 46.2983,60.7103, 46.8886,60.4963, 47.4912,60.3198, 48.1037,60.1815, 48.7236,60.0818, 49.3486,60.0212, 49.9761,60, 50.6037,60.0182, 51.229,60.0758, 51.8494,60.1725, 52.4625,60.3079, 53.0659,60.4816, 53.6572,60.6928, 54.2341,60.9406, 54.7944,61.2242, 55.3357,61.5424, 55.8559,61.8939, 56.3531,62.2774, 56.8252,62.6914, 57.2705,63.1341, 57.687,63.6039, 58.0733,64.099, 58.4277,64.6173, 58.7489,65.1568, 59.0356,65.7154, 59.2867,66.2909, 59.5012,66.8811, 59.6782,67.4835, 59.817,68.0958, 59.9172,68.7157, 59.9782,69.3406, 59.9999,69.9681" style="fill:lime;stroke:purple;stroke-width:1" />
<polygon points =" 79.9803,70.6276, 79.9212,71.2527, 79.8231,71.8729, 79.6861,72.4857, 79.5111,73.0887, 79.2985,73.6795, 79.0492,74.2558, 78.7643,74.8153, 78.4448,75.3558, 78.092,75.8753, 77.7074,76.3715, 77.2923,76.8427, 76.8485,77.2869, 76.3777,77.7023, 75.8817,78.0874, 75.3626,78.4405, 74.8223,78.7605, 74.263,79.0458, 73.6869,79.2955, 73.0962,79.5086, 72.4934,79.6842, 71.8807,79.8216, 71.2606,79.9202, 70.6355,79.9798, 70.008,80, 69.3804,79.9808, 68.7552,79.9222, 68.1349,79.8245, 67.522,79.6881, 66.9189,79.5135, 66.3279,79.3014, 65.7514,79.0526, 65.1917,78.7681, 64.6509,78.4491, 64.1312,78.0967, 63.6346,77.7124, 63.1631,77.2977, 62.7186,76.8543, 62.3028,76.3838, 61.9173,75.8882, 61.5637,75.3693, 61.2434,74.8293, 60.9576,74.2702, 60.7074,73.6943, 60.4939,73.1038, 60.3178,72.5011, 60.1799,71.8885, 60.0808,71.2685, 60.0207,70.6435, 60,70.0159, 60.0187,69.3883, 60.0768,68.7631, 60.174,68.1428, 60.3099,67.5298, 60.484,66.9265, 60.6957,66.3353, 60.944,65.7586, 61.228,65.1987, 61.5467,64.6576, 61.8986,64.1376, 62.2825,63.6407, 62.6968,63.1689, 63.1399,62.7241, 63.6101,62.3079, 64.1054,61.922, 64.624,61.568, 65.1638,61.2472, 65.7226,60.961, 66.2983,60.7103, 66.8886,60.4963, 67.4912,60.3198, 68.1037,60.1815, 68.7236,60.0818, 69.3486,60.0212, 69.9761,60, 70.6037,60.0182, 71.229,60.0758, 71.8494,60.1725, 72.4625,60.3079, 73.0659,60.4816, 73.6572,60.6928, 74.2341,60.9406, 74.7944,61.2242, 75.3357,61.5424, 75.8559,61.8939, 76.3531,62.2774, 76.8252,62.6914, 77.2705,63.1341, 77.687,63.6039, 78.0733,64.099, 78.4277,64.6173, 78.7489,65.1568, 79.0356,65.7154, 79.2867,66.2909, 79.5012,66.8811, 79.6782,67.4835, 79.817,68.0958, 79.9172,68.7157, 79.9782,69.3406, 79.9999,69.9681" style="fill:lime;stroke:purple;stroke-width:1" />
<polygon points =" 99.9803,70.6276, 99.9212,71.2527, 99.8231,71.8729, 99.6861,72.4857, 99.5111,73.0887, 99.2985,73.6795, 99.0492,74.2558, 98.7643,74.8153, 98.4448,75.3558, 98.092,75.8753, 97.7074,76.3715, 97.2923,76.8427, 96.8485,77.2869, 96.3777,77.7023, 95.8817,78.0874, 95.3626,78.4405, 94.8223,78.7605, 94.263,79.0458, 93.6869,79.2955, 93.0962,79.5086, 92.4934,79.6842, 91.8807,79.8216, 91.2606,79.9202, 90.6355,79.9798, 90.008,80, 89.3804,79.9808, 88.7552,79.9222, 88.1349,79.8245, 87.522,79.6881, 86.9189,79.5135, 86.3279,79.3014, 85.7514,79.0526, 85.1917,78.7681, 84.6509,78.4491, 84.1312,78.0967, 83.6346,77.7124, 83.1631,77.2977, 82.7186,76.8543, 82.3028,76.3838, 81.9173,75.8882, 81.5637,75.3693, 81.2434,74.8293, 80.9576,74.2702, 80.7074,73.6943, 80.4939,73.1038, 80.3178,72.5011, 80.1799,71.8885, 80.0808,71.2685, 80.0207,70.6435, 80,70.0159, 80.0187,69.3883, 80.0768,68.7631, 80.174,68.1428, 80.3099,67.5298, 80.484,66.9265, 80.6957,66.3353, 80.944,65.7586, 81.228,65.1987, 81.5467,64.6576, 81.8986,64.1376, 82.2825,63.6407, 82.6968,63.1689, 83.1399,62.7241, 83.6101,62.3079, 84.1054,61.922, 84.624,61.568, 85.1638,61.2472, 85.7226,60.961, 86.2983,60.7103, 86.8886,60.4963, 87.4912,60.3198, 88.1037,60.1815, 88.7236,60.0818, 89.3486,60.0212, 89.9761,60, 90.6037,60.0182, 91.229,60.0758, 91.8494,60.1725, 92.4625,60.3079, 93.0659,60.4816, 93.6572,60.6928, 94.2341,60.9406, 94.7944,61.2242, 95.3357,61.5424, 95.8559,61.8939, 96.3531,62.2774, 96.8252,62.6914, 97.2705,63.1341, 97.687,63.6039, 98.0733,64.099, 98.4277,64.6173, 98.7489,65.1568, 99.0356,65.7154, 99.2867,66.2909, 99.5012,66.8811, 99.6782,67.4835, 99.817,68.0958, 99.9172,68.7157, 99.9782,69.3406, 99.9999,69.9681" style="fill:lime;stroke:purple;stroke-width:1" />
<polygon points =" 119.98,70.6276, 119.921,71.2527, 119.823,71.8729, 119.686,72.4857, 119.511,73.0887, 119.298,73.6795, 119.049,74.2558, 118.764,74.8153, 118.445,75.3558, 118.092,75.8753, 117.707,76.3715, 117.292,76.8427, 116.848,77.2869, 116.378,77.7023, 115.882,78.0874, 115.363,78.4405, 114.822,78.7605, 114.263,79.0458, 113.687,79.2955, 113.096,79.5086, 112.493,79.6842, 111.881,79.8216, 111.261,79.9202, 110.636,79.9798, 110.008,80, 109.38,79.9808, 108.755,79.9222, 108.135,79.8245, 107.522,79.6881, 106.919,79.5135, 106.328,79.3014, 105.751,79.0526, 105.192,78.7681, 104.651,78.4491, 104.131,78.0967, 103.635,77.7124, 103.163,77.2977, 102.719,76.8543, 102.303,76.3838, 101.917,75.8882, 101.564,75.3693, 101.243,74.8293, 100.958,74.2702, 100.707,73.6943, 100.494,73.1038, 100.318,72.5011, 100.18,71.8885, 100.081,71.2685, 100.021,70.6435, 100,70.0159, 100.019,69.3883, 100.077,68.7631, 100.174,68.1428, 100.31,67.5298, 100.484,66.9265, 100.696,66.3353, 100.944,65.7586, 101.228,65.1987, 101.547,64.6576, 101.899,64.1376, 102.282,63.6407, 102.697,63.1689, 103.14,62.7241, 103.61,62.3079, 104.105,61.922, 104.624,61.568, 105.164,61.2472, 105.723,60.961, 106.298,60.7103, 106.889,60.4963, 107.491,60.3198, 108.104,60.1815, 108.724,60.0818, 109.349,60.0212, 109.976,60, 110.604,60.0182, 111.229,60.0758, 111.849,60.1725, 112.463,60.3079, 113.066,60.4816, 113.657,60.6928, 114.234,60.9406, 114.794,61.2242, 115.336,61.5424, 115.856,61.8939, 116.353,62.2774, 116.825,62.6914, 117.27,63.1341, 117.687,63.6039, 118.073,64.099, 118.428,64.6173, 118.749,65.1568, 119.036,65.7154, 119.287,66.2909, 119.501,66.8811, 119.678,67.4835, 119.817,68.0958, 119.917,68.7157, 119.978,69.3406, 120,69.9681" style="fill:lime;stroke:purple;stroke-width:1" />
<polygon points =" 139.98,70.6276, 139.921,71.2527, 139.823,71.8729, 139.686,72.4857, 139.511,73.0887, 139.298,73.6795, 139.049,74.2558, 138.764,74.8153, 138.445,75.3558, 138.092,75.8753, 137.707,76.3715, 137.292,76.8427, 136.848,77.2869, 136.378,77.7023, 135.882,78.0874, 135.363,78.4405, 134.822,78.7605, 134.263,79.0458, 133.687,79.2955, 133.096,79.5086, 132.493,79.6842, 131.881,79.8216, 131.261,79.9202, 130.636,79.9798, 130.008,80, 129.38,79.9808, 128.755,79.9222, 128.135,79.8245, 127.522,79.6881, 126.919,79.5135, 126.328,79.3014, 125.751,79.0526, 125.192,78.7681, 124.651,78.4491, 124.131,78.0967, 123.635,77.7124, 123.163,77.2977, 122.719,76.8543, 122.303,76.3838, 121.917,75.8882, 121.564,75.3693, 121.243,74.8293, 120.958,74.2702, 120.707,73.6943, 120.494,73.1038, 120.318,72.5011, 120.18,71.8885, 120.081,71.2685, 120.021,70.6435, 120,70.0159, 120.019,69.3883, 120.077,68.7631, 120.174,68.1428, 120.31,67.5298, 120.484,66.9265, 120.696,66.3353, 120.944,65.7586, 121.228,65.1987, 121.547,64.6576, 121.899,64.1376, 122.282,63.6407, 122.697,63.1689, 123.14,62.7241, 123.61,62.3079, 124.105,61.922, 124.624,61.568, 125.164,61.2472, 125.723,60.961, 126.298,60.7103, 126.889,60.4963, 127.491,60.3198, 128.104,60.1815, 128.724,60.0818, 129.349,60.0212, 129.976,60, 130.604,60.0182, 131.229,60.0758, 131.849,60.1725, 132.463,60.3079, 133.066,60.4816, 133.657,60.6928, 134.234,60.9406, 134.794,61.2242, 135.336,61.5424, 135.856,61.8939, 136.353,62.2774, 136.825,62.6914, 137.27,63.1341, 137.687,63.6039, 138.073,64.099, 138.428,64.6173, 138.749,65.1568, 139.036,65.7154, 139.287,66.2909, 139.501,66.8811, 139.678,67.4835, 139.817,68.0958, 139.917,68.7157, 139.978,69.3406, 140,69.9681" style="fill:lime;stroke:purple;stroke-width:1" />
<polygon points =" 159.98,70.6276, 159.921,71.2527, 159.823,71.8729, 159.686,72.4857, 159.511,73.0887, 159.298,73.6795, 159.049,74.2558, 158.764,74.8153, 158.445,75.3558, 158.092,75.8753, 157.707,76.3715, 157.292,76.8427, 156.848,77.2869, 156.378,77.7023, 155.882,78.0874, 155.363,78.4405, 154.822,78.7605, 154.263,79.0458, 153.687,79.2955, 153.096,79.5086, 152.493,79.6842, 151.881,79.8216, 151.261,79.9202, 150.636,79.9798, 150.008,80, 149.38,79.9808, 148.755,79.9222, 148.135,79.8245, 147.522,79.6881, 146.919,79.5135, 146.328,79.3014, 145.751,79.0526, 145.192,78.7681, 144.651,78.4491, 144.131,78.0967, 143.635,77.7124, 143.163,77.2977, 142.719,76.8543, 142.303,76.3838, 141.917,75.8882, 141.564,75.3693, 141.243,74.8293, 140.958,74.2702, 140.707,73.6943, 140.494,73.1038, 140.318,72.5011, 140.18,71.8885, 140.081,71.2685, 140.021,70.6435, 140,70.0159, 140.019,69.3883, 140.077,68.7631, 140.174,68.1428, 140.31,67.5298, 140.484,66.9265, 140.696,66.3353, 140.944,65.7586, 141.228,65.1987, 141.547,64.6576, 141.899,64.1376, 142.282,63.6407, 142.697,63.1689, 143.14,62.7241, 143.61,62.3079, 144.105,61.922, 144.624,61.568, 145.164,61.2472, 145.723,60.961, 146.298,60.7103, 146.889,60.4963, 147.491,60.3198, 148.104,60.1815, 148.724,60.0818, 149.349,60.0212, 149.976,60, 150.604,60.0182, 151.229,60.0758, 151.849,60.1725, 152.463,60.3079, 153.066,60.4816, 153.657,60.6928, 154.234,60.9406, 154.794,61.2242, 155.336,61.5424, 155.856,61.8939, 156.353,62.2774, 156.825,62.6914, 157.27,63.1341, 157.687,63.6039, 158.073,64.099, 158.428,64.6173, 158.749,65.1568, 159.036,65.7154, 159.287,66.2909, 159.501,66.8811, 159.678,67.4835, 159.817,68.0958, 159.917,68.7157, 159.978,69.3406, 160,69.9681" style="fill:lime;stroke:purple;stroke-width:1" />
<polygon points =" 179.98,70.6276, 179.921,71.2527, 179.823,71.8729, 179.686,72.4857, 179.511,73.0887, 179.298,73.6795, 179.049,74.2558, 178.764,74.8153, 178.445,75.3558, 178.092,75.8753, 177.707,76.3715, 177.292,76.8427, 176.848,77.2869, 176.378,77.7023, 175.882,78.0874, 175.363,78.4405, 174.822,78.7605, 174.263,79.0458, 173.687,79.2955, 173.096,79.5086, 172.493,79.6842, 171.881,79.8216, 171.261,79.9202, 170.636,79.9798, 170.008,80, 169.38,79.9808, 168.755,79.9222, 168.135,79.8245, 167.522,79.6881, 166.919,79.5135, 166.328,79.3014, 165.751,79.0526, 165.192,78.7681, 164.651,78.4491, 164.131,78.0967, 163.635,77.7124, 163.163,77.2977, 162.719,76.8543, 162.303,76.3838, 161.917,75.8882, 161.564,75.3693, 161.243,74.8293, 160.958,74.2702, 160.707,73.6943, 160.494,73.1038, 160.318,72.5011, 160.18,71.8885, 160.081,71.2685, 160.021,70.6435, 160,70.0159, 160.019,69.3883, 160.077,68.7631, 160.174,68.1428, 160.31,67.5298, 160.484,66.9265, 160.696,66.3353, 160.944,65.7586, 161.228,65.1987, 161.547,64.6576, 161.899,64.1376, 162.282,63.6407, 162.697,63.1689, 163.14,62.7241, 163.61,62.3079, 164.105,61.922, 164.624,61.568, 165.164,61.2472, 165.723,60.961, 166.298,60.7103, 166.889,60.4963, 167.491,60.3198, 168.104,60.1815, 168.724,60.0818, 169.349,60.0212, 169.976,60, 170.604,60.0182, 171.229,60.0758, 171.849,60.1725, 172.463,60.3079, 173.066,60.4816, 173.657,60.6928, 174.234,60.9406, 174.794,61.2242, 175.336,61.5424, 175.856,61.8939, 176.353,62.2774, 176.825,62.6914, 177.27,63.1341, 177.687,63.6039, 178.073,64.099, 178.428,64.6173, 178.749,65.1568, 179.036,65.7154, 179.287,66.2909, 179.501,66.8811, 179.678,67.4835, 179.817,68.0958, 179.917,68.7157, 179.978,69.3406, 180,69.9681" style="fill:lime;stroke:purple;stroke-width:1" />
<polygon points =" 199.98,70.6276, 199.921,71.2527, 199.823,71.8729, 199.686,72.4857, 199.511,73.0887, 199.298,73.6795, 199.049,74.2558, 198.764,74.8153, 198.445,75.3558, 198.092,75.8753, 197.707,76.3715, 197.292,76.8427, 196.848,77.2869, 196.378,77.7023, 195.882,78.0874, 195.363,78.4405, 194.822,78.7605, 194.263,79.0458, 193.687,79.2955, 193.096,79.5086, 192.493,79.6842, 191.881,79.8216, 191.261,79.9202, 190.636,79.9798, 190.008,80, 189.38,79.9808, 188.755,79.9222, 188.135,79.8245, 187.522,79.6881, 186.919,79.5135, 186.328,79.3014, 185.751,79.0526, 185.192,78.7681, 184.651,78.4491, 184.131,78.0967, 183.635,77.7124, 183.163,77.2977, 182.719,76.8543, 182.303,76.3838, 181.917,75.8882, 181.564,75.3693, 181.243,74.8293, 180.958,74.2702, 180.707,73.6943, 180.494,73.1038, 180.318,72.5011, 180.18,71.8885, 180.081,71.2685, 180.021,70.6435, 180,70.0159, 180.019,69.3883, 180.077,68.7631, 180.174,68.1428, 180.31,67.5298, 180.484,66.9265, 180.696,66.3353, 180.944,65.7586, 181.228,65.1987, 181.547,64.6576, 181.899,64.1376, 182.282,63.6407, 182.697,63.1689, 183.14,62.7241, 183.61,62.3079, 184.105,61.922, 184.624,61.568, 185.164,61.2472, 185.723,60.961, 186.298,60.7103, 186.889,60.4963, 187.491,60.3198, 188.104,60.1815, 188.724,60.0818, 189.349,60.0212, 189.976,60, 190.604,60.0182, 191.229,60.0758, 191.849,60.1725, 192.463,60.3079, 193.066,60.4816, 193.657,60.6928, 194.234,60.9406, 194.794,61.2242, 195.336,61.5424, 195.856,61.8939, 196.353,62.2774, 196.825,62.6914, 197.27,63.1341, 197.687,63.6039, 198.073,64.099, 198.428,64.6173, 198.749,65.1568, 199.036,65.7154, 199.287,66.2909, 199.501,66.8811, 199.678,67.4835, 199.817,68.0958, 199.917,68.7157, 199.978,69.3406, 200,69.9681" style="fill:lime;stroke:purple;stroke-width:1" />
<polygon points =" 19.9803,90.6276, 19.9212,91.2527, 19.8231,91.8729, 19.6861,92.4857, 19.5111,93.0887, 19.2985,93.6795, 19.0492,94.2558, 18.7643,94.8153, 18.4448,95.3558, 18.092,95.8753, 17.7074,96.3715, 17.2923,96.8427, 16.8485,97.2869, 16.3777,97.7023, 15.8817,98.0874, 15.3626,98.4405, 14.8223,98.7605, 14.263,99.0458, 13.6869,99.2955, 13.0962,99.5086, 12.4934,99.6842, 11.8807,99.8216, 11.2606,99.9202, 10.6355,99.9798, 10.008,100, 9.38036,99.9808, 8.7552,99.9222, 8.13495,99.8245, 7.52205,99.6881, 6.91892,99.5135, 6.32794,99.3014, 5.75143,99.0526, 5.19168,98.7681, 4.65088,98.4491, 4.13117,98.0967, 3.6346,97.7124, 3.16313,97.2977, 2.7186,96.8543, 2.30279,96.3838, 1.91733,95.8882, 1.56373,95.3693, 1.24339,94.8293, 0.95757,94.2702, 0.707404,93.6943, 0.493874,93.1038, 0.317823,92.5011, 0.179944,91.8885, 0.0807809,91.2685, 0.0207249,90.6435, 1.26827e-05,90.0159, 0.0187258,89.3883, 0.0767906,88.7631, 0.173978,88.1428, 0.309905,87.5298, 0.484036,86.9265, 0.695683,86.3353, 0.944014,85.7586, 1.22805,85.1987, 1.54667,84.6576, 1.89861,84.1376, 2.2825,83.6407, 2.69681,83.1689, 3.13991,82.7241, 3.61007,82.3079, 4.10541,81.922, 4.62399,81.568, 5.16377,81.2472, 5.72262,80.961, 6.29833,80.7103, 6.88863,80.4963, 7.4912,80.3198, 8.10366,80.1815, 8.7236,80.0818, 9.34857,80.0212, 9.97611,80, 10.6037,80.0182, 11.229,80.0758, 11.8494,80.1725, 12.4625,80.3079, 13.0659,80.4816, 13.6572,80.6928, 14.2341,80.9406, 14.7944,81.2242, 15.3357,81.5424, 15.8559,81.8939, 16.3531,82.2774, 16.8252,82.6914, 17.2705,83.1341, 17.687,83.6039, 18.0733,84.099, 18.4277,84.6173, 18.7489,85.1568, 19.0356,85.7154, 19.2867,86.2909, 19.5012,86.8811, 19.6782,87.4835, 19.817,88.0958, 19.9172,88.7157, 19.9782,89.3406, 19.9999,89.9681" style="fill:lime;stroke:purple;stroke-width:1" />
<polygon points =" 39.9803,90.6276, 39.9212,91.2527, 39.8231,91.8729, 39.6861,92.4857, 39.5111,93.0887, 39.2985,93.6795, 39.0492,94.2558, 38.7643,94.8153, 38.4448,95.3558, 38.092,95.8753, 37.7074,96.3715, 37.2923,96.8427, 36.8485,97.2869, 36.3777,97.7023, 35.8817,98.0874, 35.3626,98.4405, 34.8223,98.7605, 34.263,99.0458, 33.6869,99.2955, 33.0962,99.5086, 32.4934,99.6842, 31.8807,99.8216, 31.2606,99.9202, 30.6355,99.9798, 30.008,100, 29.3804,99.9808, 28.7552,99.9222, 28.1349,99.8245, 27.522,99.6881, 26.9189,99.5135, 26.3279,99.3014, 25.7514,99.0526, 25.1917,98.7681, 24.6509,98.4491, 24.1312,98.0967, 23.6346,97.7124, 23.1631,97.2977, 22.7186,96.8543, 22.3028,96.3838, 21.9173,95.8882, 21.5637,95.3693, 21.2434,94.8293, 20.9576,94.2702, 20.7074,93.6943, 20.4939,93.1038, 20.3178,92.5011, 20.1799,91.8885, 20.0808,91.2685, 20.0207,90.6435, 20,90.0159, 20.0187,89.3883, 20.0768,88.7631, 20.174,88.1428, 20.3099,87.5298, 20.484,86.9265, 20.6957,86.3353, 20.944,85.7586, 21.228,85.1987, 21.5467,84.6576, 21.8986,84.1376, 22.2825,83.6407, 22.6968,83.1689, 23.1399,82.7241, 23.6101,82.3079, 24.1054,81.922, 24.624,81.568, 25.1638,81.2472, 25.7226,80.961, 26.2983,80.7103, 26.8886,80.4963, 27.4912,80.3198, 28.1037,80.1815, 28.7236,80.0818, 29.3486,80.0212, 29.9761,80, 30.6037,80.0182, 31.229,80.0758, 31.8494,80.1725, 32.4625,80.3079, 33.0659,80.4816, 33.6572,80.6928, 34.2341,80.9406, 34.7944,81.2242, 35.3357,81.5424, 35.8559,81.8939, 36.3531,82.2774, 36.8252,82.6914, 37.2705,83.1341, 37.687,83.6039, 38.0733,84.099, 38.4277,84.6173, 38.7489,85.1568, 39.0356,85.7154, 39.2867,86.2909, 39.5012,86.8811, 39.6782,87.4835, 39.817,88.0958, 39.9172,88.7157, 39.9782,89.3406, 39.9999,89.9681" style="fill:lime;stroke:purple;stroke-width:1" />
<polygon points =" 59.9803,90.6276, 59.9212,91.2527, 59.8231,91.8729, 59.6861,92.4857, 59.5111,93.0887, 59.2985,93.6795, 59.0492,94.2558, 58.7643,94.8153, 58.4448,95.3558, 58.092,95.8753, 57.7074,96.3715, 57.2923,96.8427, 56.8485,97.2869, 56.3777,97.7023, 55.8817,98.0874, 55.3626,98.4405, 54.8223,98.7605, 54.263,99.0458, 53.6869,99.2955, 53.0962,99.5086, 52.4934,99.6842, 51.8807,99.8216, 51.2606,99.9202, 50.6355,99.9798, 50.008,100, 49.3804,99.9808, 48.7552,99.9222, 48.1349,99.8245, 47.522,99.6881, 46.9189,99.5135, 46.3279,99.3014, 45.7514,99.0526, 45.1917,98.7681, 44.6509,98.4491, 44.1312,98.0967, 43.6346,97.7124, 43.1631,97.2977, 42.7186,96.8543, 42.3028,96.3838, 41.9173,95.8882, 41.5637,95.3693, 41.2434,94.8293, 40.9576,94.2702, 40.7074,93.6943, 40.4939,93.1038, 40.3178,92.5011, 40.1799,91.8885, 40.0808,91.2685, 40.0207,90.6435, 40,90.0159, 40.0187,89.3883, 40.0768,88.7631, 40.174,88.1428, 40.3099,87.5298, 40.484,86.9265, 40.6957,86.3353, 40.944,85.7586, 41.228,85.1987, 41.5467,84.6576, 41.8986,84.1376, 42.2825,83.6407, 42.6968,83.1689, 43.1399,82.7241, 43.6101,82.3079, 44.1054,81.922, 44.624,81.568, 45.1638,81.2472, 45.7226,80.961, 46.2983,80.7103, 46.8886,80.4963, 47.4912,80.3198, 48.1037,80.1815, 48.7236,80.0818, 49.3486,80.0212, 49.9761,80, 50.6037,80.0182, 51.229,80.0758, 51.8494,80.1725, 52.4625,80.3079, 53.0659,80.4816, 53.6572,80.6928, 54.2341,80.9406, 54.7944,81.2242, 55.3357,81.5424, 55.8559,81.8939, 56.3531,82.2774, 56.8252,82.6914, 57.2705,83.1341, 57.687,83.6039, 58.0733,84.099, 58.4277,84.6173, 58.7489,85.1568, 59.0356,85.7154, 59.2867,86.2909, 59.5012,86.8811, 59.6782,87.4835, 59.817,88.0958, 59.9172,88.7157, 59.9782,89.3406, 59.9999,89.9681" style="fill:lime;stroke:purple;stroke-width:1" />
<polygon points =" 79.9803,90.6276, 79.9212,91.2527, 79.8231,91.8729, 79.6861,92.4857, 79.5111,93.0887, 79.2985,93.6795, 79.0492,94.2558, 78.7643,94.8153, 78.4448,95.3558, 78.092,95.8753, 77.7074,96.3715, 77.2923,96.8427, 76.8485,97.2869, 76.3777,97.7023, 75.8817,98.0874, 75.3626,98.4405, 74.8223,98.7605, 74.263,99.0458, 73.6869,99.2955, 73.0962,99.5086, 72.4934,99.6842, 71.8807,99.8216, 71.2606,99.9202, 70.6355,99.9798, 70.008,100, 69.3804,99.9808, 68.7552,99.9222, 68.1349,99.8245, 67.522,99.6881, 66.9189,99.5135, 66.3279,99.3014, 65.7514,99.0526, 65.1917,98.7681, 64.6509,98.4491, 64.1312,98.0967, 63.6346,97.7124, 63.1631,97.2977, 62.7186,96.8543, 62.3028,96.3838, 61.9173,95.8882, 61.5637,95.3693, 61.2434,94.8293, 60.9576,94.2702, 60.7074,93.6943, 60.4939,93.1038, 60.3178,92.5011, 60.1799,91.8885, 60.0808,91.2685, 60.0207,90.6435, 60,90.0159, 60.0187,89.3883, 60.0768,88.7631, 60.174,88.1428, 60.3099,87.5298, 60.484,86.9265, 60.6957,86.3353, 60.944,85.7586, 61.228,85.1987, 61.5467,84.6576, 61.8986,84.1376, 62.2825,83.6407, 62.6968,83.1689, 63.1399,82.7241, 63.6101,82.3079, 64.1054,81.922, 64.624,81.568, 65.1638,81.2472, 65.7226,80.961, 66.2983,80.7103, 66.8886,80.4963, 67.4912,80.3198, 68.1037,80.1815, 68.7236,80.0818, 69.3486,80.0212, 69.9761,80, 70.6037,80.0182, 71.229,80.0758, 71.8494,80.1725, 72.4625,80.3079, 73.0659,80.4816, 73.6572,80.6928, 74.2341,80.9406, 74.7944,81.2242, 75.3357,81.5424, 75.8559,81.8939, 76.3531,82.2774, 76.8252,82.6914, 77.2705,83.1341, 77.687,83.6039, 78.0733,84.099, 78.4277,84.6173, 78.7489,85.1568, 79.0356,85.7154, 79.2867,86.2909, 79.5012,86.8811, 79.6782,87.4835, 79.817,88.0958, 79.9172,88.7157, 79.9782,89.3406, 79.9999,89.9681" style="fill:lime;stroke:purple;stroke-width:1" />
<polygon points =" 99.9803,90.6276, 99.9212,91.2527, 99.8231,91.8729, 99.6861,92.4857, 99.5111,93.0887, 99.2985,93.6795, 99.0492,94.2558, 98.7643,94.8153, 98.4448,95.3558, 98.092,95.8753, 97.7074,96.3715, 97.2923,96.8427, 96.8485,97.2869, 96.3777,97.7023, 95.8817,98.0874, 95.3626,98.4405, 94.8223,98.7605, 94.263,99.0458, 93.6869,99.2955, 93.0962,99.5086, 92.4934,99.6842, 91.8807,99.8216, 91.2606,99.9202, 90.6355,99.9798, 90.008,100, 89.3804,99.9808, 88.7552,99.9222, 88.1349,99.8245, 87.522,99.6881, 86.9189,99.5135, 86.3279,99.3014, 85.7514,99.0526, 85.1917,98.7681, 84.6509,98.4491, 84.1312,98.0967, 83.6346,97.7124, 83.1631,97.2977, 82.7186,96.8543, 82.3028,96.3838, 81.9173,95.8882, 81.5637,95.3693, 81.2434,94.8293, 80.9576,94.2702, 80.7074,93.6943, 80.4939,93.1038, 80.3178,92.5011, 80.1799,91.8885, 80.0808,91.2685, 80.0207,90.6435, 80,90.0159, 80.0187,89.3883, 80.0768,88.7631, 80.174,88.1428, 80.3099,87.5298, 80.484,86.9265, 80.6957,86.3353, 80.944,85.7586, 81.228,85.1987, 81.5467,84.6576, 81.8986,84.1376, 82.2825,83.6407, 82.6968,83.1689, 83.1399,82.7241, 83.6101,82.3079, 84.1054,81.922, 84.624,81.568, 85.1638,81.2472, 85.7226,80.961, 86.2983,80.7103, 86.8886,80.4963, 87.4912,80.3198, 88.1037,80.1815, 88.7236,80.0818, 89.3486,80.0212, 89.9761,80, 90.6037,80.0182, 91.229,80.0758, 91.8494,80.1725, 92.4625,80.3079, 93.0659,80.4816, 93.6572,80.6928, 94.2341,80.9406, 94.7944,81.2242, 95.3357,81.5424, 95.8559,81.8939, 96.3531,82.2774, 96.8252,82.6914, 97.2705,83.1341, 97.687,83.6039, 98.0733,84.099, 98.4277,84.6173, 98.7489,85.1568, 99.0356,85.7154, 99.2867,86.2909, 99.5012,86.8811, 99.6782,87.4835, 99.817,88.0958, 99.9172,88.7157, 99.9782,89.3406, 99.9999,89.9681" style="fill:lime;stroke:purple;stroke-width:1" />
<polygon points =" 119.98,90.6276, 119.921,91.2527, 119.823,91.8729, 119.686,92.4857, 119.511,93.0887, 119.298,93.6795, 119.049,94.2558, 118.764,94.8153, 118.445,95.3558, 118.092,95.8753, 117.707,96.3715, 117.292,96.8427, 116.848,97.2869, 116.378,97.7023, 115.882,98.0874, 115.363,98.4405, 114.822,98.7605, 114.263,99.0458, 113.687,99.2955, 113.096,99.5086, 112.493,99.6842, 111.881,99.8216, 111.261,99.9202, 110.636,99.9798, 110.008,100, 109.38,99.9808, 108.755,99.9222, 108.135,99.8245, 107.522,99.6881, 106.919,99.5135, 106.328,99.3014, 105.751,99.0526, 105.192,98.7681, 104.651,98.4491, 104.131,98.0967, 103.635,97.7124, 103.163,97.2977, 102.719,96.8543, 102.303,96.3838, 101.917,95.8882, 101.564,95.3693, 101.243,94.8293, 100.958,94.2702, 100.707,93.6943, 100.494,93.1038, 100.318,92.5011, 100.18,91.8885, 100.081,91.2685, 100.021,90.6435, 100,90.0159, 100.019,89.3883, 100.077,88.7631, 100.174,88.1428, 100.31,87.5298, 100.484,86.9265, 100.696,86.3353, 100.944,85.7586, 101.228,85.1987, 101.547,84.6576, 101.899,84.1376, 102.282,83.6407, 102.697,83.1689, 103.14,82.7241, 103.61,82.3079, 104.105,81.922, 104.624,81.568, 105.164,81.2472, 105.723,80.961, 106.298,80.7103, 106.889,80.4963, 107.491,80.3198, 108.104,80.1815, 108.724,80.0818, 109.349,80.0212, 109.976,80, 110.604,80.0182, 111.229,80.0758, 111.849,80.1725, 112.463,80.3079, 113.066,80.4816, 113.657,80.6928, 114.234,80.9406, 114.794,81.2242, 115.336,81.5424, 115.856,81.8939, 116.353,82.2774, 116.825,82.6914, 117.27,83.1341, 117.687,83.6039, 118.073,84.099, 118.428,84.6173, 118.749,85.1568, 119.036,85.7154, 119.287,86.2909, 119.501,86.8811, 119.678,87.4835, 119.817,88.0958, 119.917,88.7157, 119.978,89.3406, 120,89.9681" style="fill:lime;stroke:purple;stroke-width:1" />
<polygon points =" 139.98,90.6276, 139.921,91.2527, 139.823,91.8729, 139.686,92.4857, 139.511,93.0887, 139.298,93.6795, 139.049,94.2558, 138.764,94.8153, 138.445,95.3558, 138.092,95.8753, 137.707,96.3715, 137.292,96.8427, 136.848,97.2869, 136.378,97.7023, 135.882,98.0874, 135.363,98.4405, 134.822,98.7605, 134.263,99.0458, 133.687,99.2955, 133.096,99.5086, 132.493,99.6842, 131.881,99.8216, 131.261,99.9202, 130.636,99.9798, 130.008,100, 129.38,99.9808, 128.755,99.9222, 128.135,99.8245, 127.522,99.6881, 126.919,99.5135, 126.328,99.3014, 125.751,99.0526, 125.192,98.7681, 124.651,98.4491, 124.131,98.0967, 123.635,97.7124, 123.163,97.2977, 122.719,96.8543, 122.303,96.3838, 121.917,95.8882, 121.564,95.3693, 121.243,94.8293, 120.958,94.2702, 120.707,93.6943, 120.494,93.1038, 120.318,92.5011, 120.18,91.8885, 120.081,91.2685, 120.021,90.6435, 120,90.0159, 120.019,89.3883, 120.077,88.7631, 120.174,88.1428, 120.31,87.5298, 120.484,86.9265, 120.696,86.3353, 120.944,85.7586, 121.228,85.1987, 121.547,84.6576, 121.899,84.1376, 122.282,83.6407, 122.697,83.1689, 123.14,82.7241, 123.61,82.3079, 124.105,81.922, 124.624,81.568, 125.164,81.2472, 125.723,80.961, 126.298,80.7103, 126.889,80.4963, 127.491,80.3198, 128.104,80.1815, 128.724,80.0818, 129.349,80.0212, 129.976,80, 130.604,80.0182, 131.229,80.0758, 131.849,80.1725, 132.463,80.3079, 133.066,80.4816, 133.657,80.6928, 134.234,80.9406, 134.794,81.2242, 135.336,81.5424, 135.856,81.8939, 136.353,82.2774, 136.825,82.6914, 137.27,83.1341, 137.687,83.6039, 138.073,84.099, 138.428,84.6173, 138.749,85.1568, 139.036,85.7154, 139.287,86.2909, 139.501,86.8811, 139.678,87.4835, 139.817,88.0958, 139.917,88.7157, 139.978,89.3406, 140,89.9681" style="fill:lime;stroke:purple;stroke-width:1" />
<polygon points =" 159.98,90.6276, 159.921,91.2527, 159.823,91.8729, 159.686,92.4857, 159.511,93.0887, 159.298,93.6795, 159.049,94.2558, 158.764,94.8153, 158.445,95.3558, 158.092,95.8753, 157.707,96.3715, 157.292,96.8427, 156.848,97.2869, 156.378,97.7023, 155.882,98.0874, 155.363,98.4405, 154.822,98.7605, 154.263,99.0458, 153.687,99.2955, 153.096,99.5086, 152.493,99.6842, 151.881,99.8216, 151.261,99.9202, 150.636,99.9798, 150.008,100, 149.38,99.9808, 148.755,99.9222, 148.135,99.8245, 147.522,99.6881, 146.919,99.5135, 146.328,99.3014, 145.751,99.0526, 145.192,98.7681, 144.651,98.4491, 144.131,98.0967, 143.635,97.7124, 143.163,97.2977, 142.719,96.8543, 142.303,96.3838, 141.917,95.8882, 141.564,95.3693, 141.243,94.8293, 140.958,94.2702, 140.707,93.6943, 140.494,93.1038, 140.318,92.5011, 140.18,91.8885, 140.081,91.2685, 140.021,90.6435, 140,90.0159, 140.019,89.3883, 140.077,88.7631, 140.174,88.1428, 140.31,87.5298, 140.484,86.9265, 140.696,86.3353, 140.944,85.7586, 141.228,85.1987, 141.547,84.6576, 141.899,84.1376, 142.282,83.6407, 142.697,83.1689, 143.14,82.7241, 143.61,82.3079, 144.105,81.922, 144.624,81.568, 145.164,81.2472, 145.723,80.961, 146.298,80.7103, 146.889,80.4963, 147.491,80.3198, 148.104,80.1815, 148.724,80.0818, 149.349,80.0212, 149.976,80, 150.604,80.0182, 151.229,80.0758, 151.849,80.1725, 152.463,80.3079, 153.066,80.4816, 153.657,80.6928, 154.234,80.9406, 154.794,81.2242, 155.336,81.5424, 155.856,81.8939, 156.353,82.2774, 156.825,82.6914, 157.27,83.1341, 157.687,83.6039, 158.073,84.099, 158.428,84.6173, 158.749,85.1568, 159.036,85.7154, 159.287,86.2909, 159.501,86.8811, 159.678,87.4835, 159.817,88.0958, 159.917,88.7157, 159.978,89.3406, 160,89.9681" style="fill:lime;stroke:purple;stroke-width:1" />
<polygon points =" 179.98,90.6276, 179.921,91.2527, 179.823,91.8729, 179.686,92.4857, 179.511,93.0887, 179.298,93.6795, 179.049,94.2558, 178.764,94.8153, 178.445,95.3558, 178.092,95.8753, 177.707,96.3715, 177.292,96.8427, 176.848,97.2869, 176.378,97.7023, 175.882,98.0874, 175.363,98.4405, 174.822,98.7605, 174.263,99.0458, 173.687,99.2955, 173.096,99.5086, 172.493,99.6842, 171.881,99.8216, 171.261,99.9202, 170.636,99.9798, 170.008,100, 169.38,99.9808, 168.755,99.9222, 168.135,99.8245, 167.522,99.6881, 166.919,99.5135, 166.328,99.3014, 165.751,99.0526, 165.192,98.7681, 164.651,98.4491, 164.131,98.0967, 163.635,97.7124, 163.163,97.2977, 162.719,96.8543, 162.303,96.3838, 161.917,95.8882, 161.564,95.3693, 161.243,94.8293, 160.958,94.2702, 160.707,93.6943, 160.494,93.1038, 160.318,92.5011, 160.18,91.8885, 160.081,91.2685, 160.021,90.6435, 160,90.0159, 160.019,89.3883, 160.077,88.7631, 160.174,88.1428, 160.31,87.5298, 160.484,86.9265, 160.696,86.3353, 160.944,85.7586, 161.228,85.1987, 161.547,84.6576, 161.899,84.1376, 162.282,83.6407, 162.697,83.1689, 163.14,82.7241, 163.61,82.3079, 164.105,81.922, 164.624,81.568, 165.164,81.2472, 165.723,80.961, 166.298,80.7103, 166.889,80.4963, 167.491,80.3198, 168.104,80.1815, 168.724,80.0818, 169.349,80.0212, 169.976,80, 170.604,80.0182, 171.229,80.0758, 171.849,80.1725, 172.463,80.3079, 173.066,80.4816, 173.657,80.6928, 174.234,80.9406, 174.794,81.2242, 175.336,81.5424, 175.856,81.8939, 176.353,82.2774, 176.825,82.6914, 177.27,83.1341, 177.687,83.6039, 178.073,84.099, 178.428,84.6173, 178.749,85.1568, 179.036,85.7154, 179.287,86.2909, 179.501,86.8811, 179.678,87.4835, 179.817,88.0958, 179.917,88.7157, 179.978,89.3406, 180,89.9681" style="fill:lime;stroke:purple;stroke-width:1" />
<polygon points =" 199.98,90.6276, 199.921,91.2527, 199.823,91.8729, 199.686,92.4857, 199.511,93.0887, 199.298,93.6795, 199.049,94.2558, 198.764,94.8153, 198.445,95.3558, 198.092,95.8753, 197.707,96.3715, 197.292,96.8427, 196.848,97.2869, 196.378,97.7023, 195.882,98.0874, 195.363,98.4405, 194.822,98.7605, 194.263,99.0458, 193.687,99.2955, 193.096,99.5086, 192.493,99.6842, 191.881,99.8216, 191.261,99.9202, 190.636,99.9798, 190.008,100, 189.38,99.9808, 188.755,99.9222, 188.135,99.8245, 187.522,99.6881, 186.919,99.5135, 186.328,99.3014, 185.751,99.0526, 185.192,98.7681, 184.651,98.4491, 184.131,98.0967, 183.635,97.7124, 183.163,97.2977, 182.719,96.8543, 182.303,96.3838, 181.917,95.8882, 181.564,95.3693, 181.243,94.8293, 180.958,94.2702, 180.707,93.6943, 180.494,93.1038, 180.318,92.5011, 180.18,91.8885, 180.081,91.2685, 180.021,90.6435, 180,90.0159, 180.019,89.3883, 180.077,88.7631, 180.174,88.1428, 180.31,87.5298, 180.484,86.9265, 180.696,86.3353, 180.944,85.7586, 181.228,85.1987, 181.547,84.6576, 181.899,84.1376, 182.282,83.6407, 182.697,83.1689, 183.14,82.7241, 183.61,82.3079, 184.105,81.922, 184.624,81.568, 185.164,81.2472, 185.723,80.961, 186.298,80.7103, 186.889,80.4963, 187.491,80.3198, 188.104,80.1815, 188.724,80.0818, 189.349,80.0212, 189.976,80, 190.604,80.0182, 191.229,80.0758, 191.849,80.1725, 192.463,80.3079, 193.066,80.4816, 193.657,80.6928, 194.234,80.9406, 194.794,81.2242, 195.336,81.5424, 195.856,81.8939, 196.353,82.2774, 196.825,82.6914, 197.27,83.1341, 197.687,83.6039, 198.073,84.099, 198.428,84.6173, 198.749,85.1568, 199.036,85.7154, 199.287,86.2909, 199.501,86.8811, 199.678,87.4835, 199.817,88.0958, 199.917,88.7157, 199.978,89.3406, 200,89.9681" style="fill:lime;stroke:purple;stroke-width:1" />
</svg>
