<?xml version="1.0" standalone="no"?>
<svg width="300" height="300" version="1.1" xmlns="http://www.w3.org/2000/svg">
<rect x="0" y="0" width="200.000000" height="100.000000" stroke="red" fill="yellow"  />
<polygon points =" -1.29179e-42,0, -1.29179e-42,10, 10,10, 10,0" style="fill:lime;stroke:purple;stroke-width:1" />
<polygon points =" 10,0, 10,10, 20,10, 20,0" style="fill:lime;stroke:purple;stroke-width:1" />
<polygon points =" 20,0, 20,10, 30,10, 30,0" style="fill:lime;stroke:purple;stroke-width:1" />
<polygon points =" 30,0, 30,10, 40,10, 40,0" style="fill:lime;stroke:purple;stroke-width:1" />
<polygon points =" 40,0, 40,10, 50,10, 50,0" style="fill:lime;stroke:purple;stroke-width:1" />
<polygon points =" 50,0, 50,10, 60,10, 60,0" style="fill:lime;stroke:purple;stroke-width:1" />
<polygon points =" 60,0, 60,10, 70,10, 70,0" style="fill:lime;stroke:purple;stroke-width:1" />
<polygon points =" 70,0, 70,10, 80,10, 80,0" style="fill:lime;stroke:purple;stroke-width:1" />
<polygon points =" 80,0, 80,10, 90,10, 90,0" style="fill:lime;stroke:purple;stroke-width:1" />
<polygon points =" 90,0, 90,10, 100,10, 100,0" style="fill:lime;stroke:purple;stroke-width:1" />
<polygon points =" 100,0, 100,10, 110,10, 110,0" style="fill:lime;stroke:purple;stroke-width:1" />
<polygon points =" 110,0, 110,10, 120,10, 120,0" style="fill:lime;stroke:purple;stroke-width:1" />
<polygon points =" 120,0, 120,10, 130,10, 130,0" style="fill:lime;stroke:purple;stroke-width:1" />
<polygon points =" 130,0, 130,10, 140,10, 140,0" style="fill:lime;stroke:purple;stroke-width:1" />
<polygon points =" 140,0, 140,10, 150,10, 150,0" style="fill:lime;stroke:purple;stroke-width:1" />
<polygon points =" 150,0, 150,10, 160,10, 160,0" style="fill:lime;stroke:purple;stroke-width:1" />
<polygon points =" 160,0, 160,10, 170,10, 170,0" style="fill:lime;stroke:purple;stroke-width:1" />
<polygon points =" 170,0, 170,10, 180,10, 180,0" style="fill:lime;stroke:purple;stroke-width:1" />
<polygon points =" 180,0, 180,10, 190,10, 190,0" style="fill:lime;stroke:purple;stroke-width:1" />
<polygon points =" 190,0, 190,10, 200,10, 200,0" style="fill:lime;stroke:purple;stroke-width:1" />
<polygon points =" 0,10, 0,20, 10,20, 10,10" style="fill:lime;stroke:purple;stroke-width:1" />
<polygon points =" 10,10, 10,20, 20,20, 20,10" style="fill:lime;stroke:purple;stroke-width:1" />
<polygon points =" 20,10, 20,20, 30,20, 30,10" style="fill:lime;stroke:purple;stroke-width:1" />
<polygon points =" 30,10, 30,20, 40,20, 40,10" style="fill:lime;stroke:purple;stroke-width:1" />
<polygon points =" 40,10, 40,20, 50,20, 50,10" style="fill:lime;stroke:purple;stroke-width:1" />
<polygon points =" 50,10, 50,20, 60,20, 60,10" style="fill:lime;stroke:purple;stroke-width:1" />
<polygon points =" 60,10, 60,20, 70,20, 70,10" style="fill:lime;stroke:purple;stroke-width:1" />
<polygon points =" 70,10, 70,20, 80,20, 80,10" style="fill:lime;stroke:purple;stroke-width:1" />
<polygon points =" 80,10, 80,20, 90,20, 90,10" style="fill:lime;stroke:purple;stroke-width:1" />
<polygon points =" 90,10, 90,20, 100,20, 100,10" style="fill:lime;stroke:purple;stroke-width:1" />
<polygon points =" 100,10, 100,20, 110,20, 110,10" style="fill:lime;stroke:purple;stroke-width:1" />
<polygon points =" 110,10, 110,20, 120,20, 120,10" style="fill:lime;stroke:purple;stroke-width:1" />
<polygon points =" 120,10, 120,20, 130,20, 130,10" style="fill:lime;stroke:purple;stroke-width:1" />
<polygon points =" 130,10, 130,20, 140,20, 140,10" style="fill:lime;stroke:purple;stroke-width:1" />
<polygon points =" 140,10, 140,20, 150,20, 150,10" style="fill:lime;stroke:purple;stroke-width:1" />
<polygon points =" 150,10, 150,20, 160,20, 160,10" style="fill:lime;stroke:purple;stroke-width:1" />
<polygon points =" 160,10, 160,20, 170,20, 170,10" style="fill:lime;stroke:purple;stroke-width:1" />
<polygon points =" 170,10, 170,20, 180,20, 180,10" style="fill:lime;stroke:purple;stroke-width:1" />
<polygon points =" 180,10, 180,20, 190,20, 190,10" style="fill:lime;stroke:purple;stroke-width:1" />
<polygon points =" 190,10, 190,20, 200,20, 200,10" style="fill:lime;stroke:purple;stroke-width:1" />
<polygon points =" 0,20, 0,30, 10,30, 10,20" style="fill:lime;stroke:purple;stroke-width:1" />
<polygon points =" 10,20, 10,30, 20,30, 20,20" style="fill:lime;stroke:purple;stroke-width:1" />
<polygon points =" 20,20, 20,30, 30,30, 30,20" style="fill:lime;stroke:purple;stroke-width:1" />
<polygon points =" 30,20, 30,30, 40,30, 40,20" style="fill:lime;stroke:purple;stroke-width:1" />
<polygon points =" 40,20, 40,30, 50,30, 50,20" style="fill:lime;stroke:purple;stroke-width:1" />
<polygon points =" 50,20, 50,30, 60,30, 60,20" style="fill:lime;stroke:purple;stroke-width:1" />
<polygon points =" 60,20, 60,30, 70,30, 70,20" style="fill:lime;stroke:purple;stroke-width:1" />
<polygon points =" 70,20, 70,30, 80,30, 80,20" style="fill:lime;stroke:purple;stroke-width:1" />
<polygon points =" 80,20, 80,30, 90,30, 90,20" style="fill:lime;stroke:purple;stroke-width:1" />
<polygon points =" 90,20, 90,30, 100,30, 100,20" style="fill:lime;stroke:purple;stroke-width:1" />
<polygon points =" 100,20, 100,30, 110,30, 110,20" style="fill:lime;stroke:purple;stroke-width:1" />
<polygon points =" 110,20, 110,30, 120,30, 120,20" style="fill:lime;stroke:purple;stroke-width:1" />
<polygon points =" 120,20, 120,30, 130,30, 130,20" style="fill:lime;stroke:purple;stroke-width:1" />
<polygon points =" 130,20, 130,30, 140,30, 140,20" style="fill:lime;stroke:purple;stroke-width:1" />
<polygon points =" 140,20, 140,30, 150,30, 150,20" style="fill:lime;stroke:purple;stroke-width:1" />
<polygon points =" 150,20, 150,30, 160,30, 160,20" style="fill:lime;stroke:purple;stroke-width:1" />
<polygon points =" 160,20, 160,30, 170,30, 170,20" style="fill:lime;stroke:purple;stroke-width:1" />
<polygon points =" 170,20, 170,30, 180,30, 180,20" style="fill:lime;stroke:purple;stroke-width:1" />
<polygon points =" 180,20, 180,30, 190,30, 190,20" style="fill:lime;stroke:purple;stroke-width:1" />
<polygon points =" 190,20, 190,30, 200,30, 200,20" style="fill:lime;stroke:purple;stroke-width:1" />
<polygon points =" 0,30, 0,40, 10,40, 10,30" style="fill:lime;stroke:purple;stroke-width:1" />
<polygon points =" 10,30, 10,40, 20,40, 20,30" style="fill:lime;stroke:purple;stroke-width:1" />
<polygon points =" 20,30, 20,40, 30,40, 30,30" style="fill:lime;stroke:purple;stroke-width:1" />
<polygon points =" 30,30, 30,40, 40,40, 40,30" style="fill:lime;stroke:purple;stroke-width:1" />
<polygon points =" 40,30, 40,40, 50,40, 50,30" style="fill:lime;stroke:purple;stroke-width:1" />
<polygon points =" 50,30, 50,40, 60,40, 60,30" style="fill:lime;stroke:purple;stroke-width:1" />
<polygon points =" 60,30, 60,40, 70,40, 70,30" style="fill:lime;stroke:purple;stroke-width:1" />
<polygon points =" 70,30, 70,40, 80,40, 80,30" style="fill:lime;stroke:purple;stroke-width:1" />
<polygon points =" 80,30, 80,40, 90,40, 90,30" style="fill:lime;stroke:purple;stroke-width:1" />
<polygon points =" 90,30, 90,40, 100,40, 100,30" style="fill:lime;stroke:purple;stroke-width:1" />
<polygon points =" 100,30, 100,40, 110,40, 110,30" style="fill:lime;stroke:purple;stroke-width:1" />
<polygon points =" 110,30, 110,40, 120,40, 120,30" style="fill:lime;stroke:purple;stroke-width:1" />
<polygon points =" 120,30, 120,40, 130,40, 130,30" style="fill:lime;stroke:purple;stroke-width:1" />
<polygon points =" 130,30, 130,40, 140,40, 140,30" style="fill:lime;stroke:purple;stroke-width:1" />
<polygon points =" 140,30, 140,40, 150,40, 150,30" style="fill:lime;stroke:purple;stroke-width:1" />
<polygon points =" 150,30, 150,40, 160,40, 160,30" style="fill:lime;stroke:purple;stroke-width:1" />
<polygon points =" 160,30, 160,40, 170,40, 170,30" style="fill:lime;stroke:purple;stroke-width:1" />
<polygon points =" 170,30, 170,40, 180,40, 180,30" style="fill:lime;stroke:purple;stroke-width:1" />
<polygon points =" 180,30, 180,40, 190,40, 190,30" style="fill:lime;stroke:purple;stroke-width:1" />
<polygon points =" 190,30, 190,40, 200,40, 200,30" style="fill:lime;stroke:purple;stroke-width:1" />
<polygon points =" 0,40, 0,50, 10,50, 10,40" style="fill:lime;stroke:purple;stroke-width:1" />
<polygon points =" 10,40, 10,50, 20,50, 20,40" style="fill:lime;stroke:purple;stroke-width:1" />
<polygon points =" 20,40, 20,50, 30,50, 30,40" style="fill:lime;stroke:purple;stroke-width:1" />
<polygon points =" 30,40, 30,50, 40,50, 40,40" style="fill:lime;stroke:purple;stroke-width:1" />
<polygon points =" 40,40, 40,50, 50,50, 50,40" style="fill:lime;stroke:purple;stroke-width:1" />
<polygon points =" 50,40, 50,50, 60,50, 60,40" style="fill:lime;stroke:purple;stroke-width:1" />
<polygon points =" 60,40, 60,50, 70,50, 70,40" style="fill:lime;stroke:purple;stroke-width:1" />
<polygon points =" 70,40, 70,50, 80,50, 80,40" style="fill:lime;stroke:purple;stroke-width:1" />
<polygon points =" 80,40, 80,50, 90,50, 90,40" style="fill:lime;stroke:purple;stroke-width:1" />
<polygon points =" 90,40, 90,50, 100,50, 100,40" style="fill:lime;stroke:purple;stroke-width:1" />
<polygon points =" 100,40, 100,50, 110,50, 110,40" style="fill:lime;stroke:purple;stroke-width:1" />
<polygon points =" 110,40, 110,50, 120,50, 120,40" style="fill:lime;stroke:purple;stroke-width:1" />
<polygon points =" 120,40, 120,50, 130,50, 130,40" style="fill:lime;stroke:purple;stroke-width:1" />
<polygon points =" 130,40, 130,50, 140,50, 140,40" style="fill:lime;stroke:purple;stroke-width:1" />
<polygon points =" 140,40, 140,50, 150,50, 150,40" style="fill:lime;stroke:purple;stroke-width:1" />
<polygon points =" 150,40, 150,50, 160,50, 160,40" style="fill:lime;stroke:purple;stroke-width:1" />
<polygon points =" 160,40, 160,50, 170,50, 170,40" style="fill:lime;stroke:purple;stroke-width:1" />
<polygon points =" 170,40, 170,50, 180,50, 180,40" style="fill:lime;stroke:purple;stroke-width:1" />
<polygon points =" 180,40, 180,50, 190,50, 190,40" style="fill:lime;stroke:purple;stroke-width:1" />
<polygon points =" 190,40, 190,50, 200,50, 200,40" style="fill:lime;stroke:purple;stroke-width:1" />
<polygon points =" 0,50, 0,60, 10,60, 10,50" style="fill:lime;stroke:purple;stroke-width:1" />
<polygon points =" 10,50, 10,60, 20,60, 20,50" style="fill:lime;stroke:purple;stroke-width:1" />
<polygon points =" 20,50, 20,60, 30,60, 30,50" style="fill:lime;stroke:purple;stroke-width:1" />
<polygon points =" 30,50, 30,60, 40,60, 40,50" style="fill:lime;stroke:purple;stroke-width:1" />
<polygon points =" 40,50, 40,60, 50,60, 50,50" style="fill:lime;stroke:purple;stroke-width:1" />
<polygon points =" 50,50, 50,60, 60,60, 60,50" style="fill:lime;stroke:purple;stroke-width:1" />
<polygon points =" 60,50, 60,60, 70,60, 70,50" style="fill:lime;stroke:purple;stroke-width:1" />
<polygon points =" 70,50, 70,60, 80,60, 80,50" style="fill:lime;stroke:purple;stroke-width:1" />
<polygon points =" 80,50, 80,60, 90,60, 90,50" style="fill:lime;stroke:purple;stroke-width:1" />
<polygon points =" 90,50, 90,60, 100,60, 100,50" style="fill:lime;stroke:purple;stroke-width:1" />
<polygon points =" 100,50, 100,60, 110,60, 110,50" style="fill:lime;stroke:purple;stroke-width:1" />
<polygon points =" 110,50, 110,60, 120,60, 120,50" style="fill:lime;stroke:purple;stroke-width:1" />
<polygon points =" 120,50, 120,60, 130,60, 130,50" style="fill:lime;stroke:purple;stroke-width:1" />
<polygon points =" 130,50, 130,60, 140,60, 140,50" style="fill:lime;stroke:purple;stroke-width:1" />
<polygon points =" 140,50, 140,60, 150,60, 150,50" style="fill:lime;stroke:purple;stroke-width:1" />
<polygon points =" 150,50, 150,60, 160,60, 160,50" style="fill:lime;stroke:purple;stroke-width:1" />
<polygon points =" 160,50, 160,60, 170,60, 170,50" style="fill:lime;stroke:purple;stroke-width:1" />
<polygon points =" 170,50, 170,60, 180,60, 180,50" style="fill:lime;stroke:purple;stroke-width:1" />
<polygon points =" 180,50, 180,60, 190,60, 190,50" style="fill:lime;stroke:purple;stroke-width:1" />
<polygon points =" 190,50, 190,60, 200,60, 200,50" style="fill:lime;stroke:purple;stroke-width:1" />
<polygon points =" 0,60, 0,70, 10,70, 10,60" style="fill:lime;stroke:purple;stroke-width:1" />
<polygon points =" 10,60, 10,70, 20,70, 20,60" style="fill:lime;stroke:purple;stroke-width:1" />
<polygon points =" 20,60, 20,70, 30,70, 30,60" style="fill:lime;stroke:purple;stroke-width:1" />
<polygon points =" 30,60, 30,70, 40,70, 40,60" style="fill:lime;stroke:purple;stroke-width:1" />
<polygon points =" 40,60, 40,70, 50,70, 50,60" style="fill:lime;stroke:purple;stroke-width:1" />
<polygon points =" 50,60, 50,70, 60,70, 60,60" style="fill:lime;stroke:purple;stroke-width:1" />
<polygon points =" 60,60, 60,70, 70,70, 70,60" style="fill:lime;stroke:purple;stroke-width:1" />
<polygon points =" 70,60, 70,70, 80,70, 80,60" style="fill:lime;stroke:purple;stroke-width:1" />
<polygon points =" 80,60, 80,70, 90,70, 90,60" style="fill:lime;stroke:purple;stroke-width:1" />
<polygon points =" 90,60, 90,70, 100,70, 100,60" style="fill:lime;stroke:purple;stroke-width:1" />
<polygon points =" 100,60, 100,70, 110,70, 110,60" style="fill:lime;stroke:purple;stroke-width:1" />
<polygon points =" 110,60, 110,70, 120,70, 120,60" style="fill:lime;stroke:purple;stroke-width:1" />
<polygon points =" 120,60, 120,70, 130,70, 130,60" style="fill:lime;stroke:purple;stroke-width:1" />
<polygon points =" 130,60, 130,70, 140,70, 140,60" style="fill:lime;stroke:purple;stroke-width:1" />
<polygon points =" 140,60, 140,70, 150,70, 150,60" style="fill:lime;stroke:purple;stroke-width:1" />
<polygon points =" 150,60, 150,70, 160,70, 160,60" style="fill:lime;stroke:purple;stroke-width:1" />
<polygon points =" 160,60, 160,70, 170,70, 170,60" style="fill:lime;stroke:purple;stroke-width:1" />
<polygon points =" 170,60, 170,70, 180,70, 180,60" style="fill:lime;stroke:purple;stroke-width:1" />
<polygon points =" 180,60, 180,70, 190,70, 190,60" style="fill:lime;stroke:purple;stroke-width:1" />
<polygon points =" 190,60, 190,70, 200,70, 200,60" style="fill:lime;stroke:purple;stroke-width:1" />
<polygon points =" 0,70, 0,80, 10,80, 10,70" style="fill:lime;stroke:purple;stroke-width:1" />
<polygon points =" 10,70, 10,80, 20,80, 20,70" style="fill:lime;stroke:purple;stroke-width:1" />
<polygon points =" 20,70, 20,80, 30,80, 30,70" style="fill:lime;stroke:purple;stroke-width:1" />
<polygon points =" 30,70, 30,80, 40,80, 40,70" style="fill:lime;stroke:purple;stroke-width:1" />
<polygon points =" 40,70, 40,80, 50,80, 50,70" style="fill:lime;stroke:purple;stroke-width:1" />
<polygon points =" 50,70, 50,80, 60,80, 60,70" style="fill:lime;stroke:purple;stroke-width:1" />
<polygon points =" 60,70, 60,80, 70,80, 70,70" style="fill:lime;stroke:purple;stroke-width:1" />
<polygon points =" 70,70, 70,80, 80,80, 80,70" style="fill:lime;stroke:purple;stroke-width:1" />
<polygon points =" 80,70, 80,80, 90,80, 90,70" style="fill:lime;stroke:purple;stroke-width:1" />
<polygon points =" 90,70, 90,80, 100,80, 100,70" style="fill:lime;stroke:purple;stroke-width:1" />
<polygon points =" 100,70, 100,80, 110,80, 110,70" style="fill:lime;stroke:purple;stroke-width:1" />
<polygon points =" 110,70, 110,80, 120,80, 120,70" style="fill:lime;stroke:purple;stroke-width:1" />
<polygon points =" 120,70, 120,80, 130,80, 130,70" style="fill:lime;stroke:purple;stroke-width:1" />
<polygon points =" 130,70, 130,80, 140,80, 140,70" style="fill:lime;stroke:purple;stroke-width:1" />
<polygon points =" 140,70, 140,80, 150,80, 150,70" style="fill:lime;stroke:purple;stroke-width:1" />
<polygon points =" 150,70, 150,80, 160,80, 160,70" style="fill:lime;stroke:purple;stroke-width:1" />
<polygon points =" 160,70, 160,80, 170,80, 170,70" style="fill:lime;stroke:purple;stroke-width:1" />
<polygon points =" 170,70, 170,80, 180,80, 180,70" style="fill:lime;stroke:purple;stroke-width:1" />
<polygon points =" 180,70, 180,80, 190,80, 190,70" style="fill:lime;stroke:purple;stroke-width:1" />
<polygon points =" 190,70, 190,80, 200,80, 200,70" style="fill:lime;stroke:purple;stroke-width:1" />
<polygon points =" 0,80, 0,90, 10,90, 10,80" style="fill:lime;stroke:purple;stroke-width:1" />
<polygon points =" 10,80, 10,90, 20,90, 20,80" style="fill:lime;stroke:purple;stroke-width:1" />
<polygon points =" 20,80, 20,90, 30,90, 30,80" style="fill:lime;stroke:purple;stroke-width:1" />
<polygon points =" 30,80, 30,90, 40,90, 40,80" style="fill:lime;stroke:purple;stroke-width:1" />
<polygon points =" 40,80, 40,90, 50,90, 50,80" style="fill:lime;stroke:purple;stroke-width:1" />
<polygon points =" 50,80, 50,90, 60,90, 60,80" style="fill:lime;stroke:purple;stroke-width:1" />
<polygon points =" 60,80, 60,90, 70,90, 70,80" style="fill:lime;stroke:purple;stroke-width:1" />
<polygon points =" 70,80, 70,90, 80,90, 80,80" style="fill:lime;stroke:purple;stroke-width:1" />
<polygon points =" 80,80, 80,90, 90,90, 90,80" style="fill:lime;stroke:purple;stroke-width:1" />
<polygon points =" 90,80, 90,90, 100,90, 100,80" style="fill:lime;stroke:purple;stroke-width:1" />
<polygon points =" 100,80, 100,90, 110,90, 110,80" style="fill:lime;stroke:purple;stroke-width:1" />
<polygon points =" 110,80, 110,90, 120,90, 120,80" style="fill:lime;stroke:purple;stroke-width:1" />
<polygon points =" 120,80, 120,90, 130,90, 130,80" style="fill:lime;stroke:purple;stroke-width:1" />
<polygon points =" 130,80, 130,90, 140,90, 140,80" style="fill:lime;stroke:purple;stroke-width:1" />
<polygon points =" 140,80, 140,90, 150,90, 150,80" style="fill:lime;stroke:purple;stroke-width:1" />
<polygon points =" 150,80, 150,90, 160,90, 160,80" style="fill:lime;stroke:purple;stroke-width:1" />
<polygon points =" 160,80, 160,90, 170,90, 170,80" style="fill:lime;stroke:purple;stroke-width:1" />
<polygon points =" 170,80, 170,90, 180,90, 180,80" style="fill:lime;stroke:purple;stroke-width:1" />
<polygon points =" 180,80, 180,90, 190,90, 190,80" style="fill:lime;stroke:purple;stroke-width:1" />
<polygon points =" 190,80, 190,90, 200,90, 200,80" style="fill:lime;stroke:purple;stroke-width:1" />
<polygon points =" 0,90, 0,100, 10,100, 10,90" style="fill:lime;stroke:purple;stroke-width:1" />
<polygon points =" 10,90, 10,100, 20,100, 20,90" style="fill:lime;stroke:purple;stroke-width:1" />
<polygon points =" 20,90, 20,100, 30,100, 30,90" style="fill:lime;stroke:purple;stroke-width:1" />
<polygon points =" 30,90, 30,100, 40,100, 40,90" style="fill:lime;stroke:purple;stroke-width:1" />
<polygon points =" 40,90, 40,100, 50,100, 50,90" style="fill:lime;stroke:purple;stroke-width:1" />
<polygon points =" 50,90, 50,100, 60,100, 60,90" style="fill:lime;stroke:purple;stroke-width:1" />
<polygon points =" 60,90, 60,100, 70,100, 70,90" style="fill:lime;stroke:purple;stroke-width:1" />
<polygon points =" 70,90, 70,100, 80,100, 80,90" style="fill:lime;stroke:purple;stroke-width:1" />
<polygon points =" 80,90, 80,100, 90,100, 90,90" style="fill:lime;stroke:purple;stroke-width:1" />
<polygon points =" 90,90, 90,100, 100,100, 100,90" style="fill:lime;stroke:purple;stroke-width:1" />
<polygon points =" 100,90, 100,100, 110,100, 110,90" style="fill:lime;stroke:purple;stroke-width:1" />
<polygon points =" 110,90, 110,100, 120,100, 120,90" style="fill:lime;stroke:purple;stroke-width:1" />
<polygon points =" 120,90, 120,100, 130,100, 130,90" style="fill:lime;stroke:purple;stroke-width:1" />
<polygon points =" 130,90, 130,100, 140,100, 140,90" style="fill:lime;stroke:purple;stroke-width:1" />
<polygon points =" 140,90, 140,100, 150,100, 150,90" style="fill:lime;stroke:purple;stroke-width:1" />
<polygon points =" 150,90, 150,100, 160,100, 160,90" style="fill:lime;stroke:purple;stroke-width:1" />
<polygon points =" 160,90, 160,100, 170,100, 170,90" style="fill:lime;stroke:purple;stroke-width:1" />
<polygon points =" 170,90, 170,100, 180,100, 180,90" style="fill:lime;stroke:purple;stroke-width:1" />
<polygon points =" 180,90, 180,100, 190,100, 190,90" style="fill:lime;stroke:purple;stroke-width:1" />
<polygon points =" 190,90, 190,100, 200,100, 200,90" style="fill:lime;stroke:purple;stroke-width:1" />
</svg>
