<?xml version="1.0" standalone="no"?>
<svg width="300" height="300" version="1.1" xmlns="http://www.w3.org/2000/svg">
<rect x="0" y="0" width="200.000000" height="100.000000" stroke="red" fill="yellow"  />
<polygon points =" 5,0, 0,8.66025, 10,8.66025" style="fill:lime;stroke:purple;stroke-width:1" />
<polygon points =" 5,0, 10,8.66025, 15,0" style="fill:lime;stroke:purple;stroke-width:1" />
<polygon points =" 15,0, 10,8.66025, 20,8.66025" style="fill:lime;stroke:purple;stroke-width:1" />
<polygon points =" 15,0, 20,8.66025, 25,0" style="fill:lime;stroke:purple;stroke-width:1" />
<polygon points =" 25,0, 20,8.66025, 30,8.66025" style="fill:lime;stroke:purple;stroke-width:1" />
<polygon points =" 25,0, 30,8.66025, 35,0" style="fill:lime;stroke:purple;stroke-width:1" />
<polygon points =" 35,0, 30,8.66025, 40,8.66025" style="fill:lime;stroke:purple;stroke-width:1" />
<polygon points =" 35,0, 40,8.66025, 45,0" style="fill:lime;stroke:purple;stroke-width:1" />
<polygon points =" 45,0, 40,8.66025, 50,8.66025" style="fill:lime;stroke:purple;stroke-width:1" />
<polygon points =" 45,0, 50,8.66025, 55,0" style="fill:lime;stroke:purple;stroke-width:1" />
<polygon points =" 55,0, 50,8.66025, 60,8.66025" style="fill:lime;stroke:purple;stroke-width:1" />
<polygon points =" 55,0, 60,8.66025, 65,0" style="fill:lime;stroke:purple;stroke-width:1" />
<polygon points =" 65,0, 60,8.66025, 70,8.66025" style="fill:lime;stroke:purple;stroke-width:1" />
<polygon points =" 65,0, 70,8.66025, 75,0" style="fill:lime;stroke:purple;stroke-width:1" />
<polygon points =" 75,0, 70,8.66025, 80,8.66025" style="fill:lime;stroke:purple;stroke-width:1" />
<polygon points =" 75,0, 80,8.66025, 85,0" style="fill:lime;stroke:purple;stroke-width:1" />
<polygon points =" 85,0, 80,8.66025, 90,8.66025" style="fill:lime;stroke:purple;stroke-width:1" />
<polygon points =" 85,0, 90,8.66025, 95,0" style="fill:lime;stroke:purple;stroke-width:1" />
<polygon points =" 95,0, 90,8.66025, 100,8.66025" style="fill:lime;stroke:purple;stroke-width:1" />
<polygon points =" 95,0, 100,8.66025, 105,0" style="fill:lime;stroke:purple;stroke-width:1" />
<polygon points =" 105,0, 100,8.66025, 110,8.66025" style="fill:lime;stroke:purple;stroke-width:1" />
<polygon points =" 105,0, 110,8.66025, 115,0" style="fill:lime;stroke:purple;stroke-width:1" />
<polygon points =" 115,0, 110,8.66025, 120,8.66025" style="fill:lime;stroke:purple;stroke-width:1" />
<polygon points =" 115,0, 120,8.66025, 125,0" style="fill:lime;stroke:purple;stroke-width:1" />
<polygon points =" 125,0, 120,8.66025, 130,8.66025" style="fill:lime;stroke:purple;stroke-width:1" />
<polygon points =" 125,0, 130,8.66025, 135,0" style="fill:lime;stroke:purple;stroke-width:1" />
<polygon points =" 135,0, 130,8.66025, 140,8.66025" style="fill:lime;stroke:purple;stroke-width:1" />
<polygon points =" 135,0, 140,8.66025, 145,0" style="fill:lime;stroke:purple;stroke-width:1" />
<polygon points =" 145,0, 140,8.66025, 150,8.66025" style="fill:lime;stroke:purple;stroke-width:1" />
<polygon points =" 145,0, 150,8.66025, 155,0" style="fill:lime;stroke:purple;stroke-width:1" />
<polygon points =" 155,0, 150,8.66025, 160,8.66025" style="fill:lime;stroke:purple;stroke-width:1" />
<polygon points =" 155,0, 160,8.66025, 165,0" style="fill:lime;stroke:purple;stroke-width:1" />
<polygon points =" 165,0, 160,8.66025, 170,8.66025" style="fill:lime;stroke:purple;stroke-width:1" />
<polygon points =" 165,0, 170,8.66025, 175,0" style="fill:lime;stroke:purple;stroke-width:1" />
<polygon points =" 175,0, 170,8.66025, 180,8.66025" style="fill:lime;stroke:purple;stroke-width:1" />
<polygon points =" 175,0, 180,8.66025, 185,0" style="fill:lime;stroke:purple;stroke-width:1" />
<polygon points =" 185,0, 180,8.66025, 190,8.66025" style="fill:lime;stroke:purple;stroke-width:1" />
<polygon points =" 185,0, 190,8.66025, 195,0" style="fill:lime;stroke:purple;stroke-width:1" />
<polygon points =" 195,0, 190,8.66025, 200,8.66025" style="fill:lime;stroke:purple;stroke-width:1" />
<polygon points =" 5,8.66025, 0,17.3205, 10,17.3205" style="fill:lime;stroke:purple;stroke-width:1" />
<polygon points =" 5,8.66025, 10,17.3205, 15,8.66025" style="fill:lime;stroke:purple;stroke-width:1" />
<polygon points =" 15,8.66025, 10,17.3205, 20,17.3205" style="fill:lime;stroke:purple;stroke-width:1" />
<polygon points =" 15,8.66025, 20,17.3205, 25,8.66025" style="fill:lime;stroke:purple;stroke-width:1" />
<polygon points =" 25,8.66025, 20,17.3205, 30,17.3205" style="fill:lime;stroke:purple;stroke-width:1" />
<polygon points =" 25,8.66025, 30,17.3205, 35,8.66025" style="fill:lime;stroke:purple;stroke-width:1" />
<polygon points =" 35,8.66025, 30,17.3205, 40,17.3205" style="fill:lime;stroke:purple;stroke-width:1" />
<polygon points =" 35,8.66025, 40,17.3205, 45,8.66025" style="fill:lime;stroke:purple;stroke-width:1" />
<polygon points =" 45,8.66025, 40,17.3205, 50,17.3205" style="fill:lime;stroke:purple;stroke-width:1" />
<polygon points =" 45,8.66025, 50,17.3205, 55,8.66025" style="fill:lime;stroke:purple;stroke-width:1" />
<polygon points =" 55,8.66025, 50,17.3205, 60,17.3205" style="fill:lime;stroke:purple;stroke-width:1" />
<polygon points =" 55,8.66025, 60,17.3205, 65,8.66025" style="fill:lime;stroke:purple;stroke-width:1" />
<polygon points =" 65,8.66025, 60,17.3205, 70,17.3205" style="fill:lime;stroke:purple;stroke-width:1" />
<polygon points =" 65,8.66025, 70,17.3205, 75,8.66025" style="fill:lime;stroke:purple;stroke-width:1" />
<polygon points =" 75,8.66025, 70,17.3205, 80,17.3205" style="fill:lime;stroke:purple;stroke-width:1" />
<polygon points =" 75,8.66025, 80,17.3205, 85,8.66025" style="fill:lime;stroke:purple;stroke-width:1" />
<polygon points =" 85,8.66025, 80,17.3205, 90,17.3205" style="fill:lime;stroke:purple;stroke-width:1" />
<polygon points =" 85,8.66025, 90,17.3205, 95,8.66025" style="fill:lime;stroke:purple;stroke-width:1" />
<polygon points =" 95,8.66025, 90,17.3205, 100,17.3205" style="fill:lime;stroke:purple;stroke-width:1" />
<polygon points =" 95,8.66025, 100,17.3205, 105,8.66025" style="fill:lime;stroke:purple;stroke-width:1" />
<polygon points =" 105,8.66025, 100,17.3205, 110,17.3205" style="fill:lime;stroke:purple;stroke-width:1" />
<polygon points =" 105,8.66025, 110,17.3205, 115,8.66025" style="fill:lime;stroke:purple;stroke-width:1" />
<polygon points =" 115,8.66025, 110,17.3205, 120,17.3205" style="fill:lime;stroke:purple;stroke-width:1" />
<polygon points =" 115,8.66025, 120,17.3205, 125,8.66025" style="fill:lime;stroke:purple;stroke-width:1" />
<polygon points =" 125,8.66025, 120,17.3205, 130,17.3205" style="fill:lime;stroke:purple;stroke-width:1" />
<polygon points =" 125,8.66025, 130,17.3205, 135,8.66025" style="fill:lime;stroke:purple;stroke-width:1" />
<polygon points =" 135,8.66025, 130,17.3205, 140,17.3205" style="fill:lime;stroke:purple;stroke-width:1" />
<polygon points =" 135,8.66025, 140,17.3205, 145,8.66025" style="fill:lime;stroke:purple;stroke-width:1" />
<polygon points =" 145,8.66025, 140,17.3205, 150,17.3205" style="fill:lime;stroke:purple;stroke-width:1" />
<polygon points =" 145,8.66025, 150,17.3205, 155,8.66025" style="fill:lime;stroke:purple;stroke-width:1" />
<polygon points =" 155,8.66025, 150,17.3205, 160,17.3205" style="fill:lime;stroke:purple;stroke-width:1" />
<polygon points =" 155,8.66025, 160,17.3205, 165,8.66025" style="fill:lime;stroke:purple;stroke-width:1" />
<polygon points =" 165,8.66025, 160,17.3205, 170,17.3205" style="fill:lime;stroke:purple;stroke-width:1" />
<polygon points =" 165,8.66025, 170,17.3205, 175,8.66025" style="fill:lime;stroke:purple;stroke-width:1" />
<polygon points =" 175,8.66025, 170,17.3205, 180,17.3205" style="fill:lime;stroke:purple;stroke-width:1" />
<polygon points =" 175,8.66025, 180,17.3205, 185,8.66025" style="fill:lime;stroke:purple;stroke-width:1" />
<polygon points =" 185,8.66025, 180,17.3205, 190,17.3205" style="fill:lime;stroke:purple;stroke-width:1" />
<polygon points =" 185,8.66025, 190,17.3205, 195,8.66025" style="fill:lime;stroke:purple;stroke-width:1" />
<polygon points =" 195,8.66025, 190,17.3205, 200,17.3205" style="fill:lime;stroke:purple;stroke-width:1" />
<polygon points =" 5,17.3205, 0,25.9808, 10,25.9808" style="fill:lime;stroke:purple;stroke-width:1" />
<polygon points =" 5,17.3205, 10,25.9808, 15,17.3205" style="fill:lime;stroke:purple;stroke-width:1" />
<polygon points =" 15,17.3205, 10,25.9808, 20,25.9808" style="fill:lime;stroke:purple;stroke-width:1" />
<polygon points =" 15,17.3205, 20,25.9808, 25,17.3205" style="fill:lime;stroke:purple;stroke-width:1" />
<polygon points =" 25,17.3205, 20,25.9808, 30,25.9808" style="fill:lime;stroke:purple;stroke-width:1" />
<polygon points =" 25,17.3205, 30,25.9808, 35,17.3205" style="fill:lime;stroke:purple;stroke-width:1" />
<polygon points =" 35,17.3205, 30,25.9808, 40,25.9808" style="fill:lime;stroke:purple;stroke-width:1" />
<polygon points =" 35,17.3205, 40,25.9808, 45,17.3205" style="fill:lime;stroke:purple;stroke-width:1" />
<polygon points =" 45,17.3205, 40,25.9808, 50,25.9808" style="fill:lime;stroke:purple;stroke-width:1" />
<polygon points =" 45,17.3205, 50,25.9808, 55,17.3205" style="fill:lime;stroke:purple;stroke-width:1" />
<polygon points =" 55,17.3205, 50,25.9808, 60,25.9808" style="fill:lime;stroke:purple;stroke-width:1" />
<polygon points =" 55,17.3205, 60,25.9808, 65,17.3205" style="fill:lime;stroke:purple;stroke-width:1" />
<polygon points =" 65,17.3205, 60,25.9808, 70,25.9808" style="fill:lime;stroke:purple;stroke-width:1" />
<polygon points =" 65,17.3205, 70,25.9808, 75,17.3205" style="fill:lime;stroke:purple;stroke-width:1" />
<polygon points =" 75,17.3205, 70,25.9808, 80,25.9808" style="fill:lime;stroke:purple;stroke-width:1" />
<polygon points =" 75,17.3205, 80,25.9808, 85,17.3205" style="fill:lime;stroke:purple;stroke-width:1" />
<polygon points =" 85,17.3205, 80,25.9808, 90,25.9808" style="fill:lime;stroke:purple;stroke-width:1" />
<polygon points =" 85,17.3205, 90,25.9808, 95,17.3205" style="fill:lime;stroke:purple;stroke-width:1" />
<polygon points =" 95,17.3205, 90,25.9808, 100,25.9808" style="fill:lime;stroke:purple;stroke-width:1" />
<polygon points =" 95,17.3205, 100,25.9808, 105,17.3205" style="fill:lime;stroke:purple;stroke-width:1" />
<polygon points =" 105,17.3205, 100,25.9808, 110,25.9808" style="fill:lime;stroke:purple;stroke-width:1" />
<polygon points =" 105,17.3205, 110,25.9808, 115,17.3205" style="fill:lime;stroke:purple;stroke-width:1" />
<polygon points =" 115,17.3205, 110,25.9808, 120,25.9808" style="fill:lime;stroke:purple;stroke-width:1" />
<polygon points =" 115,17.3205, 120,25.9808, 125,17.3205" style="fill:lime;stroke:purple;stroke-width:1" />
<polygon points =" 125,17.3205, 120,25.9808, 130,25.9808" style="fill:lime;stroke:purple;stroke-width:1" />
<polygon points =" 125,17.3205, 130,25.9808, 135,17.3205" style="fill:lime;stroke:purple;stroke-width:1" />
<polygon points =" 135,17.3205, 130,25.9808, 140,25.9808" style="fill:lime;stroke:purple;stroke-width:1" />
<polygon points =" 135,17.3205, 140,25.9808, 145,17.3205" style="fill:lime;stroke:purple;stroke-width:1" />
<polygon points =" 145,17.3205, 140,25.9808, 150,25.9808" style="fill:lime;stroke:purple;stroke-width:1" />
<polygon points =" 145,17.3205, 150,25.9808, 155,17.3205" style="fill:lime;stroke:purple;stroke-width:1" />
<polygon points =" 155,17.3205, 150,25.9808, 160,25.9808" style="fill:lime;stroke:purple;stroke-width:1" />
<polygon points =" 155,17.3205, 160,25.9808, 165,17.3205" style="fill:lime;stroke:purple;stroke-width:1" />
<polygon points =" 165,17.3205, 160,25.9808, 170,25.9808" style="fill:lime;stroke:purple;stroke-width:1" />
<polygon points =" 165,17.3205, 170,25.9808, 175,17.3205" style="fill:lime;stroke:purple;stroke-width:1" />
<polygon points =" 175,17.3205, 170,25.9808, 180,25.9808" style="fill:lime;stroke:purple;stroke-width:1" />
<polygon points =" 175,17.3205, 180,25.9808, 185,17.3205" style="fill:lime;stroke:purple;stroke-width:1" />
<polygon points =" 185,17.3205, 180,25.9808, 190,25.9808" style="fill:lime;stroke:purple;stroke-width:1" />
<polygon points =" 185,17.3205, 190,25.9808, 195,17.3205" style="fill:lime;stroke:purple;stroke-width:1" />
<polygon points =" 195,17.3205, 190,25.9808, 200,25.9808" style="fill:lime;stroke:purple;stroke-width:1" />
<polygon points =" 5,25.9808, 0,34.641, 10,34.641" style="fill:lime;stroke:purple;stroke-width:1" />
<polygon points =" 5,25.9808, 10,34.641, 15,25.9808" style="fill:lime;stroke:purple;stroke-width:1" />
<polygon points =" 15,25.9808, 10,34.641, 20,34.641" style="fill:lime;stroke:purple;stroke-width:1" />
<polygon points =" 15,25.9808, 20,34.641, 25,25.9808" style="fill:lime;stroke:purple;stroke-width:1" />
<polygon points =" 25,25.9808, 20,34.641, 30,34.641" style="fill:lime;stroke:purple;stroke-width:1" />
<polygon points =" 25,25.9808, 30,34.641, 35,25.9808" style="fill:lime;stroke:purple;stroke-width:1" />
<polygon points =" 35,25.9808, 30,34.641, 40,34.641" style="fill:lime;stroke:purple;stroke-width:1" />
<polygon points =" 35,25.9808, 40,34.641, 45,25.9808" style="fill:lime;stroke:purple;stroke-width:1" />
<polygon points =" 45,25.9808, 40,34.641, 50,34.641" style="fill:lime;stroke:purple;stroke-width:1" />
<polygon points =" 45,25.9808, 50,34.641, 55,25.9808" style="fill:lime;stroke:purple;stroke-width:1" />
<polygon points =" 55,25.9808, 50,34.641, 60,34.641" style="fill:lime;stroke:purple;stroke-width:1" />
<polygon points =" 55,25.9808, 60,34.641, 65,25.9808" style="fill:lime;stroke:purple;stroke-width:1" />
<polygon points =" 65,25.9808, 60,34.641, 70,34.641" style="fill:lime;stroke:purple;stroke-width:1" />
<polygon points =" 65,25.9808, 70,34.641, 75,25.9808" style="fill:lime;stroke:purple;stroke-width:1" />
<polygon points =" 75,25.9808, 70,34.641, 80,34.641" style="fill:lime;stroke:purple;stroke-width:1" />
<polygon points =" 75,25.9808, 80,34.641, 85,25.9808" style="fill:lime;stroke:purple;stroke-width:1" />
<polygon points =" 85,25.9808, 80,34.641, 90,34.641" style="fill:lime;stroke:purple;stroke-width:1" />
<polygon points =" 85,25.9808, 90,34.641, 95,25.9808" style="fill:lime;stroke:purple;stroke-width:1" />
<polygon points =" 95,25.9808, 90,34.641, 100,34.641" style="fill:lime;stroke:purple;stroke-width:1" />
<polygon points =" 95,25.9808, 100,34.641, 105,25.9808" style="fill:lime;stroke:purple;stroke-width:1" />
<polygon points =" 105,25.9808, 100,34.641, 110,34.641" style="fill:lime;stroke:purple;stroke-width:1" />
<polygon points =" 105,25.9808, 110,34.641, 115,25.9808" style="fill:lime;stroke:purple;stroke-width:1" />
<polygon points =" 115,25.9808, 110,34.641, 120,34.641" style="fill:lime;stroke:purple;stroke-width:1" />
<polygon points =" 115,25.9808, 120,34.641, 125,25.9808" style="fill:lime;stroke:purple;stroke-width:1" />
<polygon points =" 125,25.9808, 120,34.641, 130,34.641" style="fill:lime;stroke:purple;stroke-width:1" />
<polygon points =" 125,25.9808, 130,34.641, 135,25.9808" style="fill:lime;stroke:purple;stroke-width:1" />
<polygon points =" 135,25.9808, 130,34.641, 140,34.641" style="fill:lime;stroke:purple;stroke-width:1" />
<polygon points =" 135,25.9808, 140,34.641, 145,25.9808" style="fill:lime;stroke:purple;stroke-width:1" />
<polygon points =" 145,25.9808, 140,34.641, 150,34.641" style="fill:lime;stroke:purple;stroke-width:1" />
<polygon points =" 145,25.9808, 150,34.641, 155,25.9808" style="fill:lime;stroke:purple;stroke-width:1" />
<polygon points =" 155,25.9808, 150,34.641, 160,34.641" style="fill:lime;stroke:purple;stroke-width:1" />
<polygon points =" 155,25.9808, 160,34.641, 165,25.9808" style="fill:lime;stroke:purple;stroke-width:1" />
<polygon points =" 165,25.9808, 160,34.641, 170,34.641" style="fill:lime;stroke:purple;stroke-width:1" />
<polygon points =" 165,25.9808, 170,34.641, 175,25.9808" style="fill:lime;stroke:purple;stroke-width:1" />
<polygon points =" 175,25.9808, 170,34.641, 180,34.641" style="fill:lime;stroke:purple;stroke-width:1" />
<polygon points =" 175,25.9808, 180,34.641, 185,25.9808" style="fill:lime;stroke:purple;stroke-width:1" />
<polygon points =" 185,25.9808, 180,34.641, 190,34.641" style="fill:lime;stroke:purple;stroke-width:1" />
<polygon points =" 185,25.9808, 190,34.641, 195,25.9808" style="fill:lime;stroke:purple;stroke-width:1" />
<polygon points =" 195,25.9808, 190,34.641, 200,34.641" style="fill:lime;stroke:purple;stroke-width:1" />
<polygon points =" 5,34.641, 0,43.3013, 10,43.3013" style="fill:lime;stroke:purple;stroke-width:1" />
<polygon points =" 5,34.641, 10,43.3013, 15,34.641" style="fill:lime;stroke:purple;stroke-width:1" />
<polygon points =" 15,34.641, 10,43.3013, 20,43.3013" style="fill:lime;stroke:purple;stroke-width:1" />
<polygon points =" 15,34.641, 20,43.3013, 25,34.641" style="fill:lime;stroke:purple;stroke-width:1" />
<polygon points =" 25,34.641, 20,43.3013, 30,43.3013" style="fill:lime;stroke:purple;stroke-width:1" />
<polygon points =" 25,34.641, 30,43.3013, 35,34.641" style="fill:lime;stroke:purple;stroke-width:1" />
<polygon points =" 35,34.641, 30,43.3013, 40,43.3013" style="fill:lime;stroke:purple;stroke-width:1" />
<polygon points =" 35,34.641, 40,43.3013, 45,34.641" style="fill:lime;stroke:purple;stroke-width:1" />
<polygon points =" 45,34.641, 40,43.3013, 50,43.3013" style="fill:lime;stroke:purple;stroke-width:1" />
<polygon points =" 45,34.641, 50,43.3013, 55,34.641" style="fill:lime;stroke:purple;stroke-width:1" />
<polygon points =" 55,34.641, 50,43.3013, 60,43.3013" style="fill:lime;stroke:purple;stroke-width:1" />
<polygon points =" 55,34.641, 60,43.3013, 65,34.641" style="fill:lime;stroke:purple;stroke-width:1" />
<polygon points =" 65,34.641, 60,43.3013, 70,43.3013" style="fill:lime;stroke:purple;stroke-width:1" />
<polygon points =" 65,34.641, 70,43.3013, 75,34.641" style="fill:lime;stroke:purple;stroke-width:1" />
<polygon points =" 75,34.641, 70,43.3013, 80,43.3013" style="fill:lime;stroke:purple;stroke-width:1" />
<polygon points =" 75,34.641, 80,43.3013, 85,34.641" style="fill:lime;stroke:purple;stroke-width:1" />
<polygon points =" 85,34.641, 80,43.3013, 90,43.3013" style="fill:lime;stroke:purple;stroke-width:1" />
<polygon points =" 85,34.641, 90,43.3013, 95,34.641" style="fill:lime;stroke:purple;stroke-width:1" />
<polygon points =" 95,34.641, 90,43.3013, 100,43.3013" style="fill:lime;stroke:purple;stroke-width:1" />
<polygon points =" 95,34.641, 100,43.3013, 105,34.641" style="fill:lime;stroke:purple;stroke-width:1" />
<polygon points =" 105,34.641, 100,43.3013, 110,43.3013" style="fill:lime;stroke:purple;stroke-width:1" />
<polygon points =" 105,34.641, 110,43.3013, 115,34.641" style="fill:lime;stroke:purple;stroke-width:1" />
<polygon points =" 115,34.641, 110,43.3013, 120,43.3013" style="fill:lime;stroke:purple;stroke-width:1" />
<polygon points =" 115,34.641, 120,43.3013, 125,34.641" style="fill:lime;stroke:purple;stroke-width:1" />
<polygon points =" 125,34.641, 120,43.3013, 130,43.3013" style="fill:lime;stroke:purple;stroke-width:1" />
<polygon points =" 125,34.641, 130,43.3013, 135,34.641" style="fill:lime;stroke:purple;stroke-width:1" />
<polygon points =" 135,34.641, 130,43.3013, 140,43.3013" style="fill:lime;stroke:purple;stroke-width:1" />
<polygon points =" 135,34.641, 140,43.3013, 145,34.641" style="fill:lime;stroke:purple;stroke-width:1" />
<polygon points =" 145,34.641, 140,43.3013, 150,43.3013" style="fill:lime;stroke:purple;stroke-width:1" />
<polygon points =" 145,34.641, 150,43.3013, 155,34.641" style="fill:lime;stroke:purple;stroke-width:1" />
<polygon points =" 155,34.641, 150,43.3013, 160,43.3013" style="fill:lime;stroke:purple;stroke-width:1" />
<polygon points =" 155,34.641, 160,43.3013, 165,34.641" style="fill:lime;stroke:purple;stroke-width:1" />
<polygon points =" 165,34.641, 160,43.3013, 170,43.3013" style="fill:lime;stroke:purple;stroke-width:1" />
<polygon points =" 165,34.641, 170,43.3013, 175,34.641" style="fill:lime;stroke:purple;stroke-width:1" />
<polygon points =" 175,34.641, 170,43.3013, 180,43.3013" style="fill:lime;stroke:purple;stroke-width:1" />
<polygon points =" 175,34.641, 180,43.3013, 185,34.641" style="fill:lime;stroke:purple;stroke-width:1" />
<polygon points =" 185,34.641, 180,43.3013, 190,43.3013" style="fill:lime;stroke:purple;stroke-width:1" />
<polygon points =" 185,34.641, 190,43.3013, 195,34.641" style="fill:lime;stroke:purple;stroke-width:1" />
<polygon points =" 195,34.641, 190,43.3013, 200,43.3013" style="fill:lime;stroke:purple;stroke-width:1" />
<polygon points =" 5,43.3013, 0,51.9615, 10,51.9615" style="fill:lime;stroke:purple;stroke-width:1" />
<polygon points =" 5,43.3013, 10,51.9615, 15,43.3013" style="fill:lime;stroke:purple;stroke-width:1" />
<polygon points =" 15,43.3013, 10,51.9615, 20,51.9615" style="fill:lime;stroke:purple;stroke-width:1" />
<polygon points =" 15,43.3013, 20,51.9615, 25,43.3013" style="fill:lime;stroke:purple;stroke-width:1" />
<polygon points =" 25,43.3013, 20,51.9615, 30,51.9615" style="fill:lime;stroke:purple;stroke-width:1" />
<polygon points =" 25,43.3013, 30,51.9615, 35,43.3013" style="fill:lime;stroke:purple;stroke-width:1" />
<polygon points =" 35,43.3013, 30,51.9615, 40,51.9615" style="fill:lime;stroke:purple;stroke-width:1" />
<polygon points =" 35,43.3013, 40,51.9615, 45,43.3013" style="fill:lime;stroke:purple;stroke-width:1" />
<polygon points =" 45,43.3013, 40,51.9615, 50,51.9615" style="fill:lime;stroke:purple;stroke-width:1" />
<polygon points =" 45,43.3013, 50,51.9615, 55,43.3013" style="fill:lime;stroke:purple;stroke-width:1" />
<polygon points =" 55,43.3013, 50,51.9615, 60,51.9615" style="fill:lime;stroke:purple;stroke-width:1" />
<polygon points =" 55,43.3013, 60,51.9615, 65,43.3013" style="fill:lime;stroke:purple;stroke-width:1" />
<polygon points =" 65,43.3013, 60,51.9615, 70,51.9615" style="fill:lime;stroke:purple;stroke-width:1" />
<polygon points =" 65,43.3013, 70,51.9615, 75,43.3013" style="fill:lime;stroke:purple;stroke-width:1" />
<polygon points =" 75,43.3013, 70,51.9615, 80,51.9615" style="fill:lime;stroke:purple;stroke-width:1" />
<polygon points =" 75,43.3013, 80,51.9615, 85,43.3013" style="fill:lime;stroke:purple;stroke-width:1" />
<polygon points =" 85,43.3013, 80,51.9615, 90,51.9615" style="fill:lime;stroke:purple;stroke-width:1" />
<polygon points =" 85,43.3013, 90,51.9615, 95,43.3013" style="fill:lime;stroke:purple;stroke-width:1" />
<polygon points =" 95,43.3013, 90,51.9615, 100,51.9615" style="fill:lime;stroke:purple;stroke-width:1" />
<polygon points =" 95,43.3013, 100,51.9615, 105,43.3013" style="fill:lime;stroke:purple;stroke-width:1" />
<polygon points =" 105,43.3013, 100,51.9615, 110,51.9615" style="fill:lime;stroke:purple;stroke-width:1" />
<polygon points =" 105,43.3013, 110,51.9615, 115,43.3013" style="fill:lime;stroke:purple;stroke-width:1" />
<polygon points =" 115,43.3013, 110,51.9615, 120,51.9615" style="fill:lime;stroke:purple;stroke-width:1" />
<polygon points =" 115,43.3013, 120,51.9615, 125,43.3013" style="fill:lime;stroke:purple;stroke-width:1" />
<polygon points =" 125,43.3013, 120,51.9615, 130,51.9615" style="fill:lime;stroke:purple;stroke-width:1" />
<polygon points =" 125,43.3013, 130,51.9615, 135,43.3013" style="fill:lime;stroke:purple;stroke-width:1" />
<polygon points =" 135,43.3013, 130,51.9615, 140,51.9615" style="fill:lime;stroke:purple;stroke-width:1" />
<polygon points =" 135,43.3013, 140,51.9615, 145,43.3013" style="fill:lime;stroke:purple;stroke-width:1" />
<polygon points =" 145,43.3013, 140,51.9615, 150,51.9615" style="fill:lime;stroke:purple;stroke-width:1" />
<polygon points =" 145,43.3013, 150,51.9615, 155,43.3013" style="fill:lime;stroke:purple;stroke-width:1" />
<polygon points =" 155,43.3013, 150,51.9615, 160,51.9615" style="fill:lime;stroke:purple;stroke-width:1" />
<polygon points =" 155,43.3013, 160,51.9615, 165,43.3013" style="fill:lime;stroke:purple;stroke-width:1" />
<polygon points =" 165,43.3013, 160,51.9615, 170,51.9615" style="fill:lime;stroke:purple;stroke-width:1" />
<polygon points =" 165,43.3013, 170,51.9615, 175,43.3013" style="fill:lime;stroke:purple;stroke-width:1" />
<polygon points =" 175,43.3013, 170,51.9615, 180,51.9615" style="fill:lime;stroke:purple;stroke-width:1" />
<polygon points =" 175,43.3013, 180,51.9615, 185,43.3013" style="fill:lime;stroke:purple;stroke-width:1" />
<polygon points =" 185,43.3013, 180,51.9615, 190,51.9615" style="fill:lime;stroke:purple;stroke-width:1" />
<polygon points =" 185,43.3013, 190,51.9615, 195,43.3013" style="fill:lime;stroke:purple;stroke-width:1" />
<polygon points =" 195,43.3013, 190,51.9615, 200,51.9615" style="fill:lime;stroke:purple;stroke-width:1" />
<polygon points =" 5,51.9615, 0,60.6218, 10,60.6218" style="fill:lime;stroke:purple;stroke-width:1" />
<polygon points =" 5,51.9615, 10,60.6218, 15,51.9615" style="fill:lime;stroke:purple;stroke-width:1" />
<polygon points =" 15,51.9615, 10,60.6218, 20,60.6218" style="fill:lime;stroke:purple;stroke-width:1" />
<polygon points =" 15,51.9615, 20,60.6218, 25,51.9615" style="fill:lime;stroke:purple;stroke-width:1" />
<polygon points =" 25,51.9615, 20,60.6218, 30,60.6218" style="fill:lime;stroke:purple;stroke-width:1" />
<polygon points =" 25,51.9615, 30,60.6218, 35,51.9615" style="fill:lime;stroke:purple;stroke-width:1" />
<polygon points =" 35,51.9615, 30,60.6218, 40,60.6218" style="fill:lime;stroke:purple;stroke-width:1" />
<polygon points =" 35,51.9615, 40,60.6218, 45,51.9615" style="fill:lime;stroke:purple;stroke-width:1" />
<polygon points =" 45,51.9615, 40,60.6218, 50,60.6218" style="fill:lime;stroke:purple;stroke-width:1" />
<polygon points =" 45,51.9615, 50,60.6218, 55,51.9615" style="fill:lime;stroke:purple;stroke-width:1" />
<polygon points =" 55,51.9615, 50,60.6218, 60,60.6218" style="fill:lime;stroke:purple;stroke-width:1" />
<polygon points =" 55,51.9615, 60,60.6218, 65,51.9615" style="fill:lime;stroke:purple;stroke-width:1" />
<polygon points =" 65,51.9615, 60,60.6218, 70,60.6218" style="fill:lime;stroke:purple;stroke-width:1" />
<polygon points =" 65,51.9615, 70,60.6218, 75,51.9615" style="fill:lime;stroke:purple;stroke-width:1" />
<polygon points =" 75,51.9615, 70,60.6218, 80,60.6218" style="fill:lime;stroke:purple;stroke-width:1" />
<polygon points =" 75,51.9615, 80,60.6218, 85,51.9615" style="fill:lime;stroke:purple;stroke-width:1" />
<polygon points =" 85,51.9615, 80,60.6218, 90,60.6218" style="fill:lime;stroke:purple;stroke-width:1" />
<polygon points =" 85,51.9615, 90,60.6218, 95,51.9615" style="fill:lime;stroke:purple;stroke-width:1" />
<polygon points =" 95,51.9615, 90,60.6218, 100,60.6218" style="fill:lime;stroke:purple;stroke-width:1" />
<polygon points =" 95,51.9615, 100,60.6218, 105,51.9615" style="fill:lime;stroke:purple;stroke-width:1" />
<polygon points =" 105,51.9615, 100,60.6218, 110,60.6218" style="fill:lime;stroke:purple;stroke-width:1" />
<polygon points =" 105,51.9615, 110,60.6218, 115,51.9615" style="fill:lime;stroke:purple;stroke-width:1" />
<polygon points =" 115,51.9615, 110,60.6218, 120,60.6218" style="fill:lime;stroke:purple;stroke-width:1" />
<polygon points =" 115,51.9615, 120,60.6218, 125,51.9615" style="fill:lime;stroke:purple;stroke-width:1" />
<polygon points =" 125,51.9615, 120,60.6218, 130,60.6218" style="fill:lime;stroke:purple;stroke-width:1" />
<polygon points =" 125,51.9615, 130,60.6218, 135,51.9615" style="fill:lime;stroke:purple;stroke-width:1" />
<polygon points =" 135,51.9615, 130,60.6218, 140,60.6218" style="fill:lime;stroke:purple;stroke-width:1" />
<polygon points =" 135,51.9615, 140,60.6218, 145,51.9615" style="fill:lime;stroke:purple;stroke-width:1" />
<polygon points =" 145,51.9615, 140,60.6218, 150,60.6218" style="fill:lime;stroke:purple;stroke-width:1" />
<polygon points =" 145,51.9615, 150,60.6218, 155,51.9615" style="fill:lime;stroke:purple;stroke-width:1" />
<polygon points =" 155,51.9615, 150,60.6218, 160,60.6218" style="fill:lime;stroke:purple;stroke-width:1" />
<polygon points =" 155,51.9615, 160,60.6218, 165,51.9615" style="fill:lime;stroke:purple;stroke-width:1" />
<polygon points =" 165,51.9615, 160,60.6218, 170,60.6218" style="fill:lime;stroke:purple;stroke-width:1" />
<polygon points =" 165,51.9615, 170,60.6218, 175,51.9615" style="fill:lime;stroke:purple;stroke-width:1" />
<polygon points =" 175,51.9615, 170,60.6218, 180,60.6218" style="fill:lime;stroke:purple;stroke-width:1" />
<polygon points =" 175,51.9615, 180,60.6218, 185,51.9615" style="fill:lime;stroke:purple;stroke-width:1" />
<polygon points =" 185,51.9615, 180,60.6218, 190,60.6218" style="fill:lime;stroke:purple;stroke-width:1" />
<polygon points =" 185,51.9615, 190,60.6218, 195,51.9615" style="fill:lime;stroke:purple;stroke-width:1" />
<polygon points =" 195,51.9615, 190,60.6218, 200,60.6218" style="fill:lime;stroke:purple;stroke-width:1" />
<polygon points =" 5,60.6218, 0,69.282, 10,69.282" style="fill:lime;stroke:purple;stroke-width:1" />
<polygon points =" 5,60.6218, 10,69.282, 15,60.6218" style="fill:lime;stroke:purple;stroke-width:1" />
<polygon points =" 15,60.6218, 10,69.282, 20,69.282" style="fill:lime;stroke:purple;stroke-width:1" />
<polygon points =" 15,60.6218, 20,69.282, 25,60.6218" style="fill:lime;stroke:purple;stroke-width:1" />
<polygon points =" 25,60.6218, 20,69.282, 30,69.282" style="fill:lime;stroke:purple;stroke-width:1" />
<polygon points =" 25,60.6218, 30,69.282, 35,60.6218" style="fill:lime;stroke:purple;stroke-width:1" />
<polygon points =" 35,60.6218, 30,69.282, 40,69.282" style="fill:lime;stroke:purple;stroke-width:1" />
<polygon points =" 35,60.6218, 40,69.282, 45,60.6218" style="fill:lime;stroke:purple;stroke-width:1" />
<polygon points =" 45,60.6218, 40,69.282, 50,69.282" style="fill:lime;stroke:purple;stroke-width:1" />
<polygon points =" 45,60.6218, 50,69.282, 55,60.6218" style="fill:lime;stroke:purple;stroke-width:1" />
<polygon points =" 55,60.6218, 50,69.282, 60,69.282" style="fill:lime;stroke:purple;stroke-width:1" />
<polygon points =" 55,60.6218, 60,69.282, 65,60.6218" style="fill:lime;stroke:purple;stroke-width:1" />
<polygon points =" 65,60.6218, 60,69.282, 70,69.282" style="fill:lime;stroke:purple;stroke-width:1" />
<polygon points =" 65,60.6218, 70,69.282, 75,60.6218" style="fill:lime;stroke:purple;stroke-width:1" />
<polygon points =" 75,60.6218, 70,69.282, 80,69.282" style="fill:lime;stroke:purple;stroke-width:1" />
<polygon points =" 75,60.6218, 80,69.282, 85,60.6218" style="fill:lime;stroke:purple;stroke-width:1" />
<polygon points =" 85,60.6218, 80,69.282, 90,69.282" style="fill:lime;stroke:purple;stroke-width:1" />
<polygon points =" 85,60.6218, 90,69.282, 95,60.6218" style="fill:lime;stroke:purple;stroke-width:1" />
<polygon points =" 95,60.6218, 90,69.282, 100,69.282" style="fill:lime;stroke:purple;stroke-width:1" />
<polygon points =" 95,60.6218, 100,69.282, 105,60.6218" style="fill:lime;stroke:purple;stroke-width:1" />
<polygon points =" 105,60.6218, 100,69.282, 110,69.282" style="fill:lime;stroke:purple;stroke-width:1" />
<polygon points =" 105,60.6218, 110,69.282, 115,60.6218" style="fill:lime;stroke:purple;stroke-width:1" />
<polygon points =" 115,60.6218, 110,69.282, 120,69.282" style="fill:lime;stroke:purple;stroke-width:1" />
<polygon points =" 115,60.6218, 120,69.282, 125,60.6218" style="fill:lime;stroke:purple;stroke-width:1" />
<polygon points =" 125,60.6218, 120,69.282, 130,69.282" style="fill:lime;stroke:purple;stroke-width:1" />
<polygon points =" 125,60.6218, 130,69.282, 135,60.6218" style="fill:lime;stroke:purple;stroke-width:1" />
<polygon points =" 135,60.6218, 130,69.282, 140,69.282" style="fill:lime;stroke:purple;stroke-width:1" />
<polygon points =" 135,60.6218, 140,69.282, 145,60.6218" style="fill:lime;stroke:purple;stroke-width:1" />
<polygon points =" 145,60.6218, 140,69.282, 150,69.282" style="fill:lime;stroke:purple;stroke-width:1" />
<polygon points =" 145,60.6218, 150,69.282, 155,60.6218" style="fill:lime;stroke:purple;stroke-width:1" />
<polygon points =" 155,60.6218, 150,69.282, 160,69.282" style="fill:lime;stroke:purple;stroke-width:1" />
<polygon points =" 155,60.6218, 160,69.282, 165,60.6218" style="fill:lime;stroke:purple;stroke-width:1" />
<polygon points =" 165,60.6218, 160,69.282, 170,69.282" style="fill:lime;stroke:purple;stroke-width:1" />
<polygon points =" 165,60.6218, 170,69.282, 175,60.6218" style="fill:lime;stroke:purple;stroke-width:1" />
<polygon points =" 175,60.6218, 170,69.282, 180,69.282" style="fill:lime;stroke:purple;stroke-width:1" />
<polygon points =" 175,60.6218, 180,69.282, 185,60.6218" style="fill:lime;stroke:purple;stroke-width:1" />
<polygon points =" 185,60.6218, 180,69.282, 190,69.282" style="fill:lime;stroke:purple;stroke-width:1" />
<polygon points =" 185,60.6218, 190,69.282, 195,60.6218" style="fill:lime;stroke:purple;stroke-width:1" />
<polygon points =" 195,60.6218, 190,69.282, 200,69.282" style="fill:lime;stroke:purple;stroke-width:1" />
<polygon points =" 5,69.282, 0,77.9423, 10,77.9423" style="fill:lime;stroke:purple;stroke-width:1" />
<polygon points =" 5,69.282, 10,77.9423, 15,69.282" style="fill:lime;stroke:purple;stroke-width:1" />
<polygon points =" 15,69.282, 10,77.9423, 20,77.9423" style="fill:lime;stroke:purple;stroke-width:1" />
<polygon points =" 15,69.282, 20,77.9423, 25,69.282" style="fill:lime;stroke:purple;stroke-width:1" />
<polygon points =" 25,69.282, 20,77.9423, 30,77.9423" style="fill:lime;stroke:purple;stroke-width:1" />
<polygon points =" 25,69.282, 30,77.9423, 35,69.282" style="fill:lime;stroke:purple;stroke-width:1" />
<polygon points =" 35,69.282, 30,77.9423, 40,77.9423" style="fill:lime;stroke:purple;stroke-width:1" />
<polygon points =" 35,69.282, 40,77.9423, 45,69.282" style="fill:lime;stroke:purple;stroke-width:1" />
<polygon points =" 45,69.282, 40,77.9423, 50,77.9423" style="fill:lime;stroke:purple;stroke-width:1" />
<polygon points =" 45,69.282, 50,77.9423, 55,69.282" style="fill:lime;stroke:purple;stroke-width:1" />
<polygon points =" 55,69.282, 50,77.9423, 60,77.9423" style="fill:lime;stroke:purple;stroke-width:1" />
<polygon points =" 55,69.282, 60,77.9423, 65,69.282" style="fill:lime;stroke:purple;stroke-width:1" />
<polygon points =" 65,69.282, 60,77.9423, 70,77.9423" style="fill:lime;stroke:purple;stroke-width:1" />
<polygon points =" 65,69.282, 70,77.9423, 75,69.282" style="fill:lime;stroke:purple;stroke-width:1" />
<polygon points =" 75,69.282, 70,77.9423, 80,77.9423" style="fill:lime;stroke:purple;stroke-width:1" />
<polygon points =" 75,69.282, 80,77.9423, 85,69.282" style="fill:lime;stroke:purple;stroke-width:1" />
<polygon points =" 85,69.282, 80,77.9423, 90,77.9423" style="fill:lime;stroke:purple;stroke-width:1" />
<polygon points =" 85,69.282, 90,77.9423, 95,69.282" style="fill:lime;stroke:purple;stroke-width:1" />
<polygon points =" 95,69.282, 90,77.9423, 100,77.9423" style="fill:lime;stroke:purple;stroke-width:1" />
<polygon points =" 95,69.282, 100,77.9423, 105,69.282" style="fill:lime;stroke:purple;stroke-width:1" />
<polygon points =" 105,69.282, 100,77.9423, 110,77.9423" style="fill:lime;stroke:purple;stroke-width:1" />
<polygon points =" 105,69.282, 110,77.9423, 115,69.282" style="fill:lime;stroke:purple;stroke-width:1" />
<polygon points =" 115,69.282, 110,77.9423, 120,77.9423" style="fill:lime;stroke:purple;stroke-width:1" />
<polygon points =" 115,69.282, 120,77.9423, 125,69.282" style="fill:lime;stroke:purple;stroke-width:1" />
<polygon points =" 125,69.282, 120,77.9423, 130,77.9423" style="fill:lime;stroke:purple;stroke-width:1" />
<polygon points =" 125,69.282, 130,77.9423, 135,69.282" style="fill:lime;stroke:purple;stroke-width:1" />
<polygon points =" 135,69.282, 130,77.9423, 140,77.9423" style="fill:lime;stroke:purple;stroke-width:1" />
<polygon points =" 135,69.282, 140,77.9423, 145,69.282" style="fill:lime;stroke:purple;stroke-width:1" />
<polygon points =" 145,69.282, 140,77.9423, 150,77.9423" style="fill:lime;stroke:purple;stroke-width:1" />
<polygon points =" 145,69.282, 150,77.9423, 155,69.282" style="fill:lime;stroke:purple;stroke-width:1" />
<polygon points =" 155,69.282, 150,77.9423, 160,77.9423" style="fill:lime;stroke:purple;stroke-width:1" />
<polygon points =" 155,69.282, 160,77.9423, 165,69.282" style="fill:lime;stroke:purple;stroke-width:1" />
<polygon points =" 165,69.282, 160,77.9423, 170,77.9423" style="fill:lime;stroke:purple;stroke-width:1" />
<polygon points =" 165,69.282, 170,77.9423, 175,69.282" style="fill:lime;stroke:purple;stroke-width:1" />
<polygon points =" 175,69.282, 170,77.9423, 180,77.9423" style="fill:lime;stroke:purple;stroke-width:1" />
<polygon points =" 175,69.282, 180,77.9423, 185,69.282" style="fill:lime;stroke:purple;stroke-width:1" />
<polygon points =" 185,69.282, 180,77.9423, 190,77.9423" style="fill:lime;stroke:purple;stroke-width:1" />
<polygon points =" 185,69.282, 190,77.9423, 195,69.282" style="fill:lime;stroke:purple;stroke-width:1" />
<polygon points =" 195,69.282, 190,77.9423, 200,77.9423" style="fill:lime;stroke:purple;stroke-width:1" />
<polygon points =" 5,77.9423, 0,86.6025, 10,86.6025" style="fill:lime;stroke:purple;stroke-width:1" />
<polygon points =" 5,77.9423, 10,86.6025, 15,77.9423" style="fill:lime;stroke:purple;stroke-width:1" />
<polygon points =" 15,77.9423, 10,86.6025, 20,86.6025" style="fill:lime;stroke:purple;stroke-width:1" />
<polygon points =" 15,77.9423, 20,86.6025, 25,77.9423" style="fill:lime;stroke:purple;stroke-width:1" />
<polygon points =" 25,77.9423, 20,86.6025, 30,86.6025" style="fill:lime;stroke:purple;stroke-width:1" />
<polygon points =" 25,77.9423, 30,86.6025, 35,77.9423" style="fill:lime;stroke:purple;stroke-width:1" />
<polygon points =" 35,77.9423, 30,86.6025, 40,86.6025" style="fill:lime;stroke:purple;stroke-width:1" />
<polygon points =" 35,77.9423, 40,86.6025, 45,77.9423" style="fill:lime;stroke:purple;stroke-width:1" />
<polygon points =" 45,77.9423, 40,86.6025, 50,86.6025" style="fill:lime;stroke:purple;stroke-width:1" />
<polygon points =" 45,77.9423, 50,86.6025, 55,77.9423" style="fill:lime;stroke:purple;stroke-width:1" />
<polygon points =" 55,77.9423, 50,86.6025, 60,86.6025" style="fill:lime;stroke:purple;stroke-width:1" />
<polygon points =" 55,77.9423, 60,86.6025, 65,77.9423" style="fill:lime;stroke:purple;stroke-width:1" />
<polygon points =" 65,77.9423, 60,86.6025, 70,86.6025" style="fill:lime;stroke:purple;stroke-width:1" />
<polygon points =" 65,77.9423, 70,86.6025, 75,77.9423" style="fill:lime;stroke:purple;stroke-width:1" />
<polygon points =" 75,77.9423, 70,86.6025, 80,86.6025" style="fill:lime;stroke:purple;stroke-width:1" />
<polygon points =" 75,77.9423, 80,86.6025, 85,77.9423" style="fill:lime;stroke:purple;stroke-width:1" />
<polygon points =" 85,77.9423, 80,86.6025, 90,86.6025" style="fill:lime;stroke:purple;stroke-width:1" />
<polygon points =" 85,77.9423, 90,86.6025, 95,77.9423" style="fill:lime;stroke:purple;stroke-width:1" />
<polygon points =" 95,77.9423, 90,86.6025, 100,86.6025" style="fill:lime;stroke:purple;stroke-width:1" />
<polygon points =" 95,77.9423, 100,86.6025, 105,77.9423" style="fill:lime;stroke:purple;stroke-width:1" />
<polygon points =" 105,77.9423, 100,86.6025, 110,86.6025" style="fill:lime;stroke:purple;stroke-width:1" />
<polygon points =" 105,77.9423, 110,86.6025, 115,77.9423" style="fill:lime;stroke:purple;stroke-width:1" />
<polygon points =" 115,77.9423, 110,86.6025, 120,86.6025" style="fill:lime;stroke:purple;stroke-width:1" />
<polygon points =" 115,77.9423, 120,86.6025, 125,77.9423" style="fill:lime;stroke:purple;stroke-width:1" />
<polygon points =" 125,77.9423, 120,86.6025, 130,86.6025" style="fill:lime;stroke:purple;stroke-width:1" />
<polygon points =" 125,77.9423, 130,86.6025, 135,77.9423" style="fill:lime;stroke:purple;stroke-width:1" />
<polygon points =" 135,77.9423, 130,86.6025, 140,86.6025" style="fill:lime;stroke:purple;stroke-width:1" />
<polygon points =" 135,77.9423, 140,86.6025, 145,77.9423" style="fill:lime;stroke:purple;stroke-width:1" />
<polygon points =" 145,77.9423, 140,86.6025, 150,86.6025" style="fill:lime;stroke:purple;stroke-width:1" />
<polygon points =" 145,77.9423, 150,86.6025, 155,77.9423" style="fill:lime;stroke:purple;stroke-width:1" />
<polygon points =" 155,77.9423, 150,86.6025, 160,86.6025" style="fill:lime;stroke:purple;stroke-width:1" />
<polygon points =" 155,77.9423, 160,86.6025, 165,77.9423" style="fill:lime;stroke:purple;stroke-width:1" />
<polygon points =" 165,77.9423, 160,86.6025, 170,86.6025" style="fill:lime;stroke:purple;stroke-width:1" />
<polygon points =" 165,77.9423, 170,86.6025, 175,77.9423" style="fill:lime;stroke:purple;stroke-width:1" />
<polygon points =" 175,77.9423, 170,86.6025, 180,86.6025" style="fill:lime;stroke:purple;stroke-width:1" />
<polygon points =" 175,77.9423, 180,86.6025, 185,77.9423" style="fill:lime;stroke:purple;stroke-width:1" />
<polygon points =" 185,77.9423, 180,86.6025, 190,86.6025" style="fill:lime;stroke:purple;stroke-width:1" />
<polygon points =" 185,77.9423, 190,86.6025, 195,77.9423" style="fill:lime;stroke:purple;stroke-width:1" />
<polygon points =" 195,77.9423, 190,86.6025, 200,86.6025" style="fill:lime;stroke:purple;stroke-width:1" />
<polygon points =" 5,86.6025, 0,95.2628, 10,95.2628" style="fill:lime;stroke:purple;stroke-width:1" />
<polygon points =" 5,86.6025, 10,95.2628, 15,86.6025" style="fill:lime;stroke:purple;stroke-width:1" />
<polygon points =" 15,86.6025, 10,95.2628, 20,95.2628" style="fill:lime;stroke:purple;stroke-width:1" />
<polygon points =" 15,86.6025, 20,95.2628, 25,86.6025" style="fill:lime;stroke:purple;stroke-width:1" />
<polygon points =" 25,86.6025, 20,95.2628, 30,95.2628" style="fill:lime;stroke:purple;stroke-width:1" />
<polygon points =" 25,86.6025, 30,95.2628, 35,86.6025" style="fill:lime;stroke:purple;stroke-width:1" />
<polygon points =" 35,86.6025, 30,95.2628, 40,95.2628" style="fill:lime;stroke:purple;stroke-width:1" />
<polygon points =" 35,86.6025, 40,95.2628, 45,86.6025" style="fill:lime;stroke:purple;stroke-width:1" />
<polygon points =" 45,86.6025, 40,95.2628, 50,95.2628" style="fill:lime;stroke:purple;stroke-width:1" />
<polygon points =" 45,86.6025, 50,95.2628, 55,86.6025" style="fill:lime;stroke:purple;stroke-width:1" />
<polygon points =" 55,86.6025, 50,95.2628, 60,95.2628" style="fill:lime;stroke:purple;stroke-width:1" />
<polygon points =" 55,86.6025, 60,95.2628, 65,86.6025" style="fill:lime;stroke:purple;stroke-width:1" />
<polygon points =" 65,86.6025, 60,95.2628, 70,95.2628" style="fill:lime;stroke:purple;stroke-width:1" />
<polygon points =" 65,86.6025, 70,95.2628, 75,86.6025" style="fill:lime;stroke:purple;stroke-width:1" />
<polygon points =" 75,86.6025, 70,95.2628, 80,95.2628" style="fill:lime;stroke:purple;stroke-width:1" />
<polygon points =" 75,86.6025, 80,95.2628, 85,86.6025" style="fill:lime;stroke:purple;stroke-width:1" />
<polygon points =" 85,86.6025, 80,95.2628, 90,95.2628" style="fill:lime;stroke:purple;stroke-width:1" />
<polygon points =" 85,86.6025, 90,95.2628, 95,86.6025" style="fill:lime;stroke:purple;stroke-width:1" />
<polygon points =" 95,86.6025, 90,95.2628, 100,95.2628" style="fill:lime;stroke:purple;stroke-width:1" />
<polygon points =" 95,86.6025, 100,95.2628, 105,86.6025" style="fill:lime;stroke:purple;stroke-width:1" />
<polygon points =" 105,86.6025, 100,95.2628, 110,95.2628" style="fill:lime;stroke:purple;stroke-width:1" />
<polygon points =" 105,86.6025, 110,95.2628, 115,86.6025" style="fill:lime;stroke:purple;stroke-width:1" />
<polygon points =" 115,86.6025, 110,95.2628, 120,95.2628" style="fill:lime;stroke:purple;stroke-width:1" />
<polygon points =" 115,86.6025, 120,95.2628, 125,86.6025" style="fill:lime;stroke:purple;stroke-width:1" />
<polygon points =" 125,86.6025, 120,95.2628, 130,95.2628" style="fill:lime;stroke:purple;stroke-width:1" />
<polygon points =" 125,86.6025, 130,95.2628, 135,86.6025" style="fill:lime;stroke:purple;stroke-width:1" />
<polygon points =" 135,86.6025, 130,95.2628, 140,95.2628" style="fill:lime;stroke:purple;stroke-width:1" />
<polygon points =" 135,86.6025, 140,95.2628, 145,86.6025" style="fill:lime;stroke:purple;stroke-width:1" />
<polygon points =" 145,86.6025, 140,95.2628, 150,95.2628" style="fill:lime;stroke:purple;stroke-width:1" />
<polygon points =" 145,86.6025, 150,95.2628, 155,86.6025" style="fill:lime;stroke:purple;stroke-width:1" />
<polygon points =" 155,86.6025, 150,95.2628, 160,95.2628" style="fill:lime;stroke:purple;stroke-width:1" />
<polygon points =" 155,86.6025, 160,95.2628, 165,86.6025" style="fill:lime;stroke:purple;stroke-width:1" />
<polygon points =" 165,86.6025, 160,95.2628, 170,95.2628" style="fill:lime;stroke:purple;stroke-width:1" />
<polygon points =" 165,86.6025, 170,95.2628, 175,86.6025" style="fill:lime;stroke:purple;stroke-width:1" />
<polygon points =" 175,86.6025, 170,95.2628, 180,95.2628" style="fill:lime;stroke:purple;stroke-width:1" />
<polygon points =" 175,86.6025, 180,95.2628, 185,86.6025" style="fill:lime;stroke:purple;stroke-width:1" />
<polygon points =" 185,86.6025, 180,95.2628, 190,95.2628" style="fill:lime;stroke:purple;stroke-width:1" />
<polygon points =" 185,86.6025, 190,95.2628, 195,86.6025" style="fill:lime;stroke:purple;stroke-width:1" />
<polygon points =" 195,86.6025, 190,95.2628, 200,95.2628" style="fill:lime;stroke:purple;stroke-width:1" />
</svg>
