<?xml version="1.0" standalone="no"?>
<svg width="300" height="300" version="1.1" xmlns="http://www.w3.org/2000/svg">
<polygon points="100.000000 0.000000 0.000000 173.205081 200.000000 173.205081" stroke="green" fill="brown"/>
<polygon points =" 5,164.545, 0,173.205, 10,173.205" style="fill:lime;stroke:purple;stroke-width:1" />
<polygon points =" 5,164.545, 10,173.205, 15,164.545" style="fill:lime;stroke:purple;stroke-width:1" />
<polygon points =" 15,164.545, 10,173.205, 20,173.205" style="fill:lime;stroke:purple;stroke-width:1" />
<polygon points =" 15,164.545, 20,173.205, 25,164.545" style="fill:lime;stroke:purple;stroke-width:1" />
<polygon points =" 25,164.545, 20,173.205, 30,173.205" style="fill:lime;stroke:purple;stroke-width:1" />
<polygon points =" 25,164.545, 30,173.205, 35,164.545" style="fill:lime;stroke:purple;stroke-width:1" />
<polygon points =" 35,164.545, 30,173.205, 40,173.205" style="fill:lime;stroke:purple;stroke-width:1" />
<polygon points =" 35,164.545, 40,173.205, 45,164.545" style="fill:lime;stroke:purple;stroke-width:1" />
<polygon points =" 45,164.545, 40,173.205, 50,173.205" style="fill:lime;stroke:purple;stroke-width:1" />
<polygon points =" 45,164.545, 50,173.205, 55,164.545" style="fill:lime;stroke:purple;stroke-width:1" />
<polygon points =" 55,164.545, 50,173.205, 60,173.205" style="fill:lime;stroke:purple;stroke-width:1" />
<polygon points =" 55,164.545, 60,173.205, 65,164.545" style="fill:lime;stroke:purple;stroke-width:1" />
<polygon points =" 65,164.545, 60,173.205, 70,173.205" style="fill:lime;stroke:purple;stroke-width:1" />
<polygon points =" 65,164.545, 70,173.205, 75,164.545" style="fill:lime;stroke:purple;stroke-width:1" />
<polygon points =" 75,164.545, 70,173.205, 80,173.205" style="fill:lime;stroke:purple;stroke-width:1" />
<polygon points =" 75,164.545, 80,173.205, 85,164.545" style="fill:lime;stroke:purple;stroke-width:1" />
<polygon points =" 85,164.545, 80,173.205, 90,173.205" style="fill:lime;stroke:purple;stroke-width:1" />
<polygon points =" 85,164.545, 90,173.205, 95,164.545" style="fill:lime;stroke:purple;stroke-width:1" />
<polygon points =" 95,164.545, 90,173.205, 100,173.205" style="fill:lime;stroke:purple;stroke-width:1" />
<polygon points =" 95,164.545, 100,173.205, 105,164.545" style="fill:lime;stroke:purple;stroke-width:1" />
<polygon points =" 105,164.545, 100,173.205, 110,173.205" style="fill:lime;stroke:purple;stroke-width:1" />
<polygon points =" 105,164.545, 110,173.205, 115,164.545" style="fill:lime;stroke:purple;stroke-width:1" />
<polygon points =" 115,164.545, 110,173.205, 120,173.205" style="fill:lime;stroke:purple;stroke-width:1" />
<polygon points =" 115,164.545, 120,173.205, 125,164.545" style="fill:lime;stroke:purple;stroke-width:1" />
<polygon points =" 125,164.545, 120,173.205, 130,173.205" style="fill:lime;stroke:purple;stroke-width:1" />
<polygon points =" 125,164.545, 130,173.205, 135,164.545" style="fill:lime;stroke:purple;stroke-width:1" />
<polygon points =" 135,164.545, 130,173.205, 140,173.205" style="fill:lime;stroke:purple;stroke-width:1" />
<polygon points =" 135,164.545, 140,173.205, 145,164.545" style="fill:lime;stroke:purple;stroke-width:1" />
<polygon points =" 145,164.545, 140,173.205, 150,173.205" style="fill:lime;stroke:purple;stroke-width:1" />
<polygon points =" 145,164.545, 150,173.205, 155,164.545" style="fill:lime;stroke:purple;stroke-width:1" />
<polygon points =" 155,164.545, 150,173.205, 160,173.205" style="fill:lime;stroke:purple;stroke-width:1" />
<polygon points =" 155,164.545, 160,173.205, 165,164.545" style="fill:lime;stroke:purple;stroke-width:1" />
<polygon points =" 165,164.545, 160,173.205, 170,173.205" style="fill:lime;stroke:purple;stroke-width:1" />
<polygon points =" 165,164.545, 170,173.205, 175,164.545" style="fill:lime;stroke:purple;stroke-width:1" />
<polygon points =" 175,164.545, 170,173.205, 180,173.205" style="fill:lime;stroke:purple;stroke-width:1" />
<polygon points =" 175,164.545, 180,173.205, 185,164.545" style="fill:lime;stroke:purple;stroke-width:1" />
<polygon points =" 185,164.545, 180,173.205, 190,173.205" style="fill:lime;stroke:purple;stroke-width:1" />
<polygon points =" 185,164.545, 190,173.205, 195,164.545" style="fill:lime;stroke:purple;stroke-width:1" />
<polygon points =" 195,164.545, 190,173.205, 200,173.205" style="fill:lime;stroke:purple;stroke-width:1" />
<polygon points =" 10,155.885, 5,164.545, 15,164.545" style="fill:lime;stroke:purple;stroke-width:1" />
<polygon points =" 10,155.885, 15,164.545, 20,155.885" style="fill:lime;stroke:purple;stroke-width:1" />
<polygon points =" 20,155.885, 15,164.545, 25,164.545" style="fill:lime;stroke:purple;stroke-width:1" />
<polygon points =" 20,155.885, 25,164.545, 30,155.885" style="fill:lime;stroke:purple;stroke-width:1" />
<polygon points =" 30,155.885, 25,164.545, 35,164.545" style="fill:lime;stroke:purple;stroke-width:1" />
<polygon points =" 30,155.885, 35,164.545, 40,155.885" style="fill:lime;stroke:purple;stroke-width:1" />
<polygon points =" 40,155.885, 35,164.545, 45,164.545" style="fill:lime;stroke:purple;stroke-width:1" />
<polygon points =" 40,155.885, 45,164.545, 50,155.885" style="fill:lime;stroke:purple;stroke-width:1" />
<polygon points =" 50,155.885, 45,164.545, 55,164.545" style="fill:lime;stroke:purple;stroke-width:1" />
<polygon points =" 50,155.885, 55,164.545, 60,155.885" style="fill:lime;stroke:purple;stroke-width:1" />
<polygon points =" 60,155.885, 55,164.545, 65,164.545" style="fill:lime;stroke:purple;stroke-width:1" />
<polygon points =" 60,155.885, 65,164.545, 70,155.885" style="fill:lime;stroke:purple;stroke-width:1" />
<polygon points =" 70,155.885, 65,164.545, 75,164.545" style="fill:lime;stroke:purple;stroke-width:1" />
<polygon points =" 70,155.885, 75,164.545, 80,155.885" style="fill:lime;stroke:purple;stroke-width:1" />
<polygon points =" 80,155.885, 75,164.545, 85,164.545" style="fill:lime;stroke:purple;stroke-width:1" />
<polygon points =" 80,155.885, 85,164.545, 90,155.885" style="fill:lime;stroke:purple;stroke-width:1" />
<polygon points =" 90,155.885, 85,164.545, 95,164.545" style="fill:lime;stroke:purple;stroke-width:1" />
<polygon points =" 90,155.885, 95,164.545, 100,155.885" style="fill:lime;stroke:purple;stroke-width:1" />
<polygon points =" 100,155.885, 95,164.545, 105,164.545" style="fill:lime;stroke:purple;stroke-width:1" />
<polygon points =" 100,155.885, 105,164.545, 110,155.885" style="fill:lime;stroke:purple;stroke-width:1" />
<polygon points =" 110,155.885, 105,164.545, 115,164.545" style="fill:lime;stroke:purple;stroke-width:1" />
<polygon points =" 110,155.885, 115,164.545, 120,155.885" style="fill:lime;stroke:purple;stroke-width:1" />
<polygon points =" 120,155.885, 115,164.545, 125,164.545" style="fill:lime;stroke:purple;stroke-width:1" />
<polygon points =" 120,155.885, 125,164.545, 130,155.885" style="fill:lime;stroke:purple;stroke-width:1" />
<polygon points =" 130,155.885, 125,164.545, 135,164.545" style="fill:lime;stroke:purple;stroke-width:1" />
<polygon points =" 130,155.885, 135,164.545, 140,155.885" style="fill:lime;stroke:purple;stroke-width:1" />
<polygon points =" 140,155.885, 135,164.545, 145,164.545" style="fill:lime;stroke:purple;stroke-width:1" />
<polygon points =" 140,155.885, 145,164.545, 150,155.885" style="fill:lime;stroke:purple;stroke-width:1" />
<polygon points =" 150,155.885, 145,164.545, 155,164.545" style="fill:lime;stroke:purple;stroke-width:1" />
<polygon points =" 150,155.885, 155,164.545, 160,155.885" style="fill:lime;stroke:purple;stroke-width:1" />
<polygon points =" 160,155.885, 155,164.545, 165,164.545" style="fill:lime;stroke:purple;stroke-width:1" />
<polygon points =" 160,155.885, 165,164.545, 170,155.885" style="fill:lime;stroke:purple;stroke-width:1" />
<polygon points =" 170,155.885, 165,164.545, 175,164.545" style="fill:lime;stroke:purple;stroke-width:1" />
<polygon points =" 170,155.885, 175,164.545, 180,155.885" style="fill:lime;stroke:purple;stroke-width:1" />
<polygon points =" 180,155.885, 175,164.545, 185,164.545" style="fill:lime;stroke:purple;stroke-width:1" />
<polygon points =" 180,155.885, 185,164.545, 190,155.885" style="fill:lime;stroke:purple;stroke-width:1" />
<polygon points =" 190,155.885, 185,164.545, 195,164.545" style="fill:lime;stroke:purple;stroke-width:1" />
<polygon points =" 15,147.224, 10,155.885, 20,155.885" style="fill:lime;stroke:purple;stroke-width:1" />
<polygon points =" 15,147.224, 20,155.885, 25,147.224" style="fill:lime;stroke:purple;stroke-width:1" />
<polygon points =" 25,147.224, 20,155.885, 30,155.885" style="fill:lime;stroke:purple;stroke-width:1" />
<polygon points =" 25,147.224, 30,155.885, 35,147.224" style="fill:lime;stroke:purple;stroke-width:1" />
<polygon points =" 35,147.224, 30,155.885, 40,155.885" style="fill:lime;stroke:purple;stroke-width:1" />
<polygon points =" 35,147.224, 40,155.885, 45,147.224" style="fill:lime;stroke:purple;stroke-width:1" />
<polygon points =" 45,147.224, 40,155.885, 50,155.885" style="fill:lime;stroke:purple;stroke-width:1" />
<polygon points =" 45,147.224, 50,155.885, 55,147.224" style="fill:lime;stroke:purple;stroke-width:1" />
<polygon points =" 55,147.224, 50,155.885, 60,155.885" style="fill:lime;stroke:purple;stroke-width:1" />
<polygon points =" 55,147.224, 60,155.885, 65,147.224" style="fill:lime;stroke:purple;stroke-width:1" />
<polygon points =" 65,147.224, 60,155.885, 70,155.885" style="fill:lime;stroke:purple;stroke-width:1" />
<polygon points =" 65,147.224, 70,155.885, 75,147.224" style="fill:lime;stroke:purple;stroke-width:1" />
<polygon points =" 75,147.224, 70,155.885, 80,155.885" style="fill:lime;stroke:purple;stroke-width:1" />
<polygon points =" 75,147.224, 80,155.885, 85,147.224" style="fill:lime;stroke:purple;stroke-width:1" />
<polygon points =" 85,147.224, 80,155.885, 90,155.885" style="fill:lime;stroke:purple;stroke-width:1" />
<polygon points =" 85,147.224, 90,155.885, 95,147.224" style="fill:lime;stroke:purple;stroke-width:1" />
<polygon points =" 95,147.224, 90,155.885, 100,155.885" style="fill:lime;stroke:purple;stroke-width:1" />
<polygon points =" 95,147.224, 100,155.885, 105,147.224" style="fill:lime;stroke:purple;stroke-width:1" />
<polygon points =" 105,147.224, 100,155.885, 110,155.885" style="fill:lime;stroke:purple;stroke-width:1" />
<polygon points =" 105,147.224, 110,155.885, 115,147.224" style="fill:lime;stroke:purple;stroke-width:1" />
<polygon points =" 115,147.224, 110,155.885, 120,155.885" style="fill:lime;stroke:purple;stroke-width:1" />
<polygon points =" 115,147.224, 120,155.885, 125,147.224" style="fill:lime;stroke:purple;stroke-width:1" />
<polygon points =" 125,147.224, 120,155.885, 130,155.885" style="fill:lime;stroke:purple;stroke-width:1" />
<polygon points =" 125,147.224, 130,155.885, 135,147.224" style="fill:lime;stroke:purple;stroke-width:1" />
<polygon points =" 135,147.224, 130,155.885, 140,155.885" style="fill:lime;stroke:purple;stroke-width:1" />
<polygon points =" 135,147.224, 140,155.885, 145,147.224" style="fill:lime;stroke:purple;stroke-width:1" />
<polygon points =" 145,147.224, 140,155.885, 150,155.885" style="fill:lime;stroke:purple;stroke-width:1" />
<polygon points =" 145,147.224, 150,155.885, 155,147.224" style="fill:lime;stroke:purple;stroke-width:1" />
<polygon points =" 155,147.224, 150,155.885, 160,155.885" style="fill:lime;stroke:purple;stroke-width:1" />
<polygon points =" 155,147.224, 160,155.885, 165,147.224" style="fill:lime;stroke:purple;stroke-width:1" />
<polygon points =" 165,147.224, 160,155.885, 170,155.885" style="fill:lime;stroke:purple;stroke-width:1" />
<polygon points =" 165,147.224, 170,155.885, 175,147.224" style="fill:lime;stroke:purple;stroke-width:1" />
<polygon points =" 175,147.224, 170,155.885, 180,155.885" style="fill:lime;stroke:purple;stroke-width:1" />
<polygon points =" 175,147.224, 180,155.885, 185,147.224" style="fill:lime;stroke:purple;stroke-width:1" />
<polygon points =" 185,147.224, 180,155.885, 190,155.885" style="fill:lime;stroke:purple;stroke-width:1" />
<polygon points =" 20,138.564, 15,147.224, 25,147.224" style="fill:lime;stroke:purple;stroke-width:1" />
<polygon points =" 20,138.564, 25,147.224, 30,138.564" style="fill:lime;stroke:purple;stroke-width:1" />
<polygon points =" 30,138.564, 25,147.224, 35,147.224" style="fill:lime;stroke:purple;stroke-width:1" />
<polygon points =" 30,138.564, 35,147.224, 40,138.564" style="fill:lime;stroke:purple;stroke-width:1" />
<polygon points =" 40,138.564, 35,147.224, 45,147.224" style="fill:lime;stroke:purple;stroke-width:1" />
<polygon points =" 40,138.564, 45,147.224, 50,138.564" style="fill:lime;stroke:purple;stroke-width:1" />
<polygon points =" 50,138.564, 45,147.224, 55,147.224" style="fill:lime;stroke:purple;stroke-width:1" />
<polygon points =" 50,138.564, 55,147.224, 60,138.564" style="fill:lime;stroke:purple;stroke-width:1" />
<polygon points =" 60,138.564, 55,147.224, 65,147.224" style="fill:lime;stroke:purple;stroke-width:1" />
<polygon points =" 60,138.564, 65,147.224, 70,138.564" style="fill:lime;stroke:purple;stroke-width:1" />
<polygon points =" 70,138.564, 65,147.224, 75,147.224" style="fill:lime;stroke:purple;stroke-width:1" />
<polygon points =" 70,138.564, 75,147.224, 80,138.564" style="fill:lime;stroke:purple;stroke-width:1" />
<polygon points =" 80,138.564, 75,147.224, 85,147.224" style="fill:lime;stroke:purple;stroke-width:1" />
<polygon points =" 80,138.564, 85,147.224, 90,138.564" style="fill:lime;stroke:purple;stroke-width:1" />
<polygon points =" 90,138.564, 85,147.224, 95,147.224" style="fill:lime;stroke:purple;stroke-width:1" />
<polygon points =" 90,138.564, 95,147.224, 100,138.564" style="fill:lime;stroke:purple;stroke-width:1" />
<polygon points =" 100,138.564, 95,147.224, 105,147.224" style="fill:lime;stroke:purple;stroke-width:1" />
<polygon points =" 100,138.564, 105,147.224, 110,138.564" style="fill:lime;stroke:purple;stroke-width:1" />
<polygon points =" 110,138.564, 105,147.224, 115,147.224" style="fill:lime;stroke:purple;stroke-width:1" />
<polygon points =" 110,138.564, 115,147.224, 120,138.564" style="fill:lime;stroke:purple;stroke-width:1" />
<polygon points =" 120,138.564, 115,147.224, 125,147.224" style="fill:lime;stroke:purple;stroke-width:1" />
<polygon points =" 120,138.564, 125,147.224, 130,138.564" style="fill:lime;stroke:purple;stroke-width:1" />
<polygon points =" 130,138.564, 125,147.224, 135,147.224" style="fill:lime;stroke:purple;stroke-width:1" />
<polygon points =" 130,138.564, 135,147.224, 140,138.564" style="fill:lime;stroke:purple;stroke-width:1" />
<polygon points =" 140,138.564, 135,147.224, 145,147.224" style="fill:lime;stroke:purple;stroke-width:1" />
<polygon points =" 140,138.564, 145,147.224, 150,138.564" style="fill:lime;stroke:purple;stroke-width:1" />
<polygon points =" 150,138.564, 145,147.224, 155,147.224" style="fill:lime;stroke:purple;stroke-width:1" />
<polygon points =" 150,138.564, 155,147.224, 160,138.564" style="fill:lime;stroke:purple;stroke-width:1" />
<polygon points =" 160,138.564, 155,147.224, 165,147.224" style="fill:lime;stroke:purple;stroke-width:1" />
<polygon points =" 160,138.564, 165,147.224, 170,138.564" style="fill:lime;stroke:purple;stroke-width:1" />
<polygon points =" 170,138.564, 165,147.224, 175,147.224" style="fill:lime;stroke:purple;stroke-width:1" />
<polygon points =" 170,138.564, 175,147.224, 180,138.564" style="fill:lime;stroke:purple;stroke-width:1" />
<polygon points =" 180,138.564, 175,147.224, 185,147.224" style="fill:lime;stroke:purple;stroke-width:1" />
<polygon points =" 25,129.904, 20,138.564, 30,138.564" style="fill:lime;stroke:purple;stroke-width:1" />
<polygon points =" 25,129.904, 30,138.564, 35,129.904" style="fill:lime;stroke:purple;stroke-width:1" />
<polygon points =" 35,129.904, 30,138.564, 40,138.564" style="fill:lime;stroke:purple;stroke-width:1" />
<polygon points =" 35,129.904, 40,138.564, 45,129.904" style="fill:lime;stroke:purple;stroke-width:1" />
<polygon points =" 45,129.904, 40,138.564, 50,138.564" style="fill:lime;stroke:purple;stroke-width:1" />
<polygon points =" 45,129.904, 50,138.564, 55,129.904" style="fill:lime;stroke:purple;stroke-width:1" />
<polygon points =" 55,129.904, 50,138.564, 60,138.564" style="fill:lime;stroke:purple;stroke-width:1" />
<polygon points =" 55,129.904, 60,138.564, 65,129.904" style="fill:lime;stroke:purple;stroke-width:1" />
<polygon points =" 65,129.904, 60,138.564, 70,138.564" style="fill:lime;stroke:purple;stroke-width:1" />
<polygon points =" 65,129.904, 70,138.564, 75,129.904" style="fill:lime;stroke:purple;stroke-width:1" />
<polygon points =" 75,129.904, 70,138.564, 80,138.564" style="fill:lime;stroke:purple;stroke-width:1" />
<polygon points =" 75,129.904, 80,138.564, 85,129.904" style="fill:lime;stroke:purple;stroke-width:1" />
<polygon points =" 85,129.904, 80,138.564, 90,138.564" style="fill:lime;stroke:purple;stroke-width:1" />
<polygon points =" 85,129.904, 90,138.564, 95,129.904" style="fill:lime;stroke:purple;stroke-width:1" />
<polygon points =" 95,129.904, 90,138.564, 100,138.564" style="fill:lime;stroke:purple;stroke-width:1" />
<polygon points =" 95,129.904, 100,138.564, 105,129.904" style="fill:lime;stroke:purple;stroke-width:1" />
<polygon points =" 105,129.904, 100,138.564, 110,138.564" style="fill:lime;stroke:purple;stroke-width:1" />
<polygon points =" 105,129.904, 110,138.564, 115,129.904" style="fill:lime;stroke:purple;stroke-width:1" />
<polygon points =" 115,129.904, 110,138.564, 120,138.564" style="fill:lime;stroke:purple;stroke-width:1" />
<polygon points =" 115,129.904, 120,138.564, 125,129.904" style="fill:lime;stroke:purple;stroke-width:1" />
<polygon points =" 125,129.904, 120,138.564, 130,138.564" style="fill:lime;stroke:purple;stroke-width:1" />
<polygon points =" 125,129.904, 130,138.564, 135,129.904" style="fill:lime;stroke:purple;stroke-width:1" />
<polygon points =" 135,129.904, 130,138.564, 140,138.564" style="fill:lime;stroke:purple;stroke-width:1" />
<polygon points =" 135,129.904, 140,138.564, 145,129.904" style="fill:lime;stroke:purple;stroke-width:1" />
<polygon points =" 145,129.904, 140,138.564, 150,138.564" style="fill:lime;stroke:purple;stroke-width:1" />
<polygon points =" 145,129.904, 150,138.564, 155,129.904" style="fill:lime;stroke:purple;stroke-width:1" />
<polygon points =" 155,129.904, 150,138.564, 160,138.564" style="fill:lime;stroke:purple;stroke-width:1" />
<polygon points =" 155,129.904, 160,138.564, 165,129.904" style="fill:lime;stroke:purple;stroke-width:1" />
<polygon points =" 165,129.904, 160,138.564, 170,138.564" style="fill:lime;stroke:purple;stroke-width:1" />
<polygon points =" 165,129.904, 170,138.564, 175,129.904" style="fill:lime;stroke:purple;stroke-width:1" />
<polygon points =" 175,129.904, 170,138.564, 180,138.564" style="fill:lime;stroke:purple;stroke-width:1" />
<polygon points =" 30,121.244, 25,129.904, 35,129.904" style="fill:lime;stroke:purple;stroke-width:1" />
<polygon points =" 30,121.244, 35,129.904, 40,121.244" style="fill:lime;stroke:purple;stroke-width:1" />
<polygon points =" 40,121.244, 35,129.904, 45,129.904" style="fill:lime;stroke:purple;stroke-width:1" />
<polygon points =" 40,121.244, 45,129.904, 50,121.244" style="fill:lime;stroke:purple;stroke-width:1" />
<polygon points =" 50,121.244, 45,129.904, 55,129.904" style="fill:lime;stroke:purple;stroke-width:1" />
<polygon points =" 50,121.244, 55,129.904, 60,121.244" style="fill:lime;stroke:purple;stroke-width:1" />
<polygon points =" 60,121.244, 55,129.904, 65,129.904" style="fill:lime;stroke:purple;stroke-width:1" />
<polygon points =" 60,121.244, 65,129.904, 70,121.244" style="fill:lime;stroke:purple;stroke-width:1" />
<polygon points =" 70,121.244, 65,129.904, 75,129.904" style="fill:lime;stroke:purple;stroke-width:1" />
<polygon points =" 70,121.244, 75,129.904, 80,121.244" style="fill:lime;stroke:purple;stroke-width:1" />
<polygon points =" 80,121.244, 75,129.904, 85,129.904" style="fill:lime;stroke:purple;stroke-width:1" />
<polygon points =" 80,121.244, 85,129.904, 90,121.244" style="fill:lime;stroke:purple;stroke-width:1" />
<polygon points =" 90,121.244, 85,129.904, 95,129.904" style="fill:lime;stroke:purple;stroke-width:1" />
<polygon points =" 90,121.244, 95,129.904, 100,121.244" style="fill:lime;stroke:purple;stroke-width:1" />
<polygon points =" 100,121.244, 95,129.904, 105,129.904" style="fill:lime;stroke:purple;stroke-width:1" />
<polygon points =" 100,121.244, 105,129.904, 110,121.244" style="fill:lime;stroke:purple;stroke-width:1" />
<polygon points =" 110,121.244, 105,129.904, 115,129.904" style="fill:lime;stroke:purple;stroke-width:1" />
<polygon points =" 110,121.244, 115,129.904, 120,121.244" style="fill:lime;stroke:purple;stroke-width:1" />
<polygon points =" 120,121.244, 115,129.904, 125,129.904" style="fill:lime;stroke:purple;stroke-width:1" />
<polygon points =" 120,121.244, 125,129.904, 130,121.244" style="fill:lime;stroke:purple;stroke-width:1" />
<polygon points =" 130,121.244, 125,129.904, 135,129.904" style="fill:lime;stroke:purple;stroke-width:1" />
<polygon points =" 130,121.244, 135,129.904, 140,121.244" style="fill:lime;stroke:purple;stroke-width:1" />
<polygon points =" 140,121.244, 135,129.904, 145,129.904" style="fill:lime;stroke:purple;stroke-width:1" />
<polygon points =" 140,121.244, 145,129.904, 150,121.244" style="fill:lime;stroke:purple;stroke-width:1" />
<polygon points =" 150,121.244, 145,129.904, 155,129.904" style="fill:lime;stroke:purple;stroke-width:1" />
<polygon points =" 150,121.244, 155,129.904, 160,121.244" style="fill:lime;stroke:purple;stroke-width:1" />
<polygon points =" 160,121.244, 155,129.904, 165,129.904" style="fill:lime;stroke:purple;stroke-width:1" />
<polygon points =" 160,121.244, 165,129.904, 170,121.244" style="fill:lime;stroke:purple;stroke-width:1" />
<polygon points =" 170,121.244, 165,129.904, 175,129.904" style="fill:lime;stroke:purple;stroke-width:1" />
<polygon points =" 35,112.583, 30,121.244, 40,121.244" style="fill:lime;stroke:purple;stroke-width:1" />
<polygon points =" 35,112.583, 40,121.244, 45,112.583" style="fill:lime;stroke:purple;stroke-width:1" />
<polygon points =" 45,112.583, 40,121.244, 50,121.244" style="fill:lime;stroke:purple;stroke-width:1" />
<polygon points =" 45,112.583, 50,121.244, 55,112.583" style="fill:lime;stroke:purple;stroke-width:1" />
<polygon points =" 55,112.583, 50,121.244, 60,121.244" style="fill:lime;stroke:purple;stroke-width:1" />
<polygon points =" 55,112.583, 60,121.244, 65,112.583" style="fill:lime;stroke:purple;stroke-width:1" />
<polygon points =" 65,112.583, 60,121.244, 70,121.244" style="fill:lime;stroke:purple;stroke-width:1" />
<polygon points =" 65,112.583, 70,121.244, 75,112.583" style="fill:lime;stroke:purple;stroke-width:1" />
<polygon points =" 75,112.583, 70,121.244, 80,121.244" style="fill:lime;stroke:purple;stroke-width:1" />
<polygon points =" 75,112.583, 80,121.244, 85,112.583" style="fill:lime;stroke:purple;stroke-width:1" />
<polygon points =" 85,112.583, 80,121.244, 90,121.244" style="fill:lime;stroke:purple;stroke-width:1" />
<polygon points =" 85,112.583, 90,121.244, 95,112.583" style="fill:lime;stroke:purple;stroke-width:1" />
<polygon points =" 95,112.583, 90,121.244, 100,121.244" style="fill:lime;stroke:purple;stroke-width:1" />
<polygon points =" 95,112.583, 100,121.244, 105,112.583" style="fill:lime;stroke:purple;stroke-width:1" />
<polygon points =" 105,112.583, 100,121.244, 110,121.244" style="fill:lime;stroke:purple;stroke-width:1" />
<polygon points =" 105,112.583, 110,121.244, 115,112.583" style="fill:lime;stroke:purple;stroke-width:1" />
<polygon points =" 115,112.583, 110,121.244, 120,121.244" style="fill:lime;stroke:purple;stroke-width:1" />
<polygon points =" 115,112.583, 120,121.244, 125,112.583" style="fill:lime;stroke:purple;stroke-width:1" />
<polygon points =" 125,112.583, 120,121.244, 130,121.244" style="fill:lime;stroke:purple;stroke-width:1" />
<polygon points =" 125,112.583, 130,121.244, 135,112.583" style="fill:lime;stroke:purple;stroke-width:1" />
<polygon points =" 135,112.583, 130,121.244, 140,121.244" style="fill:lime;stroke:purple;stroke-width:1" />
<polygon points =" 135,112.583, 140,121.244, 145,112.583" style="fill:lime;stroke:purple;stroke-width:1" />
<polygon points =" 145,112.583, 140,121.244, 150,121.244" style="fill:lime;stroke:purple;stroke-width:1" />
<polygon points =" 145,112.583, 150,121.244, 155,112.583" style="fill:lime;stroke:purple;stroke-width:1" />
<polygon points =" 155,112.583, 150,121.244, 160,121.244" style="fill:lime;stroke:purple;stroke-width:1" />
<polygon points =" 155,112.583, 160,121.244, 165,112.583" style="fill:lime;stroke:purple;stroke-width:1" />
<polygon points =" 165,112.583, 160,121.244, 170,121.244" style="fill:lime;stroke:purple;stroke-width:1" />
<polygon points =" 40,103.923, 35,112.583, 45,112.583" style="fill:lime;stroke:purple;stroke-width:1" />
<polygon points =" 40,103.923, 45,112.583, 50,103.923" style="fill:lime;stroke:purple;stroke-width:1" />
<polygon points =" 50,103.923, 45,112.583, 55,112.583" style="fill:lime;stroke:purple;stroke-width:1" />
<polygon points =" 50,103.923, 55,112.583, 60,103.923" style="fill:lime;stroke:purple;stroke-width:1" />
<polygon points =" 60,103.923, 55,112.583, 65,112.583" style="fill:lime;stroke:purple;stroke-width:1" />
<polygon points =" 60,103.923, 65,112.583, 70,103.923" style="fill:lime;stroke:purple;stroke-width:1" />
<polygon points =" 70,103.923, 65,112.583, 75,112.583" style="fill:lime;stroke:purple;stroke-width:1" />
<polygon points =" 70,103.923, 75,112.583, 80,103.923" style="fill:lime;stroke:purple;stroke-width:1" />
<polygon points =" 80,103.923, 75,112.583, 85,112.583" style="fill:lime;stroke:purple;stroke-width:1" />
<polygon points =" 80,103.923, 85,112.583, 90,103.923" style="fill:lime;stroke:purple;stroke-width:1" />
<polygon points =" 90,103.923, 85,112.583, 95,112.583" style="fill:lime;stroke:purple;stroke-width:1" />
<polygon points =" 90,103.923, 95,112.583, 100,103.923" style="fill:lime;stroke:purple;stroke-width:1" />
<polygon points =" 100,103.923, 95,112.583, 105,112.583" style="fill:lime;stroke:purple;stroke-width:1" />
<polygon points =" 100,103.923, 105,112.583, 110,103.923" style="fill:lime;stroke:purple;stroke-width:1" />
<polygon points =" 110,103.923, 105,112.583, 115,112.583" style="fill:lime;stroke:purple;stroke-width:1" />
<polygon points =" 110,103.923, 115,112.583, 120,103.923" style="fill:lime;stroke:purple;stroke-width:1" />
<polygon points =" 120,103.923, 115,112.583, 125,112.583" style="fill:lime;stroke:purple;stroke-width:1" />
<polygon points =" 120,103.923, 125,112.583, 130,103.923" style="fill:lime;stroke:purple;stroke-width:1" />
<polygon points =" 130,103.923, 125,112.583, 135,112.583" style="fill:lime;stroke:purple;stroke-width:1" />
<polygon points =" 130,103.923, 135,112.583, 140,103.923" style="fill:lime;stroke:purple;stroke-width:1" />
<polygon points =" 140,103.923, 135,112.583, 145,112.583" style="fill:lime;stroke:purple;stroke-width:1" />
<polygon points =" 140,103.923, 145,112.583, 150,103.923" style="fill:lime;stroke:purple;stroke-width:1" />
<polygon points =" 150,103.923, 145,112.583, 155,112.583" style="fill:lime;stroke:purple;stroke-width:1" />
<polygon points =" 150,103.923, 155,112.583, 160,103.923" style="fill:lime;stroke:purple;stroke-width:1" />
<polygon points =" 160,103.923, 155,112.583, 165,112.583" style="fill:lime;stroke:purple;stroke-width:1" />
<polygon points =" 45,95.2628, 40,103.923, 50,103.923" style="fill:lime;stroke:purple;stroke-width:1" />
<polygon points =" 45,95.2628, 50,103.923, 55,95.2628" style="fill:lime;stroke:purple;stroke-width:1" />
<polygon points =" 55,95.2628, 50,103.923, 60,103.923" style="fill:lime;stroke:purple;stroke-width:1" />
<polygon points =" 55,95.2628, 60,103.923, 65,95.2628" style="fill:lime;stroke:purple;stroke-width:1" />
<polygon points =" 65,95.2628, 60,103.923, 70,103.923" style="fill:lime;stroke:purple;stroke-width:1" />
<polygon points =" 65,95.2628, 70,103.923, 75,95.2628" style="fill:lime;stroke:purple;stroke-width:1" />
<polygon points =" 75,95.2628, 70,103.923, 80,103.923" style="fill:lime;stroke:purple;stroke-width:1" />
<polygon points =" 75,95.2628, 80,103.923, 85,95.2628" style="fill:lime;stroke:purple;stroke-width:1" />
<polygon points =" 85,95.2628, 80,103.923, 90,103.923" style="fill:lime;stroke:purple;stroke-width:1" />
<polygon points =" 85,95.2628, 90,103.923, 95,95.2628" style="fill:lime;stroke:purple;stroke-width:1" />
<polygon points =" 95,95.2628, 90,103.923, 100,103.923" style="fill:lime;stroke:purple;stroke-width:1" />
<polygon points =" 95,95.2628, 100,103.923, 105,95.2628" style="fill:lime;stroke:purple;stroke-width:1" />
<polygon points =" 105,95.2628, 100,103.923, 110,103.923" style="fill:lime;stroke:purple;stroke-width:1" />
<polygon points =" 105,95.2628, 110,103.923, 115,95.2628" style="fill:lime;stroke:purple;stroke-width:1" />
<polygon points =" 115,95.2628, 110,103.923, 120,103.923" style="fill:lime;stroke:purple;stroke-width:1" />
<polygon points =" 115,95.2628, 120,103.923, 125,95.2628" style="fill:lime;stroke:purple;stroke-width:1" />
<polygon points =" 125,95.2628, 120,103.923, 130,103.923" style="fill:lime;stroke:purple;stroke-width:1" />
<polygon points =" 125,95.2628, 130,103.923, 135,95.2628" style="fill:lime;stroke:purple;stroke-width:1" />
<polygon points =" 135,95.2628, 130,103.923, 140,103.923" style="fill:lime;stroke:purple;stroke-width:1" />
<polygon points =" 135,95.2628, 140,103.923, 145,95.2628" style="fill:lime;stroke:purple;stroke-width:1" />
<polygon points =" 145,95.2628, 140,103.923, 150,103.923" style="fill:lime;stroke:purple;stroke-width:1" />
<polygon points =" 145,95.2628, 150,103.923, 155,95.2628" style="fill:lime;stroke:purple;stroke-width:1" />
<polygon points =" 155,95.2628, 150,103.923, 160,103.923" style="fill:lime;stroke:purple;stroke-width:1" />
<polygon points =" 50,86.6025, 45,95.2628, 55,95.2628" style="fill:lime;stroke:purple;stroke-width:1" />
<polygon points =" 50,86.6025, 55,95.2628, 60,86.6025" style="fill:lime;stroke:purple;stroke-width:1" />
<polygon points =" 60,86.6025, 55,95.2628, 65,95.2628" style="fill:lime;stroke:purple;stroke-width:1" />
<polygon points =" 60,86.6025, 65,95.2628, 70,86.6025" style="fill:lime;stroke:purple;stroke-width:1" />
<polygon points =" 70,86.6025, 65,95.2628, 75,95.2628" style="fill:lime;stroke:purple;stroke-width:1" />
<polygon points =" 70,86.6025, 75,95.2628, 80,86.6025" style="fill:lime;stroke:purple;stroke-width:1" />
<polygon points =" 80,86.6025, 75,95.2628, 85,95.2628" style="fill:lime;stroke:purple;stroke-width:1" />
<polygon points =" 80,86.6025, 85,95.2628, 90,86.6025" style="fill:lime;stroke:purple;stroke-width:1" />
<polygon points =" 90,86.6025, 85,95.2628, 95,95.2628" style="fill:lime;stroke:purple;stroke-width:1" />
<polygon points =" 90,86.6025, 95,95.2628, 100,86.6025" style="fill:lime;stroke:purple;stroke-width:1" />
<polygon points =" 100,86.6025, 95,95.2628, 105,95.2628" style="fill:lime;stroke:purple;stroke-width:1" />
<polygon points =" 100,86.6025, 105,95.2628, 110,86.6025" style="fill:lime;stroke:purple;stroke-width:1" />
<polygon points =" 110,86.6025, 105,95.2628, 115,95.2628" style="fill:lime;stroke:purple;stroke-width:1" />
<polygon points =" 110,86.6025, 115,95.2628, 120,86.6025" style="fill:lime;stroke:purple;stroke-width:1" />
<polygon points =" 120,86.6025, 115,95.2628, 125,95.2628" style="fill:lime;stroke:purple;stroke-width:1" />
<polygon points =" 120,86.6025, 125,95.2628, 130,86.6025" style="fill:lime;stroke:purple;stroke-width:1" />
<polygon points =" 130,86.6025, 125,95.2628, 135,95.2628" style="fill:lime;stroke:purple;stroke-width:1" />
<polygon points =" 130,86.6025, 135,95.2628, 140,86.6025" style="fill:lime;stroke:purple;stroke-width:1" />
<polygon points =" 140,86.6025, 135,95.2628, 145,95.2628" style="fill:lime;stroke:purple;stroke-width:1" />
<polygon points =" 140,86.6025, 145,95.2628, 150,86.6025" style="fill:lime;stroke:purple;stroke-width:1" />
<polygon points =" 150,86.6025, 145,95.2628, 155,95.2628" style="fill:lime;stroke:purple;stroke-width:1" />
<polygon points =" 55,77.9423, 50,86.6025, 60,86.6025" style="fill:lime;stroke:purple;stroke-width:1" />
<polygon points =" 55,77.9423, 60,86.6025, 65,77.9423" style="fill:lime;stroke:purple;stroke-width:1" />
<polygon points =" 65,77.9423, 60,86.6025, 70,86.6025" style="fill:lime;stroke:purple;stroke-width:1" />
<polygon points =" 65,77.9423, 70,86.6025, 75,77.9423" style="fill:lime;stroke:purple;stroke-width:1" />
<polygon points =" 75,77.9423, 70,86.6025, 80,86.6025" style="fill:lime;stroke:purple;stroke-width:1" />
<polygon points =" 75,77.9423, 80,86.6025, 85,77.9423" style="fill:lime;stroke:purple;stroke-width:1" />
<polygon points =" 85,77.9423, 80,86.6025, 90,86.6025" style="fill:lime;stroke:purple;stroke-width:1" />
<polygon points =" 85,77.9423, 90,86.6025, 95,77.9423" style="fill:lime;stroke:purple;stroke-width:1" />
<polygon points =" 95,77.9423, 90,86.6025, 100,86.6025" style="fill:lime;stroke:purple;stroke-width:1" />
<polygon points =" 95,77.9423, 100,86.6025, 105,77.9423" style="fill:lime;stroke:purple;stroke-width:1" />
<polygon points =" 105,77.9423, 100,86.6025, 110,86.6025" style="fill:lime;stroke:purple;stroke-width:1" />
<polygon points =" 105,77.9423, 110,86.6025, 115,77.9423" style="fill:lime;stroke:purple;stroke-width:1" />
<polygon points =" 115,77.9423, 110,86.6025, 120,86.6025" style="fill:lime;stroke:purple;stroke-width:1" />
<polygon points =" 115,77.9423, 120,86.6025, 125,77.9423" style="fill:lime;stroke:purple;stroke-width:1" />
<polygon points =" 125,77.9423, 120,86.6025, 130,86.6025" style="fill:lime;stroke:purple;stroke-width:1" />
<polygon points =" 125,77.9423, 130,86.6025, 135,77.9423" style="fill:lime;stroke:purple;stroke-width:1" />
<polygon points =" 135,77.9423, 130,86.6025, 140,86.6025" style="fill:lime;stroke:purple;stroke-width:1" />
<polygon points =" 135,77.9423, 140,86.6025, 145,77.9423" style="fill:lime;stroke:purple;stroke-width:1" />
<polygon points =" 145,77.9423, 140,86.6025, 150,86.6025" style="fill:lime;stroke:purple;stroke-width:1" />
<polygon points =" 60,69.282, 55,77.9423, 65,77.9423" style="fill:lime;stroke:purple;stroke-width:1" />
<polygon points =" 60,69.282, 65,77.9423, 70,69.282" style="fill:lime;stroke:purple;stroke-width:1" />
<polygon points =" 70,69.282, 65,77.9423, 75,77.9423" style="fill:lime;stroke:purple;stroke-width:1" />
<polygon points =" 70,69.282, 75,77.9423, 80,69.282" style="fill:lime;stroke:purple;stroke-width:1" />
<polygon points =" 80,69.282, 75,77.9423, 85,77.9423" style="fill:lime;stroke:purple;stroke-width:1" />
<polygon points =" 80,69.282, 85,77.9423, 90,69.282" style="fill:lime;stroke:purple;stroke-width:1" />
<polygon points =" 90,69.282, 85,77.9423, 95,77.9423" style="fill:lime;stroke:purple;stroke-width:1" />
<polygon points =" 90,69.282, 95,77.9423, 100,69.282" style="fill:lime;stroke:purple;stroke-width:1" />
<polygon points =" 100,69.282, 95,77.9423, 105,77.9423" style="fill:lime;stroke:purple;stroke-width:1" />
<polygon points =" 100,69.282, 105,77.9423, 110,69.282" style="fill:lime;stroke:purple;stroke-width:1" />
<polygon points =" 110,69.282, 105,77.9423, 115,77.9423" style="fill:lime;stroke:purple;stroke-width:1" />
<polygon points =" 110,69.282, 115,77.9423, 120,69.282" style="fill:lime;stroke:purple;stroke-width:1" />
<polygon points =" 120,69.282, 115,77.9423, 125,77.9423" style="fill:lime;stroke:purple;stroke-width:1" />
<polygon points =" 120,69.282, 125,77.9423, 130,69.282" style="fill:lime;stroke:purple;stroke-width:1" />
<polygon points =" 130,69.282, 125,77.9423, 135,77.9423" style="fill:lime;stroke:purple;stroke-width:1" />
<polygon points =" 130,69.282, 135,77.9423, 140,69.282" style="fill:lime;stroke:purple;stroke-width:1" />
<polygon points =" 140,69.282, 135,77.9423, 145,77.9423" style="fill:lime;stroke:purple;stroke-width:1" />
<polygon points =" 65,60.6218, 60,69.282, 70,69.282" style="fill:lime;stroke:purple;stroke-width:1" />
<polygon points =" 65,60.6218, 70,69.282, 75,60.6218" style="fill:lime;stroke:purple;stroke-width:1" />
<polygon points =" 75,60.6218, 70,69.282, 80,69.282" style="fill:lime;stroke:purple;stroke-width:1" />
<polygon points =" 75,60.6218, 80,69.282, 85,60.6218" style="fill:lime;stroke:purple;stroke-width:1" />
<polygon points =" 85,60.6218, 80,69.282, 90,69.282" style="fill:lime;stroke:purple;stroke-width:1" />
<polygon points =" 85,60.6218, 90,69.282, 95,60.6218" style="fill:lime;stroke:purple;stroke-width:1" />
<polygon points =" 95,60.6218, 90,69.282, 100,69.282" style="fill:lime;stroke:purple;stroke-width:1" />
<polygon points =" 95,60.6218, 100,69.282, 105,60.6218" style="fill:lime;stroke:purple;stroke-width:1" />
<polygon points =" 105,60.6218, 100,69.282, 110,69.282" style="fill:lime;stroke:purple;stroke-width:1" />
<polygon points =" 105,60.6218, 110,69.282, 115,60.6218" style="fill:lime;stroke:purple;stroke-width:1" />
<polygon points =" 115,60.6218, 110,69.282, 120,69.282" style="fill:lime;stroke:purple;stroke-width:1" />
<polygon points =" 115,60.6218, 120,69.282, 125,60.6218" style="fill:lime;stroke:purple;stroke-width:1" />
<polygon points =" 125,60.6218, 120,69.282, 130,69.282" style="fill:lime;stroke:purple;stroke-width:1" />
<polygon points =" 125,60.6218, 130,69.282, 135,60.6218" style="fill:lime;stroke:purple;stroke-width:1" />
<polygon points =" 135,60.6218, 130,69.282, 140,69.282" style="fill:lime;stroke:purple;stroke-width:1" />
<polygon points =" 70,51.9615, 65,60.6218, 75,60.6218" style="fill:lime;stroke:purple;stroke-width:1" />
<polygon points =" 70,51.9615, 75,60.6218, 80,51.9615" style="fill:lime;stroke:purple;stroke-width:1" />
<polygon points =" 80,51.9615, 75,60.6218, 85,60.6218" style="fill:lime;stroke:purple;stroke-width:1" />
<polygon points =" 80,51.9615, 85,60.6218, 90,51.9615" style="fill:lime;stroke:purple;stroke-width:1" />
<polygon points =" 90,51.9615, 85,60.6218, 95,60.6218" style="fill:lime;stroke:purple;stroke-width:1" />
<polygon points =" 90,51.9615, 95,60.6218, 100,51.9615" style="fill:lime;stroke:purple;stroke-width:1" />
<polygon points =" 100,51.9615, 95,60.6218, 105,60.6218" style="fill:lime;stroke:purple;stroke-width:1" />
<polygon points =" 100,51.9615, 105,60.6218, 110,51.9615" style="fill:lime;stroke:purple;stroke-width:1" />
<polygon points =" 110,51.9615, 105,60.6218, 115,60.6218" style="fill:lime;stroke:purple;stroke-width:1" />
<polygon points =" 110,51.9615, 115,60.6218, 120,51.9615" style="fill:lime;stroke:purple;stroke-width:1" />
<polygon points =" 120,51.9615, 115,60.6218, 125,60.6218" style="fill:lime;stroke:purple;stroke-width:1" />
<polygon points =" 120,51.9615, 125,60.6218, 130,51.9615" style="fill:lime;stroke:purple;stroke-width:1" />
<polygon points =" 130,51.9615, 125,60.6218, 135,60.6218" style="fill:lime;stroke:purple;stroke-width:1" />
<polygon points =" 75,43.3013, 70,51.9615, 80,51.9615" style="fill:lime;stroke:purple;stroke-width:1" />
<polygon points =" 75,43.3013, 80,51.9615, 85,43.3013" style="fill:lime;stroke:purple;stroke-width:1" />
<polygon points =" 85,43.3013, 80,51.9615, 90,51.9615" style="fill:lime;stroke:purple;stroke-width:1" />
<polygon points =" 85,43.3013, 90,51.9615, 95,43.3013" style="fill:lime;stroke:purple;stroke-width:1" />
<polygon points =" 95,43.3013, 90,51.9615, 100,51.9615" style="fill:lime;stroke:purple;stroke-width:1" />
<polygon points =" 95,43.3013, 100,51.9615, 105,43.3013" style="fill:lime;stroke:purple;stroke-width:1" />
<polygon points =" 105,43.3013, 100,51.9615, 110,51.9615" style="fill:lime;stroke:purple;stroke-width:1" />
<polygon points =" 105,43.3013, 110,51.9615, 115,43.3013" style="fill:lime;stroke:purple;stroke-width:1" />
<polygon points =" 115,43.3013, 110,51.9615, 120,51.9615" style="fill:lime;stroke:purple;stroke-width:1" />
<polygon points =" 115,43.3013, 120,51.9615, 125,43.3013" style="fill:lime;stroke:purple;stroke-width:1" />
<polygon points =" 125,43.3013, 120,51.9615, 130,51.9615" style="fill:lime;stroke:purple;stroke-width:1" />
<polygon points =" 80,34.641, 75,43.3013, 85,43.3013" style="fill:lime;stroke:purple;stroke-width:1" />
<polygon points =" 80,34.641, 85,43.3013, 90,34.641" style="fill:lime;stroke:purple;stroke-width:1" />
<polygon points =" 90,34.641, 85,43.3013, 95,43.3013" style="fill:lime;stroke:purple;stroke-width:1" />
<polygon points =" 90,34.641, 95,43.3013, 100,34.641" style="fill:lime;stroke:purple;stroke-width:1" />
<polygon points =" 100,34.641, 95,43.3013, 105,43.3013" style="fill:lime;stroke:purple;stroke-width:1" />
<polygon points =" 100,34.641, 105,43.3013, 110,34.641" style="fill:lime;stroke:purple;stroke-width:1" />
<polygon points =" 110,34.641, 105,43.3013, 115,43.3013" style="fill:lime;stroke:purple;stroke-width:1" />
<polygon points =" 110,34.641, 115,43.3013, 120,34.641" style="fill:lime;stroke:purple;stroke-width:1" />
<polygon points =" 120,34.641, 115,43.3013, 125,43.3013" style="fill:lime;stroke:purple;stroke-width:1" />
<polygon points =" 85,25.9808, 80,34.641, 90,34.641" style="fill:lime;stroke:purple;stroke-width:1" />
<polygon points =" 85,25.9808, 90,34.641, 95,25.9808" style="fill:lime;stroke:purple;stroke-width:1" />
<polygon points =" 95,25.9808, 90,34.641, 100,34.641" style="fill:lime;stroke:purple;stroke-width:1" />
<polygon points =" 95,25.9808, 100,34.641, 105,25.9808" style="fill:lime;stroke:purple;stroke-width:1" />
<polygon points =" 105,25.9808, 100,34.641, 110,34.641" style="fill:lime;stroke:purple;stroke-width:1" />
<polygon points =" 105,25.9808, 110,34.641, 115,25.9808" style="fill:lime;stroke:purple;stroke-width:1" />
<polygon points =" 115,25.9808, 110,34.641, 120,34.641" style="fill:lime;stroke:purple;stroke-width:1" />
<polygon points =" 90,17.3205, 85,25.9808, 95,25.9808" style="fill:lime;stroke:purple;stroke-width:1" />
<polygon points =" 90,17.3205, 95,25.9808, 100,17.3205" style="fill:lime;stroke:purple;stroke-width:1" />
<polygon points =" 100,17.3205, 95,25.9808, 105,25.9808" style="fill:lime;stroke:purple;stroke-width:1" />
<polygon points =" 100,17.3205, 105,25.9808, 110,17.3205" style="fill:lime;stroke:purple;stroke-width:1" />
<polygon points =" 110,17.3205, 105,25.9808, 115,25.9808" style="fill:lime;stroke:purple;stroke-width:1" />
<polygon points =" 95,8.66025, 90,17.3205, 100,17.3205" style="fill:lime;stroke:purple;stroke-width:1" />
<polygon points =" 95,8.66025, 100,17.3205, 105,8.66025" style="fill:lime;stroke:purple;stroke-width:1" />
<polygon points =" 105,8.66025, 100,17.3205, 110,17.3205" style="fill:lime;stroke:purple;stroke-width:1" />
<polygon points =" 100,-3.90799e-14, 95,8.66025, 105,8.66025" style="fill:lime;stroke:purple;stroke-width:1" />
</svg>
