<?xml version="1.0" standalone="no"?>
<svg width="300" height="300" version="1.1" xmlns="http://www.w3.org/2000/svg">
<polygon points="100.000000 0.000000 0.000000 173.205081 200.000000 173.205081" stroke="green" fill="brown"/>
<polygon points =" 5.7735,163.205, 5.7735,173.205, 15.7735,173.205, 15.7735,163.205" style="fill:lime;stroke:purple;stroke-width:1" />
<polygon points =" 15.7735,163.205, 15.7735,173.205, 25.7735,173.205, 25.7735,163.205" style="fill:lime;stroke:purple;stroke-width:1" />
<polygon points =" 25.7735,163.205, 25.7735,173.205, 35.7735,173.205, 35.7735,163.205" style="fill:lime;stroke:purple;stroke-width:1" />
<polygon points =" 35.7735,163.205, 35.7735,173.205, 45.7735,173.205, 45.7735,163.205" style="fill:lime;stroke:purple;stroke-width:1" />
<polygon points =" 45.7735,163.205, 45.7735,173.205, 55.7735,173.205, 55.7735,163.205" style="fill:lime;stroke:purple;stroke-width:1" />
<polygon points =" 55.7735,163.205, 55.7735,173.205, 65.7735,173.205, 65.7735,163.205" style="fill:lime;stroke:purple;stroke-width:1" />
<polygon points =" 65.7735,163.205, 65.7735,173.205, 75.7735,173.205, 75.7735,163.205" style="fill:lime;stroke:purple;stroke-width:1" />
<polygon points =" 75.7735,163.205, 75.7735,173.205, 85.7735,173.205, 85.7735,163.205" style="fill:lime;stroke:purple;stroke-width:1" />
<polygon points =" 85.7735,163.205, 85.7735,173.205, 95.7735,173.205, 95.7735,163.205" style="fill:lime;stroke:purple;stroke-width:1" />
<polygon points =" 95.7735,163.205, 95.7735,173.205, 105.774,173.205, 105.774,163.205" style="fill:lime;stroke:purple;stroke-width:1" />
<polygon points =" 105.774,163.205, 105.774,173.205, 115.774,173.205, 115.774,163.205" style="fill:lime;stroke:purple;stroke-width:1" />
<polygon points =" 115.774,163.205, 115.774,173.205, 125.774,173.205, 125.774,163.205" style="fill:lime;stroke:purple;stroke-width:1" />
<polygon points =" 125.774,163.205, 125.774,173.205, 135.774,173.205, 135.774,163.205" style="fill:lime;stroke:purple;stroke-width:1" />
<polygon points =" 135.774,163.205, 135.774,173.205, 145.774,173.205, 145.774,163.205" style="fill:lime;stroke:purple;stroke-width:1" />
<polygon points =" 145.774,163.205, 145.774,173.205, 155.774,173.205, 155.774,163.205" style="fill:lime;stroke:purple;stroke-width:1" />
<polygon points =" 155.774,163.205, 155.774,173.205, 165.774,173.205, 165.774,163.205" style="fill:lime;stroke:purple;stroke-width:1" />
<polygon points =" 165.774,163.205, 165.774,173.205, 175.774,173.205, 175.774,163.205" style="fill:lime;stroke:purple;stroke-width:1" />
<polygon points =" 175.774,163.205, 175.774,173.205, 185.774,173.205, 185.774,163.205" style="fill:lime;stroke:purple;stroke-width:1" />
<polygon points =" 11.547,153.205, 11.547,163.205, 21.547,163.205, 21.547,153.205" style="fill:lime;stroke:purple;stroke-width:1" />
<polygon points =" 21.547,153.205, 21.547,163.205, 31.547,163.205, 31.547,153.205" style="fill:lime;stroke:purple;stroke-width:1" />
<polygon points =" 31.547,153.205, 31.547,163.205, 41.547,163.205, 41.547,153.205" style="fill:lime;stroke:purple;stroke-width:1" />
<polygon points =" 41.547,153.205, 41.547,163.205, 51.547,163.205, 51.547,153.205" style="fill:lime;stroke:purple;stroke-width:1" />
<polygon points =" 51.547,153.205, 51.547,163.205, 61.547,163.205, 61.547,153.205" style="fill:lime;stroke:purple;stroke-width:1" />
<polygon points =" 61.547,153.205, 61.547,163.205, 71.547,163.205, 71.547,153.205" style="fill:lime;stroke:purple;stroke-width:1" />
<polygon points =" 71.547,153.205, 71.547,163.205, 81.547,163.205, 81.547,153.205" style="fill:lime;stroke:purple;stroke-width:1" />
<polygon points =" 81.547,153.205, 81.547,163.205, 91.547,163.205, 91.547,153.205" style="fill:lime;stroke:purple;stroke-width:1" />
<polygon points =" 91.547,153.205, 91.547,163.205, 101.547,163.205, 101.547,153.205" style="fill:lime;stroke:purple;stroke-width:1" />
<polygon points =" 101.547,153.205, 101.547,163.205, 111.547,163.205, 111.547,153.205" style="fill:lime;stroke:purple;stroke-width:1" />
<polygon points =" 111.547,153.205, 111.547,163.205, 121.547,163.205, 121.547,153.205" style="fill:lime;stroke:purple;stroke-width:1" />
<polygon points =" 121.547,153.205, 121.547,163.205, 131.547,163.205, 131.547,153.205" style="fill:lime;stroke:purple;stroke-width:1" />
<polygon points =" 131.547,153.205, 131.547,163.205, 141.547,163.205, 141.547,153.205" style="fill:lime;stroke:purple;stroke-width:1" />
<polygon points =" 141.547,153.205, 141.547,163.205, 151.547,163.205, 151.547,153.205" style="fill:lime;stroke:purple;stroke-width:1" />
<polygon points =" 151.547,153.205, 151.547,163.205, 161.547,163.205, 161.547,153.205" style="fill:lime;stroke:purple;stroke-width:1" />
<polygon points =" 161.547,153.205, 161.547,163.205, 171.547,163.205, 171.547,153.205" style="fill:lime;stroke:purple;stroke-width:1" />
<polygon points =" 171.547,153.205, 171.547,163.205, 181.547,163.205, 181.547,153.205" style="fill:lime;stroke:purple;stroke-width:1" />
<polygon points =" 17.3205,143.205, 17.3205,153.205, 27.3205,153.205, 27.3205,143.205" style="fill:lime;stroke:purple;stroke-width:1" />
<polygon points =" 27.3205,143.205, 27.3205,153.205, 37.3205,153.205, 37.3205,143.205" style="fill:lime;stroke:purple;stroke-width:1" />
<polygon points =" 37.3205,143.205, 37.3205,153.205, 47.3205,153.205, 47.3205,143.205" style="fill:lime;stroke:purple;stroke-width:1" />
<polygon points =" 47.3205,143.205, 47.3205,153.205, 57.3205,153.205, 57.3205,143.205" style="fill:lime;stroke:purple;stroke-width:1" />
<polygon points =" 57.3205,143.205, 57.3205,153.205, 67.3205,153.205, 67.3205,143.205" style="fill:lime;stroke:purple;stroke-width:1" />
<polygon points =" 67.3205,143.205, 67.3205,153.205, 77.3205,153.205, 77.3205,143.205" style="fill:lime;stroke:purple;stroke-width:1" />
<polygon points =" 77.3205,143.205, 77.3205,153.205, 87.3205,153.205, 87.3205,143.205" style="fill:lime;stroke:purple;stroke-width:1" />
<polygon points =" 87.3205,143.205, 87.3205,153.205, 97.3205,153.205, 97.3205,143.205" style="fill:lime;stroke:purple;stroke-width:1" />
<polygon points =" 97.3205,143.205, 97.3205,153.205, 107.321,153.205, 107.321,143.205" style="fill:lime;stroke:purple;stroke-width:1" />
<polygon points =" 107.321,143.205, 107.321,153.205, 117.321,153.205, 117.321,143.205" style="fill:lime;stroke:purple;stroke-width:1" />
<polygon points =" 117.321,143.205, 117.321,153.205, 127.321,153.205, 127.321,143.205" style="fill:lime;stroke:purple;stroke-width:1" />
<polygon points =" 127.321,143.205, 127.321,153.205, 137.321,153.205, 137.321,143.205" style="fill:lime;stroke:purple;stroke-width:1" />
<polygon points =" 137.321,143.205, 137.321,153.205, 147.321,153.205, 147.321,143.205" style="fill:lime;stroke:purple;stroke-width:1" />
<polygon points =" 147.321,143.205, 147.321,153.205, 157.321,153.205, 157.321,143.205" style="fill:lime;stroke:purple;stroke-width:1" />
<polygon points =" 157.321,143.205, 157.321,153.205, 167.321,153.205, 167.321,143.205" style="fill:lime;stroke:purple;stroke-width:1" />
<polygon points =" 167.321,143.205, 167.321,153.205, 177.321,153.205, 177.321,143.205" style="fill:lime;stroke:purple;stroke-width:1" />
<polygon points =" 23.094,133.205, 23.094,143.205, 33.094,143.205, 33.094,133.205" style="fill:lime;stroke:purple;stroke-width:1" />
<polygon points =" 33.094,133.205, 33.094,143.205, 43.094,143.205, 43.094,133.205" style="fill:lime;stroke:purple;stroke-width:1" />
<polygon points =" 43.094,133.205, 43.094,143.205, 53.094,143.205, 53.094,133.205" style="fill:lime;stroke:purple;stroke-width:1" />
<polygon points =" 53.094,133.205, 53.094,143.205, 63.094,143.205, 63.094,133.205" style="fill:lime;stroke:purple;stroke-width:1" />
<polygon points =" 63.094,133.205, 63.094,143.205, 73.094,143.205, 73.094,133.205" style="fill:lime;stroke:purple;stroke-width:1" />
<polygon points =" 73.094,133.205, 73.094,143.205, 83.094,143.205, 83.094,133.205" style="fill:lime;stroke:purple;stroke-width:1" />
<polygon points =" 83.094,133.205, 83.094,143.205, 93.094,143.205, 93.094,133.205" style="fill:lime;stroke:purple;stroke-width:1" />
<polygon points =" 93.094,133.205, 93.094,143.205, 103.094,143.205, 103.094,133.205" style="fill:lime;stroke:purple;stroke-width:1" />
<polygon points =" 103.094,133.205, 103.094,143.205, 113.094,143.205, 113.094,133.205" style="fill:lime;stroke:purple;stroke-width:1" />
<polygon points =" 113.094,133.205, 113.094,143.205, 123.094,143.205, 123.094,133.205" style="fill:lime;stroke:purple;stroke-width:1" />
<polygon points =" 123.094,133.205, 123.094,143.205, 133.094,143.205, 133.094,133.205" style="fill:lime;stroke:purple;stroke-width:1" />
<polygon points =" 133.094,133.205, 133.094,143.205, 143.094,143.205, 143.094,133.205" style="fill:lime;stroke:purple;stroke-width:1" />
<polygon points =" 143.094,133.205, 143.094,143.205, 153.094,143.205, 153.094,133.205" style="fill:lime;stroke:purple;stroke-width:1" />
<polygon points =" 153.094,133.205, 153.094,143.205, 163.094,143.205, 163.094,133.205" style="fill:lime;stroke:purple;stroke-width:1" />
<polygon points =" 163.094,133.205, 163.094,143.205, 173.094,143.205, 173.094,133.205" style="fill:lime;stroke:purple;stroke-width:1" />
<polygon points =" 28.8675,123.205, 28.8675,133.205, 38.8675,133.205, 38.8675,123.205" style="fill:lime;stroke:purple;stroke-width:1" />
<polygon points =" 38.8675,123.205, 38.8675,133.205, 48.8675,133.205, 48.8675,123.205" style="fill:lime;stroke:purple;stroke-width:1" />
<polygon points =" 48.8675,123.205, 48.8675,133.205, 58.8675,133.205, 58.8675,123.205" style="fill:lime;stroke:purple;stroke-width:1" />
<polygon points =" 58.8675,123.205, 58.8675,133.205, 68.8675,133.205, 68.8675,123.205" style="fill:lime;stroke:purple;stroke-width:1" />
<polygon points =" 68.8675,123.205, 68.8675,133.205, 78.8675,133.205, 78.8675,123.205" style="fill:lime;stroke:purple;stroke-width:1" />
<polygon points =" 78.8675,123.205, 78.8675,133.205, 88.8675,133.205, 88.8675,123.205" style="fill:lime;stroke:purple;stroke-width:1" />
<polygon points =" 88.8675,123.205, 88.8675,133.205, 98.8675,133.205, 98.8675,123.205" style="fill:lime;stroke:purple;stroke-width:1" />
<polygon points =" 98.8675,123.205, 98.8675,133.205, 108.868,133.205, 108.868,123.205" style="fill:lime;stroke:purple;stroke-width:1" />
<polygon points =" 108.868,123.205, 108.868,133.205, 118.868,133.205, 118.868,123.205" style="fill:lime;stroke:purple;stroke-width:1" />
<polygon points =" 118.868,123.205, 118.868,133.205, 128.868,133.205, 128.868,123.205" style="fill:lime;stroke:purple;stroke-width:1" />
<polygon points =" 128.868,123.205, 128.868,133.205, 138.868,133.205, 138.868,123.205" style="fill:lime;stroke:purple;stroke-width:1" />
<polygon points =" 138.868,123.205, 138.868,133.205, 148.868,133.205, 148.868,123.205" style="fill:lime;stroke:purple;stroke-width:1" />
<polygon points =" 148.868,123.205, 148.868,133.205, 158.868,133.205, 158.868,123.205" style="fill:lime;stroke:purple;stroke-width:1" />
<polygon points =" 158.868,123.205, 158.868,133.205, 168.868,133.205, 168.868,123.205" style="fill:lime;stroke:purple;stroke-width:1" />
<polygon points =" 34.641,113.205, 34.641,123.205, 44.641,123.205, 44.641,113.205" style="fill:lime;stroke:purple;stroke-width:1" />
<polygon points =" 44.641,113.205, 44.641,123.205, 54.641,123.205, 54.641,113.205" style="fill:lime;stroke:purple;stroke-width:1" />
<polygon points =" 54.641,113.205, 54.641,123.205, 64.641,123.205, 64.641,113.205" style="fill:lime;stroke:purple;stroke-width:1" />
<polygon points =" 64.641,113.205, 64.641,123.205, 74.641,123.205, 74.641,113.205" style="fill:lime;stroke:purple;stroke-width:1" />
<polygon points =" 74.641,113.205, 74.641,123.205, 84.641,123.205, 84.641,113.205" style="fill:lime;stroke:purple;stroke-width:1" />
<polygon points =" 84.641,113.205, 84.641,123.205, 94.641,123.205, 94.641,113.205" style="fill:lime;stroke:purple;stroke-width:1" />
<polygon points =" 94.641,113.205, 94.641,123.205, 104.641,123.205, 104.641,113.205" style="fill:lime;stroke:purple;stroke-width:1" />
<polygon points =" 104.641,113.205, 104.641,123.205, 114.641,123.205, 114.641,113.205" style="fill:lime;stroke:purple;stroke-width:1" />
<polygon points =" 114.641,113.205, 114.641,123.205, 124.641,123.205, 124.641,113.205" style="fill:lime;stroke:purple;stroke-width:1" />
<polygon points =" 124.641,113.205, 124.641,123.205, 134.641,123.205, 134.641,113.205" style="fill:lime;stroke:purple;stroke-width:1" />
<polygon points =" 134.641,113.205, 134.641,123.205, 144.641,123.205, 144.641,113.205" style="fill:lime;stroke:purple;stroke-width:1" />
<polygon points =" 144.641,113.205, 144.641,123.205, 154.641,123.205, 154.641,113.205" style="fill:lime;stroke:purple;stroke-width:1" />
<polygon points =" 154.641,113.205, 154.641,123.205, 164.641,123.205, 164.641,113.205" style="fill:lime;stroke:purple;stroke-width:1" />
<polygon points =" 40.4145,103.205, 40.4145,113.205, 50.4145,113.205, 50.4145,103.205" style="fill:lime;stroke:purple;stroke-width:1" />
<polygon points =" 50.4145,103.205, 50.4145,113.205, 60.4145,113.205, 60.4145,103.205" style="fill:lime;stroke:purple;stroke-width:1" />
<polygon points =" 60.4145,103.205, 60.4145,113.205, 70.4145,113.205, 70.4145,103.205" style="fill:lime;stroke:purple;stroke-width:1" />
<polygon points =" 70.4145,103.205, 70.4145,113.205, 80.4145,113.205, 80.4145,103.205" style="fill:lime;stroke:purple;stroke-width:1" />
<polygon points =" 80.4145,103.205, 80.4145,113.205, 90.4145,113.205, 90.4145,103.205" style="fill:lime;stroke:purple;stroke-width:1" />
<polygon points =" 90.4145,103.205, 90.4145,113.205, 100.415,113.205, 100.415,103.205" style="fill:lime;stroke:purple;stroke-width:1" />
<polygon points =" 100.415,103.205, 100.415,113.205, 110.415,113.205, 110.415,103.205" style="fill:lime;stroke:purple;stroke-width:1" />
<polygon points =" 110.415,103.205, 110.415,113.205, 120.415,113.205, 120.415,103.205" style="fill:lime;stroke:purple;stroke-width:1" />
<polygon points =" 120.415,103.205, 120.415,113.205, 130.415,113.205, 130.415,103.205" style="fill:lime;stroke:purple;stroke-width:1" />
<polygon points =" 130.415,103.205, 130.415,113.205, 140.415,113.205, 140.415,103.205" style="fill:lime;stroke:purple;stroke-width:1" />
<polygon points =" 140.415,103.205, 140.415,113.205, 150.415,113.205, 150.415,103.205" style="fill:lime;stroke:purple;stroke-width:1" />
<polygon points =" 46.188,93.2051, 46.188,103.205, 56.188,103.205, 56.188,93.2051" style="fill:lime;stroke:purple;stroke-width:1" />
<polygon points =" 56.188,93.2051, 56.188,103.205, 66.188,103.205, 66.188,93.2051" style="fill:lime;stroke:purple;stroke-width:1" />
<polygon points =" 66.188,93.2051, 66.188,103.205, 76.188,103.205, 76.188,93.2051" style="fill:lime;stroke:purple;stroke-width:1" />
<polygon points =" 76.188,93.2051, 76.188,103.205, 86.188,103.205, 86.188,93.2051" style="fill:lime;stroke:purple;stroke-width:1" />
<polygon points =" 86.188,93.2051, 86.188,103.205, 96.188,103.205, 96.188,93.2051" style="fill:lime;stroke:purple;stroke-width:1" />
<polygon points =" 96.188,93.2051, 96.188,103.205, 106.188,103.205, 106.188,93.2051" style="fill:lime;stroke:purple;stroke-width:1" />
<polygon points =" 106.188,93.2051, 106.188,103.205, 116.188,103.205, 116.188,93.2051" style="fill:lime;stroke:purple;stroke-width:1" />
<polygon points =" 116.188,93.2051, 116.188,103.205, 126.188,103.205, 126.188,93.2051" style="fill:lime;stroke:purple;stroke-width:1" />
<polygon points =" 126.188,93.2051, 126.188,103.205, 136.188,103.205, 136.188,93.2051" style="fill:lime;stroke:purple;stroke-width:1" />
<polygon points =" 136.188,93.2051, 136.188,103.205, 146.188,103.205, 146.188,93.2051" style="fill:lime;stroke:purple;stroke-width:1" />
<polygon points =" 51.9615,83.2051, 51.9615,93.2051, 61.9615,93.2051, 61.9615,83.2051" style="fill:lime;stroke:purple;stroke-width:1" />
<polygon points =" 61.9615,83.2051, 61.9615,93.2051, 71.9615,93.2051, 71.9615,83.2051" style="fill:lime;stroke:purple;stroke-width:1" />
<polygon points =" 71.9615,83.2051, 71.9615,93.2051, 81.9615,93.2051, 81.9615,83.2051" style="fill:lime;stroke:purple;stroke-width:1" />
<polygon points =" 81.9615,83.2051, 81.9615,93.2051, 91.9615,93.2051, 91.9615,83.2051" style="fill:lime;stroke:purple;stroke-width:1" />
<polygon points =" 91.9615,83.2051, 91.9615,93.2051, 101.962,93.2051, 101.962,83.2051" style="fill:lime;stroke:purple;stroke-width:1" />
<polygon points =" 101.962,83.2051, 101.962,93.2051, 111.962,93.2051, 111.962,83.2051" style="fill:lime;stroke:purple;stroke-width:1" />
<polygon points =" 111.962,83.2051, 111.962,93.2051, 121.962,93.2051, 121.962,83.2051" style="fill:lime;stroke:purple;stroke-width:1" />
<polygon points =" 121.962,83.2051, 121.962,93.2051, 131.962,93.2051, 131.962,83.2051" style="fill:lime;stroke:purple;stroke-width:1" />
<polygon points =" 131.962,83.2051, 131.962,93.2051, 141.962,93.2051, 141.962,83.2051" style="fill:lime;stroke:purple;stroke-width:1" />
<polygon points =" 57.735,73.2051, 57.735,83.2051, 67.735,83.2051, 67.735,73.2051" style="fill:lime;stroke:purple;stroke-width:1" />
<polygon points =" 67.735,73.2051, 67.735,83.2051, 77.735,83.2051, 77.735,73.2051" style="fill:lime;stroke:purple;stroke-width:1" />
<polygon points =" 77.735,73.2051, 77.735,83.2051, 87.735,83.2051, 87.735,73.2051" style="fill:lime;stroke:purple;stroke-width:1" />
<polygon points =" 87.735,73.2051, 87.735,83.2051, 97.735,83.2051, 97.735,73.2051" style="fill:lime;stroke:purple;stroke-width:1" />
<polygon points =" 97.735,73.2051, 97.735,83.2051, 107.735,83.2051, 107.735,73.2051" style="fill:lime;stroke:purple;stroke-width:1" />
<polygon points =" 107.735,73.2051, 107.735,83.2051, 117.735,83.2051, 117.735,73.2051" style="fill:lime;stroke:purple;stroke-width:1" />
<polygon points =" 117.735,73.2051, 117.735,83.2051, 127.735,83.2051, 127.735,73.2051" style="fill:lime;stroke:purple;stroke-width:1" />
<polygon points =" 127.735,73.2051, 127.735,83.2051, 137.735,83.2051, 137.735,73.2051" style="fill:lime;stroke:purple;stroke-width:1" />
<polygon points =" 63.5085,63.2051, 63.5085,73.2051, 73.5085,73.2051, 73.5085,63.2051" style="fill:lime;stroke:purple;stroke-width:1" />
<polygon points =" 73.5085,63.2051, 73.5085,73.2051, 83.5085,73.2051, 83.5085,63.2051" style="fill:lime;stroke:purple;stroke-width:1" />
<polygon points =" 83.5085,63.2051, 83.5085,73.2051, 93.5085,73.2051, 93.5085,63.2051" style="fill:lime;stroke:purple;stroke-width:1" />
<polygon points =" 93.5085,63.2051, 93.5085,73.2051, 103.509,73.2051, 103.509,63.2051" style="fill:lime;stroke:purple;stroke-width:1" />
<polygon points =" 103.509,63.2051, 103.509,73.2051, 113.509,73.2051, 113.509,63.2051" style="fill:lime;stroke:purple;stroke-width:1" />
<polygon points =" 113.509,63.2051, 113.509,73.2051, 123.509,73.2051, 123.509,63.2051" style="fill:lime;stroke:purple;stroke-width:1" />
<polygon points =" 123.509,63.2051, 123.509,73.2051, 133.509,73.2051, 133.509,63.2051" style="fill:lime;stroke:purple;stroke-width:1" />
<polygon points =" 69.282,53.2051, 69.282,63.2051, 79.282,63.2051, 79.282,53.2051" style="fill:lime;stroke:purple;stroke-width:1" />
<polygon points =" 79.282,53.2051, 79.282,63.2051, 89.282,63.2051, 89.282,53.2051" style="fill:lime;stroke:purple;stroke-width:1" />
<polygon points =" 89.282,53.2051, 89.282,63.2051, 99.282,63.2051, 99.282,53.2051" style="fill:lime;stroke:purple;stroke-width:1" />
<polygon points =" 99.282,53.2051, 99.282,63.2051, 109.282,63.2051, 109.282,53.2051" style="fill:lime;stroke:purple;stroke-width:1" />
<polygon points =" 109.282,53.2051, 109.282,63.2051, 119.282,63.2051, 119.282,53.2051" style="fill:lime;stroke:purple;stroke-width:1" />
<polygon points =" 119.282,53.2051, 119.282,63.2051, 129.282,63.2051, 129.282,53.2051" style="fill:lime;stroke:purple;stroke-width:1" />
<polygon points =" 75.0555,43.2051, 75.0555,53.2051, 85.0555,53.2051, 85.0555,43.2051" style="fill:lime;stroke:purple;stroke-width:1" />
<polygon points =" 85.0555,43.2051, 85.0555,53.2051, 95.0555,53.2051, 95.0555,43.2051" style="fill:lime;stroke:purple;stroke-width:1" />
<polygon points =" 95.0555,43.2051, 95.0555,53.2051, 105.056,53.2051, 105.056,43.2051" style="fill:lime;stroke:purple;stroke-width:1" />
<polygon points =" 105.056,43.2051, 105.056,53.2051, 115.056,53.2051, 115.056,43.2051" style="fill:lime;stroke:purple;stroke-width:1" />
<polygon points =" 80.829,33.2051, 80.829,43.2051, 90.829,43.2051, 90.829,33.2051" style="fill:lime;stroke:purple;stroke-width:1" />
<polygon points =" 90.829,33.2051, 90.829,43.2051, 100.829,43.2051, 100.829,33.2051" style="fill:lime;stroke:purple;stroke-width:1" />
<polygon points =" 100.829,33.2051, 100.829,43.2051, 110.829,43.2051, 110.829,33.2051" style="fill:lime;stroke:purple;stroke-width:1" />
<polygon points =" 86.6025,23.2051, 86.6025,33.2051, 96.6025,33.2051, 96.6025,23.2051" style="fill:lime;stroke:purple;stroke-width:1" />
<polygon points =" 96.6025,23.2051, 96.6025,33.2051, 106.603,33.2051, 106.603,23.2051" style="fill:lime;stroke:purple;stroke-width:1" />
<polygon points =" 92.376,13.2051, 92.376,23.2051, 102.376,23.2051, 102.376,13.2051" style="fill:lime;stroke:purple;stroke-width:1" />
</svg>
