<?xml version="1.0" standalone="no"?>
<svg width="300" height="300" version="1.1" xmlns="http://www.w3.org/2000/svg">
<polygon points="100.000000 0.000000 0.000000 173.205081 200.000000 173.205081" stroke="green" fill="brown"/>
<polygon points =" 27.3008,163.833, 27.2417,164.458, 27.1436,165.078, 27.0067,165.691, 26.8316,166.294, 26.619,166.885, 26.3697,167.461, 26.0848,168.02, 25.7653,168.561, 25.4125,169.08, 25.0279,169.577, 24.6128,170.048, 24.169,170.492, 23.6982,170.907, 23.2022,171.292, 22.6831,171.646, 22.1428,171.966, 21.5835,172.251, 21.0074,172.501, 20.4167,172.714, 19.8139,172.889, 19.2012,173.027, 18.5811,173.125, 17.956,173.185, 17.3285,173.205, 16.7009,173.186, 16.0757,173.127, 15.4555,173.03, 14.8426,172.893, 14.2394,172.719, 13.6484,172.506, 13.0719,172.258, 12.5122,171.973, 11.9714,171.654, 11.4517,171.302, 10.9551,170.918, 10.4836,170.503, 10.0391,170.059, 9.6233,169.589, 9.23783,169.093, 8.88423,168.574, 8.56389,168.034, 8.27808,167.475, 8.02791,166.899, 7.81438,166.309, 7.63833,165.706, 7.50045,165.094, 7.40129,164.474, 7.34123,163.849, 7.32052,163.221, 7.33923,162.593, 7.3973,161.968, 7.49449,161.348, 7.63041,160.735, 7.80454,160.132, 8.01619,159.54, 8.26452,158.964, 8.54856,158.404, 8.86717,157.863, 9.21912,157.343, 9.603,156.846, 10.0173,156.374, 10.4604,155.929, 10.9306,155.513, 11.4259,155.127, 11.9445,154.773, 12.4843,154.452, 13.0431,154.166, 13.6188,153.915, 14.2091,153.701, 14.8117,153.525, 15.4242,153.387, 16.0441,153.287, 16.6691,153.226, 17.2966,153.205, 17.9243,153.223, 18.5495,153.281, 19.1699,153.378, 19.783,153.513, 20.3864,153.687, 20.9778,153.898, 21.5547,154.146, 22.1149,154.429, 22.6562,154.747, 23.1764,155.099, 23.6736,155.483, 24.1458,155.896, 24.591,156.339, 25.0075,156.809, 25.3938,157.304, 25.7482,157.822, 26.0694,158.362, 26.3561,158.921, 26.6072,159.496, 26.8217,160.086, 26.9987,160.689, 27.1375,161.301, 27.2377,161.921, 27.2987,162.546, 27.3205,163.173" style="fill:lime;stroke:purple;stroke-width:1" />
<polygon points =" 47.3008,163.833, 47.2417,164.458, 47.1436,165.078, 47.0067,165.691, 46.8316,166.294, 46.619,166.885, 46.3697,167.461, 46.0848,168.02, 45.7653,168.561, 45.4125,169.08, 45.0279,169.577, 44.6128,170.048, 44.169,170.492, 43.6982,170.907, 43.2022,171.292, 42.6831,171.646, 42.1428,171.966, 41.5835,172.251, 41.0074,172.501, 40.4167,172.714, 39.8139,172.889, 39.2012,173.027, 38.5811,173.125, 37.956,173.185, 37.3285,173.205, 36.7009,173.186, 36.0757,173.127, 35.4555,173.03, 34.8426,172.893, 34.2394,172.719, 33.6484,172.506, 33.0719,172.258, 32.5122,171.973, 31.9714,171.654, 31.4517,171.302, 30.9551,170.918, 30.4836,170.503, 30.0391,170.059, 29.6233,169.589, 29.2378,169.093, 28.8842,168.574, 28.5639,168.034, 28.2781,167.475, 28.0279,166.899, 27.8144,166.309, 27.6383,165.706, 27.5005,165.094, 27.4013,164.474, 27.3412,163.849, 27.3205,163.221, 27.3392,162.593, 27.3973,161.968, 27.4945,161.348, 27.6304,160.735, 27.8045,160.132, 28.0162,159.54, 28.2645,158.964, 28.5486,158.404, 28.8672,157.863, 29.2191,157.343, 29.603,156.846, 30.0173,156.374, 30.4604,155.929, 30.9306,155.513, 31.4259,155.127, 31.9445,154.773, 32.4843,154.452, 33.0431,154.166, 33.6188,153.915, 34.2091,153.701, 34.8117,153.525, 35.4242,153.387, 36.0441,153.287, 36.6691,153.226, 37.2966,153.205, 37.9243,153.223, 38.5495,153.281, 39.1699,153.378, 39.783,153.513, 40.3864,153.687, 40.9778,153.898, 41.5547,154.146, 42.1149,154.429, 42.6562,154.747, 43.1764,155.099, 43.6736,155.483, 44.1458,155.896, 44.591,156.339, 45.0075,156.809, 45.3938,157.304, 45.7482,157.822, 46.0694,158.362, 46.3561,158.921, 46.6072,159.496, 46.8217,160.086, 46.9987,160.689, 47.1375,161.301, 47.2377,161.921, 47.2987,162.546, 47.3205,163.173" style="fill:lime;stroke:purple;stroke-width:1" />
<polygon points =" 67.3008,163.833, 67.2417,164.458, 67.1436,165.078, 67.0067,165.691, 66.8316,166.294, 66.619,166.885, 66.3697,167.461, 66.0848,168.02, 65.7653,168.561, 65.4125,169.08, 65.0279,169.577, 64.6128,170.048, 64.169,170.492, 63.6982,170.907, 63.2022,171.292, 62.6831,171.646, 62.1428,171.966, 61.5835,172.251, 61.0074,172.501, 60.4167,172.714, 59.8139,172.889, 59.2012,173.027, 58.5811,173.125, 57.956,173.185, 57.3285,173.205, 56.7009,173.186, 56.0757,173.127, 55.4555,173.03, 54.8426,172.893, 54.2394,172.719, 53.6484,172.506, 53.0719,172.258, 52.5122,171.973, 51.9714,171.654, 51.4517,171.302, 50.9551,170.918, 50.4836,170.503, 50.0391,170.059, 49.6233,169.589, 49.2378,169.093, 48.8842,168.574, 48.5639,168.034, 48.2781,167.475, 48.0279,166.899, 47.8144,166.309, 47.6383,165.706, 47.5005,165.094, 47.4013,164.474, 47.3412,163.849, 47.3205,163.221, 47.3392,162.593, 47.3973,161.968, 47.4945,161.348, 47.6304,160.735, 47.8045,160.132, 48.0162,159.54, 48.2645,158.964, 48.5486,158.404, 48.8672,157.863, 49.2191,157.343, 49.603,156.846, 50.0173,156.374, 50.4604,155.929, 50.9306,155.513, 51.4259,155.127, 51.9445,154.773, 52.4843,154.452, 53.0431,154.166, 53.6188,153.915, 54.2091,153.701, 54.8117,153.525, 55.4242,153.387, 56.0441,153.287, 56.6691,153.226, 57.2966,153.205, 57.9243,153.223, 58.5495,153.281, 59.1699,153.378, 59.783,153.513, 60.3864,153.687, 60.9778,153.898, 61.5547,154.146, 62.1149,154.429, 62.6562,154.747, 63.1764,155.099, 63.6736,155.483, 64.1458,155.896, 64.591,156.339, 65.0075,156.809, 65.3938,157.304, 65.7482,157.822, 66.0694,158.362, 66.3561,158.921, 66.6072,159.496, 66.8217,160.086, 66.9987,160.689, 67.1375,161.301, 67.2377,161.921, 67.2987,162.546, 67.3205,163.173" style="fill:lime;stroke:purple;stroke-width:1" />
<polygon points =" 87.3008,163.833, 87.2417,164.458, 87.1436,165.078, 87.0067,165.691, 86.8316,166.294, 86.619,166.885, 86.3697,167.461, 86.0848,168.02, 85.7653,168.561, 85.4125,169.08, 85.0279,169.577, 84.6128,170.048, 84.169,170.492, 83.6982,170.907, 83.2022,171.292, 82.6831,171.646, 82.1428,171.966, 81.5835,172.251, 81.0074,172.501, 80.4167,172.714, 79.8139,172.889, 79.2012,173.027, 78.5811,173.125, 77.956,173.185, 77.3285,173.205, 76.7009,173.186, 76.0757,173.127, 75.4555,173.03, 74.8426,172.893, 74.2394,172.719, 73.6484,172.506, 73.0719,172.258, 72.5122,171.973, 71.9714,171.654, 71.4517,171.302, 70.9551,170.918, 70.4836,170.503, 70.0391,170.059, 69.6233,169.589, 69.2378,169.093, 68.8842,168.574, 68.5639,168.034, 68.2781,167.475, 68.0279,166.899, 67.8144,166.309, 67.6383,165.706, 67.5005,165.094, 67.4013,164.474, 67.3412,163.849, 67.3205,163.221, 67.3392,162.593, 67.3973,161.968, 67.4945,161.348, 67.6304,160.735, 67.8045,160.132, 68.0162,159.54, 68.2645,158.964, 68.5486,158.404, 68.8672,157.863, 69.2191,157.343, 69.603,156.846, 70.0173,156.374, 70.4604,155.929, 70.9306,155.513, 71.4259,155.127, 71.9445,154.773, 72.4843,154.452, 73.0431,154.166, 73.6188,153.915, 74.2091,153.701, 74.8117,153.525, 75.4242,153.387, 76.0441,153.287, 76.6691,153.226, 77.2966,153.205, 77.9243,153.223, 78.5495,153.281, 79.1699,153.378, 79.783,153.513, 80.3864,153.687, 80.9778,153.898, 81.5547,154.146, 82.1149,154.429, 82.6562,154.747, 83.1764,155.099, 83.6736,155.483, 84.1458,155.896, 84.591,156.339, 85.0075,156.809, 85.3938,157.304, 85.7482,157.822, 86.0694,158.362, 86.3561,158.921, 86.6072,159.496, 86.8217,160.086, 86.9987,160.689, 87.1375,161.301, 87.2377,161.921, 87.2987,162.546, 87.3205,163.173" style="fill:lime;stroke:purple;stroke-width:1" />
<polygon points =" 107.301,163.833, 107.242,164.458, 107.144,165.078, 107.007,165.691, 106.832,166.294, 106.619,166.885, 106.37,167.461, 106.085,168.02, 105.765,168.561, 105.413,169.08, 105.028,169.577, 104.613,170.048, 104.169,170.492, 103.698,170.907, 103.202,171.292, 102.683,171.646, 102.143,171.966, 101.583,172.251, 101.007,172.501, 100.417,172.714, 99.8139,172.889, 99.2012,173.027, 98.5811,173.125, 97.956,173.185, 97.3285,173.205, 96.7009,173.186, 96.0757,173.127, 95.4555,173.03, 94.8426,172.893, 94.2394,172.719, 93.6484,172.506, 93.0719,172.258, 92.5122,171.973, 91.9714,171.654, 91.4517,171.302, 90.9551,170.918, 90.4836,170.503, 90.0391,170.059, 89.6233,169.589, 89.2378,169.093, 88.8842,168.574, 88.5639,168.034, 88.2781,167.475, 88.0279,166.899, 87.8144,166.309, 87.6383,165.706, 87.5005,165.094, 87.4013,164.474, 87.3412,163.849, 87.3205,163.221, 87.3392,162.593, 87.3973,161.968, 87.4945,161.348, 87.6304,160.735, 87.8045,160.132, 88.0162,159.54, 88.2645,158.964, 88.5486,158.404, 88.8672,157.863, 89.2191,157.343, 89.603,156.846, 90.0173,156.374, 90.4604,155.929, 90.9306,155.513, 91.4259,155.127, 91.9445,154.773, 92.4843,154.452, 93.0431,154.166, 93.6188,153.915, 94.2091,153.701, 94.8117,153.525, 95.4242,153.387, 96.0441,153.287, 96.6691,153.226, 97.2966,153.205, 97.9243,153.223, 98.5495,153.281, 99.1699,153.378, 99.783,153.513, 100.386,153.687, 100.978,153.898, 101.555,154.146, 102.115,154.429, 102.656,154.747, 103.176,155.099, 103.674,155.483, 104.146,155.896, 104.591,156.339, 105.008,156.809, 105.394,157.304, 105.748,157.822, 106.069,158.362, 106.356,158.921, 106.607,159.496, 106.822,160.086, 106.999,160.689, 107.138,161.301, 107.238,161.921, 107.299,162.546, 107.32,163.173" style="fill:lime;stroke:purple;stroke-width:1" />
<polygon points =" 127.301,163.833, 127.242,164.458, 127.144,165.078, 127.007,165.691, 126.832,166.294, 126.619,166.885, 126.37,167.461, 126.085,168.02, 125.765,168.561, 125.413,169.08, 125.028,169.577, 124.613,170.048, 124.169,170.492, 123.698,170.907, 123.202,171.292, 122.683,171.646, 122.143,171.966, 121.583,172.251, 121.007,172.501, 120.417,172.714, 119.814,172.889, 119.201,173.027, 118.581,173.125, 117.956,173.185, 117.328,173.205, 116.701,173.186, 116.076,173.127, 115.455,173.03, 114.843,172.893, 114.239,172.719, 113.648,172.506, 113.072,172.258, 112.512,171.973, 111.971,171.654, 111.452,171.302, 110.955,170.918, 110.484,170.503, 110.039,170.059, 109.623,169.589, 109.238,169.093, 108.884,168.574, 108.564,168.034, 108.278,167.475, 108.028,166.899, 107.814,166.309, 107.638,165.706, 107.5,165.094, 107.401,164.474, 107.341,163.849, 107.321,163.221, 107.339,162.593, 107.397,161.968, 107.494,161.348, 107.63,160.735, 107.805,160.132, 108.016,159.54, 108.265,158.964, 108.549,158.404, 108.867,157.863, 109.219,157.343, 109.603,156.846, 110.017,156.374, 110.46,155.929, 110.931,155.513, 111.426,155.127, 111.945,154.773, 112.484,154.452, 113.043,154.166, 113.619,153.915, 114.209,153.701, 114.812,153.525, 115.424,153.387, 116.044,153.287, 116.669,153.226, 117.297,153.205, 117.924,153.223, 118.55,153.281, 119.17,153.378, 119.783,153.513, 120.386,153.687, 120.978,153.898, 121.555,154.146, 122.115,154.429, 122.656,154.747, 123.176,155.099, 123.674,155.483, 124.146,155.896, 124.591,156.339, 125.008,156.809, 125.394,157.304, 125.748,157.822, 126.069,158.362, 126.356,158.921, 126.607,159.496, 126.822,160.086, 126.999,160.689, 127.138,161.301, 127.238,161.921, 127.299,162.546, 127.32,163.173" style="fill:lime;stroke:purple;stroke-width:1" />
<polygon points =" 147.301,163.833, 147.242,164.458, 147.144,165.078, 147.007,165.691, 146.832,166.294, 146.619,166.885, 146.37,167.461, 146.085,168.02, 145.765,168.561, 145.413,169.08, 145.028,169.577, 144.613,170.048, 144.169,170.492, 143.698,170.907, 143.202,171.292, 142.683,171.646, 142.143,171.966, 141.583,172.251, 141.007,172.501, 140.417,172.714, 139.814,172.889, 139.201,173.027, 138.581,173.125, 137.956,173.185, 137.328,173.205, 136.701,173.186, 136.076,173.127, 135.455,173.03, 134.843,172.893, 134.239,172.719, 133.648,172.506, 133.072,172.258, 132.512,171.973, 131.971,171.654, 131.452,171.302, 130.955,170.918, 130.484,170.503, 130.039,170.059, 129.623,169.589, 129.238,169.093, 128.884,168.574, 128.564,168.034, 128.278,167.475, 128.028,166.899, 127.814,166.309, 127.638,165.706, 127.5,165.094, 127.401,164.474, 127.341,163.849, 127.321,163.221, 127.339,162.593, 127.397,161.968, 127.494,161.348, 127.63,160.735, 127.805,160.132, 128.016,159.54, 128.265,158.964, 128.549,158.404, 128.867,157.863, 129.219,157.343, 129.603,156.846, 130.017,156.374, 130.46,155.929, 130.931,155.513, 131.426,155.127, 131.945,154.773, 132.484,154.452, 133.043,154.166, 133.619,153.915, 134.209,153.701, 134.812,153.525, 135.424,153.387, 136.044,153.287, 136.669,153.226, 137.297,153.205, 137.924,153.223, 138.55,153.281, 139.17,153.378, 139.783,153.513, 140.386,153.687, 140.978,153.898, 141.555,154.146, 142.115,154.429, 142.656,154.747, 143.176,155.099, 143.674,155.483, 144.146,155.896, 144.591,156.339, 145.008,156.809, 145.394,157.304, 145.748,157.822, 146.069,158.362, 146.356,158.921, 146.607,159.496, 146.822,160.086, 146.999,160.689, 147.138,161.301, 147.238,161.921, 147.299,162.546, 147.32,163.173" style="fill:lime;stroke:purple;stroke-width:1" />
<polygon points =" 167.301,163.833, 167.242,164.458, 167.144,165.078, 167.007,165.691, 166.832,166.294, 166.619,166.885, 166.37,167.461, 166.085,168.02, 165.765,168.561, 165.413,169.08, 165.028,169.577, 164.613,170.048, 164.169,170.492, 163.698,170.907, 163.202,171.292, 162.683,171.646, 162.143,171.966, 161.583,172.251, 161.007,172.501, 160.417,172.714, 159.814,172.889, 159.201,173.027, 158.581,173.125, 157.956,173.185, 157.328,173.205, 156.701,173.186, 156.076,173.127, 155.455,173.03, 154.843,172.893, 154.239,172.719, 153.648,172.506, 153.072,172.258, 152.512,171.973, 151.971,171.654, 151.452,171.302, 150.955,170.918, 150.484,170.503, 150.039,170.059, 149.623,169.589, 149.238,169.093, 148.884,168.574, 148.564,168.034, 148.278,167.475, 148.028,166.899, 147.814,166.309, 147.638,165.706, 147.5,165.094, 147.401,164.474, 147.341,163.849, 147.321,163.221, 147.339,162.593, 147.397,161.968, 147.494,161.348, 147.63,160.735, 147.805,160.132, 148.016,159.54, 148.265,158.964, 148.549,158.404, 148.867,157.863, 149.219,157.343, 149.603,156.846, 150.017,156.374, 150.46,155.929, 150.931,155.513, 151.426,155.127, 151.945,154.773, 152.484,154.452, 153.043,154.166, 153.619,153.915, 154.209,153.701, 154.812,153.525, 155.424,153.387, 156.044,153.287, 156.669,153.226, 157.297,153.205, 157.924,153.223, 158.55,153.281, 159.17,153.378, 159.783,153.513, 160.386,153.687, 160.978,153.898, 161.555,154.146, 162.115,154.429, 162.656,154.747, 163.176,155.099, 163.674,155.483, 164.146,155.896, 164.591,156.339, 165.008,156.809, 165.394,157.304, 165.748,157.822, 166.069,158.362, 166.356,158.921, 166.607,159.496, 166.822,160.086, 166.999,160.689, 167.138,161.301, 167.238,161.921, 167.299,162.546, 167.32,163.173" style="fill:lime;stroke:purple;stroke-width:1" />
<polygon points =" 187.301,163.833, 187.242,164.458, 187.144,165.078, 187.007,165.691, 186.832,166.294, 186.619,166.885, 186.37,167.461, 186.085,168.02, 185.765,168.561, 185.413,169.08, 185.028,169.577, 184.613,170.048, 184.169,170.492, 183.698,170.907, 183.202,171.292, 182.683,171.646, 182.143,171.966, 181.583,172.251, 181.007,172.501, 180.417,172.714, 179.814,172.889, 179.201,173.027, 178.581,173.125, 177.956,173.185, 177.328,173.205, 176.701,173.186, 176.076,173.127, 175.455,173.03, 174.843,172.893, 174.239,172.719, 173.648,172.506, 173.072,172.258, 172.512,171.973, 171.971,171.654, 171.452,171.302, 170.955,170.918, 170.484,170.503, 170.039,170.059, 169.623,169.589, 169.238,169.093, 168.884,168.574, 168.564,168.034, 168.278,167.475, 168.028,166.899, 167.814,166.309, 167.638,165.706, 167.5,165.094, 167.401,164.474, 167.341,163.849, 167.321,163.221, 167.339,162.593, 167.397,161.968, 167.494,161.348, 167.63,160.735, 167.805,160.132, 168.016,159.54, 168.265,158.964, 168.549,158.404, 168.867,157.863, 169.219,157.343, 169.603,156.846, 170.017,156.374, 170.46,155.929, 170.931,155.513, 171.426,155.127, 171.945,154.773, 172.484,154.452, 173.043,154.166, 173.619,153.915, 174.209,153.701, 174.812,153.525, 175.424,153.387, 176.044,153.287, 176.669,153.226, 177.297,153.205, 177.924,153.223, 178.55,153.281, 179.17,153.378, 179.783,153.513, 180.386,153.687, 180.978,153.898, 181.555,154.146, 182.115,154.429, 182.656,154.747, 183.176,155.099, 183.674,155.483, 184.146,155.896, 184.591,156.339, 185.008,156.809, 185.394,157.304, 185.748,157.822, 186.069,158.362, 186.356,158.921, 186.607,159.496, 186.822,160.086, 186.999,160.689, 187.138,161.301, 187.238,161.921, 187.299,162.546, 187.32,163.173" style="fill:lime;stroke:purple;stroke-width:1" />
<polygon points =" 39.9803,143.418, 39.9212,144.043, 39.8231,144.663, 39.6861,145.276, 39.5111,145.879, 39.2985,146.47, 39.0492,147.046, 38.7643,147.606, 38.4448,148.146, 38.092,148.666, 37.7074,149.162, 37.2923,149.633, 36.8485,150.077, 36.3777,150.493, 35.8817,150.878, 35.3626,151.231, 34.8223,151.551, 34.263,151.836, 33.6869,152.086, 33.0962,152.299, 32.4934,152.475, 31.8807,152.612, 31.2606,152.711, 30.6355,152.77, 30.008,152.791, 29.3804,152.771, 28.7552,152.713, 28.1349,152.615, 27.522,152.479, 26.9189,152.304, 26.3279,152.092, 25.7514,151.843, 25.1917,151.559, 24.6509,151.24, 24.1312,150.887, 23.6346,150.503, 23.1631,150.088, 22.7186,149.645, 22.3028,149.174, 21.9173,148.679, 21.5637,148.16, 21.2434,147.62, 20.9576,147.061, 20.7074,146.485, 20.4939,145.894, 20.3178,145.292, 20.1799,144.679, 20.0808,144.059, 20.0207,143.434, 20,142.806, 20.0187,142.179, 20.0768,141.554, 20.174,140.933, 20.3099,140.32, 20.484,139.717, 20.6957,139.126, 20.944,138.549, 21.228,137.989, 21.5467,137.448, 21.8986,136.928, 22.2825,136.431, 22.6968,135.96, 23.1399,135.515, 23.6101,135.098, 24.1054,134.713, 24.624,134.359, 25.1638,134.038, 25.7226,133.752, 26.2983,133.501, 26.8886,133.287, 27.4912,133.11, 28.1037,132.972, 28.7236,132.872, 29.3486,132.812, 29.9761,132.791, 30.6037,132.809, 31.229,132.866, 31.8494,132.963, 32.4625,133.099, 33.0659,133.272, 33.6572,133.483, 34.2341,133.731, 34.7944,134.015, 35.3357,134.333, 35.8559,134.685, 36.3531,135.068, 36.8252,135.482, 37.2705,135.925, 37.687,136.395, 38.0733,136.89, 38.4277,137.408, 38.7489,137.947, 39.0356,138.506, 39.2867,139.081, 39.5012,139.672, 39.6782,140.274, 39.817,140.886, 39.9172,141.506, 39.9782,142.131, 39.9999,142.759" style="fill:lime;stroke:purple;stroke-width:1" />
<polygon points =" 59.9803,143.418, 59.9212,144.043, 59.8231,144.663, 59.6861,145.276, 59.5111,145.879, 59.2985,146.47, 59.0492,147.046, 58.7643,147.606, 58.4448,148.146, 58.092,148.666, 57.7074,149.162, 57.2923,149.633, 56.8485,150.077, 56.3777,150.493, 55.8817,150.878, 55.3626,151.231, 54.8223,151.551, 54.263,151.836, 53.6869,152.086, 53.0962,152.299, 52.4934,152.475, 51.8807,152.612, 51.2606,152.711, 50.6355,152.77, 50.008,152.791, 49.3804,152.771, 48.7552,152.713, 48.1349,152.615, 47.522,152.479, 46.9189,152.304, 46.3279,152.092, 45.7514,151.843, 45.1917,151.559, 44.6509,151.24, 44.1312,150.887, 43.6346,150.503, 43.1631,150.088, 42.7186,149.645, 42.3028,149.174, 41.9173,148.679, 41.5637,148.16, 41.2434,147.62, 40.9576,147.061, 40.7074,146.485, 40.4939,145.894, 40.3178,145.292, 40.1799,144.679, 40.0808,144.059, 40.0207,143.434, 40,142.806, 40.0187,142.179, 40.0768,141.554, 40.174,140.933, 40.3099,140.32, 40.484,139.717, 40.6957,139.126, 40.944,138.549, 41.228,137.989, 41.5467,137.448, 41.8986,136.928, 42.2825,136.431, 42.6968,135.96, 43.1399,135.515, 43.6101,135.098, 44.1054,134.713, 44.624,134.359, 45.1638,134.038, 45.7226,133.752, 46.2983,133.501, 46.8886,133.287, 47.4912,133.11, 48.1037,132.972, 48.7236,132.872, 49.3486,132.812, 49.9761,132.791, 50.6037,132.809, 51.229,132.866, 51.8494,132.963, 52.4625,133.099, 53.0659,133.272, 53.6572,133.483, 54.2341,133.731, 54.7944,134.015, 55.3357,134.333, 55.8559,134.685, 56.3531,135.068, 56.8252,135.482, 57.2705,135.925, 57.687,136.395, 58.0733,136.89, 58.4277,137.408, 58.7489,137.947, 59.0356,138.506, 59.2867,139.081, 59.5012,139.672, 59.6782,140.274, 59.817,140.886, 59.9172,141.506, 59.9782,142.131, 59.9999,142.759" style="fill:lime;stroke:purple;stroke-width:1" />
<polygon points =" 79.9803,143.418, 79.9212,144.043, 79.8231,144.663, 79.6861,145.276, 79.5111,145.879, 79.2985,146.47, 79.0492,147.046, 78.7643,147.606, 78.4448,148.146, 78.092,148.666, 77.7074,149.162, 77.2923,149.633, 76.8485,150.077, 76.3777,150.493, 75.8817,150.878, 75.3626,151.231, 74.8223,151.551, 74.263,151.836, 73.6869,152.086, 73.0962,152.299, 72.4934,152.475, 71.8807,152.612, 71.2606,152.711, 70.6355,152.77, 70.008,152.791, 69.3804,152.771, 68.7552,152.713, 68.1349,152.615, 67.522,152.479, 66.9189,152.304, 66.3279,152.092, 65.7514,151.843, 65.1917,151.559, 64.6509,151.24, 64.1312,150.887, 63.6346,150.503, 63.1631,150.088, 62.7186,149.645, 62.3028,149.174, 61.9173,148.679, 61.5637,148.16, 61.2434,147.62, 60.9576,147.061, 60.7074,146.485, 60.4939,145.894, 60.3178,145.292, 60.1799,144.679, 60.0808,144.059, 60.0207,143.434, 60,142.806, 60.0187,142.179, 60.0768,141.554, 60.174,140.933, 60.3099,140.32, 60.484,139.717, 60.6957,139.126, 60.944,138.549, 61.228,137.989, 61.5467,137.448, 61.8986,136.928, 62.2825,136.431, 62.6968,135.96, 63.1399,135.515, 63.6101,135.098, 64.1054,134.713, 64.624,134.359, 65.1638,134.038, 65.7226,133.752, 66.2983,133.501, 66.8886,133.287, 67.4912,133.11, 68.1037,132.972, 68.7236,132.872, 69.3486,132.812, 69.9761,132.791, 70.6037,132.809, 71.229,132.866, 71.8494,132.963, 72.4625,133.099, 73.0659,133.272, 73.6572,133.483, 74.2341,133.731, 74.7944,134.015, 75.3357,134.333, 75.8559,134.685, 76.3531,135.068, 76.8252,135.482, 77.2705,135.925, 77.687,136.395, 78.0733,136.89, 78.4277,137.408, 78.7489,137.947, 79.0356,138.506, 79.2867,139.081, 79.5012,139.672, 79.6782,140.274, 79.817,140.886, 79.9172,141.506, 79.9782,142.131, 79.9999,142.759" style="fill:lime;stroke:purple;stroke-width:1" />
<polygon points =" 99.9803,143.418, 99.9212,144.043, 99.8231,144.663, 99.6861,145.276, 99.5111,145.879, 99.2985,146.47, 99.0492,147.046, 98.7643,147.606, 98.4448,148.146, 98.092,148.666, 97.7074,149.162, 97.2923,149.633, 96.8485,150.077, 96.3777,150.493, 95.8817,150.878, 95.3626,151.231, 94.8223,151.551, 94.263,151.836, 93.6869,152.086, 93.0962,152.299, 92.4934,152.475, 91.8807,152.612, 91.2606,152.711, 90.6355,152.77, 90.008,152.791, 89.3804,152.771, 88.7552,152.713, 88.1349,152.615, 87.522,152.479, 86.9189,152.304, 86.3279,152.092, 85.7514,151.843, 85.1917,151.559, 84.6509,151.24, 84.1312,150.887, 83.6346,150.503, 83.1631,150.088, 82.7186,149.645, 82.3028,149.174, 81.9173,148.679, 81.5637,148.16, 81.2434,147.62, 80.9576,147.061, 80.7074,146.485, 80.4939,145.894, 80.3178,145.292, 80.1799,144.679, 80.0808,144.059, 80.0207,143.434, 80,142.806, 80.0187,142.179, 80.0768,141.554, 80.174,140.933, 80.3099,140.32, 80.484,139.717, 80.6957,139.126, 80.944,138.549, 81.228,137.989, 81.5467,137.448, 81.8986,136.928, 82.2825,136.431, 82.6968,135.96, 83.1399,135.515, 83.6101,135.098, 84.1054,134.713, 84.624,134.359, 85.1638,134.038, 85.7226,133.752, 86.2983,133.501, 86.8886,133.287, 87.4912,133.11, 88.1037,132.972, 88.7236,132.872, 89.3486,132.812, 89.9761,132.791, 90.6037,132.809, 91.229,132.866, 91.8494,132.963, 92.4625,133.099, 93.0659,133.272, 93.6572,133.483, 94.2341,133.731, 94.7944,134.015, 95.3357,134.333, 95.8559,134.685, 96.3531,135.068, 96.8252,135.482, 97.2705,135.925, 97.687,136.395, 98.0733,136.89, 98.4277,137.408, 98.7489,137.947, 99.0356,138.506, 99.2867,139.081, 99.5012,139.672, 99.6782,140.274, 99.817,140.886, 99.9172,141.506, 99.9782,142.131, 99.9999,142.759" style="fill:lime;stroke:purple;stroke-width:1" />
<polygon points =" 119.98,143.418, 119.921,144.043, 119.823,144.663, 119.686,145.276, 119.511,145.879, 119.298,146.47, 119.049,147.046, 118.764,147.606, 118.445,148.146, 118.092,148.666, 117.707,149.162, 117.292,149.633, 116.848,150.077, 116.378,150.493, 115.882,150.878, 115.363,151.231, 114.822,151.551, 114.263,151.836, 113.687,152.086, 113.096,152.299, 112.493,152.475, 111.881,152.612, 111.261,152.711, 110.636,152.77, 110.008,152.791, 109.38,152.771, 108.755,152.713, 108.135,152.615, 107.522,152.479, 106.919,152.304, 106.328,152.092, 105.751,151.843, 105.192,151.559, 104.651,151.24, 104.131,150.887, 103.635,150.503, 103.163,150.088, 102.719,149.645, 102.303,149.174, 101.917,148.679, 101.564,148.16, 101.243,147.62, 100.958,147.061, 100.707,146.485, 100.494,145.894, 100.318,145.292, 100.18,144.679, 100.081,144.059, 100.021,143.434, 100,142.806, 100.019,142.179, 100.077,141.554, 100.174,140.933, 100.31,140.32, 100.484,139.717, 100.696,139.126, 100.944,138.549, 101.228,137.989, 101.547,137.448, 101.899,136.928, 102.282,136.431, 102.697,135.96, 103.14,135.515, 103.61,135.098, 104.105,134.713, 104.624,134.359, 105.164,134.038, 105.723,133.752, 106.298,133.501, 106.889,133.287, 107.491,133.11, 108.104,132.972, 108.724,132.872, 109.349,132.812, 109.976,132.791, 110.604,132.809, 111.229,132.866, 111.849,132.963, 112.463,133.099, 113.066,133.272, 113.657,133.483, 114.234,133.731, 114.794,134.015, 115.336,134.333, 115.856,134.685, 116.353,135.068, 116.825,135.482, 117.27,135.925, 117.687,136.395, 118.073,136.89, 118.428,137.408, 118.749,137.947, 119.036,138.506, 119.287,139.081, 119.501,139.672, 119.678,140.274, 119.817,140.886, 119.917,141.506, 119.978,142.131, 120,142.759" style="fill:lime;stroke:purple;stroke-width:1" />
<polygon points =" 139.98,143.418, 139.921,144.043, 139.823,144.663, 139.686,145.276, 139.511,145.879, 139.298,146.47, 139.049,147.046, 138.764,147.606, 138.445,148.146, 138.092,148.666, 137.707,149.162, 137.292,149.633, 136.848,150.077, 136.378,150.493, 135.882,150.878, 135.363,151.231, 134.822,151.551, 134.263,151.836, 133.687,152.086, 133.096,152.299, 132.493,152.475, 131.881,152.612, 131.261,152.711, 130.636,152.77, 130.008,152.791, 129.38,152.771, 128.755,152.713, 128.135,152.615, 127.522,152.479, 126.919,152.304, 126.328,152.092, 125.751,151.843, 125.192,151.559, 124.651,151.24, 124.131,150.887, 123.635,150.503, 123.163,150.088, 122.719,149.645, 122.303,149.174, 121.917,148.679, 121.564,148.16, 121.243,147.62, 120.958,147.061, 120.707,146.485, 120.494,145.894, 120.318,145.292, 120.18,144.679, 120.081,144.059, 120.021,143.434, 120,142.806, 120.019,142.179, 120.077,141.554, 120.174,140.933, 120.31,140.32, 120.484,139.717, 120.696,139.126, 120.944,138.549, 121.228,137.989, 121.547,137.448, 121.899,136.928, 122.282,136.431, 122.697,135.96, 123.14,135.515, 123.61,135.098, 124.105,134.713, 124.624,134.359, 125.164,134.038, 125.723,133.752, 126.298,133.501, 126.889,133.287, 127.491,133.11, 128.104,132.972, 128.724,132.872, 129.349,132.812, 129.976,132.791, 130.604,132.809, 131.229,132.866, 131.849,132.963, 132.463,133.099, 133.066,133.272, 133.657,133.483, 134.234,133.731, 134.794,134.015, 135.336,134.333, 135.856,134.685, 136.353,135.068, 136.825,135.482, 137.27,135.925, 137.687,136.395, 138.073,136.89, 138.428,137.408, 138.749,137.947, 139.036,138.506, 139.287,139.081, 139.501,139.672, 139.678,140.274, 139.817,140.886, 139.917,141.506, 139.978,142.131, 140,142.759" style="fill:lime;stroke:purple;stroke-width:1" />
<polygon points =" 159.98,143.418, 159.921,144.043, 159.823,144.663, 159.686,145.276, 159.511,145.879, 159.298,146.47, 159.049,147.046, 158.764,147.606, 158.445,148.146, 158.092,148.666, 157.707,149.162, 157.292,149.633, 156.848,150.077, 156.378,150.493, 155.882,150.878, 155.363,151.231, 154.822,151.551, 154.263,151.836, 153.687,152.086, 153.096,152.299, 152.493,152.475, 151.881,152.612, 151.261,152.711, 150.636,152.77, 150.008,152.791, 149.38,152.771, 148.755,152.713, 148.135,152.615, 147.522,152.479, 146.919,152.304, 146.328,152.092, 145.751,151.843, 145.192,151.559, 144.651,151.24, 144.131,150.887, 143.635,150.503, 143.163,150.088, 142.719,149.645, 142.303,149.174, 141.917,148.679, 141.564,148.16, 141.243,147.62, 140.958,147.061, 140.707,146.485, 140.494,145.894, 140.318,145.292, 140.18,144.679, 140.081,144.059, 140.021,143.434, 140,142.806, 140.019,142.179, 140.077,141.554, 140.174,140.933, 140.31,140.32, 140.484,139.717, 140.696,139.126, 140.944,138.549, 141.228,137.989, 141.547,137.448, 141.899,136.928, 142.282,136.431, 142.697,135.96, 143.14,135.515, 143.61,135.098, 144.105,134.713, 144.624,134.359, 145.164,134.038, 145.723,133.752, 146.298,133.501, 146.889,133.287, 147.491,133.11, 148.104,132.972, 148.724,132.872, 149.349,132.812, 149.976,132.791, 150.604,132.809, 151.229,132.866, 151.849,132.963, 152.463,133.099, 153.066,133.272, 153.657,133.483, 154.234,133.731, 154.794,134.015, 155.336,134.333, 155.856,134.685, 156.353,135.068, 156.825,135.482, 157.27,135.925, 157.687,136.395, 158.073,136.89, 158.428,137.408, 158.749,137.947, 159.036,138.506, 159.287,139.081, 159.501,139.672, 159.678,140.274, 159.817,140.886, 159.917,141.506, 159.978,142.131, 160,142.759" style="fill:lime;stroke:purple;stroke-width:1" />
<polygon points =" 179.98,143.418, 179.921,144.043, 179.823,144.663, 179.686,145.276, 179.511,145.879, 179.298,146.47, 179.049,147.046, 178.764,147.606, 178.445,148.146, 178.092,148.666, 177.707,149.162, 177.292,149.633, 176.848,150.077, 176.378,150.493, 175.882,150.878, 175.363,151.231, 174.822,151.551, 174.263,151.836, 173.687,152.086, 173.096,152.299, 172.493,152.475, 171.881,152.612, 171.261,152.711, 170.636,152.77, 170.008,152.791, 169.38,152.771, 168.755,152.713, 168.135,152.615, 167.522,152.479, 166.919,152.304, 166.328,152.092, 165.751,151.843, 165.192,151.559, 164.651,151.24, 164.131,150.887, 163.635,150.503, 163.163,150.088, 162.719,149.645, 162.303,149.174, 161.917,148.679, 161.564,148.16, 161.243,147.62, 160.958,147.061, 160.707,146.485, 160.494,145.894, 160.318,145.292, 160.18,144.679, 160.081,144.059, 160.021,143.434, 160,142.806, 160.019,142.179, 160.077,141.554, 160.174,140.933, 160.31,140.32, 160.484,139.717, 160.696,139.126, 160.944,138.549, 161.228,137.989, 161.547,137.448, 161.899,136.928, 162.282,136.431, 162.697,135.96, 163.14,135.515, 163.61,135.098, 164.105,134.713, 164.624,134.359, 165.164,134.038, 165.723,133.752, 166.298,133.501, 166.889,133.287, 167.491,133.11, 168.104,132.972, 168.724,132.872, 169.349,132.812, 169.976,132.791, 170.604,132.809, 171.229,132.866, 171.849,132.963, 172.463,133.099, 173.066,133.272, 173.657,133.483, 174.234,133.731, 174.794,134.015, 175.336,134.333, 175.856,134.685, 176.353,135.068, 176.825,135.482, 177.27,135.925, 177.687,136.395, 178.073,136.89, 178.428,137.408, 178.749,137.947, 179.036,138.506, 179.287,139.081, 179.501,139.672, 179.678,140.274, 179.817,140.886, 179.917,141.506, 179.978,142.131, 180,142.759" style="fill:lime;stroke:purple;stroke-width:1" />
<polygon points =" 49.9803,126.098, 49.9212,126.723, 49.8231,127.343, 49.6861,127.956, 49.5111,128.559, 49.2985,129.15, 49.0492,129.726, 48.7643,130.285, 48.4448,130.826, 48.092,131.345, 47.7074,131.842, 47.2923,132.313, 46.8485,132.757, 46.3777,133.172, 45.8817,133.557, 45.3626,133.911, 44.8223,134.231, 44.263,134.516, 43.6869,134.766, 43.0962,134.979, 42.4934,135.154, 41.8807,135.292, 41.2606,135.39, 40.6355,135.45, 40.008,135.47, 39.3804,135.451, 38.7552,135.392, 38.1349,135.295, 37.522,135.158, 36.9189,134.984, 36.3279,134.771, 35.7514,134.523, 35.1917,134.238, 34.6509,133.919, 34.1312,133.567, 33.6346,133.182, 33.1631,132.768, 32.7186,132.324, 32.3028,131.854, 31.9173,131.358, 31.5637,130.839, 31.2434,130.299, 30.9576,129.74, 30.7074,129.164, 30.4939,128.574, 30.3178,127.971, 30.1799,127.359, 30.0808,126.739, 30.0207,126.114, 30,125.486, 30.0187,124.858, 30.0768,124.233, 30.174,123.613, 30.3099,123, 30.484,122.397, 30.6957,121.805, 30.944,121.229, 31.228,120.669, 31.5467,120.128, 31.8986,119.608, 32.2825,119.111, 32.6968,118.639, 33.1399,118.194, 33.6101,117.778, 34.1054,117.392, 34.624,117.038, 35.1638,116.717, 35.7226,116.431, 36.2983,116.18, 36.8886,115.966, 37.4912,115.79, 38.1037,115.652, 38.7236,115.552, 39.3486,115.491, 39.9761,115.47, 40.6037,115.488, 41.229,115.546, 41.8494,115.643, 42.4625,115.778, 43.0659,115.952, 43.6572,116.163, 44.2341,116.411, 44.7944,116.694, 45.3357,117.012, 45.8559,117.364, 46.3531,117.747, 46.8252,118.161, 47.2705,118.604, 47.687,119.074, 48.0733,119.569, 48.4277,120.087, 48.7489,120.627, 49.0356,121.185, 49.2867,121.761, 49.5012,122.351, 49.6782,122.954, 49.817,123.566, 49.9172,124.186, 49.9782,124.811, 49.9999,125.438" style="fill:lime;stroke:purple;stroke-width:1" />
<polygon points =" 69.9803,126.098, 69.9212,126.723, 69.8231,127.343, 69.6861,127.956, 69.5111,128.559, 69.2985,129.15, 69.0492,129.726, 68.7643,130.285, 68.4448,130.826, 68.092,131.345, 67.7074,131.842, 67.2923,132.313, 66.8485,132.757, 66.3777,133.172, 65.8817,133.557, 65.3626,133.911, 64.8223,134.231, 64.263,134.516, 63.6869,134.766, 63.0962,134.979, 62.4934,135.154, 61.8807,135.292, 61.2606,135.39, 60.6355,135.45, 60.008,135.47, 59.3804,135.451, 58.7552,135.392, 58.1349,135.295, 57.522,135.158, 56.9189,134.984, 56.3279,134.771, 55.7514,134.523, 55.1917,134.238, 54.6509,133.919, 54.1312,133.567, 53.6346,133.182, 53.1631,132.768, 52.7186,132.324, 52.3028,131.854, 51.9173,131.358, 51.5637,130.839, 51.2434,130.299, 50.9576,129.74, 50.7074,129.164, 50.4939,128.574, 50.3178,127.971, 50.1799,127.359, 50.0808,126.739, 50.0207,126.114, 50,125.486, 50.0187,124.858, 50.0768,124.233, 50.174,123.613, 50.3099,123, 50.484,122.397, 50.6957,121.805, 50.944,121.229, 51.228,120.669, 51.5467,120.128, 51.8986,119.608, 52.2825,119.111, 52.6968,118.639, 53.1399,118.194, 53.6101,117.778, 54.1054,117.392, 54.624,117.038, 55.1638,116.717, 55.7226,116.431, 56.2983,116.18, 56.8886,115.966, 57.4912,115.79, 58.1037,115.652, 58.7236,115.552, 59.3486,115.491, 59.9761,115.47, 60.6037,115.488, 61.229,115.546, 61.8494,115.643, 62.4625,115.778, 63.0659,115.952, 63.6572,116.163, 64.2341,116.411, 64.7944,116.694, 65.3357,117.012, 65.8559,117.364, 66.3531,117.747, 66.8252,118.161, 67.2705,118.604, 67.687,119.074, 68.0733,119.569, 68.4277,120.087, 68.7489,120.627, 69.0356,121.185, 69.2867,121.761, 69.5012,122.351, 69.6782,122.954, 69.817,123.566, 69.9172,124.186, 69.9782,124.811, 69.9999,125.438" style="fill:lime;stroke:purple;stroke-width:1" />
<polygon points =" 89.9803,126.098, 89.9212,126.723, 89.8231,127.343, 89.6861,127.956, 89.5111,128.559, 89.2985,129.15, 89.0492,129.726, 88.7643,130.285, 88.4448,130.826, 88.092,131.345, 87.7074,131.842, 87.2923,132.313, 86.8485,132.757, 86.3777,133.172, 85.8817,133.557, 85.3626,133.911, 84.8223,134.231, 84.263,134.516, 83.6869,134.766, 83.0962,134.979, 82.4934,135.154, 81.8807,135.292, 81.2606,135.39, 80.6355,135.45, 80.008,135.47, 79.3804,135.451, 78.7552,135.392, 78.1349,135.295, 77.522,135.158, 76.9189,134.984, 76.3279,134.771, 75.7514,134.523, 75.1917,134.238, 74.6509,133.919, 74.1312,133.567, 73.6346,133.182, 73.1631,132.768, 72.7186,132.324, 72.3028,131.854, 71.9173,131.358, 71.5637,130.839, 71.2434,130.299, 70.9576,129.74, 70.7074,129.164, 70.4939,128.574, 70.3178,127.971, 70.1799,127.359, 70.0808,126.739, 70.0207,126.114, 70,125.486, 70.0187,124.858, 70.0768,124.233, 70.174,123.613, 70.3099,123, 70.484,122.397, 70.6957,121.805, 70.944,121.229, 71.228,120.669, 71.5467,120.128, 71.8986,119.608, 72.2825,119.111, 72.6968,118.639, 73.1399,118.194, 73.6101,117.778, 74.1054,117.392, 74.624,117.038, 75.1638,116.717, 75.7226,116.431, 76.2983,116.18, 76.8886,115.966, 77.4912,115.79, 78.1037,115.652, 78.7236,115.552, 79.3486,115.491, 79.9761,115.47, 80.6037,115.488, 81.229,115.546, 81.8494,115.643, 82.4625,115.778, 83.0659,115.952, 83.6572,116.163, 84.2341,116.411, 84.7944,116.694, 85.3357,117.012, 85.8559,117.364, 86.3531,117.747, 86.8252,118.161, 87.2705,118.604, 87.687,119.074, 88.0733,119.569, 88.4277,120.087, 88.7489,120.627, 89.0356,121.185, 89.2867,121.761, 89.5012,122.351, 89.6782,122.954, 89.817,123.566, 89.9172,124.186, 89.9782,124.811, 89.9999,125.438" style="fill:lime;stroke:purple;stroke-width:1" />
<polygon points =" 109.98,126.098, 109.921,126.723, 109.823,127.343, 109.686,127.956, 109.511,128.559, 109.298,129.15, 109.049,129.726, 108.764,130.285, 108.445,130.826, 108.092,131.345, 107.707,131.842, 107.292,132.313, 106.848,132.757, 106.378,133.172, 105.882,133.557, 105.363,133.911, 104.822,134.231, 104.263,134.516, 103.687,134.766, 103.096,134.979, 102.493,135.154, 101.881,135.292, 101.261,135.39, 100.636,135.45, 100.008,135.47, 99.3804,135.451, 98.7552,135.392, 98.1349,135.295, 97.522,135.158, 96.9189,134.984, 96.3279,134.771, 95.7514,134.523, 95.1917,134.238, 94.6509,133.919, 94.1312,133.567, 93.6346,133.182, 93.1631,132.768, 92.7186,132.324, 92.3028,131.854, 91.9173,131.358, 91.5637,130.839, 91.2434,130.299, 90.9576,129.74, 90.7074,129.164, 90.4939,128.574, 90.3178,127.971, 90.1799,127.359, 90.0808,126.739, 90.0207,126.114, 90,125.486, 90.0187,124.858, 90.0768,124.233, 90.174,123.613, 90.3099,123, 90.484,122.397, 90.6957,121.805, 90.944,121.229, 91.228,120.669, 91.5467,120.128, 91.8986,119.608, 92.2825,119.111, 92.6968,118.639, 93.1399,118.194, 93.6101,117.778, 94.1054,117.392, 94.624,117.038, 95.1638,116.717, 95.7226,116.431, 96.2983,116.18, 96.8886,115.966, 97.4912,115.79, 98.1037,115.652, 98.7236,115.552, 99.3486,115.491, 99.9761,115.47, 100.604,115.488, 101.229,115.546, 101.849,115.643, 102.463,115.778, 103.066,115.952, 103.657,116.163, 104.234,116.411, 104.794,116.694, 105.336,117.012, 105.856,117.364, 106.353,117.747, 106.825,118.161, 107.27,118.604, 107.687,119.074, 108.073,119.569, 108.428,120.087, 108.749,120.627, 109.036,121.185, 109.287,121.761, 109.501,122.351, 109.678,122.954, 109.817,123.566, 109.917,124.186, 109.978,124.811, 110,125.438" style="fill:lime;stroke:purple;stroke-width:1" />
<polygon points =" 129.98,126.098, 129.921,126.723, 129.823,127.343, 129.686,127.956, 129.511,128.559, 129.298,129.15, 129.049,129.726, 128.764,130.285, 128.445,130.826, 128.092,131.345, 127.707,131.842, 127.292,132.313, 126.848,132.757, 126.378,133.172, 125.882,133.557, 125.363,133.911, 124.822,134.231, 124.263,134.516, 123.687,134.766, 123.096,134.979, 122.493,135.154, 121.881,135.292, 121.261,135.39, 120.636,135.45, 120.008,135.47, 119.38,135.451, 118.755,135.392, 118.135,135.295, 117.522,135.158, 116.919,134.984, 116.328,134.771, 115.751,134.523, 115.192,134.238, 114.651,133.919, 114.131,133.567, 113.635,133.182, 113.163,132.768, 112.719,132.324, 112.303,131.854, 111.917,131.358, 111.564,130.839, 111.243,130.299, 110.958,129.74, 110.707,129.164, 110.494,128.574, 110.318,127.971, 110.18,127.359, 110.081,126.739, 110.021,126.114, 110,125.486, 110.019,124.858, 110.077,124.233, 110.174,123.613, 110.31,123, 110.484,122.397, 110.696,121.805, 110.944,121.229, 111.228,120.669, 111.547,120.128, 111.899,119.608, 112.282,119.111, 112.697,118.639, 113.14,118.194, 113.61,117.778, 114.105,117.392, 114.624,117.038, 115.164,116.717, 115.723,116.431, 116.298,116.18, 116.889,115.966, 117.491,115.79, 118.104,115.652, 118.724,115.552, 119.349,115.491, 119.976,115.47, 120.604,115.488, 121.229,115.546, 121.849,115.643, 122.463,115.778, 123.066,115.952, 123.657,116.163, 124.234,116.411, 124.794,116.694, 125.336,117.012, 125.856,117.364, 126.353,117.747, 126.825,118.161, 127.27,118.604, 127.687,119.074, 128.073,119.569, 128.428,120.087, 128.749,120.627, 129.036,121.185, 129.287,121.761, 129.501,122.351, 129.678,122.954, 129.817,123.566, 129.917,124.186, 129.978,124.811, 130,125.438" style="fill:lime;stroke:purple;stroke-width:1" />
<polygon points =" 149.98,126.098, 149.921,126.723, 149.823,127.343, 149.686,127.956, 149.511,128.559, 149.298,129.15, 149.049,129.726, 148.764,130.285, 148.445,130.826, 148.092,131.345, 147.707,131.842, 147.292,132.313, 146.848,132.757, 146.378,133.172, 145.882,133.557, 145.363,133.911, 144.822,134.231, 144.263,134.516, 143.687,134.766, 143.096,134.979, 142.493,135.154, 141.881,135.292, 141.261,135.39, 140.636,135.45, 140.008,135.47, 139.38,135.451, 138.755,135.392, 138.135,135.295, 137.522,135.158, 136.919,134.984, 136.328,134.771, 135.751,134.523, 135.192,134.238, 134.651,133.919, 134.131,133.567, 133.635,133.182, 133.163,132.768, 132.719,132.324, 132.303,131.854, 131.917,131.358, 131.564,130.839, 131.243,130.299, 130.958,129.74, 130.707,129.164, 130.494,128.574, 130.318,127.971, 130.18,127.359, 130.081,126.739, 130.021,126.114, 130,125.486, 130.019,124.858, 130.077,124.233, 130.174,123.613, 130.31,123, 130.484,122.397, 130.696,121.805, 130.944,121.229, 131.228,120.669, 131.547,120.128, 131.899,119.608, 132.282,119.111, 132.697,118.639, 133.14,118.194, 133.61,117.778, 134.105,117.392, 134.624,117.038, 135.164,116.717, 135.723,116.431, 136.298,116.18, 136.889,115.966, 137.491,115.79, 138.104,115.652, 138.724,115.552, 139.349,115.491, 139.976,115.47, 140.604,115.488, 141.229,115.546, 141.849,115.643, 142.463,115.778, 143.066,115.952, 143.657,116.163, 144.234,116.411, 144.794,116.694, 145.336,117.012, 145.856,117.364, 146.353,117.747, 146.825,118.161, 147.27,118.604, 147.687,119.074, 148.073,119.569, 148.428,120.087, 148.749,120.627, 149.036,121.185, 149.287,121.761, 149.501,122.351, 149.678,122.954, 149.817,123.566, 149.917,124.186, 149.978,124.811, 150,125.438" style="fill:lime;stroke:purple;stroke-width:1" />
<polygon points =" 169.98,126.098, 169.921,126.723, 169.823,127.343, 169.686,127.956, 169.511,128.559, 169.298,129.15, 169.049,129.726, 168.764,130.285, 168.445,130.826, 168.092,131.345, 167.707,131.842, 167.292,132.313, 166.848,132.757, 166.378,133.172, 165.882,133.557, 165.363,133.911, 164.822,134.231, 164.263,134.516, 163.687,134.766, 163.096,134.979, 162.493,135.154, 161.881,135.292, 161.261,135.39, 160.636,135.45, 160.008,135.47, 159.38,135.451, 158.755,135.392, 158.135,135.295, 157.522,135.158, 156.919,134.984, 156.328,134.771, 155.751,134.523, 155.192,134.238, 154.651,133.919, 154.131,133.567, 153.635,133.182, 153.163,132.768, 152.719,132.324, 152.303,131.854, 151.917,131.358, 151.564,130.839, 151.243,130.299, 150.958,129.74, 150.707,129.164, 150.494,128.574, 150.318,127.971, 150.18,127.359, 150.081,126.739, 150.021,126.114, 150,125.486, 150.019,124.858, 150.077,124.233, 150.174,123.613, 150.31,123, 150.484,122.397, 150.696,121.805, 150.944,121.229, 151.228,120.669, 151.547,120.128, 151.899,119.608, 152.282,119.111, 152.697,118.639, 153.14,118.194, 153.61,117.778, 154.105,117.392, 154.624,117.038, 155.164,116.717, 155.723,116.431, 156.298,116.18, 156.889,115.966, 157.491,115.79, 158.104,115.652, 158.724,115.552, 159.349,115.491, 159.976,115.47, 160.604,115.488, 161.229,115.546, 161.849,115.643, 162.463,115.778, 163.066,115.952, 163.657,116.163, 164.234,116.411, 164.794,116.694, 165.336,117.012, 165.856,117.364, 166.353,117.747, 166.825,118.161, 167.27,118.604, 167.687,119.074, 168.073,119.569, 168.428,120.087, 168.749,120.627, 169.036,121.185, 169.287,121.761, 169.501,122.351, 169.678,122.954, 169.817,123.566, 169.917,124.186, 169.978,124.811, 170,125.438" style="fill:lime;stroke:purple;stroke-width:1" />
<polygon points =" 59.9803,108.777, 59.9212,109.402, 59.8231,110.022, 59.6861,110.635, 59.5111,111.238, 59.2985,111.829, 59.0492,112.405, 58.7643,112.965, 58.4448,113.505, 58.092,114.025, 57.7074,114.521, 57.2923,114.992, 56.8485,115.436, 56.3777,115.852, 55.8817,116.237, 55.3626,116.59, 54.8223,116.91, 54.263,117.195, 53.6869,117.445, 53.0962,117.658, 52.4934,117.834, 51.8807,117.971, 51.2606,118.07, 50.6355,118.129, 50.008,118.15, 49.3804,118.13, 48.7552,118.072, 48.1349,117.974, 47.522,117.838, 46.9189,117.663, 46.3279,117.451, 45.7514,117.202, 45.1917,116.918, 44.6509,116.599, 44.1312,116.246, 43.6346,115.862, 43.1631,115.447, 42.7186,115.004, 42.3028,114.533, 41.9173,114.038, 41.5637,113.519, 41.2434,112.979, 40.9576,112.42, 40.7074,111.844, 40.4939,111.253, 40.3178,110.651, 40.1799,110.038, 40.0808,109.418, 40.0207,108.793, 40,108.165, 40.0187,107.538, 40.0768,106.913, 40.174,106.292, 40.3099,105.679, 40.484,105.076, 40.6957,104.485, 40.944,103.908, 41.228,103.348, 41.5467,102.807, 41.8986,102.287, 42.2825,101.79, 42.6968,101.318, 43.1399,100.874, 43.6101,100.457, 44.1054,100.072, 44.624,99.7175, 45.1638,99.3968, 45.7226,99.1105, 46.2983,98.8599, 46.8886,98.6459, 47.4912,98.4694, 48.1037,98.331, 48.7236,98.2313, 49.3486,98.1708, 49.9761,98.1496, 50.6037,98.1678, 51.229,98.2254, 51.8494,98.322, 52.4625,98.4575, 53.0659,98.6311, 53.6572,98.8423, 54.2341,99.0902, 54.7944,99.3738, 55.3357,99.692, 55.8559,100.043, 56.3531,100.427, 56.8252,100.841, 57.2705,101.284, 57.687,101.753, 58.0733,102.249, 58.4277,102.767, 58.7489,103.306, 59.0356,103.865, 59.2867,104.44, 59.5012,105.031, 59.6782,105.633, 59.817,106.245, 59.9172,106.865, 59.9782,107.49, 59.9999,108.118" style="fill:lime;stroke:purple;stroke-width:1" />
<polygon points =" 79.9803,108.777, 79.9212,109.402, 79.8231,110.022, 79.6861,110.635, 79.5111,111.238, 79.2985,111.829, 79.0492,112.405, 78.7643,112.965, 78.4448,113.505, 78.092,114.025, 77.7074,114.521, 77.2923,114.992, 76.8485,115.436, 76.3777,115.852, 75.8817,116.237, 75.3626,116.59, 74.8223,116.91, 74.263,117.195, 73.6869,117.445, 73.0962,117.658, 72.4934,117.834, 71.8807,117.971, 71.2606,118.07, 70.6355,118.129, 70.008,118.15, 69.3804,118.13, 68.7552,118.072, 68.1349,117.974, 67.522,117.838, 66.9189,117.663, 66.3279,117.451, 65.7514,117.202, 65.1917,116.918, 64.6509,116.599, 64.1312,116.246, 63.6346,115.862, 63.1631,115.447, 62.7186,115.004, 62.3028,114.533, 61.9173,114.038, 61.5637,113.519, 61.2434,112.979, 60.9576,112.42, 60.7074,111.844, 60.4939,111.253, 60.3178,110.651, 60.1799,110.038, 60.0808,109.418, 60.0207,108.793, 60,108.165, 60.0187,107.538, 60.0768,106.913, 60.174,106.292, 60.3099,105.679, 60.484,105.076, 60.6957,104.485, 60.944,103.908, 61.228,103.348, 61.5467,102.807, 61.8986,102.287, 62.2825,101.79, 62.6968,101.318, 63.1399,100.874, 63.6101,100.457, 64.1054,100.072, 64.624,99.7175, 65.1638,99.3968, 65.7226,99.1105, 66.2983,98.8599, 66.8886,98.6459, 67.4912,98.4694, 68.1037,98.331, 68.7236,98.2313, 69.3486,98.1708, 69.9761,98.1496, 70.6037,98.1678, 71.229,98.2254, 71.8494,98.322, 72.4625,98.4575, 73.0659,98.6311, 73.6572,98.8423, 74.2341,99.0902, 74.7944,99.3738, 75.3357,99.692, 75.8559,100.043, 76.3531,100.427, 76.8252,100.841, 77.2705,101.284, 77.687,101.753, 78.0733,102.249, 78.4277,102.767, 78.7489,103.306, 79.0356,103.865, 79.2867,104.44, 79.5012,105.031, 79.6782,105.633, 79.817,106.245, 79.9172,106.865, 79.9782,107.49, 79.9999,108.118" style="fill:lime;stroke:purple;stroke-width:1" />
<polygon points =" 99.9803,108.777, 99.9212,109.402, 99.8231,110.022, 99.6861,110.635, 99.5111,111.238, 99.2985,111.829, 99.0492,112.405, 98.7643,112.965, 98.4448,113.505, 98.092,114.025, 97.7074,114.521, 97.2923,114.992, 96.8485,115.436, 96.3777,115.852, 95.8817,116.237, 95.3626,116.59, 94.8223,116.91, 94.263,117.195, 93.6869,117.445, 93.0962,117.658, 92.4934,117.834, 91.8807,117.971, 91.2606,118.07, 90.6355,118.129, 90.008,118.15, 89.3804,118.13, 88.7552,118.072, 88.1349,117.974, 87.522,117.838, 86.9189,117.663, 86.3279,117.451, 85.7514,117.202, 85.1917,116.918, 84.6509,116.599, 84.1312,116.246, 83.6346,115.862, 83.1631,115.447, 82.7186,115.004, 82.3028,114.533, 81.9173,114.038, 81.5637,113.519, 81.2434,112.979, 80.9576,112.42, 80.7074,111.844, 80.4939,111.253, 80.3178,110.651, 80.1799,110.038, 80.0808,109.418, 80.0207,108.793, 80,108.165, 80.0187,107.538, 80.0768,106.913, 80.174,106.292, 80.3099,105.679, 80.484,105.076, 80.6957,104.485, 80.944,103.908, 81.228,103.348, 81.5467,102.807, 81.8986,102.287, 82.2825,101.79, 82.6968,101.318, 83.1399,100.874, 83.6101,100.457, 84.1054,100.072, 84.624,99.7175, 85.1638,99.3968, 85.7226,99.1105, 86.2983,98.8599, 86.8886,98.6459, 87.4912,98.4694, 88.1037,98.331, 88.7236,98.2313, 89.3486,98.1708, 89.9761,98.1496, 90.6037,98.1678, 91.229,98.2254, 91.8494,98.322, 92.4625,98.4575, 93.0659,98.6311, 93.6572,98.8423, 94.2341,99.0902, 94.7944,99.3738, 95.3357,99.692, 95.8559,100.043, 96.3531,100.427, 96.8252,100.841, 97.2705,101.284, 97.687,101.753, 98.0733,102.249, 98.4277,102.767, 98.7489,103.306, 99.0356,103.865, 99.2867,104.44, 99.5012,105.031, 99.6782,105.633, 99.817,106.245, 99.9172,106.865, 99.9782,107.49, 99.9999,108.118" style="fill:lime;stroke:purple;stroke-width:1" />
<polygon points =" 119.98,108.777, 119.921,109.402, 119.823,110.022, 119.686,110.635, 119.511,111.238, 119.298,111.829, 119.049,112.405, 118.764,112.965, 118.445,113.505, 118.092,114.025, 117.707,114.521, 117.292,114.992, 116.848,115.436, 116.378,115.852, 115.882,116.237, 115.363,116.59, 114.822,116.91, 114.263,117.195, 113.687,117.445, 113.096,117.658, 112.493,117.834, 111.881,117.971, 111.261,118.07, 110.636,118.129, 110.008,118.15, 109.38,118.13, 108.755,118.072, 108.135,117.974, 107.522,117.838, 106.919,117.663, 106.328,117.451, 105.751,117.202, 105.192,116.918, 104.651,116.599, 104.131,116.246, 103.635,115.862, 103.163,115.447, 102.719,115.004, 102.303,114.533, 101.917,114.038, 101.564,113.519, 101.243,112.979, 100.958,112.42, 100.707,111.844, 100.494,111.253, 100.318,110.651, 100.18,110.038, 100.081,109.418, 100.021,108.793, 100,108.165, 100.019,107.538, 100.077,106.913, 100.174,106.292, 100.31,105.679, 100.484,105.076, 100.696,104.485, 100.944,103.908, 101.228,103.348, 101.547,102.807, 101.899,102.287, 102.282,101.79, 102.697,101.318, 103.14,100.874, 103.61,100.457, 104.105,100.072, 104.624,99.7175, 105.164,99.3968, 105.723,99.1105, 106.298,98.8599, 106.889,98.6459, 107.491,98.4694, 108.104,98.331, 108.724,98.2313, 109.349,98.1708, 109.976,98.1496, 110.604,98.1678, 111.229,98.2254, 111.849,98.322, 112.463,98.4575, 113.066,98.6311, 113.657,98.8423, 114.234,99.0902, 114.794,99.3738, 115.336,99.692, 115.856,100.043, 116.353,100.427, 116.825,100.841, 117.27,101.284, 117.687,101.753, 118.073,102.249, 118.428,102.767, 118.749,103.306, 119.036,103.865, 119.287,104.44, 119.501,105.031, 119.678,105.633, 119.817,106.245, 119.917,106.865, 119.978,107.49, 120,108.118" style="fill:lime;stroke:purple;stroke-width:1" />
<polygon points =" 139.98,108.777, 139.921,109.402, 139.823,110.022, 139.686,110.635, 139.511,111.238, 139.298,111.829, 139.049,112.405, 138.764,112.965, 138.445,113.505, 138.092,114.025, 137.707,114.521, 137.292,114.992, 136.848,115.436, 136.378,115.852, 135.882,116.237, 135.363,116.59, 134.822,116.91, 134.263,117.195, 133.687,117.445, 133.096,117.658, 132.493,117.834, 131.881,117.971, 131.261,118.07, 130.636,118.129, 130.008,118.15, 129.38,118.13, 128.755,118.072, 128.135,117.974, 127.522,117.838, 126.919,117.663, 126.328,117.451, 125.751,117.202, 125.192,116.918, 124.651,116.599, 124.131,116.246, 123.635,115.862, 123.163,115.447, 122.719,115.004, 122.303,114.533, 121.917,114.038, 121.564,113.519, 121.243,112.979, 120.958,112.42, 120.707,111.844, 120.494,111.253, 120.318,110.651, 120.18,110.038, 120.081,109.418, 120.021,108.793, 120,108.165, 120.019,107.538, 120.077,106.913, 120.174,106.292, 120.31,105.679, 120.484,105.076, 120.696,104.485, 120.944,103.908, 121.228,103.348, 121.547,102.807, 121.899,102.287, 122.282,101.79, 122.697,101.318, 123.14,100.874, 123.61,100.457, 124.105,100.072, 124.624,99.7175, 125.164,99.3968, 125.723,99.1105, 126.298,98.8599, 126.889,98.6459, 127.491,98.4694, 128.104,98.331, 128.724,98.2313, 129.349,98.1708, 129.976,98.1496, 130.604,98.1678, 131.229,98.2254, 131.849,98.322, 132.463,98.4575, 133.066,98.6311, 133.657,98.8423, 134.234,99.0902, 134.794,99.3738, 135.336,99.692, 135.856,100.043, 136.353,100.427, 136.825,100.841, 137.27,101.284, 137.687,101.753, 138.073,102.249, 138.428,102.767, 138.749,103.306, 139.036,103.865, 139.287,104.44, 139.501,105.031, 139.678,105.633, 139.817,106.245, 139.917,106.865, 139.978,107.49, 140,108.118" style="fill:lime;stroke:purple;stroke-width:1" />
<polygon points =" 159.98,108.777, 159.921,109.402, 159.823,110.022, 159.686,110.635, 159.511,111.238, 159.298,111.829, 159.049,112.405, 158.764,112.965, 158.445,113.505, 158.092,114.025, 157.707,114.521, 157.292,114.992, 156.848,115.436, 156.378,115.852, 155.882,116.237, 155.363,116.59, 154.822,116.91, 154.263,117.195, 153.687,117.445, 153.096,117.658, 152.493,117.834, 151.881,117.971, 151.261,118.07, 150.636,118.129, 150.008,118.15, 149.38,118.13, 148.755,118.072, 148.135,117.974, 147.522,117.838, 146.919,117.663, 146.328,117.451, 145.751,117.202, 145.192,116.918, 144.651,116.599, 144.131,116.246, 143.635,115.862, 143.163,115.447, 142.719,115.004, 142.303,114.533, 141.917,114.038, 141.564,113.519, 141.243,112.979, 140.958,112.42, 140.707,111.844, 140.494,111.253, 140.318,110.651, 140.18,110.038, 140.081,109.418, 140.021,108.793, 140,108.165, 140.019,107.538, 140.077,106.913, 140.174,106.292, 140.31,105.679, 140.484,105.076, 140.696,104.485, 140.944,103.908, 141.228,103.348, 141.547,102.807, 141.899,102.287, 142.282,101.79, 142.697,101.318, 143.14,100.874, 143.61,100.457, 144.105,100.072, 144.624,99.7175, 145.164,99.3968, 145.723,99.1105, 146.298,98.8599, 146.889,98.6459, 147.491,98.4694, 148.104,98.331, 148.724,98.2313, 149.349,98.1708, 149.976,98.1496, 150.604,98.1678, 151.229,98.2254, 151.849,98.322, 152.463,98.4575, 153.066,98.6311, 153.657,98.8423, 154.234,99.0902, 154.794,99.3738, 155.336,99.692, 155.856,100.043, 156.353,100.427, 156.825,100.841, 157.27,101.284, 157.687,101.753, 158.073,102.249, 158.428,102.767, 158.749,103.306, 159.036,103.865, 159.287,104.44, 159.501,105.031, 159.678,105.633, 159.817,106.245, 159.917,106.865, 159.978,107.49, 160,108.118" style="fill:lime;stroke:purple;stroke-width:1" />
<polygon points =" 69.9803,91.4566, 69.9212,92.0817, 69.8231,92.7019, 69.6861,93.3147, 69.5111,93.9177, 69.2985,94.5085, 69.0492,95.0848, 68.7643,95.6443, 68.4448,96.1849, 68.092,96.7043, 67.7074,97.2006, 67.2923,97.6717, 66.8485,98.1159, 66.3777,98.5313, 65.8817,98.9164, 65.3626,99.2696, 64.8223,99.5895, 64.263,99.8749, 63.6869,100.125, 63.0962,100.338, 62.4934,100.513, 61.8807,100.651, 61.2606,100.749, 60.6355,100.809, 60.008,100.829, 59.3804,100.81, 58.7552,100.751, 58.1349,100.654, 57.522,100.517, 56.9189,100.343, 56.3279,100.13, 55.7514,99.8816, 55.1917,99.5972, 54.6509,99.2781, 54.1312,98.9258, 53.6346,98.5415, 53.1631,98.1268, 52.7186,97.6833, 52.3028,97.2128, 51.9173,96.7172, 51.5637,96.1983, 51.2434,95.6583, 50.9576,95.0992, 50.7074,94.5233, 50.4939,93.9328, 50.3178,93.3301, 50.1799,92.7176, 50.0808,92.0975, 50.0207,91.4725, 50,90.845, 50.0187,90.2173, 50.0768,89.5921, 50.174,88.9718, 50.3099,88.3588, 50.484,87.7555, 50.6957,87.1644, 50.944,86.5877, 51.228,86.0277, 51.5467,85.4866, 51.8986,84.9667, 52.2825,84.4698, 52.6968,83.998, 53.1399,83.5531, 53.6101,83.1369, 54.1054,82.7511, 54.624,82.397, 55.1638,82.0763, 55.7226,81.79, 56.2983,81.5394, 56.8886,81.3254, 57.4912,81.1489, 58.1037,81.0105, 58.7236,80.9108, 59.3486,80.8503, 59.9761,80.8291, 60.6037,80.8473, 61.229,80.9048, 61.8494,81.0015, 62.4625,81.137, 63.0659,81.3106, 63.6572,81.5218, 64.2341,81.7697, 64.7944,82.0533, 65.3357,82.3715, 65.8559,82.723, 66.3531,83.1065, 66.8252,83.5204, 67.2705,83.9632, 67.687,84.433, 68.0733,84.928, 68.4277,85.4463, 68.7489,85.9858, 69.0356,86.5445, 69.2867,87.12, 69.5012,87.7101, 69.6782,88.3125, 69.817,88.9249, 69.9172,89.5447, 69.9782,90.1697, 69.9999,90.7972" style="fill:lime;stroke:purple;stroke-width:1" />
<polygon points =" 89.9803,91.4566, 89.9212,92.0817, 89.8231,92.7019, 89.6861,93.3147, 89.5111,93.9177, 89.2985,94.5085, 89.0492,95.0848, 88.7643,95.6443, 88.4448,96.1849, 88.092,96.7043, 87.7074,97.2006, 87.2923,97.6717, 86.8485,98.1159, 86.3777,98.5313, 85.8817,98.9164, 85.3626,99.2696, 84.8223,99.5895, 84.263,99.8749, 83.6869,100.125, 83.0962,100.338, 82.4934,100.513, 81.8807,100.651, 81.2606,100.749, 80.6355,100.809, 80.008,100.829, 79.3804,100.81, 78.7552,100.751, 78.1349,100.654, 77.522,100.517, 76.9189,100.343, 76.3279,100.13, 75.7514,99.8816, 75.1917,99.5972, 74.6509,99.2781, 74.1312,98.9258, 73.6346,98.5415, 73.1631,98.1268, 72.7186,97.6833, 72.3028,97.2128, 71.9173,96.7172, 71.5637,96.1983, 71.2434,95.6583, 70.9576,95.0992, 70.7074,94.5233, 70.4939,93.9328, 70.3178,93.3301, 70.1799,92.7176, 70.0808,92.0975, 70.0207,91.4725, 70,90.845, 70.0187,90.2173, 70.0768,89.5921, 70.174,88.9718, 70.3099,88.3588, 70.484,87.7555, 70.6957,87.1644, 70.944,86.5877, 71.228,86.0277, 71.5467,85.4866, 71.8986,84.9667, 72.2825,84.4698, 72.6968,83.998, 73.1399,83.5531, 73.6101,83.1369, 74.1054,82.7511, 74.624,82.397, 75.1638,82.0763, 75.7226,81.79, 76.2983,81.5394, 76.8886,81.3254, 77.4912,81.1489, 78.1037,81.0105, 78.7236,80.9108, 79.3486,80.8503, 79.9761,80.8291, 80.6037,80.8473, 81.229,80.9048, 81.8494,81.0015, 82.4625,81.137, 83.0659,81.3106, 83.6572,81.5218, 84.2341,81.7697, 84.7944,82.0533, 85.3357,82.3715, 85.8559,82.723, 86.3531,83.1065, 86.8252,83.5204, 87.2705,83.9632, 87.687,84.433, 88.0733,84.928, 88.4277,85.4463, 88.7489,85.9858, 89.0356,86.5445, 89.2867,87.12, 89.5012,87.7101, 89.6782,88.3125, 89.817,88.9249, 89.9172,89.5447, 89.9782,90.1697, 89.9999,90.7972" style="fill:lime;stroke:purple;stroke-width:1" />
<polygon points =" 109.98,91.4566, 109.921,92.0817, 109.823,92.7019, 109.686,93.3147, 109.511,93.9177, 109.298,94.5085, 109.049,95.0848, 108.764,95.6443, 108.445,96.1849, 108.092,96.7043, 107.707,97.2006, 107.292,97.6717, 106.848,98.1159, 106.378,98.5313, 105.882,98.9164, 105.363,99.2696, 104.822,99.5895, 104.263,99.8749, 103.687,100.125, 103.096,100.338, 102.493,100.513, 101.881,100.651, 101.261,100.749, 100.636,100.809, 100.008,100.829, 99.3804,100.81, 98.7552,100.751, 98.1349,100.654, 97.522,100.517, 96.9189,100.343, 96.3279,100.13, 95.7514,99.8816, 95.1917,99.5972, 94.6509,99.2781, 94.1312,98.9258, 93.6346,98.5415, 93.1631,98.1268, 92.7186,97.6833, 92.3028,97.2128, 91.9173,96.7172, 91.5637,96.1983, 91.2434,95.6583, 90.9576,95.0992, 90.7074,94.5233, 90.4939,93.9328, 90.3178,93.3301, 90.1799,92.7176, 90.0808,92.0975, 90.0207,91.4725, 90,90.845, 90.0187,90.2173, 90.0768,89.5921, 90.174,88.9718, 90.3099,88.3588, 90.484,87.7555, 90.6957,87.1644, 90.944,86.5877, 91.228,86.0277, 91.5467,85.4866, 91.8986,84.9667, 92.2825,84.4698, 92.6968,83.998, 93.1399,83.5531, 93.6101,83.1369, 94.1054,82.7511, 94.624,82.397, 95.1638,82.0763, 95.7226,81.79, 96.2983,81.5394, 96.8886,81.3254, 97.4912,81.1489, 98.1037,81.0105, 98.7236,80.9108, 99.3486,80.8503, 99.9761,80.8291, 100.604,80.8473, 101.229,80.9048, 101.849,81.0015, 102.463,81.137, 103.066,81.3106, 103.657,81.5218, 104.234,81.7697, 104.794,82.0533, 105.336,82.3715, 105.856,82.723, 106.353,83.1065, 106.825,83.5204, 107.27,83.9632, 107.687,84.433, 108.073,84.928, 108.428,85.4463, 108.749,85.9858, 109.036,86.5445, 109.287,87.12, 109.501,87.7101, 109.678,88.3125, 109.817,88.9249, 109.917,89.5447, 109.978,90.1697, 110,90.7972" style="fill:lime;stroke:purple;stroke-width:1" />
<polygon points =" 129.98,91.4566, 129.921,92.0817, 129.823,92.7019, 129.686,93.3147, 129.511,93.9177, 129.298,94.5085, 129.049,95.0848, 128.764,95.6443, 128.445,96.1849, 128.092,96.7043, 127.707,97.2006, 127.292,97.6717, 126.848,98.1159, 126.378,98.5313, 125.882,98.9164, 125.363,99.2696, 124.822,99.5895, 124.263,99.8749, 123.687,100.125, 123.096,100.338, 122.493,100.513, 121.881,100.651, 121.261,100.749, 120.636,100.809, 120.008,100.829, 119.38,100.81, 118.755,100.751, 118.135,100.654, 117.522,100.517, 116.919,100.343, 116.328,100.13, 115.751,99.8816, 115.192,99.5972, 114.651,99.2781, 114.131,98.9258, 113.635,98.5415, 113.163,98.1268, 112.719,97.6833, 112.303,97.2128, 111.917,96.7172, 111.564,96.1983, 111.243,95.6583, 110.958,95.0992, 110.707,94.5233, 110.494,93.9328, 110.318,93.3301, 110.18,92.7176, 110.081,92.0975, 110.021,91.4725, 110,90.845, 110.019,90.2173, 110.077,89.5921, 110.174,88.9718, 110.31,88.3588, 110.484,87.7555, 110.696,87.1644, 110.944,86.5877, 111.228,86.0277, 111.547,85.4866, 111.899,84.9667, 112.282,84.4698, 112.697,83.998, 113.14,83.5531, 113.61,83.1369, 114.105,82.7511, 114.624,82.397, 115.164,82.0763, 115.723,81.79, 116.298,81.5394, 116.889,81.3254, 117.491,81.1489, 118.104,81.0105, 118.724,80.9108, 119.349,80.8503, 119.976,80.8291, 120.604,80.8473, 121.229,80.9048, 121.849,81.0015, 122.463,81.137, 123.066,81.3106, 123.657,81.5218, 124.234,81.7697, 124.794,82.0533, 125.336,82.3715, 125.856,82.723, 126.353,83.1065, 126.825,83.5204, 127.27,83.9632, 127.687,84.433, 128.073,84.928, 128.428,85.4463, 128.749,85.9858, 129.036,86.5445, 129.287,87.12, 129.501,87.7101, 129.678,88.3125, 129.817,88.9249, 129.917,89.5447, 129.978,90.1697, 130,90.7972" style="fill:lime;stroke:purple;stroke-width:1" />
<polygon points =" 149.98,91.4566, 149.921,92.0817, 149.823,92.7019, 149.686,93.3147, 149.511,93.9177, 149.298,94.5085, 149.049,95.0848, 148.764,95.6443, 148.445,96.1849, 148.092,96.7043, 147.707,97.2006, 147.292,97.6717, 146.848,98.1159, 146.378,98.5313, 145.882,98.9164, 145.363,99.2696, 144.822,99.5895, 144.263,99.8749, 143.687,100.125, 143.096,100.338, 142.493,100.513, 141.881,100.651, 141.261,100.749, 140.636,100.809, 140.008,100.829, 139.38,100.81, 138.755,100.751, 138.135,100.654, 137.522,100.517, 136.919,100.343, 136.328,100.13, 135.751,99.8816, 135.192,99.5972, 134.651,99.2781, 134.131,98.9258, 133.635,98.5415, 133.163,98.1268, 132.719,97.6833, 132.303,97.2128, 131.917,96.7172, 131.564,96.1983, 131.243,95.6583, 130.958,95.0992, 130.707,94.5233, 130.494,93.9328, 130.318,93.3301, 130.18,92.7176, 130.081,92.0975, 130.021,91.4725, 130,90.845, 130.019,90.2173, 130.077,89.5921, 130.174,88.9718, 130.31,88.3588, 130.484,87.7555, 130.696,87.1644, 130.944,86.5877, 131.228,86.0277, 131.547,85.4866, 131.899,84.9667, 132.282,84.4698, 132.697,83.998, 133.14,83.5531, 133.61,83.1369, 134.105,82.7511, 134.624,82.397, 135.164,82.0763, 135.723,81.79, 136.298,81.5394, 136.889,81.3254, 137.491,81.1489, 138.104,81.0105, 138.724,80.9108, 139.349,80.8503, 139.976,80.8291, 140.604,80.8473, 141.229,80.9048, 141.849,81.0015, 142.463,81.137, 143.066,81.3106, 143.657,81.5218, 144.234,81.7697, 144.794,82.0533, 145.336,82.3715, 145.856,82.723, 146.353,83.1065, 146.825,83.5204, 147.27,83.9632, 147.687,84.433, 148.073,84.928, 148.428,85.4463, 148.749,85.9858, 149.036,86.5445, 149.287,87.12, 149.501,87.7101, 149.678,88.3125, 149.817,88.9249, 149.917,89.5447, 149.978,90.1697, 150,90.7972" style="fill:lime;stroke:purple;stroke-width:1" />
<polygon points =" 79.9803,74.1361, 79.9212,74.7612, 79.8231,75.3814, 79.6861,75.9942, 79.5111,76.5972, 79.2985,77.188, 79.0492,77.7643, 78.7643,78.3238, 78.4448,78.8644, 78.092,79.3838, 77.7074,79.8801, 77.2923,80.3512, 76.8485,80.7954, 76.3777,81.2108, 75.8817,81.5959, 75.3626,81.9491, 74.8223,82.269, 74.263,82.5544, 73.6869,82.8041, 73.0962,83.0171, 72.4934,83.1927, 71.8807,83.3301, 71.2606,83.4288, 70.6355,83.4883, 70.008,83.5085, 69.3804,83.4893, 68.7552,83.4308, 68.1349,83.3331, 67.522,83.1967, 66.9189,83.022, 66.3279,82.8099, 65.7514,82.5611, 65.1917,82.2767, 64.6509,81.9576, 64.1312,81.6052, 63.6346,81.221, 63.1631,80.8063, 62.7186,80.3628, 62.3028,79.8923, 61.9173,79.3967, 61.5637,78.8778, 61.2434,78.3378, 60.9576,77.7787, 60.7074,77.2028, 60.4939,76.6123, 60.3178,76.0096, 60.1799,75.397, 60.0808,74.777, 60.0207,74.152, 60,73.5245, 60.0187,72.8968, 60.0768,72.2716, 60.174,71.6513, 60.3099,71.0383, 60.484,70.435, 60.6957,69.8439, 60.944,69.2672, 61.228,68.7072, 61.5467,68.1661, 61.8986,67.6461, 62.2825,67.1493, 62.6968,66.6775, 63.1399,66.2326, 63.6101,65.8164, 64.1054,65.4305, 64.624,65.0765, 65.1638,64.7558, 65.7226,64.4695, 66.2983,64.2189, 66.8886,64.0049, 67.4912,63.8283, 68.1037,63.69, 68.7236,63.5903, 69.3486,63.5298, 69.9761,63.5086, 70.6037,63.5268, 71.229,63.5843, 71.8494,63.681, 72.4625,63.8165, 73.0659,63.9901, 73.6572,64.2013, 74.2341,64.4492, 74.7944,64.7328, 75.3357,65.0509, 75.8559,65.4025, 76.3531,65.786, 76.8252,66.1999, 77.2705,66.6427, 77.687,67.1125, 78.0733,67.6075, 78.4277,68.1258, 78.7489,68.6653, 79.0356,69.224, 79.2867,69.7995, 79.5012,70.3896, 79.6782,70.992, 79.817,71.6044, 79.9172,72.2242, 79.9782,72.8492, 79.9999,73.4767" style="fill:lime;stroke:purple;stroke-width:1" />
<polygon points =" 99.9803,74.1361, 99.9212,74.7612, 99.8231,75.3814, 99.6861,75.9942, 99.5111,76.5972, 99.2985,77.188, 99.0492,77.7643, 98.7643,78.3238, 98.4448,78.8644, 98.092,79.3838, 97.7074,79.8801, 97.2923,80.3512, 96.8485,80.7954, 96.3777,81.2108, 95.8817,81.5959, 95.3626,81.9491, 94.8223,82.269, 94.263,82.5544, 93.6869,82.8041, 93.0962,83.0171, 92.4934,83.1927, 91.8807,83.3301, 91.2606,83.4288, 90.6355,83.4883, 90.008,83.5085, 89.3804,83.4893, 88.7552,83.4308, 88.1349,83.3331, 87.522,83.1967, 86.9189,83.022, 86.3279,82.8099, 85.7514,82.5611, 85.1917,82.2767, 84.6509,81.9576, 84.1312,81.6052, 83.6346,81.221, 83.1631,80.8063, 82.7186,80.3628, 82.3028,79.8923, 81.9173,79.3967, 81.5637,78.8778, 81.2434,78.3378, 80.9576,77.7787, 80.7074,77.2028, 80.4939,76.6123, 80.3178,76.0096, 80.1799,75.397, 80.0808,74.777, 80.0207,74.152, 80,73.5245, 80.0187,72.8968, 80.0768,72.2716, 80.174,71.6513, 80.3099,71.0383, 80.484,70.435, 80.6957,69.8439, 80.944,69.2672, 81.228,68.7072, 81.5467,68.1661, 81.8986,67.6461, 82.2825,67.1493, 82.6968,66.6775, 83.1399,66.2326, 83.6101,65.8164, 84.1054,65.4305, 84.624,65.0765, 85.1638,64.7558, 85.7226,64.4695, 86.2983,64.2189, 86.8886,64.0049, 87.4912,63.8283, 88.1037,63.69, 88.7236,63.5903, 89.3486,63.5298, 89.9761,63.5086, 90.6037,63.5268, 91.229,63.5843, 91.8494,63.681, 92.4625,63.8165, 93.0659,63.9901, 93.6572,64.2013, 94.2341,64.4492, 94.7944,64.7328, 95.3357,65.0509, 95.8559,65.4025, 96.3531,65.786, 96.8252,66.1999, 97.2705,66.6427, 97.687,67.1125, 98.0733,67.6075, 98.4277,68.1258, 98.7489,68.6653, 99.0356,69.224, 99.2867,69.7995, 99.5012,70.3896, 99.6782,70.992, 99.817,71.6044, 99.9172,72.2242, 99.9782,72.8492, 99.9999,73.4767" style="fill:lime;stroke:purple;stroke-width:1" />
<polygon points =" 119.98,74.1361, 119.921,74.7612, 119.823,75.3814, 119.686,75.9942, 119.511,76.5972, 119.298,77.188, 119.049,77.7643, 118.764,78.3238, 118.445,78.8644, 118.092,79.3838, 117.707,79.8801, 117.292,80.3512, 116.848,80.7954, 116.378,81.2108, 115.882,81.5959, 115.363,81.9491, 114.822,82.269, 114.263,82.5544, 113.687,82.8041, 113.096,83.0171, 112.493,83.1927, 111.881,83.3301, 111.261,83.4288, 110.636,83.4883, 110.008,83.5085, 109.38,83.4893, 108.755,83.4308, 108.135,83.3331, 107.522,83.1967, 106.919,83.022, 106.328,82.8099, 105.751,82.5611, 105.192,82.2767, 104.651,81.9576, 104.131,81.6052, 103.635,81.221, 103.163,80.8063, 102.719,80.3628, 102.303,79.8923, 101.917,79.3967, 101.564,78.8778, 101.243,78.3378, 100.958,77.7787, 100.707,77.2028, 100.494,76.6123, 100.318,76.0096, 100.18,75.397, 100.081,74.777, 100.021,74.152, 100,73.5245, 100.019,72.8968, 100.077,72.2716, 100.174,71.6513, 100.31,71.0383, 100.484,70.435, 100.696,69.8439, 100.944,69.2672, 101.228,68.7072, 101.547,68.1661, 101.899,67.6461, 102.282,67.1493, 102.697,66.6775, 103.14,66.2326, 103.61,65.8164, 104.105,65.4305, 104.624,65.0765, 105.164,64.7558, 105.723,64.4695, 106.298,64.2189, 106.889,64.0049, 107.491,63.8283, 108.104,63.69, 108.724,63.5903, 109.349,63.5298, 109.976,63.5086, 110.604,63.5268, 111.229,63.5843, 111.849,63.681, 112.463,63.8165, 113.066,63.9901, 113.657,64.2013, 114.234,64.4492, 114.794,64.7328, 115.336,65.0509, 115.856,65.4025, 116.353,65.786, 116.825,66.1999, 117.27,66.6427, 117.687,67.1125, 118.073,67.6075, 118.428,68.1258, 118.749,68.6653, 119.036,69.224, 119.287,69.7995, 119.501,70.3896, 119.678,70.992, 119.817,71.6044, 119.917,72.2242, 119.978,72.8492, 120,73.4767" style="fill:lime;stroke:purple;stroke-width:1" />
<polygon points =" 139.98,74.1361, 139.921,74.7612, 139.823,75.3814, 139.686,75.9942, 139.511,76.5972, 139.298,77.188, 139.049,77.7643, 138.764,78.3238, 138.445,78.8644, 138.092,79.3838, 137.707,79.8801, 137.292,80.3512, 136.848,80.7954, 136.378,81.2108, 135.882,81.5959, 135.363,81.9491, 134.822,82.269, 134.263,82.5544, 133.687,82.8041, 133.096,83.0171, 132.493,83.1927, 131.881,83.3301, 131.261,83.4288, 130.636,83.4883, 130.008,83.5085, 129.38,83.4893, 128.755,83.4308, 128.135,83.3331, 127.522,83.1967, 126.919,83.022, 126.328,82.8099, 125.751,82.5611, 125.192,82.2767, 124.651,81.9576, 124.131,81.6052, 123.635,81.221, 123.163,80.8063, 122.719,80.3628, 122.303,79.8923, 121.917,79.3967, 121.564,78.8778, 121.243,78.3378, 120.958,77.7787, 120.707,77.2028, 120.494,76.6123, 120.318,76.0096, 120.18,75.397, 120.081,74.777, 120.021,74.152, 120,73.5245, 120.019,72.8968, 120.077,72.2716, 120.174,71.6513, 120.31,71.0383, 120.484,70.435, 120.696,69.8439, 120.944,69.2672, 121.228,68.7072, 121.547,68.1661, 121.899,67.6461, 122.282,67.1493, 122.697,66.6775, 123.14,66.2326, 123.61,65.8164, 124.105,65.4305, 124.624,65.0765, 125.164,64.7558, 125.723,64.4695, 126.298,64.2189, 126.889,64.0049, 127.491,63.8283, 128.104,63.69, 128.724,63.5903, 129.349,63.5298, 129.976,63.5086, 130.604,63.5268, 131.229,63.5843, 131.849,63.681, 132.463,63.8165, 133.066,63.9901, 133.657,64.2013, 134.234,64.4492, 134.794,64.7328, 135.336,65.0509, 135.856,65.4025, 136.353,65.786, 136.825,66.1999, 137.27,66.6427, 137.687,67.1125, 138.073,67.6075, 138.428,68.1258, 138.749,68.6653, 139.036,69.224, 139.287,69.7995, 139.501,70.3896, 139.678,70.992, 139.817,71.6044, 139.917,72.2242, 139.978,72.8492, 140,73.4767" style="fill:lime;stroke:purple;stroke-width:1" />
<polygon points =" 89.9803,56.8156, 89.9212,57.4407, 89.8231,58.0609, 89.6861,58.6737, 89.5111,59.2767, 89.2985,59.8675, 89.0492,60.4438, 88.7643,61.0033, 88.4448,61.5439, 88.092,62.0633, 87.7074,62.5596, 87.2923,63.0307, 86.8485,63.4749, 86.3777,63.8903, 85.8817,64.2754, 85.3626,64.6286, 84.8223,64.9485, 84.263,65.2338, 83.6869,65.4836, 83.0962,65.6966, 82.4934,65.8722, 81.8807,66.0096, 81.2606,66.1082, 80.6355,66.1678, 80.008,66.188, 79.3804,66.1688, 78.7552,66.1102, 78.1349,66.0126, 77.522,65.8761, 76.9189,65.7015, 76.3279,65.4894, 75.7514,65.2406, 75.1917,64.9561, 74.6509,64.6371, 74.1312,64.2847, 73.6346,63.9005, 73.1631,63.4858, 72.7186,63.0423, 72.3028,62.5718, 71.9173,62.0762, 71.5637,61.5573, 71.2434,61.0173, 70.9576,60.4582, 70.7074,59.8823, 70.4939,59.2918, 70.3178,58.6891, 70.1799,58.0765, 70.0808,57.4565, 70.0207,56.8315, 70,56.2039, 70.0187,55.5763, 70.0768,54.9511, 70.174,54.3308, 70.3099,53.7178, 70.484,53.1145, 70.6957,52.5234, 70.944,51.9467, 71.228,51.3867, 71.5467,50.8456, 71.8986,50.3256, 72.2825,49.8288, 72.6968,49.357, 73.1399,48.9121, 73.6101,48.4959, 74.1054,48.11, 74.624,47.756, 75.1638,47.4353, 75.7226,47.149, 76.2983,46.8984, 76.8886,46.6844, 77.4912,46.5078, 78.1037,46.3695, 78.7236,46.2698, 79.3486,46.2093, 79.9761,46.1881, 80.6037,46.2063, 81.229,46.2638, 81.8494,46.3605, 82.4625,46.496, 83.0659,46.6696, 83.6572,46.8808, 84.2341,47.1287, 84.7944,47.4122, 85.3357,47.7304, 85.8559,48.082, 86.3531,48.4655, 86.8252,48.8794, 87.2705,49.3221, 87.687,49.792, 88.0733,50.287, 88.4277,50.8053, 88.7489,51.3448, 89.0356,51.9034, 89.2867,52.479, 89.5012,53.0691, 89.6782,53.6715, 89.817,54.2839, 89.9172,54.9037, 89.9782,55.5286, 89.9999,56.1562" style="fill:lime;stroke:purple;stroke-width:1" />
<polygon points =" 109.98,56.8156, 109.921,57.4407, 109.823,58.0609, 109.686,58.6737, 109.511,59.2767, 109.298,59.8675, 109.049,60.4438, 108.764,61.0033, 108.445,61.5439, 108.092,62.0633, 107.707,62.5596, 107.292,63.0307, 106.848,63.4749, 106.378,63.8903, 105.882,64.2754, 105.363,64.6286, 104.822,64.9485, 104.263,65.2338, 103.687,65.4836, 103.096,65.6966, 102.493,65.8722, 101.881,66.0096, 101.261,66.1082, 100.636,66.1678, 100.008,66.188, 99.3804,66.1688, 98.7552,66.1102, 98.1349,66.0126, 97.522,65.8761, 96.9189,65.7015, 96.3279,65.4894, 95.7514,65.2406, 95.1917,64.9561, 94.6509,64.6371, 94.1312,64.2847, 93.6346,63.9005, 93.1631,63.4858, 92.7186,63.0423, 92.3028,62.5718, 91.9173,62.0762, 91.5637,61.5573, 91.2434,61.0173, 90.9576,60.4582, 90.7074,59.8823, 90.4939,59.2918, 90.3178,58.6891, 90.1799,58.0765, 90.0808,57.4565, 90.0207,56.8315, 90,56.2039, 90.0187,55.5763, 90.0768,54.9511, 90.174,54.3308, 90.3099,53.7178, 90.484,53.1145, 90.6957,52.5234, 90.944,51.9467, 91.228,51.3867, 91.5467,50.8456, 91.8986,50.3256, 92.2825,49.8288, 92.6968,49.357, 93.1399,48.9121, 93.6101,48.4959, 94.1054,48.11, 94.624,47.756, 95.1638,47.4353, 95.7226,47.149, 96.2983,46.8984, 96.8886,46.6844, 97.4912,46.5078, 98.1037,46.3695, 98.7236,46.2698, 99.3486,46.2093, 99.9761,46.1881, 100.604,46.2063, 101.229,46.2638, 101.849,46.3605, 102.463,46.496, 103.066,46.6696, 103.657,46.8808, 104.234,47.1287, 104.794,47.4122, 105.336,47.7304, 105.856,48.082, 106.353,48.4655, 106.825,48.8794, 107.27,49.3221, 107.687,49.792, 108.073,50.287, 108.428,50.8053, 108.749,51.3448, 109.036,51.9034, 109.287,52.479, 109.501,53.0691, 109.678,53.6715, 109.817,54.2839, 109.917,54.9037, 109.978,55.5286, 110,56.1562" style="fill:lime;stroke:purple;stroke-width:1" />
<polygon points =" 129.98,56.8156, 129.921,57.4407, 129.823,58.0609, 129.686,58.6737, 129.511,59.2767, 129.298,59.8675, 129.049,60.4438, 128.764,61.0033, 128.445,61.5439, 128.092,62.0633, 127.707,62.5596, 127.292,63.0307, 126.848,63.4749, 126.378,63.8903, 125.882,64.2754, 125.363,64.6286, 124.822,64.9485, 124.263,65.2338, 123.687,65.4836, 123.096,65.6966, 122.493,65.8722, 121.881,66.0096, 121.261,66.1082, 120.636,66.1678, 120.008,66.188, 119.38,66.1688, 118.755,66.1102, 118.135,66.0126, 117.522,65.8761, 116.919,65.7015, 116.328,65.4894, 115.751,65.2406, 115.192,64.9561, 114.651,64.6371, 114.131,64.2847, 113.635,63.9005, 113.163,63.4858, 112.719,63.0423, 112.303,62.5718, 111.917,62.0762, 111.564,61.5573, 111.243,61.0173, 110.958,60.4582, 110.707,59.8823, 110.494,59.2918, 110.318,58.6891, 110.18,58.0765, 110.081,57.4565, 110.021,56.8315, 110,56.2039, 110.019,55.5763, 110.077,54.9511, 110.174,54.3308, 110.31,53.7178, 110.484,53.1145, 110.696,52.5234, 110.944,51.9467, 111.228,51.3867, 111.547,50.8456, 111.899,50.3256, 112.282,49.8288, 112.697,49.357, 113.14,48.9121, 113.61,48.4959, 114.105,48.11, 114.624,47.756, 115.164,47.4353, 115.723,47.149, 116.298,46.8984, 116.889,46.6844, 117.491,46.5078, 118.104,46.3695, 118.724,46.2698, 119.349,46.2093, 119.976,46.1881, 120.604,46.2063, 121.229,46.2638, 121.849,46.3605, 122.463,46.496, 123.066,46.6696, 123.657,46.8808, 124.234,47.1287, 124.794,47.4122, 125.336,47.7304, 125.856,48.082, 126.353,48.4655, 126.825,48.8794, 127.27,49.3221, 127.687,49.792, 128.073,50.287, 128.428,50.8053, 128.749,51.3448, 129.036,51.9034, 129.287,52.479, 129.501,53.0691, 129.678,53.6715, 129.817,54.2839, 129.917,54.9037, 129.978,55.5286, 130,56.1562" style="fill:lime;stroke:purple;stroke-width:1" />
<polygon points =" 99.9803,39.4951, 99.9212,40.1202, 99.8231,40.7404, 99.6861,41.3532, 99.5111,41.9562, 99.2985,42.547, 99.0492,43.1233, 98.7643,43.6828, 98.4448,44.2234, 98.092,44.7428, 97.7074,45.2391, 97.2923,45.7102, 96.8485,46.1544, 96.3777,46.5698, 95.8817,46.9549, 95.3626,47.3081, 94.8223,47.628, 94.263,47.9133, 93.6869,48.163, 93.0962,48.3761, 92.4934,48.5517, 91.8807,48.6891, 91.2606,48.7877, 90.6355,48.8473, 90.008,48.8675, 89.3804,48.8483, 88.7552,48.7897, 88.1349,48.6921, 87.522,48.5556, 86.9189,48.381, 86.3279,48.1689, 85.7514,47.9201, 85.1917,47.6356, 84.6509,47.3166, 84.1312,46.9642, 83.6346,46.58, 83.1631,46.1653, 82.7186,45.7218, 82.3028,45.2513, 81.9173,44.7557, 81.5637,44.2368, 81.2434,43.6968, 80.9576,43.1377, 80.7074,42.5618, 80.4939,41.9713, 80.3178,41.3686, 80.1799,40.756, 80.0808,40.136, 80.0207,39.511, 80,38.8834, 80.0187,38.2558, 80.0768,37.6306, 80.174,37.0103, 80.3099,36.3973, 80.484,35.794, 80.6957,35.2029, 80.944,34.6262, 81.228,34.0662, 81.5467,33.5251, 81.8986,33.0051, 82.2825,32.5083, 82.6968,32.0365, 83.1399,31.5916, 83.6101,31.1754, 84.1054,30.7895, 84.624,30.4355, 85.1638,30.1147, 85.7226,29.8285, 86.2983,29.5779, 86.8886,29.3639, 87.4912,29.1873, 88.1037,29.049, 88.7236,28.9493, 89.3486,28.8888, 89.9761,28.8675, 90.6037,28.8858, 91.229,28.9433, 91.8494,29.04, 92.4625,29.1755, 93.0659,29.3491, 93.6572,29.5603, 94.2341,29.8082, 94.7944,30.0917, 95.3357,30.4099, 95.8559,30.7615, 96.3531,31.1449, 96.8252,31.5589, 97.2705,32.0016, 97.687,32.4715, 98.0733,32.9665, 98.4277,33.4848, 98.7489,34.0243, 99.0356,34.5829, 99.2867,35.1584, 99.5012,35.7486, 99.6782,36.351, 99.817,36.9634, 99.9172,37.5832, 99.9782,38.2081, 99.9999,38.8357" style="fill:lime;stroke:purple;stroke-width:1" />
<polygon points =" 119.98,39.4951, 119.921,40.1202, 119.823,40.7404, 119.686,41.3532, 119.511,41.9562, 119.298,42.547, 119.049,43.1233, 118.764,43.6828, 118.445,44.2234, 118.092,44.7428, 117.707,45.2391, 117.292,45.7102, 116.848,46.1544, 116.378,46.5698, 115.882,46.9549, 115.363,47.3081, 114.822,47.628, 114.263,47.9133, 113.687,48.163, 113.096,48.3761, 112.493,48.5517, 111.881,48.6891, 111.261,48.7877, 110.636,48.8473, 110.008,48.8675, 109.38,48.8483, 108.755,48.7897, 108.135,48.6921, 107.522,48.5556, 106.919,48.381, 106.328,48.1689, 105.751,47.9201, 105.192,47.6356, 104.651,47.3166, 104.131,46.9642, 103.635,46.58, 103.163,46.1653, 102.719,45.7218, 102.303,45.2513, 101.917,44.7557, 101.564,44.2368, 101.243,43.6968, 100.958,43.1377, 100.707,42.5618, 100.494,41.9713, 100.318,41.3686, 100.18,40.756, 100.081,40.136, 100.021,39.511, 100,38.8834, 100.019,38.2558, 100.077,37.6306, 100.174,37.0103, 100.31,36.3973, 100.484,35.794, 100.696,35.2029, 100.944,34.6262, 101.228,34.0662, 101.547,33.5251, 101.899,33.0051, 102.282,32.5083, 102.697,32.0365, 103.14,31.5916, 103.61,31.1754, 104.105,30.7895, 104.624,30.4355, 105.164,30.1147, 105.723,29.8285, 106.298,29.5779, 106.889,29.3639, 107.491,29.1873, 108.104,29.049, 108.724,28.9493, 109.349,28.8888, 109.976,28.8675, 110.604,28.8858, 111.229,28.9433, 111.849,29.04, 112.463,29.1755, 113.066,29.3491, 113.657,29.5603, 114.234,29.8082, 114.794,30.0917, 115.336,30.4099, 115.856,30.7615, 116.353,31.1449, 116.825,31.5589, 117.27,32.0016, 117.687,32.4715, 118.073,32.9665, 118.428,33.4848, 118.749,34.0243, 119.036,34.5829, 119.287,35.1584, 119.501,35.7486, 119.678,36.351, 119.817,36.9634, 119.917,37.5832, 119.978,38.2081, 120,38.8357" style="fill:lime;stroke:purple;stroke-width:1" />
<polygon points =" 109.98,22.1746, 109.921,22.7997, 109.823,23.4199, 109.686,24.0327, 109.511,24.6357, 109.298,25.2265, 109.049,25.8028, 108.764,26.3623, 108.445,26.9029, 108.092,27.4223, 107.707,27.9185, 107.292,28.3897, 106.848,28.8339, 106.378,29.2493, 105.882,29.6344, 105.363,29.9876, 104.822,30.3075, 104.263,30.5928, 103.687,30.8425, 103.096,31.0556, 102.493,31.2312, 101.881,31.3686, 101.261,31.4672, 100.636,31.5268, 100.008,31.547, 99.3804,31.5278, 98.7552,31.4692, 98.1349,31.3715, 97.522,31.2351, 96.9189,31.0605, 96.3279,30.8484, 95.7514,30.5996, 95.1917,30.3151, 94.6509,29.9961, 94.1312,29.6437, 93.6346,29.2594, 93.1631,28.8448, 92.7186,28.4013, 92.3028,27.9308, 91.9173,27.4352, 91.5637,26.9163, 91.2434,26.3763, 90.9576,25.8172, 90.7074,25.2413, 90.4939,24.6508, 90.3178,24.0481, 90.1799,23.4355, 90.0808,22.8155, 90.0207,22.1905, 90,21.5629, 90.0187,20.9353, 90.0768,20.3101, 90.174,19.6898, 90.3099,19.0768, 90.484,18.4735, 90.6957,17.8824, 90.944,17.3056, 91.228,16.7457, 91.5467,16.2046, 91.8986,15.6846, 92.2825,15.1877, 92.6968,14.7159, 93.1399,14.2711, 93.6101,13.8549, 94.1054,13.469, 94.624,13.115, 95.1638,12.7942, 95.7226,12.508, 96.2983,12.2574, 96.8886,12.0434, 97.4912,11.8668, 98.1037,11.7285, 98.7236,11.6288, 99.3486,11.5682, 99.9761,11.547, 100.604,11.5652, 101.229,11.6228, 101.849,11.7195, 102.463,11.8549, 103.066,12.0286, 103.657,12.2398, 104.234,12.4876, 104.794,12.7712, 105.336,13.0894, 105.856,13.441, 106.353,13.8244, 106.825,14.2384, 107.27,14.6811, 107.687,15.1509, 108.073,15.646, 108.428,16.1643, 108.749,16.7038, 109.036,17.2624, 109.287,17.8379, 109.501,18.4281, 109.678,19.0305, 109.817,19.6429, 109.917,20.2627, 109.978,20.8876, 110,21.5152" style="fill:lime;stroke:purple;stroke-width:1" />
</svg>
